<svg width="141" height="46" viewBox="0 0 141 46" fill="none" xmlns="http://www.w3.org/2000/svg">
<path d="M22.751 40.524C20.7568 40.5209 18.7772 40.1844 16.894 39.5284V44.7398C20.7391 45.7664 24.7862 45.7664 28.6313 44.7398V39.5284C26.7431 40.1861 24.7581 40.5227 22.7587 40.524H22.751ZM22.751 4.98568C24.7507 4.98275 26.7364 5.3194 28.6235 5.98129V0.769928C24.7784 -0.256643 20.7313 -0.256643 16.8862 0.769928V5.98129C18.7707 5.31998 20.7538 4.98333 22.751 4.98568ZM4.98568 22.7587C4.98275 20.759 5.3194 18.7733 5.98129 16.8862H0.769928C-0.256643 20.7313 -0.256643 24.7784 0.769928 28.6235H6.00462C5.34331 26.739 5.00666 24.7559 5.00902 22.7587H4.98568ZM38.3539 31.268C38.8145 30.4188 39.2072 29.5345 39.5284 28.6235H28.639V39.5129C29.5501 39.1916 30.4344 38.7989 31.2836 38.3384L34.9238 41.9708C37.7755 40.1613 40.1924 37.7443 42.0019 34.8927L38.3539 31.268ZM14.2339 7.15579L10.6015 3.52339C7.74625 5.32844 5.32844 7.74625 3.52339 10.6015L7.15579 14.2339C6.69344 15.0849 6.30066 15.9719 5.98129 16.8862H16.8707V5.99684C15.9575 6.31964 15.0708 6.71243 14.2183 7.17134" fill="#CD242F"/>
<path d="M9.80051 28.6234H6.00477C6.32415 29.5377 6.71692 30.4247 7.17927 31.2758L3.54688 34.9082C5.35416 37.7616 7.77152 40.179 10.625 41.9863L14.2574 38.3539C15.1052 38.8128 15.9865 39.2048 16.8942 39.5284V28.639L9.80051 28.6234ZM41.9865 10.6014C40.1792 7.74795 37.7619 5.33058 34.9084 3.52333L31.2682 7.15573C30.4206 6.69198 29.536 6.29914 28.6236 5.98123V16.8706H39.513C39.1903 15.9576 38.7977 15.0709 38.3385 14.2183L41.9865 10.6014Z" fill="#CD242F"/>
<path d="M49.5621 34.6595L48.6132 32.9794L47.6565 34.6595H49.5621ZM49.1343 32.2249L51.5689 36.2696H50.4644L49.951 35.3751H47.2754L46.7698 36.2696H45.782L48.1854 32.2249H49.1343ZM55.4813 35.554H57.7059C57.8298 35.5644 57.9535 35.5314 58.0559 35.4607C58.0907 35.4251 58.1172 35.3822 58.1333 35.3351C58.1495 35.288 58.1549 35.2379 58.1492 35.1884V34.8773C58.1544 34.8279 58.1487 34.7779 58.1325 34.7309C58.1164 34.6839 58.0903 34.6409 58.0559 34.6051C57.9483 34.5335 57.8185 34.5031 57.6903 34.5195H55.4813V35.554ZM55.4813 32.8939V33.8506H57.6825C57.8071 33.8643 57.9327 33.837 58.0403 33.7728C58.0693 33.7467 58.0915 33.714 58.1051 33.6774C58.1186 33.6408 58.1231 33.6015 58.1181 33.5628V33.1817C58.1206 33.1402 58.1142 33.0986 58.0994 33.0597C58.0847 33.0208 58.0619 32.9855 58.0325 32.9561C58.0325 32.9561 57.9314 32.8939 57.6825 32.8939H55.4813ZM58.1414 32.2249C58.4152 32.1938 58.6913 32.2638 58.9192 32.4194C58.9923 32.4971 59.0487 32.5889 59.0848 32.6893C59.121 32.7896 59.1361 32.8963 59.1293 33.0028V33.4928C59.1328 33.58 59.1173 33.667 59.0837 33.7477C59.0501 33.8283 58.9993 33.9006 58.9348 33.9595C58.7954 34.0831 58.6219 34.1617 58.437 34.185C58.626 34.2076 58.8026 34.2893 58.9426 34.4184C59.0787 34.5638 59.1539 34.7559 59.1526 34.9551V35.4762C59.1586 35.5965 59.1313 35.716 59.0736 35.8217C59.016 35.9274 58.9303 36.0151 58.8259 36.0751C58.563 36.2146 58.2677 36.2817 57.9703 36.2696H54.5324V32.2249H58.1414ZM65.1107 36.2696H64.1306V32.9405H62.1705V32.2172H67.0707V32.9405H65.1107V36.2696ZM74.4522 32.9872H71.1698V35.4995H74.4522V32.9872ZM70.1898 33.1817C70.1605 32.9029 70.2415 32.6237 70.4153 32.4038C70.6456 32.2543 70.9202 32.1884 71.1932 32.2172H74.3589C74.6571 32.1891 74.956 32.2632 75.2067 32.4272C75.3731 32.6504 75.4455 32.9289 75.4089 33.205V35.3829C75.4307 35.6284 75.3584 35.8731 75.2067 36.0674C75.0872 36.159 74.9508 36.226 74.8053 36.2647C74.6598 36.3035 74.5081 36.313 74.3589 36.2929H71.2476C70.9466 36.3254 70.6438 36.2511 70.392 36.0829C70.2314 35.8573 70.1594 35.5804 70.1898 35.3051V33.1817ZM79.8502 33.4928L78.878 33.3528V33.1117C78.8655 32.9857 78.879 32.8586 78.9178 32.7381C78.9566 32.6177 79.0199 32.5065 79.1035 32.4116C79.3363 32.2681 79.6088 32.2027 79.8814 32.2249H82.6426C82.8693 32.2107 83.0942 32.2737 83.2804 32.4038C83.3638 32.4782 83.4284 32.5712 83.469 32.6753C83.5095 32.7794 83.5249 32.8916 83.5137 33.0028V33.4928C83.516 33.5799 83.4999 33.6665 83.4664 33.7469C83.4329 33.8273 83.3828 33.8998 83.3193 33.9595C83.1772 34.0789 83.005 34.157 82.8215 34.185C83.0105 34.206 83.1886 34.2877 83.3271 34.4184C83.3971 34.4884 83.4523 34.5724 83.4889 34.665C83.5246 34.7574 83.541 34.8561 83.5371 34.9551V35.4762C83.5465 35.6219 83.5074 35.7666 83.4257 35.8877C83.3441 36.0088 83.2246 36.0993 83.086 36.1451C82.8363 36.2338 82.5726 36.2766 82.3081 36.2696H79.8969C79.5842 36.3002 79.2713 36.2143 79.018 36.0285C78.8881 35.836 78.8227 35.6072 78.8313 35.3751V35.0718L79.8113 34.8695V35.554H82.0748C82.2063 35.5673 82.3383 35.5343 82.4481 35.4607C82.4835 35.4285 82.511 35.3886 82.5285 35.3441C82.5461 35.2996 82.5532 35.2516 82.5493 35.204V34.854C82.5516 34.8077 82.5437 34.7614 82.5259 34.7186C82.5088 34.6754 82.4822 34.6366 82.4481 34.6051C82.3477 34.537 82.2265 34.5067 82.1059 34.5195H80.5892V33.8506H82.1448C82.246 33.8616 82.3478 33.8368 82.4326 33.7806C82.4613 33.7523 82.4838 33.7183 82.4985 33.6808C82.5132 33.6433 82.5199 33.6031 82.5181 33.5628V33.1739C82.5219 33.1334 82.5161 33.0926 82.5013 33.0548C82.4864 33.017 82.4629 32.9832 82.4326 32.9561C82.3272 32.902 82.2081 32.8803 82.0903 32.8939H79.858L79.8502 33.4928ZM90.2574 34.6595L89.3085 32.9794L88.3518 34.6595H90.2574ZM89.8296 32.2249L92.2642 36.2696H91.1597L90.6541 35.3751H87.9706L87.465 36.2696H86.4772L88.8807 32.2249H89.8296ZM100.151 32.2172V36.2696H99.1712V33.0261H96.161V36.2696H95.181V32.2172H100.151ZM108.233 32.2249V36.2696H107.253V34.7917H104.585C104.333 34.8105 104.082 34.7478 103.869 34.6128C103.787 34.5372 103.724 34.444 103.683 34.3403C103.643 34.2365 103.627 34.1249 103.636 34.0139V32.2249H104.554V33.695C104.548 33.7417 104.554 33.789 104.572 33.8326C104.59 33.8762 104.618 33.9145 104.655 33.9439C104.742 34.0013 104.846 34.0286 104.95 34.0217H107.284V32.2172L108.233 32.2249ZM115.109 34.6595L114.16 32.9794L113.203 34.6595H115.109ZM114.681 32.2249L117.115 36.2696H116.011L115.497 35.3751H112.822L112.316 36.2696H111.328L113.732 32.2249H114.681ZM124.582 35.3129C124.602 35.4517 124.591 35.5931 124.551 35.7274C124.511 35.8617 124.442 35.9856 124.349 36.0907C124.104 36.2536 123.809 36.3227 123.517 36.2851H120.989C120.697 36.3144 120.403 36.243 120.157 36.0829C120.069 35.9749 120.005 35.8502 119.968 35.7164C119.93 35.5827 119.92 35.4427 119.939 35.3051V33.1739C119.919 33.0356 119.928 32.8947 119.967 32.7605C120.006 32.6263 120.073 32.5021 120.164 32.3961C120.41 32.2414 120.701 32.1755 120.989 32.2094H123.517C123.808 32.1703 124.103 32.2365 124.349 32.3961C124.441 32.5019 124.509 32.6255 124.549 32.7601C124.589 32.8939 124.601 33.0347 124.582 33.1739V33.5783L123.602 33.7261V32.9483H120.911V35.4607H123.602V34.6051L124.582 34.8073V35.3129ZM130.517 36.2696H129.545V32.9405H127.577V32.2172H132.477V32.9405H130.517V36.2696ZM136.638 32.2172V35.1651L140.131 32.2172H140.916V36.2696H139.936V33.3217L136.444 36.2696H135.666V32.2172H136.638ZM15.3772 23.7079V24.1046C15.3772 24.3301 16.0928 24.509 16.9328 24.509H19.4685C20.3474 24.509 21.0241 24.3301 21.0241 24.1123V23.7079H15.3772ZM11.4881 18.9632H22.3775C23.9331 18.9632 25.1621 19.5388 25.1621 21.0789V24.2835C25.1621 25.8391 23.9176 26.3991 22.3775 26.3991H14.2494C12.6937 26.3991 11.4648 25.5202 11.4726 24.4468V22.7278C11.4726 22.2456 11.9315 21.7789 12.7793 21.7789H21.0941V21.3978C21.0941 21.1878 20.3863 21.0166 19.5385 21.0166H11.4492L11.4881 18.9632ZM39.7617 24.2912C39.7617 25.8469 38.5172 26.3991 36.9771 26.3991H29.0278C27.4722 26.3991 26.2433 25.8235 26.2433 24.2912V18.9632H30.3812V23.5834C30.3812 24.4624 31.0968 24.5012 31.9369 24.5012H34.2703C35.1492 24.5012 35.8259 24.4624 35.8259 23.5834V18.9554H39.645L39.7617 24.2912ZM52.1056 26.3991H43.6507C42.9115 26.3971 42.2033 26.102 41.6813 25.5785C41.1593 25.0551 40.8662 24.346 40.8662 23.6068V16.2331H44.7552V18.9632H52.09V20.8766H44.7708V24.4079H52.0978L52.1056 26.3991ZM57.4336 21.7867V23.4901C57.4336 24.369 58.1492 24.4079 59.0281 24.4079H60.9882C61.8672 24.4079 62.5439 24.369 62.5439 23.4901V21.7867C62.5439 20.9077 61.8361 20.8766 60.9882 20.8766H59.0204C58.1414 20.8766 57.4258 20.8766 57.4647 21.7867H57.4336ZM64.0373 26.3991H56.0258C54.4701 26.3991 53.2412 25.8235 53.2412 24.2912V21.0789C53.2412 19.5232 54.4935 18.9632 56.0258 18.9632H64.0295C65.5851 18.9632 66.8141 19.5388 66.8218 21.0789V24.2912C66.8218 25.8469 65.5773 26.3991 64.0373 26.3991ZM86.8039 21.7867V23.4901C86.8039 24.369 87.5195 24.4079 88.3984 24.4079H90.3585C91.2374 24.4079 91.9141 24.369 91.9141 23.4901V21.7867C91.9141 20.9077 91.2063 20.8766 90.3585 20.8766H88.3906C87.5117 20.8766 86.7961 20.8766 86.835 21.7867H86.8039ZM93.4075 26.3991H85.3416C83.786 26.3991 82.557 25.8235 82.557 24.2912V21.0789C82.557 19.5232 83.8093 18.9632 85.3416 18.9632H93.3453C94.901 18.9632 96.1299 19.5388 96.1377 21.0789V24.2912C96.1377 25.8469 94.8932 26.3991 93.3531 26.3991H93.4075ZM77.2601 23.4901C77.2601 24.369 76.5523 24.4079 75.7045 24.4079H73.7444C72.8655 24.4079 72.1499 24.369 72.1499 23.4901V21.7867C72.1499 20.9077 72.8577 20.8766 73.7055 20.8766H75.6734C76.5523 20.8766 77.229 20.8766 77.229 21.7867L77.2601 23.4901ZM81.4759 16.2331H77.2601V18.9632H70.6798C69.1242 18.9632 67.8952 19.5388 67.8952 21.0789V24.2912C67.8952 25.8469 69.1475 26.3991 70.6798 26.3991H78.6913C80.2469 26.3991 81.4759 25.8235 81.4759 24.2912V16.2331ZM105.044 24.4079H103.084C102.205 24.4079 101.489 24.369 101.489 23.4901V21.7867C101.489 20.9077 102.197 20.8766 103.045 20.8766H110.823V18.9632H100.05C98.4945 18.9632 97.2655 19.5388 97.2655 21.0789V24.2912C97.2655 25.8469 98.5178 26.3991 100.05 26.3991H110.838V24.4079H105.044Z" fill="#363E52"/>
<path d="M140.917 27.9857C140.917 29.5413 139.673 30.0936 138.133 30.0936H130.183C128.628 30.0936 127.399 29.518 127.399 27.9857V22.6577H131.529V27.2857C131.529 28.1724 132.244 28.2035 133.123 28.2035H135.457C136.336 28.2035 137.051 28.2035 137.051 27.2857V22.6577H140.87L140.917 27.9857ZM116.758 30.0936V25.4889C116.758 24.6022 117.466 24.5711 118.314 24.5711H126.092V22.6654H115.319C113.764 22.6654 112.535 23.2332 112.535 24.7733V30.0936H116.758ZM110.823 28.1957H108.436V30.0858H110.823V28.1957Z" fill="#CD242F"/>
</svg>
