<svg width="51" height="27" viewBox="0 0 51 27" fill="none" xmlns="http://www.w3.org/2000/svg">
<path d="M50.2303 0.171816L50.1847 0.124831L50.048 0.0778465C48.9089 -0.0161226 47.952 -0.0161225 46.904 0.030862L45.2637 0.0778465C34.1457 0.0778465 14.0515 1.62834 4.84727 11.871C1.24761 15.9116 -0.347176 20.892 0.0629112 26.7181L0.108477 26.953L27.6755 27L27.8577 26.6711L27.8122 26.5302C26.3996 23.3822 25.2605 18.5898 27.7666 13.6564C30.8195 7.59538 38.52 3.2728 50.0936 1.06452L50.2303 1.01754L50.2759 0.876584V0.359754L50.2303 0.171816Z" fill="#003DA6"/>
<path d="M45.6283 0.735393C46.6763 0.641424 50.0025 0.50047 50.0481 0.50047C50.0481 0.453486 50.0481 0.359517 50.0481 0.312532C48.3166 0.124594 47.0408 0.312532 45.2637 0.312532C22.071 0.312532 -1.21285 6.5145 0.290801 26.7179C2.84246 26.7179 6.12316 26.7179 8.81151 26.7179C6.48768 9.05166 24.5771 2.2389 45.6283 0.735393Z" fill="white"/>
<path d="M50.0478 0.594727C42.484 1.39346 14.1424 5.43414 18.3799 26.7181H27.493C27.493 26.7181 27.6297 26.6242 27.6297 26.5772C23.4832 17.2273 26.8095 5.2462 50.0478 0.782665C50.0478 0.73568 50.0478 0.641711 50.0478 0.594727Z" fill="#ED1C2E"/>
<path fill-rule="evenodd" clip-rule="evenodd" d="M39.7044 23.7108C38.6108 24.3216 37.3805 24.6505 35.968 24.6505C34.8745 24.6505 33.8265 24.4626 32.9151 24.0867C32.0038 23.7108 31.3204 23.194 30.8647 22.4892C30.5913 22.0663 30.4091 21.5965 30.4091 21.1736C30.4091 20.187 30.9558 19.3882 32.095 18.6835C33.1885 18.0257 34.4644 17.6968 35.968 17.6968C37.3805 17.6968 38.6108 18.0257 39.7044 18.6365V20.4219C39.2032 19.8581 38.7019 19.4352 38.2007 19.1533C37.5628 18.7774 36.7882 18.5895 35.968 18.5895C34.92 18.5895 34.0087 18.8244 33.3252 19.3412C32.6418 19.8581 32.2772 20.4689 32.2772 21.1736C32.2772 21.8784 32.5962 22.4892 33.3252 22.959C34.0543 23.4759 34.92 23.7578 36.0136 23.7578C37.3805 23.7578 38.6108 23.147 39.7499 21.8784V23.7108H39.7044Z" fill="#003DA6"/>
<path fill-rule="evenodd" clip-rule="evenodd" d="M48.3161 17.6499V18.0258C47.5415 17.7909 46.7213 17.6499 45.8556 17.6499C44.3519 17.6499 43.0761 17.9788 41.9825 18.6366C40.889 19.2944 40.2966 20.1401 40.2966 21.1268C40.2966 21.5966 40.4333 22.0195 40.7523 22.4423C41.2079 23.1001 41.8914 23.6169 42.8027 24.0398C43.714 24.4157 44.762 24.6036 45.8556 24.6036C46.7213 24.6036 47.5871 24.4627 48.3161 24.2277V24.7916H50.1387V17.6499H48.3161ZM45.8556 23.7109C44.8076 23.7109 43.8963 23.429 43.1672 22.9122C42.4838 22.3953 42.1192 21.8315 42.1192 21.1268C42.1192 20.422 42.4838 19.8112 43.1672 19.2944C43.8963 18.7775 44.762 18.5426 45.81 18.5426C46.6302 18.5426 47.3593 18.7305 48.0427 19.1064C48.1339 19.1534 48.225 19.2004 48.3161 19.2474V22.8652C47.5415 23.476 46.7213 23.7109 45.8556 23.7109Z" fill="#003DA6"/>
<path fill-rule="evenodd" clip-rule="evenodd" d="M28.1766 18.8719C27.083 18.2141 25.8072 17.8853 24.3035 17.8853C23.3922 17.8853 22.572 18.0262 21.843 18.2611V17.8853H20.0204V26.7653H21.843V24.5101C22.6176 24.745 23.4378 24.886 24.3035 24.886C25.3971 24.886 26.4451 24.698 27.3564 24.3221C28.2677 23.9463 28.9512 23.4294 29.4068 22.7247C29.6802 22.3018 29.8625 21.832 29.8625 21.4091C29.8625 20.3754 29.2701 19.5767 28.1766 18.8719ZM26.9919 23.1475C26.2628 23.6644 25.3971 23.9463 24.3035 23.9463C23.4378 23.9463 22.572 23.6644 21.843 23.1945V19.5767C21.9341 19.5297 22.0253 19.4827 22.1164 19.4357C22.7543 19.0599 23.5289 18.8719 24.3491 18.8719C25.3971 18.8719 26.3084 19.1069 26.9919 19.6237C27.6754 20.1405 28.0399 20.7513 28.0399 21.4561C27.9943 22.0669 27.6754 22.6777 26.9919 23.1475Z" fill="#003DA6"/>
</svg>
