<svg width="18" height="20" viewBox="0 0 18 20" fill="none" xmlns="http://www.w3.org/2000/svg">
<path opacity="0.7" d="M17.8578 3.75729L17.7422 3.92065C17.8116 3.45391 17.7191 2.80047 17.6034 2.42707C17.4415 3.03384 17.1409 3.57059 16.7246 4.08401L16.7015 3.78063C16.2158 4.55076 15.6145 5.18086 14.9438 5.48425C14.9438 5.36756 14.9206 5.22754 14.8744 5.13419C13.9955 6.30105 11.8678 6.021 12.0991 8.37806C12.5848 8.30805 12.816 8.79813 12.3997 9.26488C12.2147 9.26488 12.0297 9.19487 11.8678 9.10152L11.9603 8.96149L11.5903 8.7748C11.6828 8.75146 11.7753 8.70478 11.8678 8.65811C11.3128 8.37806 11.4978 7.84131 10.8502 7.56126C10.7346 7.44457 10.6421 7.28121 10.5727 7.11785C10.5495 7.00117 10.5264 6.86114 10.5033 6.72112C10.5033 6.44107 10.5033 6.27771 10.5727 6.16103L10.6189 6.23104C10.7808 5.85764 10.989 5.5776 11.2665 5.41424C12.0297 5.43757 12.4691 5.3909 12.6079 4.92415C12.5616 4.94749 12.5385 4.94749 12.5154 4.94749C12.4923 4.90082 12.4691 4.87748 12.446 4.85414C12.631 4.78413 12.9085 4.90082 12.9779 4.90082C12.9548 4.66744 12.8623 4.59743 12.816 4.50408L13.0704 4.31739C13.718 4.52742 14.2731 4.03734 14.6662 4.24737L14.805 3.75729C14.2268 3.47725 13.8799 3.85064 13.3942 3.85064C13.533 3.54726 13.5561 3.26721 13.4405 2.98716L12.9317 2.8238C12.3072 3.0105 12.3304 3.59393 12.5616 3.99066C12.4229 4.13069 12.2841 4.2007 12.1916 4.24737L12.0297 4.27071C12.0297 4.27071 12.0066 4.06068 11.729 3.99066V3.85064C12.076 3.57059 12.0991 3.29055 12.0297 3.12719C11.9603 2.96383 11.7753 2.87048 11.6134 2.91715L11.3821 2.98716L11.359 2.94049C11.3821 2.91715 11.3821 2.89382 11.3821 2.87048C11.3821 2.8238 11.359 2.77713 11.3359 2.75379H11.359L11.3359 2.66044L11.4284 2.68378V2.35706L11.3359 2.3804L11.359 2.28705H11.0352L11.0583 2.3804L10.9658 2.35706V2.68378L11.0583 2.66044L10.9658 2.77713H11.0121C10.989 2.80047 10.9658 2.84714 10.9658 2.89382C10.9658 2.91715 10.9658 2.96383 10.989 2.98716L10.9658 3.03384L10.7346 2.96383C10.5727 2.91715 10.3877 2.98716 10.3183 3.17386C10.2489 3.33722 10.272 3.59393 10.6189 3.89732V4.08401C10.5264 4.08401 10.4339 4.08401 10.3645 4.08401C10.087 3.92065 9.85572 3.64061 9.78634 3.29055C9.97136 3.26721 10.1101 3.1972 10.2258 3.08051V2.59043C10.9658 2.03034 11.174 1.28355 10.5264 0.956826C10.1564 0.770128 9.69383 0.933489 9.46255 1.12019C9.4163 1.05017 9.34691 0.980163 9.27753 0.956826C9.27753 0.886814 9.2544 0.816803 9.18502 0.746791H9.23128L9.18502 0.583431L9.34691 0.630105V0.116686L9.18502 0.163361L9.23128 0H8.72247L8.76872 0.163361L8.60683 0.116686V0.630105L8.76872 0.583431L8.72247 0.746791H8.76872C8.72247 0.793466 8.67621 0.863477 8.67621 0.956826V0.980163C8.62996 1.0035 8.56058 1.07351 8.51432 1.12019C8.28305 0.933489 7.8205 0.770128 7.47358 0.956826C6.82601 1.28355 7.03416 2.03034 7.77424 2.59043V3.08051C7.88988 3.1972 8.05177 3.26721 8.21366 3.29055C8.14428 3.61727 7.91301 3.89732 7.63548 4.08401C7.56609 4.08401 7.47358 4.08401 7.38107 4.08401V3.87398C7.72799 3.59393 7.75111 3.31389 7.68173 3.15052C7.61235 2.98716 7.42733 2.89382 7.26544 2.94049L7.03416 3.0105L7.01103 2.96383C7.03416 2.94049 7.03416 2.91715 7.03416 2.89382C7.03416 2.84714 7.01103 2.80047 6.98791 2.77713H7.01103L6.98791 2.68378L7.08042 2.70712V2.3804L6.98791 2.40373L7.01103 2.31038H6.68725L6.71038 2.40373L6.61787 2.3804V2.70712L6.71038 2.68378V2.77713H6.75663C6.7335 2.80047 6.71038 2.84714 6.71038 2.89382C6.71038 2.91715 6.71038 2.96383 6.7335 2.98716L6.71038 3.03384L6.4791 2.96383C6.31721 2.91715 6.13219 2.98716 6.06281 3.17386C5.99342 3.33722 6.01655 3.59393 6.36346 3.89732V4.03734C6.08593 4.10735 6.06281 4.34072 6.06281 4.34072H5.94717C5.85466 4.29405 5.64651 4.15403 5.50775 4.014C5.73902 3.59393 5.73902 3.08051 5.13771 2.89382L4.60577 3.0105C4.49014 3.29055 4.51326 3.54726 4.65203 3.85064C4.16635 3.85064 3.81944 3.47725 3.24125 3.75729L3.38002 4.24737C3.77318 4.03734 4.32824 4.52742 4.97581 4.31739L5.23022 4.50408C5.13771 4.62077 5.0452 4.73746 5.02207 4.94749C5.18396 4.85414 5.34585 4.8308 5.60026 4.87748C5.50775 4.87748 5.48462 4.92415 5.48462 4.94749C5.50775 4.97083 5.53087 4.97083 5.53087 4.97083C5.50775 4.97083 5.43836 4.94749 5.36898 4.94749C5.50775 5.3909 5.9703 5.43757 6.7335 5.41424C7.01103 5.55426 7.19605 5.83431 7.38107 6.23104L7.42733 6.16103C7.47358 6.30105 7.49671 6.44107 7.49671 6.72112C7.49671 6.88448 7.47358 7.00117 7.42733 7.11785C7.33482 7.28121 7.24231 7.44457 7.1498 7.56126C6.50223 7.84131 6.68725 8.37806 6.13219 8.63477C6.2247 8.70478 6.29408 8.75146 6.40972 8.75146L6.03968 8.93816L6.13219 9.07818C5.9703 9.17153 5.8084 9.24154 5.60026 9.24154C5.16083 8.7748 5.39211 8.30805 5.90091 8.35473C6.13219 5.99767 4.00446 6.30105 3.12561 5.11085C3.10249 5.2042 3.07936 5.34422 3.05623 5.46091C2.38553 5.15753 1.78422 4.52742 1.29854 3.75729L1.27541 4.06068C0.882244 3.54726 0.581587 2.98716 0.396567 2.40373C0.280929 2.77713 0.188419 3.43057 0.257801 3.89732L0.142164 3.73396C-0.0891112 4.62077 -0.0659836 5.2042 0.419694 5.97433C0.489077 6.46441 0.697224 6.95449 0.928499 7.32789C0.789734 7.30455 0.697224 7.28121 0.558459 7.28121C0.812862 7.77129 1.11352 8.23804 1.39105 8.54142L0.997882 8.65811C1.34479 9.19487 1.73796 9.54492 2.20051 9.84831C1.99236 9.89498 1.89985 9.96499 1.73796 10.0817C2.03862 10.4084 2.29302 10.5718 2.70932 10.6884C2.38553 10.8051 2.24677 10.9452 2.15426 11.2019C2.57055 11.3419 3.0331 11.4352 3.49565 11.4119C3.21812 11.5753 2.96372 11.762 2.82495 12.0187L2.73245 11.972C2.68619 11.9487 2.66306 11.9487 2.61681 11.9487C2.5243 11.9487 2.40866 12.0187 2.38553 12.112C2.38553 12.1354 2.3624 12.1587 2.3624 12.1587V12.2054C2.33928 12.2287 2.29302 12.252 2.26989 12.2754L2.15426 12.2287C2.108 12.2054 2.06175 12.2054 2.01549 12.2054C1.89985 12.2054 1.78422 12.2754 1.73796 12.3921C1.66858 12.5554 1.73796 12.7188 1.87673 12.8121L1.96924 12.8588H1.99236C1.99236 12.9055 1.99236 12.9288 1.99236 12.9755L1.96924 13.0222C1.96924 13.0455 1.94611 13.0455 1.94611 13.0688C1.92298 13.1389 1.92298 13.2089 1.94611 13.2789C1.96924 13.3489 2.01549 13.3956 2.08487 13.4422L2.26989 13.5356L2.22364 13.5123L2.31615 13.5589L2.63994 13.7223L2.66306 13.7456C2.43179 14.0257 2.15426 14.189 1.83047 14.189C1.78422 14.189 1.73796 14.189 1.66858 14.189L1.5992 14.1424H1.57607C1.4373 14.119 1.29854 14.0723 1.15977 14.0023L0.997882 13.909L1.04414 14.0957C1.13665 14.5391 1.52981 14.9825 2.13113 15.3792C2.70932 15.7293 3.33376 15.9393 3.86569 15.9393C4.14322 15.9393 4.3745 15.8693 4.53639 15.7526L4.69828 15.6359L4.51326 15.5893C4.3745 15.5426 4.23573 15.4726 4.14322 15.4026L4.05071 15.3792L3.98133 15.3092C3.65755 15.0058 3.65755 14.5624 3.75006 14.2357H3.77318L4.09697 14.3991L4.18948 14.4457L4.21261 14.3991L4.8833 14.7258C4.86018 15.776 4.53639 16.4294 3.93508 17.1062H3.91195C3.81944 17.1295 3.75006 17.2229 3.72693 17.3162C3.7038 17.3396 3.68067 17.3629 3.65755 17.3862C3.65755 17.3862 3.65755 17.3862 3.63442 17.3862C3.58816 17.3162 3.51878 17.2695 3.42627 17.2695C3.40314 17.2695 3.38002 17.2695 3.35689 17.2929L3.24125 17.3396C3.17187 17.3629 3.12561 17.4096 3.10249 17.4562C3.07936 17.5029 3.07936 17.5496 3.07936 17.6196C3.05623 17.6196 3.00998 17.6429 2.98685 17.6429C2.94059 17.5496 2.84808 17.4796 2.75557 17.4796C2.73245 17.4796 2.70932 17.4796 2.66306 17.5029L2.59368 17.5263C2.45491 17.5729 2.38553 17.6896 2.43179 17.8296C2.13113 17.923 1.83047 18.0397 1.55294 18.1097C1.5992 18.8331 1.83047 19.4399 2.29302 20C3.00998 19.6499 3.7038 19.2999 4.3745 18.9732C4.39763 18.9965 4.44388 19.0198 4.49014 19.0198C4.51326 19.0198 4.53639 19.0198 4.55952 18.9965L4.65203 18.9732C4.76767 18.9265 4.90643 18.8098 4.97581 18.6931C5.94717 18.2264 6.84914 17.8063 7.63548 17.4562C7.6586 17.7363 7.68173 17.993 7.77424 18.1797C7.95926 18.1097 8.12116 18.063 8.28305 17.923C8.28305 18.0163 8.3293 18.1097 8.35243 18.2264L8.00552 18.5998L8.23679 18.8331L8.58371 18.5064C8.62996 18.7631 8.90749 19.1365 9.06938 19.2299C9.18502 19.1365 9.48568 18.7398 9.55506 18.5064L9.90197 18.8331L10.1332 18.5998L9.78634 18.2264C9.83259 18.133 9.85572 18.0397 9.85572 17.923C10.0176 18.0397 10.1795 18.1097 10.3645 18.1797C10.4339 17.993 10.4802 17.7596 10.5033 17.4562L10.5958 17.5029L10.6421 17.4562L12.3072 18.273L12.446 18.3431L12.4923 18.4131L12.5154 18.4364H12.5385L12.7698 18.5531L12.8392 18.5764C12.9085 18.6931 13.0936 18.9965 13.4174 18.9732C13.4867 18.9732 13.533 18.9498 13.5792 18.9265L13.8105 19.0432L13.903 19.0898L13.9262 19.0432L14.7819 19.4399L14.7588 19.4866L14.8513 19.5333L15.175 19.6966L15.2676 19.7433L15.2907 19.6966L15.5451 19.8133C15.4757 19.8133 15.522 19.8133 15.5451 19.8133C15.6376 19.8133 15.7532 19.7433 15.7764 19.6499C15.7764 19.6266 15.7995 19.6033 15.7995 19.6033V19.5566C15.8226 19.5333 15.8689 19.5333 15.892 19.4866H15.9151L16.0539 19.5566C16.1001 19.5799 16.1464 19.5799 16.1927 19.5799C16.3083 19.5799 16.4239 19.5099 16.4702 19.3932C16.5396 19.2299 16.4702 19.0665 16.3314 18.9732L16.2158 18.9031C16.2158 18.8565 16.2158 18.8331 16.2158 18.7865L16.2389 18.7631C16.262 18.7398 16.262 18.7398 16.262 18.7165C16.2852 18.6464 16.2852 18.5764 16.262 18.5064C16.2389 18.4364 16.1695 18.4364 16.1233 18.4131L15.8457 18.273L15.8689 18.2264L15.7764 18.1797L15.4526 18.0163L15.3601 17.9697L15.3832 17.923C15.4294 17.8063 15.3369 17.6663 15.2676 17.6429L15.1519 17.5963C15.0363 17.5496 14.8975 17.5963 14.8513 17.713L14.8281 17.7596L14.7356 17.713L14.7588 17.6429C14.805 17.5263 14.7588 17.3862 14.62 17.3162L14.5043 17.2695C14.435 17.2462 14.3425 17.2695 14.2962 17.2929C13.6024 16.5461 13.2323 15.916 13.1861 15.0992C14.2731 14.6791 15.4988 14.2357 16.794 13.8156C16.6552 13.1389 16.4008 12.5088 16.0539 11.9253L15.7301 12.112L15.4526 11.5753C15.3138 11.6686 15.175 11.7386 15.0132 11.832C14.8744 11.6919 14.6894 11.5519 14.5043 11.4586C14.9669 11.4819 15.4526 11.3886 15.8457 11.2485C15.7301 11.0152 15.5913 10.8518 15.2907 10.7351C15.707 10.6184 15.9845 10.4551 16.262 10.1284C16.1001 10.0117 16.0076 9.94166 15.7995 9.89498C16.262 9.5916 16.6321 9.24154 17.0021 8.70478L16.609 8.5881C16.8865 8.28471 17.1871 7.81797 17.4415 7.32789C17.3028 7.32789 17.2103 7.32789 17.0715 7.37456C17.3259 7.0245 17.5109 6.51108 17.5803 6.021C18.066 5.2042 18.0891 4.64411 17.8578 3.75729ZM11.1277 13.979C11.1046 14.0023 11.0583 14.0023 11.0352 14.0257L11.0583 13.8623L11.1277 13.979ZM8.83811 3.3839H9H9.16189C9.30066 3.92065 9.62444 4.29405 10.087 4.59743C10.087 4.59743 9.78633 5.04084 9.2544 5.22754C9.30066 5.29755 9.32379 5.29755 9.39317 5.34422C9.20815 5.50758 9 5.90432 9 5.90432V5.92765V5.90432C9 5.90432 8.79185 5.50758 8.60683 5.34422C8.65309 5.29755 8.69934 5.29755 8.7456 5.22754C8.21367 5.04084 7.91301 4.59743 7.91301 4.59743C8.37556 4.29405 8.72247 3.92065 8.83811 3.3839ZM6.96478 14.0023L6.87227 13.979L6.94165 13.8623L6.96478 14.0023ZM3.42627 12.2754C3.61129 12.252 3.79631 12.2287 3.9582 12.182C3.86569 12.252 3.77318 12.3687 3.72693 12.4621L3.40314 12.3221L3.42627 12.2754ZM5.20709 16.8028C5.53087 16.4294 5.83153 16.0327 6.01655 15.2859L6.87227 15.6826L7.01103 15.7526L7.05729 15.8226L7.08042 15.846H7.10354L7.21918 15.916L6.40972 16.3127C6.01655 16.4527 5.57713 16.6394 5.20709 16.8028ZM12.816 16.8261L11.8216 16.3594L11.6828 16.2894L11.6365 16.2194L11.6134 16.196H11.5903L11.1046 15.9627C11.3821 15.846 11.7059 15.7293 12.0297 15.5893C12.2147 16.056 12.4691 16.4761 12.816 16.8261ZM14.1574 12.2987C14.1112 12.252 14.0649 12.2054 14.0187 12.1587C14.0881 12.182 14.1806 12.2054 14.2731 12.2287C14.2268 12.252 14.2037 12.2754 14.1574 12.2987Z" fill="#231F20"/>
<path d="M6.08586 4.41084C5.87771 4.3875 5.64643 4.3875 5.50767 4.43417C5.32265 4.48085 5.18388 4.5742 5.1145 4.80757C5.69269 4.64421 5.73894 4.97093 6.27088 5.08762C6.10898 5.15763 5.69269 5.15763 5.46141 5.0176C5.62331 5.27431 5.83145 5.34433 6.59466 5.32099C6.34026 5.11095 6.47903 4.64421 6.08586 4.41084Z" fill="#FCD015"/>
<path d="M5.57715 4.94751C5.71591 4.97085 5.69279 5.0642 5.92406 5.0642C5.87781 5.01752 5.66966 4.85416 5.57715 4.94751Z" fill="#FCD015"/>
<path d="M11.8677 4.41071C12.0758 4.38738 12.3071 4.38738 12.4459 4.43405C12.6309 4.48073 12.7697 4.57408 12.839 4.80745C12.2609 4.64409 12.2146 4.97081 11.6827 5.08749C11.8446 5.15751 12.2609 5.15751 12.4921 5.01748C12.3302 5.27419 12.1221 5.3442 11.3589 5.32087C11.6133 5.11083 11.4977 4.64409 11.8677 4.41071Z" fill="#FCD015"/>
<path d="M12.3998 4.94751C12.261 4.97085 12.2841 5.0642 12.0529 5.0642C12.0991 5.01752 12.3073 4.85416 12.3998 4.94751Z" fill="#FCD015"/>
<path d="M8.97688 15.2626L9.62445 16.5929L9.06939 16.8262L8.44495 15.4727L8.97688 15.2626Z" fill="#221F1F"/>
<path d="M8.37555 18.3197L8.09802 18.5997L8.19053 18.6931L8.44494 18.4364C8.44494 18.3897 8.39868 18.343 8.37555 18.3197Z" fill="#221F1F"/>
<path d="M9.64744 18.3197C9.62431 18.3664 9.60119 18.3897 9.55493 18.4131L9.80933 18.6698L9.90184 18.5764L9.64744 18.3197Z" fill="#221F1F"/>
<path d="M6.38647 3.874V4.01402C6.73339 3.99068 7.01092 4.03736 7.3347 4.06069V3.874C7.03404 3.82732 6.71026 3.82732 6.38647 3.874Z" fill="#FFC112"/>
<path d="M6.43282 3.10382L6.34031 3.03381C6.27093 3.03381 6.20155 3.08049 6.15529 3.1505C5.94714 3.40721 6.22467 3.68726 6.36344 3.80394H6.40969C6.47908 3.80394 6.57159 3.7806 6.64097 3.7806C6.64097 3.50056 6.59471 3.24385 6.43282 3.10382Z" fill="#FFC112"/>
<path d="M7.3811 3.03381L7.28859 3.10382C7.1267 3.24385 7.10357 3.50056 7.08044 3.7806C7.14983 3.7806 7.24234 3.80394 7.31172 3.80394H7.35797C7.49674 3.68726 7.77427 3.40721 7.56612 3.1505C7.51987 3.05715 7.45048 3.03381 7.3811 3.03381Z" fill="#FFC112"/>
<path d="M6.87217 2.98711C6.92326 2.98711 6.96468 2.94532 6.96468 2.89376C6.96468 2.84221 6.92326 2.80042 6.87217 2.80042C6.82108 2.80042 6.77966 2.84221 6.77966 2.89376C6.77966 2.94532 6.82108 2.98711 6.87217 2.98711Z" fill="#FFC112"/>
<path d="M6.71029 3.75727C6.75654 3.75727 6.8028 3.75727 6.87218 3.75727C6.91844 3.75727 6.96469 3.75727 7.03407 3.75727C7.03407 3.45388 7.08033 3.17384 7.26535 3.03381L7.03407 3.10382L6.98782 3.03381C6.96469 3.05715 6.91844 3.05715 6.89531 3.05715C6.84905 3.05715 6.82593 3.03381 6.8028 3.03381L6.75654 3.10382L6.52527 3.03381C6.66403 3.19717 6.71029 3.47722 6.71029 3.75727Z" fill="#FFC112"/>
<path d="M6.77971 2.70713H6.9416L6.91848 2.61378L7.03411 2.63712V2.47376L6.91848 2.4971L6.9416 2.40375H6.77971L6.82596 2.4971L6.71033 2.47376V2.63712L6.82596 2.61378L6.77971 2.70713Z" fill="#FFC112"/>
<path d="M11.4284 3.85069H11.4052C11.2202 3.82736 11.0352 3.82736 10.8271 3.85069H10.8039C10.7577 3.85069 10.7114 3.85069 10.6652 3.87403V4.06073C10.9658 4.06073 11.2433 3.99072 11.5903 4.01405V3.87403C11.5209 3.85069 11.4746 3.85069 11.4284 3.85069Z" fill="#FFC112"/>
<path d="M11.8215 3.12725C11.7752 3.05723 11.7059 3.0339 11.6365 3.01056L11.544 3.10391C11.3821 3.24393 11.3589 3.50064 11.3358 3.78069C11.4052 3.78069 11.4977 3.80402 11.5671 3.80402H11.6133C11.7521 3.68734 12.0296 3.40729 11.8215 3.12725Z" fill="#FFC112"/>
<path d="M10.6884 3.10382L10.5959 3.03381C10.5265 3.03381 10.4571 3.05715 10.3877 3.1505C10.1796 3.40721 10.4571 3.68726 10.5959 3.80394H10.6421C10.7115 3.80394 10.804 3.7806 10.8734 3.7806C10.8734 3.50056 10.8503 3.24385 10.6884 3.10382Z" fill="#FFC112"/>
<path d="M11.1046 2.98711C11.1557 2.98711 11.1971 2.94532 11.1971 2.89376C11.1971 2.84221 11.1557 2.80042 11.1046 2.80042C11.0535 2.80042 11.0121 2.84221 11.0121 2.89376C11.0121 2.94532 11.0535 2.98711 11.1046 2.98711Z" fill="#FFC112"/>
<path d="M10.9659 3.1272L10.7346 3.05719C10.9196 3.19721 10.9659 3.47726 10.9659 3.78064C11.0121 3.78064 11.0584 3.78064 11.1278 3.78064C11.174 3.78064 11.2203 3.78064 11.2897 3.78064C11.2897 3.47726 11.3359 3.19721 11.521 3.05719L11.2897 3.1272L11.2434 3.05719C11.2203 3.08053 11.174 3.08053 11.1509 3.08053C11.1047 3.08053 11.0815 3.05719 11.0584 3.05719L10.9659 3.1272Z" fill="#FFC112"/>
<path d="M11.0353 2.70713H11.1972L11.1509 2.61378L11.2665 2.63712V2.47376L11.1509 2.4971L11.1972 2.40375H11.0353L11.0584 2.4971L10.9427 2.47376V2.63712L11.0584 2.61378L11.0353 2.70713Z" fill="#FFC112"/>
<path d="M7.65857 1.51691V1.65693L7.77421 1.7036V1.58692L7.65857 1.51691Z" fill="#FFC112"/>
<path d="M8.97688 2.28705C8.35243 2.28705 7.84363 2.45041 7.84363 2.63711V2.94049C8.02865 2.75379 8.51433 2.68378 8.97688 2.68378C9.43943 2.68378 9.90198 2.77713 10.1101 2.94049V2.63711C10.1101 2.45041 9.60132 2.28705 8.97688 2.28705Z" fill="#FFC112"/>
<path d="M9.55505 1.65694C9.64756 1.26021 9.97135 1.05017 10.2951 0.980159C9.94822 0.910147 9.55505 1.07351 9.41629 1.30688C9.3469 1.42357 9.30065 1.56359 9.25439 1.68028C9.3469 1.6336 9.46254 1.6336 9.55505 1.65694Z" fill="#FFC112"/>
<path d="M8.39865 1.65699C8.51429 1.63365 8.6068 1.63365 8.69931 1.68032C8.65305 1.5403 8.6068 1.40028 8.53741 1.28359C8.39865 1.07356 8.00548 0.886858 7.65857 0.95687C7.98235 1.05022 8.30614 1.26025 8.39865 1.65699Z" fill="#FFC112"/>
<path d="M7.88989 3.03387C7.95928 3.10388 8.07491 3.17389 8.23681 3.22056C8.25993 3.10388 8.25993 2.98719 8.28306 2.84717C8.09804 2.89384 7.95928 2.96385 7.88989 3.03387Z" fill="#FFC112"/>
<path d="M9.04628 2.75385C9.02316 2.75385 9.00003 2.75385 8.9769 2.75385C8.95377 2.75385 8.93064 2.75385 8.90752 2.75385C8.90752 2.94054 8.88439 3.12724 8.83813 3.2906C8.88439 3.2906 8.93065 3.2906 8.9769 3.2906C9.02316 3.2906 9.06941 3.2906 9.11567 3.2906C9.09254 3.12724 9.06941 2.96388 9.04628 2.75385Z" fill="#FFC112"/>
<path d="M9.69385 2.84717C9.69385 2.98719 9.71698 3.10388 9.7401 3.22056C9.902 3.17389 10.0176 3.10388 10.087 3.03387C10.0176 2.96385 9.87887 2.89384 9.69385 2.84717Z" fill="#FFC112"/>
<path d="M8.97682 1.16696C9.09178 1.16696 9.18497 1.07292 9.18497 0.956922C9.18497 0.840923 9.09178 0.746887 8.97682 0.746887C8.86187 0.746887 8.76868 0.840923 8.76868 0.956922C8.76868 1.07292 8.86187 1.16696 8.97682 1.16696Z" fill="#FFC112"/>
<path d="M8.83811 0.653516H9.09251L9.02313 0.443481L9.23127 0.513493V0.256784L9.02313 0.326795L9.09251 0.11676H8.83811L8.93062 0.326795L8.69934 0.256784V0.513493L8.93062 0.443481L8.83811 0.653516Z" fill="#FFC112"/>
<path d="M10.2026 1.7036L10.3183 1.65693V1.51691L10.2258 1.58692L10.2026 1.7036Z" fill="#FFC112"/>
<path d="M10.6883 1.23687C10.642 1.14352 10.5727 1.09685 10.4801 1.05017C10.1332 1.07351 9.74007 1.26021 9.64756 1.72695V1.77362L9.6013 1.75029C9.46254 1.70361 9.3469 1.72695 9.23126 1.79696C9.20813 1.89031 9.18501 1.96032 9.18501 2.007C9.16188 2.10035 9.06937 2.14702 8.99999 2.14702C8.9306 2.14702 8.83809 2.07701 8.81497 2.007C8.81497 1.98366 8.79184 1.91365 8.76871 1.8203C8.6762 1.75029 8.53744 1.75029 8.39867 1.77362L8.35242 1.79696V1.75029C8.25991 1.28354 7.88986 1.09685 7.51982 1.07351C7.45044 1.12018 7.38106 1.19019 7.31168 1.26021C6.98789 1.75029 7.61234 2.33372 7.84361 2.52042C8.0055 2.31038 8.51431 2.21703 8.99999 2.21703C9.50879 2.21703 10.0176 2.33372 10.1564 2.52042C10.3645 2.31038 10.989 1.72695 10.6883 1.23687ZM7.61234 1.72695L7.56608 1.70361V1.6336V1.51692V1.37689L7.70485 1.4469L7.82048 1.49358L7.86674 1.51692V1.58693V1.70361V1.84364L7.72797 1.77362L7.61234 1.72695ZM7.82048 2.28704C7.77423 2.28704 7.7511 2.26371 7.7511 2.21703C7.7511 2.17036 7.77423 2.14702 7.82048 2.14702C7.86674 2.14702 7.88987 2.17036 7.88987 2.21703C7.88987 2.24037 7.86674 2.28704 7.82048 2.28704ZM8.1674 2.14702C8.12114 2.14702 8.09801 2.12368 8.09801 2.07701C8.09801 2.03033 8.12114 2.007 8.1674 2.007C8.21365 2.007 8.23678 2.03033 8.23678 2.07701C8.23678 2.10035 8.19052 2.14702 8.1674 2.14702ZM8.51431 2.05367C8.46805 2.05367 8.44493 2.03033 8.44493 1.98366C8.44493 1.93699 8.46805 1.91365 8.51431 1.91365C8.56056 1.91365 8.58369 1.93699 8.58369 1.98366C8.58369 2.03033 8.56056 2.05367 8.51431 2.05367ZM9.46254 2.05367C9.41628 2.05367 9.39315 2.03033 9.39315 1.98366C9.39315 1.93699 9.41628 1.91365 9.46254 1.91365C9.50879 1.91365 9.53192 1.93699 9.53192 1.98366C9.53192 2.03033 9.48566 2.05367 9.46254 2.05367ZM9.80945 2.14702C9.76319 2.14702 9.74007 2.12368 9.74007 2.07701C9.74007 2.03033 9.76319 2.007 9.80945 2.007C9.8557 2.007 9.87883 2.03033 9.87883 2.07701C9.87883 2.10035 9.8557 2.14702 9.80945 2.14702ZM10.1564 2.28704C10.1101 2.28704 10.087 2.26371 10.087 2.21703C10.087 2.17036 10.1101 2.14702 10.1564 2.14702C10.2026 2.14702 10.2257 2.17036 10.2257 2.21703C10.2257 2.24037 10.2026 2.28704 10.1564 2.28704ZM10.1101 1.84364V1.70361V1.58693V1.51692L10.1564 1.49358L10.272 1.4469L10.4108 1.37689V1.51692V1.6336V1.70361L10.3645 1.72695L10.2489 1.77362L10.1101 1.84364Z" fill="#FFC112"/>
<path d="M8.97684 2.05375C9.04071 2.05375 9.09248 2.0015 9.09248 1.93706C9.09248 1.87262 9.04071 1.82037 8.97684 1.82037C8.91298 1.82037 8.86121 1.87262 8.86121 1.93706C8.86121 2.0015 8.91298 2.05375 8.97684 2.05375Z" fill="#FFC112"/>
<path d="M8.83802 1.77362C8.88428 1.72695 8.93053 1.72695 8.97679 1.72695C9.02304 1.72695 9.09242 1.75029 9.11555 1.77362C9.13868 1.6336 9.20806 1.42357 9.3237 1.23687C9.3237 1.23687 9.3237 1.21353 9.34683 1.21353C9.34683 1.14352 9.30057 1.09685 9.23119 1.05017C9.18493 1.14352 9.09242 1.23687 8.95366 1.23687C8.83802 1.23687 8.72238 1.16686 8.67613 1.05017C8.62987 1.07351 8.58362 1.12018 8.58362 1.19019C8.58362 1.21353 8.60675 1.21353 8.60675 1.23687C8.74551 1.4469 8.81489 1.6336 8.83802 1.77362Z" fill="#FFC112"/>
<path d="M15.3831 11.7386C13.0935 12.9755 11.0814 14.119 9.02307 15.1459L9.06933 15.2159V15.2392C11.1508 14.3291 13.3479 13.3256 15.6144 12.1821C15.5682 12.042 15.4756 11.8553 15.3831 11.7386Z" fill="#E0E0E0"/>
<path d="M8.37556 15.5193L8.35243 15.4726C7.88988 15.706 7.4042 15.916 6.94165 16.126C7.4042 15.9393 7.88988 15.7526 8.37556 15.5193Z" fill="#E0E0E0"/>
<path d="M15.9382 12.1354C13.7642 13.2323 11.4515 14.3058 9.1156 15.3326L9.64753 16.4528C11.9603 15.4727 14.3193 14.5392 16.5858 13.769C16.4933 13.1856 16.262 12.6489 15.9382 12.1354Z" fill="#E0E0E0"/>
<path d="M4.30511 17.2462L4.42074 17.5963C4.44387 17.6663 4.37449 17.7363 4.37449 17.8296C4.39762 18.1564 4.18947 18.3897 4.18947 18.3897L4.07383 18.4831L4.02758 18.3431L3.72692 17.4563C3.72692 17.4796 3.70379 17.4796 3.68066 17.4796L3.86568 18.0163C3.93506 18.2497 3.81943 18.5764 3.7963 18.5764L3.75004 18.6698L3.65753 18.6464C3.65753 18.6464 3.42626 18.4831 3.31062 18.1797C3.28749 18.133 3.24124 18.133 3.21811 18.0864L3.10247 17.713C3.07935 17.713 3.05622 17.7363 3.00996 17.7363L3.28749 18.5764L3.33375 18.7165H3.19498C3.17186 18.7165 2.91745 18.7165 2.70931 18.4131C2.68618 18.3664 2.57054 18.3897 2.54741 18.3197L2.43178 17.9463C2.15425 18.0397 1.89984 18.133 1.62231 18.2264C1.71482 18.8565 1.92297 19.4166 2.29301 19.86C2.94058 19.5333 3.61128 19.2065 4.30511 18.8798C4.30511 18.8565 4.32823 18.8098 4.35136 18.7631L4.62889 18.2964C4.62889 18.2964 4.58264 18.1564 4.60576 17.993C4.81391 18.0397 4.9758 18.133 5.04519 18.2731C5.06831 18.3431 5.06831 18.4598 5.02206 18.5531C6.29407 17.9463 7.61234 17.3629 8.93061 16.8028L8.4218 15.6126C7.05728 16.196 5.66963 16.7561 4.30511 17.2462Z" fill="#E0E0E0"/>
<path d="M4.02759 15.4726C4.02759 15.4726 4.00446 15.4726 4.02759 15.4726C3.79632 15.4493 3.58817 15.4259 3.38002 15.3793L3.40315 15.2859C3.56504 15.3326 3.72693 15.3559 3.91195 15.3793C3.58817 15.0759 3.54191 14.6325 3.65755 14.1891L2.75558 13.7457C2.47805 14.1424 2.10801 14.3058 1.66859 14.2357C2.06175 14.6558 2.50118 14.9825 3.03311 15.1692L3.00998 15.2626C2.43179 15.0526 1.94612 14.7025 1.52982 14.2124C1.39106 14.1891 1.25229 14.1191 1.11353 14.0491C1.3448 15.1459 3.63442 16.2427 4.44389 15.6593C4.28199 15.6126 4.14323 15.5426 4.02759 15.4726Z" fill="#E2E2E2"/>
<path d="M2.2005 12.3454L2.08486 12.2988C1.96922 12.2521 1.85359 12.2988 1.80733 12.3921C1.76108 12.5088 1.80733 12.6255 1.89984 12.6722L1.99235 12.7188C2.03861 12.6255 2.10799 12.5788 2.2005 12.5788C2.17737 12.5088 2.17737 12.4155 2.2005 12.3454Z" fill="#A5A5A5"/>
<path d="M16.2852 19.1132L16.1696 19.0432C16.1233 19.1132 16.0539 19.1832 15.9614 19.1832C16.0077 19.2532 16.0077 19.3466 15.9614 19.4166L16.1002 19.4866C16.2158 19.5333 16.3315 19.4866 16.3777 19.3933C16.424 19.2999 16.3777 19.1599 16.2852 19.1132Z" fill="#A5A5A5"/>
<path d="M15.3942 18.1143L14.7677 19.4417L15.1018 19.6022L15.7283 18.2749L15.3942 18.1143Z" fill="#939393"/>
<path d="M4.42132 12.8219L3.7948 14.1492L4.12887 14.3098L4.7554 12.9825L4.42132 12.8219Z" fill="#939393"/>
<path d="M2.96905 12.1425L2.34253 13.4698L2.6766 13.6303L3.30313 12.303L2.96905 12.1425Z" fill="#939393"/>
<path d="M5.60022 13.3956L7.10351 15.7527L7.33478 15.8694C7.40417 15.846 7.45042 15.8227 7.5198 15.776L6.17841 13.6757L5.60022 13.3956Z" fill="#939393"/>
<path d="M8.30615 14.7025L8.65306 15.2393C8.74557 15.1926 8.86121 15.1459 8.95372 15.0992L8.88434 14.9826L8.30615 14.7025Z" fill="#939393"/>
<path d="M9.69388 16.5229L9.74014 16.6162L9.64763 16.6629L9.57825 16.6862L9.7864 17.0363L10.3415 17.3163L9.80952 16.4762C9.78639 16.4995 9.74014 16.5229 9.69388 16.5229Z" fill="#939393"/>
<path d="M10.989 15.986L12.4923 18.3431L12.7236 18.4598C12.6542 18.2731 12.7236 18.133 12.7467 18.1097L11.5672 16.2661L10.989 15.986Z" fill="#939393"/>
<path d="M14.1574 17.5031L14.0649 17.4797L13.6486 18.4366L13.6024 18.3899L13.4174 18.7866L13.7411 18.95L13.9262 18.5532C13.903 18.4599 13.8337 18.2265 13.9262 18.0398L14.1574 17.5031Z" fill="#939393"/>
<path d="M4.30516 14.1425L4.21265 14.3058L6.89544 15.5894L6.68729 15.286L4.30516 14.1425Z" fill="#DBDBDB"/>
<path d="M6.24783 14.5858L4.49014 13.7224L4.32825 14.0491L6.59474 15.1459L6.24783 14.5858Z" fill="#DBDBDB"/>
<path d="M5.78526 13.8623L4.67514 13.3256L4.53638 13.6523L6.1553 14.4224L5.78526 13.8623Z" fill="#DBDBDB"/>
<path d="M5.53078 13.4424L5.50765 13.419L4.7907 13.069L4.72131 13.2323L5.69267 13.6991L5.53078 13.4424Z" fill="#DBDBDB"/>
<path d="M2.01552 13.0223L1.99239 13.0456C1.94613 13.139 1.99239 13.2323 2.0849 13.279L2.26992 13.3723L2.3393 13.209L2.10803 13.0923C2.0849 13.069 2.06177 13.0456 2.01552 13.0223Z" fill="#DBDBDB"/>
<path d="M2.86313 13.4479L2.78357 13.6165L3.72315 14.068L3.80271 13.8995L2.86313 13.4479Z" fill="#DBDBDB"/>
<path d="M2.0848 12.7655C2.03854 12.8589 2.0848 12.9522 2.17731 12.9989L2.40858 13.1156L2.54735 12.7889L2.31607 12.6722C2.22356 12.6488 2.10792 12.6722 2.0848 12.7655Z" fill="#DBDBDB"/>
<path d="M3.05005 13.051L2.90088 13.367L3.84046 13.8186L3.98963 13.5025L3.05005 13.051Z" fill="#DBDBDB"/>
<path d="M2.29305 12.3688C2.24679 12.4621 2.29305 12.5555 2.38556 12.6022L2.59371 12.6955L2.73247 12.3688L2.52432 12.2988C2.43181 12.2521 2.3393 12.2755 2.29305 12.3688Z" fill="#DBDBDB"/>
<path d="M3.23865 12.6237L3.08948 12.9397L4.02906 13.3913L4.17823 13.0752L3.23865 12.6237Z" fill="#DBDBDB"/>
<path d="M2.45489 12.1821C2.50115 12.1821 2.52427 12.1821 2.57053 12.2055L2.77868 12.2988L2.84806 12.1355L2.66304 12.0421C2.57053 11.9954 2.47802 12.0421 2.43176 12.1355C2.45489 12.1588 2.45489 12.1588 2.45489 12.1821Z" fill="#DBDBDB"/>
<path d="M3.3558 12.3742L3.27625 12.5428L4.21582 12.9944L4.29538 12.8258L3.3558 12.3742Z" fill="#DBDBDB"/>
<path d="M10.272 17.0129L10.4339 17.2696L10.457 17.293L12.2841 18.1798L12.099 17.8764L10.272 17.0129Z" fill="#DBDBDB"/>
<path d="M13.9332 18.7631L13.8536 18.9316L14.7097 19.3431L14.7893 19.1745L13.9332 18.7631Z" fill="#DBDBDB"/>
<path d="M8.39857 15.0059L8.21355 14.7491L8.19042 14.7025L6.38647 13.839L6.57149 14.1424L8.39857 15.0059Z" fill="#DBDBDB"/>
<path d="M16.0539 18.4832L15.7764 18.3431L15.707 18.5065L16.0308 18.6699C16.0771 18.6932 16.1002 18.7165 16.1233 18.7399L16.1465 18.7165C16.1927 18.6232 16.1465 18.5298 16.0539 18.4832Z" fill="#DBDBDB"/>
<path d="M15.5913 19.5566L15.2906 19.4166L15.1981 19.58L15.4525 19.6967C15.545 19.7433 15.6375 19.6967 15.6838 19.6033C15.6838 19.58 15.6838 19.58 15.7069 19.5566C15.6607 19.58 15.6144 19.58 15.5913 19.5566Z" fill="#DBDBDB"/>
<path d="M15.7763 19.1599L15.4757 19.0199L15.3369 19.3466L15.6376 19.4866C15.7301 19.5333 15.8226 19.4866 15.8688 19.3933C15.892 19.2999 15.8688 19.2066 15.7763 19.1599Z" fill="#DBDBDB"/>
<path d="M15.9845 18.7632L15.6607 18.5999L15.522 18.9266L15.8458 19.0899C15.9383 19.1366 16.0308 19.0899 16.077 18.9966C16.1233 18.9032 16.077 18.8099 15.9845 18.7632Z" fill="#DBDBDB"/>
<path d="M7.49669 15.5659L7.72797 15.6826C7.86673 15.6126 8.0055 15.5659 8.14426 15.4959L7.14978 15.0058L7.49669 15.5659Z" fill="#DBDBDB"/>
<path d="M6.66406 14.2824L7.01098 14.8425L8.23673 15.4259C8.35237 15.3793 8.44488 15.3326 8.56052 15.2626L8.49114 15.1459L6.66406 14.2824Z" fill="#DBDBDB"/>
<path d="M9.39319 16.7795L9.57821 16.8728L9.4857 16.7328L9.39319 16.7795Z" fill="#DBDBDB"/>
<path d="M10.9196 16.0327C10.8502 16.056 10.7809 16.0793 10.6884 16.1027L11.0815 16.2894L10.9196 16.0327Z" fill="#DBDBDB"/>
<path d="M11.1739 16.4528L10.5726 16.1728C10.4338 16.2428 10.2951 16.2895 10.1332 16.3595L11.5208 17.0363L11.1739 16.4528Z" fill="#DBDBDB"/>
<path d="M11.6365 17.1763L10.0176 16.4061C9.97136 16.4295 9.94823 16.4295 9.90198 16.4528L10.1564 16.8729L11.9603 17.7363L11.6365 17.1763Z" fill="#DBDBDB"/>
<path d="M13.4404 17.433L13.533 17.2696L11.7753 16.4295L11.9603 16.7329L13.4404 17.433Z" fill="#DBDBDB"/>
<path d="M13.4173 17.5496L12.0759 16.8728L12.4228 17.4329L13.4173 17.8996C13.4173 17.8296 13.4405 17.7596 13.4405 17.7129C13.4173 17.6429 13.3711 17.6196 13.4173 17.5496Z" fill="#DBDBDB"/>
<path d="M12.5154 17.5963L12.7929 18.0397C12.9548 17.8997 13.1861 17.923 13.1861 17.923L13.1167 18.1564L13.1861 18.2964L13.4867 18.4365L13.5561 18.3198C13.5099 18.2498 13.4636 18.1564 13.4405 18.0164L12.5154 17.5963Z" fill="#DBDBDB"/>
<path d="M13.371 18.6699L13.4404 18.5299L13.2554 18.4365L13.371 18.6699Z" fill="#DBDBDB"/>
<path d="M14.7586 17.853L14.6661 17.8063L14.5736 17.993L14.6892 18.0397L14.7586 17.853Z" fill="#DBDBDB"/>
<path d="M14.6432 18.1097L14.5507 18.063L14.5044 18.1564C14.4813 18.2031 14.435 18.1564 14.3425 18.3431L14.4813 18.4131L14.6432 18.1097Z" fill="#DBDBDB"/>
<path d="M15.0132 18.6698L15.1519 18.3897C15.1288 18.413 15.0594 18.3897 15.0363 18.4364C14.99 18.5064 14.8975 18.5997 14.8744 18.5997L15.0132 18.6698Z" fill="#DBDBDB"/>
<path d="M14.5275 18.7166H14.3887L14.435 18.5765L14.4581 18.5299L14.3193 18.4365C14.2037 18.5765 14.0187 18.6932 14.0187 18.6932L14.8513 19.09L14.99 18.7632L14.7819 18.6699C14.6431 18.6932 14.5506 18.7166 14.5275 18.7166Z" fill="#DBDBDB"/>
<path d="M9.02311 17.1996C8.65307 17.1996 8.35242 17.503 8.35242 17.8764C8.35242 18.2498 8.65307 18.5532 9.02311 18.5532C9.39315 18.5532 9.69381 18.2498 9.69381 17.8764C9.69381 17.503 9.39315 17.1996 9.02311 17.1996ZM9.18501 17.6197C9.23126 17.6197 9.23126 17.573 9.20814 17.5497C9.23126 17.503 9.25439 17.5497 9.25439 17.573C9.25439 17.573 9.30064 17.573 9.30064 17.5964C9.30064 17.6197 9.27752 17.6197 9.27752 17.6664C9.27752 17.6664 9.23126 17.6431 9.25439 17.6664C9.25439 17.6664 9.23126 17.6664 9.23126 17.6431C9.23126 17.6197 9.25439 17.6197 9.25439 17.5964C9.25439 17.573 9.20814 17.573 9.20814 17.573C9.23126 17.5964 9.23126 17.6431 9.18501 17.6197C9.18501 17.6197 9.18501 17.6431 9.18501 17.6197ZM9.11562 17.8531H8.95373C8.99999 17.8064 8.95373 17.6897 8.86122 17.6897C8.83809 17.6897 8.83809 17.7131 8.83809 17.7131V17.6897C8.83809 17.6431 8.95373 17.6664 8.99999 17.6431C8.99999 17.6664 8.97686 17.6897 8.97686 17.6897C8.99999 17.7131 9.02311 17.7597 9.04624 17.8298C9.04624 17.7597 9.06937 17.7131 9.11562 17.6897C9.0925 17.6897 9.06937 17.6664 9.0925 17.6431C9.13875 17.6664 9.25439 17.6431 9.25439 17.6897V17.7131C9.25439 17.7131 9.25439 17.6897 9.23126 17.6897C9.11562 17.6897 9.04624 17.8064 9.11562 17.8531ZM9.18501 17.7364C9.16188 17.7364 9.16188 17.7364 9.13875 17.7364L9.16188 17.7131C9.16188 17.7131 9.18501 17.7131 9.18501 17.7364ZM9.04624 18.0164C9.04624 18.0164 9.06937 17.9931 9.06937 18.0164C9.06937 18.0398 9.04624 18.0398 9.04624 18.0398L8.99999 17.8998H9.02311C9.02311 17.8998 9.04624 17.8764 9.06937 17.8998V17.9231V17.8998C9.06937 17.8998 9.06937 17.8998 9.06937 17.9231V17.9464C9.0925 17.9464 9.0925 17.9464 9.0925 17.9698C9.0925 17.9464 9.06937 17.9464 9.06937 17.9464C9.04624 17.9931 9.04624 17.9931 9.04624 18.0164ZM8.97686 17.9698C8.97686 17.9698 8.97686 17.9931 8.97686 17.9698C8.97686 17.9698 8.95373 17.9698 8.97686 17.9698C8.95373 17.9464 8.95373 17.9464 8.95373 17.9464C8.95373 17.9464 8.97686 17.9464 8.97686 17.9698C8.97686 17.9464 8.99999 17.9464 8.99999 17.9464C8.97686 17.9464 8.95373 17.9464 8.95373 17.9231L8.97686 17.8998V17.8764L9.04624 18.0631C9.02311 18.0631 8.99999 18.0631 8.97686 18.0631C8.97686 18.0631 8.95373 18.0631 8.95373 18.0398C8.95373 18.0398 8.95373 18.0398 8.95373 18.0164C8.95373 18.0164 8.97686 17.9931 8.97686 17.9698ZM8.90748 17.7364C8.90748 17.7364 8.88435 17.7364 8.86122 17.7364C8.86122 17.7131 8.86122 17.7131 8.88435 17.7131C8.88435 17.7131 8.90748 17.7131 8.90748 17.7364ZM9.13875 17.5264V17.573V17.5264ZM9.02311 17.4564L9.04624 17.4797L9.02311 17.503L8.99999 17.4797L9.02311 17.4564ZM8.88435 17.5264V17.573V17.5264ZM8.88435 17.573H8.9306C8.95373 17.573 8.95373 17.573 8.95373 17.5964C8.97686 17.5964 8.99999 17.573 8.99999 17.5497L8.97686 17.5264C8.95373 17.503 8.97686 17.4797 8.99999 17.4797L9.02311 17.5264L9.04624 17.4797C9.06937 17.4797 9.0925 17.503 9.06937 17.5264L9.04624 17.5497C9.04624 17.573 9.06937 17.5964 9.0925 17.5964C9.0925 17.573 9.0925 17.573 9.11562 17.573L9.13875 17.5964L9.16188 17.573C9.18501 17.573 9.18501 17.573 9.18501 17.5964L9.16188 17.6197H9.11562C9.06937 17.6197 9.04624 17.5964 9.04624 17.573H8.99999C8.99999 17.5964 8.97686 17.6197 8.9306 17.6197H8.88435C8.88435 17.6197 8.88435 17.5964 8.86122 17.5964C8.83809 17.5964 8.86122 17.573 8.88435 17.573ZM8.76871 17.573C8.79184 17.5497 8.81497 17.503 8.81497 17.5497C8.79184 17.573 8.79184 17.6197 8.83809 17.6197C8.79184 17.6197 8.79184 17.5964 8.79184 17.573C8.79184 17.573 8.74558 17.573 8.74558 17.5964C8.74558 17.6197 8.76871 17.6197 8.76871 17.6431C8.76871 17.6431 8.76871 17.6664 8.74558 17.6664C8.74558 17.6431 8.72246 17.6431 8.72246 17.6664C8.74558 17.6197 8.69933 17.6197 8.69933 17.5964C8.72246 17.573 8.76871 17.5964 8.76871 17.573ZM8.60682 17.8064C8.62995 17.8064 8.65307 17.8064 8.62995 17.7831C8.60682 17.7597 8.58369 17.7131 8.60682 17.6897C8.60682 17.6897 8.6762 17.7131 8.65307 17.6897C8.62995 17.6431 8.62995 17.5964 8.65307 17.573C8.65307 17.5964 8.74558 17.7131 8.83809 17.7831C8.83809 17.7831 8.81497 17.8064 8.81497 17.8298C8.81497 17.8531 8.83809 17.8764 8.86122 17.8764C8.88435 17.8764 8.88435 17.8764 8.90748 17.8764V17.9464C8.90748 17.9231 8.86122 17.8998 8.83809 17.8998C8.83809 17.9231 8.81497 17.9464 8.81497 17.9698C8.79184 17.9931 8.76871 17.9931 8.74558 17.9698C8.74558 17.9698 8.76871 17.9231 8.74558 17.9464C8.72246 17.9698 8.69933 17.9464 8.6762 17.9231C8.69933 17.9231 8.69933 17.8998 8.6762 17.8998C8.65307 17.8998 8.60682 17.8998 8.60682 17.8531C8.60682 17.8531 8.65307 17.8298 8.62995 17.8298C8.62995 17.8764 8.60682 17.8531 8.60682 17.8064ZM9.25439 18.1798C9.23126 18.1798 9.20814 18.1798 9.20814 18.1565C9.18501 18.1331 9.16188 18.1331 9.11562 18.1331C9.13875 18.1098 9.0925 18.0865 9.06937 18.1098C9.04624 18.1098 9.04624 18.1331 9.04624 18.1565C9.0925 18.1565 9.16188 18.2031 9.16188 18.2265C9.16188 18.2498 9.16188 18.2498 9.13875 18.2498C9.13875 18.2031 9.11562 18.2031 9.11562 18.2498C9.11562 18.2732 9.0925 18.2732 9.0925 18.2965C9.0925 18.2498 9.06937 18.2498 9.06937 18.2965C9.06937 18.3198 9.04624 18.3198 9.04624 18.3198L9.02311 18.2965C9.02311 18.2498 8.99999 18.2498 8.99999 18.2965C8.97686 18.2965 8.97686 18.2732 8.97686 18.2498C8.97686 18.2031 8.95373 18.2031 8.95373 18.2498C8.9306 18.2498 8.9306 18.2265 8.9306 18.2265C8.95373 18.2031 8.99999 18.1565 9.04624 18.1565C9.04624 18.1331 9.02311 18.1098 9.02311 18.1098C8.99999 18.0865 8.97686 18.1098 8.97686 18.1331C8.95373 18.1331 8.90748 18.1331 8.90748 18.1565L8.9306 18.1798L8.90748 18.1565H8.88435C8.86122 18.1565 8.86122 18.1331 8.86122 18.1331V18.1098L8.76871 18.0398H8.74558C8.74558 18.0398 8.69933 18.0398 8.69933 18.0164H8.72246C8.72246 18.0164 8.69933 17.9931 8.72246 17.9931C8.74558 17.9931 8.76871 17.9931 8.76871 17.9931V17.9698C8.79184 17.9698 8.79184 18.0164 8.79184 18.0164C8.79184 18.0164 8.81497 18.0164 8.79184 18.0398L8.88435 18.1331H8.90748C8.9306 18.1331 8.97686 18.1331 8.97686 18.1098C8.9306 18.0398 8.97686 17.9931 8.99999 17.9931V18.0398C8.99999 18.0631 9.02311 18.0631 9.02311 18.0631H9.04624C9.06937 18.0631 9.0925 18.0865 9.0925 18.0865C9.0925 18.0865 9.11562 18.0631 9.13875 18.0631H9.16188C9.18501 18.0631 9.18501 18.0398 9.18501 18.0398V17.9931C9.23126 17.9931 9.27752 18.0398 9.20814 18.1098L9.25439 18.1331C9.25439 18.1098 9.25439 18.1098 9.27752 18.1098L9.30064 18.1331L9.32377 18.1098C9.3469 18.1098 9.3469 18.1331 9.3469 18.1565C9.30064 18.1565 9.27752 18.1798 9.25439 18.1798ZM9.23126 18.0631H9.27752H9.23126ZM9.43941 17.8064C9.43941 17.8298 9.41628 17.8764 9.39315 17.8764C9.3469 17.8764 9.39315 17.8998 9.41628 17.8998C9.41628 17.9231 9.39315 17.9464 9.3469 17.9464C9.32377 17.9464 9.32377 17.9698 9.3469 17.9698C9.32377 17.9931 9.30064 17.9931 9.27752 17.9931C9.25439 17.9931 9.27752 18.0164 9.27752 18.0164C9.25439 18.0398 9.23126 18.0398 9.20814 18.0164C9.18501 17.9931 9.18501 17.9698 9.18501 17.9464C9.16188 17.9464 9.13875 17.9464 9.11562 17.9931V17.9231C9.13875 17.9231 9.16188 17.9231 9.16188 17.9231C9.18501 17.9231 9.20814 17.8998 9.20814 17.8764C9.20814 17.8531 9.20813 17.8531 9.18501 17.8298C9.27752 17.7831 9.3469 17.6431 9.37003 17.6197C9.39315 17.6431 9.39315 17.6897 9.37003 17.7364C9.3469 17.7597 9.41628 17.7364 9.41628 17.7364C9.43941 17.7597 9.41628 17.8064 9.39315 17.8298C9.37003 17.8064 9.41628 17.8064 9.43941 17.8064Z" fill="#D0D2D3"/>
<path d="M5.02206 2.96393C4.83704 3.0106 4.76766 3.03394 4.65202 3.08061C4.44387 3.59403 4.83704 4.17746 5.29959 4.45751C5.3921 4.41084 5.57712 4.31749 5.78527 4.34082C5.25334 4.0141 4.81391 3.54736 5.02206 2.96393Z" fill="#1FC150"/>
<path d="M12.9547 2.96393C13.1398 3.0106 13.2091 3.03394 13.3248 3.08061C13.5098 3.59403 13.1398 4.17746 12.6772 4.45751C12.5847 4.41084 12.3997 4.31749 12.1915 4.34082C12.7466 4.0141 13.1629 3.54736 12.9547 2.96393Z" fill="#1FC150"/>
<path d="M4.65194 3.96745C4.25877 3.96745 3.72684 3.57071 3.31055 3.82742L3.40306 4.15414C3.84248 3.96745 4.23565 4.43419 4.88322 4.27083C4.79071 4.15414 4.72133 4.0608 4.65194 3.96745Z" fill="#1FC150"/>
<path d="M5.1608 3.68738C5.20706 3.78073 5.29957 3.87408 5.39208 3.94409C5.62335 3.64071 5.55397 3.03394 5.11455 2.96393V2.98727C5.06829 3.08061 5.06829 3.17396 5.04517 3.24398C5.18393 3.36066 5.20706 3.52402 5.1608 3.68738Z" fill="#1FC150"/>
<path d="M13.3248 3.96736C13.2554 4.06071 13.186 4.1774 13.0935 4.24741C13.7411 4.41077 14.1342 3.94402 14.5737 4.13072L14.6662 3.804C14.2499 3.57063 13.7179 3.96736 13.3248 3.96736Z" fill="#1FC150"/>
<path d="M12.816 3.68738C12.7698 3.54736 12.7929 3.36066 12.9317 3.24398C12.9317 3.17396 12.9085 3.08061 12.8623 2.98727V2.96393C12.4229 3.03394 12.3766 3.64071 12.5847 3.94409C12.6773 3.85074 12.7698 3.78073 12.816 3.68738Z" fill="#1FC150"/>
<path d="M7.82056 4.52747C8.42187 4.20075 8.79191 3.64066 8.81504 2.75385C8.65315 2.75385 8.49125 2.77718 8.35249 2.80052C8.35249 3.38395 8.16747 3.78068 7.82056 4.03739C7.91307 4.01405 7.98245 3.99072 8.05183 3.96738L8.28311 3.85069L8.16747 4.08407C8.07496 4.31744 7.95932 4.45746 7.82056 4.52747Z" fill="#1FC150"/>
<path d="M10.1333 4.52751C10.0176 4.4575 9.87887 4.31748 9.78636 4.10744L9.67073 3.87407L9.902 3.99076C9.97139 4.01409 10.0408 4.03743 10.1333 4.06077C9.78636 3.80406 9.60134 3.40733 9.60134 2.8239C9.46258 2.80056 9.32381 2.77722 9.13879 2.77722C9.18505 3.6407 9.55509 4.22413 10.1333 4.52751Z" fill="#1FC150"/>
<path d="M10.7115 8.79821L10.619 8.7282V8.47149H10.3877L10.3183 8.35481C10.0639 7.86472 9.57823 7.56134 9.0463 7.56134H8.93066C8.39873 7.56134 7.88992 7.86472 7.65865 8.35481L7.58926 8.47149H7.38112V8.7282L7.28861 8.79821C6.64104 9.28829 6.271 10.0351 6.271 10.8286C6.271 11.622 6.64104 12.3688 7.28861 12.8589L7.38112 12.9289V13.1856H7.58926L7.65865 13.3023C7.91305 13.7924 8.39873 14.0958 8.93066 14.0958H9.0463C9.57823 14.0958 10.087 13.7924 10.3183 13.3023L10.3877 13.1856H10.619V12.9289L10.7115 12.8589C11.359 12.3688 11.7291 11.622 11.7291 10.8286C11.7291 10.0351 11.359 9.31163 10.7115 8.79821ZM9.90202 13.0456H8.05181V12.6489H8.19058V12.4388H8.28309V12.2521H8.44498V10.9919H8.21371V10.3385H8.44498V10.2218H8.35247V10.0584H8.25996V9.70836H8.35247V9.545H8.46811V9.42832C8.30622 9.26496 8.14432 8.96157 8.30622 8.75154C8.46811 8.5415 8.79189 8.68153 8.79189 8.68153C8.79189 8.65819 8.79189 8.58818 8.79189 8.56484H8.76877L8.79189 8.51817L8.74564 8.5415V8.16811L8.79189 8.19145L8.76877 8.14477H9.13881L9.11568 8.19145L9.16193 8.16811V8.5415L9.11568 8.51817L9.13881 8.56484H9.11568C9.11568 8.58818 9.11568 8.65819 9.11568 8.68153C9.11568 8.68153 9.46259 8.5415 9.60136 8.75154C9.76325 8.98491 9.60136 9.26496 9.46259 9.42832V9.545H9.57823V9.70836H9.69387V10.0584H9.60136V10.2218H9.50885V10.3385H9.74012V10.9919H9.50885V12.2521H9.67074V12.4388H9.76325V12.6489H9.90202V13.0456V13.0456Z" fill="#1FC150"/>
<path d="M8.53746 9.31158H8.76873C8.76873 9.10155 8.72248 8.84484 8.60684 8.72815L8.53746 8.65814C8.46807 8.65814 8.42182 8.68148 8.37556 8.75149C8.2368 8.96153 8.42182 9.21824 8.53746 9.31158Z" fill="#FFD400"/>
<path d="M9.50881 9.59167H8.44495V9.68502H9.50881V9.59167Z" fill="#FFD400"/>
<path d="M9.57817 9.755H8.35242V9.91836H9.57817V9.755Z" fill="#FFD400"/>
<path d="M9.41626 10.175H8.56055V10.3384H9.41626V10.175Z" fill="#FFD400"/>
<path d="M9.39314 9.38159H8.56055V9.52162H9.39314V9.38159Z" fill="#FFD400"/>
<path d="M9.39314 9.31162C9.50878 9.19494 9.6938 8.96157 9.55503 8.77487C9.50878 8.70486 9.46252 8.68152 9.39314 8.68152L9.32376 8.75153C9.20812 8.84488 9.16187 9.12493 9.16187 9.33496H9.39314V9.31162Z" fill="#FFD400"/>
<path d="M8.90752 8.4248H9.04628L9.02315 8.33145L9.09254 8.35479V8.2381L9.02315 8.26144L9.04628 8.16809H8.90752L8.93065 8.26144L8.83813 8.2381V8.35479L8.93065 8.33145L8.90752 8.4248Z" fill="#FFD400"/>
<path d="M8.97691 8.65813C9.028 8.65813 9.06942 8.61634 9.06942 8.56478C9.06942 8.51323 9.028 8.47144 8.97691 8.47144C8.92582 8.47144 8.8844 8.51323 8.8844 8.56478C8.8844 8.61634 8.92582 8.65813 8.97691 8.65813Z" fill="#FFD400"/>
<path d="M8.83804 9.31162H9.09244C9.09244 9.07825 9.1387 8.7982 9.27746 8.68152L9.09244 8.75153L9.06932 8.68152C9.04619 8.70486 9.02306 8.70486 8.97681 8.70486C8.95368 8.70486 8.90742 8.70486 8.8843 8.68152L8.86117 8.75153L8.67615 8.68152C8.81491 8.7982 8.83804 9.07825 8.83804 9.31162Z" fill="#FFD400"/>
<path d="M9.50881 10.0117H8.44495V10.1051H9.50881V10.0117Z" fill="#FFD400"/>
<path d="M9.55499 12.3454H8.37549V12.4621H9.55499V12.3454Z" fill="#FFD400"/>
<path d="M9.67061 12.5087H8.28296V12.6488H9.67061V12.5087Z" fill="#FFD400"/>
<path d="M9.80935 12.7188H8.14417V12.9288H9.80935V12.7188Z" fill="#FFD400"/>
<path d="M9.41626 12.2754V10.9452H8.56055V12.2521H9.41626V12.2754ZM9.20812 11.0852H9.2775V12.0887H9.20812V11.0852ZM8.95371 11.0852H9.0231V12.0887H8.95371V11.0852ZM8.69931 11.0852H8.76869V12.0887H8.69931V11.0852Z" fill="#FFD400"/>
<path d="M8.72241 10.665H8.74554V10.6183L8.72241 10.665Z" fill="#FFD400"/>
<path d="M8.30615 10.4084V10.8751H9.62442V10.4084H8.30615ZM8.56055 10.7584C8.53743 10.7584 8.5143 10.7584 8.49117 10.7351V10.6884C8.49117 10.6884 8.49117 10.6884 8.5143 10.6884L8.53743 10.7118H8.56055C8.58368 10.7118 8.60681 10.7118 8.60681 10.6884C8.60681 10.6651 8.60681 10.6651 8.56055 10.6651H8.53743V10.6651C8.56055 10.6651 8.56055 10.6651 8.56055 10.6418C8.56055 10.6184 8.53743 10.6184 8.53743 10.6184H8.5143V10.6418H8.49117V10.5951C8.5143 10.5951 8.53743 10.5717 8.56055 10.5717C8.60681 10.5717 8.62994 10.5951 8.62994 10.6184C8.62994 10.6418 8.62994 10.6651 8.60681 10.6651C8.62994 10.6651 8.62994 10.6884 8.62994 10.7118C8.62994 10.7351 8.58368 10.7584 8.56055 10.7584ZM8.86121 10.7351H8.7687C8.7687 10.7351 8.7687 10.7351 8.7687 10.7118H8.79183L8.7687 10.6884H8.69932V10.7118H8.72245C8.72245 10.7118 8.72245 10.7118 8.72245 10.7351H8.65307C8.65307 10.7351 8.65307 10.7351 8.65307 10.7118H8.67619L8.74558 10.5484H8.7687L8.86121 10.7351ZM9.06936 10.7584H8.99998L8.9306 10.6651V10.7118H8.95372C8.95372 10.7118 8.95372 10.7118 8.95372 10.7351H8.86121C8.86121 10.7351 8.86121 10.7351 8.86121 10.7118H8.88434V10.5717H8.86121C8.86121 10.5717 8.86121 10.5717 8.86121 10.5484H8.95372C8.95372 10.5484 8.95372 10.5484 8.95372 10.5717H8.9306V10.6418L8.97685 10.5717C8.97685 10.5717 8.97685 10.5717 8.97685 10.5484H9.04623C9.04623 10.5484 9.04623 10.5484 9.04623 10.5717H9.0231L8.97685 10.6184L9.04623 10.7118L9.06936 10.7584C9.06936 10.7351 9.06936 10.7351 9.06936 10.7584ZM9.16187 10.7584C9.09249 10.7584 9.06936 10.7118 9.06936 10.6651C9.06936 10.5951 9.09249 10.5717 9.16187 10.5717C9.23125 10.5717 9.25438 10.6184 9.25438 10.6651C9.25438 10.7118 9.20813 10.7584 9.16187 10.7584ZM9.46253 10.7584H9.37002C9.37002 10.7584 9.37002 10.7584 9.37002 10.7351H9.39315V10.6651H9.32376V10.7118H9.34689C9.34689 10.7118 9.34689 10.7118 9.34689 10.7351H9.25438C9.25438 10.7351 9.25438 10.7351 9.25438 10.7118H9.27751V10.5717H9.25438C9.25438 10.5717 9.25438 10.5717 9.25438 10.5484H9.34689C9.34689 10.5484 9.34689 10.5484 9.34689 10.5717H9.32376V10.6184H9.39315V10.5717H9.37002C9.37002 10.5717 9.37002 10.5717 9.37002 10.5484H9.46253C9.46253 10.5484 9.46253 10.5484 9.46253 10.5717H9.4394V10.7118L9.46253 10.7584C9.46253 10.7351 9.46253 10.7351 9.46253 10.7584Z" fill="#FFD400"/>
<path d="M9.16186 10.5717C9.13873 10.5717 9.1156 10.5951 9.1156 10.6417C9.1156 10.6884 9.13873 10.7117 9.16186 10.7117C9.18498 10.7117 9.20811 10.6651 9.20811 10.6417C9.18498 10.6184 9.18498 10.5717 9.16186 10.5717Z" fill="#FFD400"/>
<path d="M14.1805 17.4097C14.2037 17.4097 14.2037 17.4097 14.1805 17.4097C14.1574 17.3397 14.1343 17.3164 14.088 17.2697C14.088 17.2931 14.1111 17.3397 14.088 17.3631L14.1805 17.4097Z" fill="#FFE000"/>
<path d="M7.70483 17.4098C7.70483 17.6198 7.72796 17.8298 7.77422 18.0399C7.93611 17.9698 8.098 17.8998 8.23677 17.7832C8.25989 17.5498 8.39866 17.3397 8.60681 17.2231C8.62993 17.153 8.65306 17.0597 8.67619 16.9897L7.70483 17.4098Z" fill="#FFE000"/>
<path d="M8.95369 16.8496L8.79179 16.9196C8.76867 16.9896 8.74554 17.083 8.72241 17.153C8.81492 17.1297 8.90743 17.1063 8.99994 17.1063C9.09245 17.1063 9.18496 17.1297 9.27747 17.153C9.25435 17.0596 9.23122 16.9663 9.20809 16.8729L8.99994 16.9663L8.95369 16.8496Z" fill="#FFE000"/>
<path d="M9.41636 17.1997C9.62451 17.3164 9.76328 17.5265 9.7864 17.7598C9.92517 17.8765 10.0871 17.9699 10.249 18.0165C10.2952 17.7832 10.3415 17.5731 10.3183 17.3864L9.32385 16.8964C9.34698 17.013 9.37011 17.1064 9.41636 17.1997Z" fill="#FFE000"/>
<path d="M8.67615 18.5766C8.74553 18.74 8.86117 18.9733 8.99993 19.09C9.1387 18.9733 9.27746 18.74 9.34685 18.5766C9.23121 18.6933 8.81491 18.6933 8.67615 18.5766Z" fill="#FFE000"/>
<path d="M4.67514 18.0865L4.76765 18.53L4.65201 18.3666L4.42074 18.7633C4.35135 18.8567 4.39761 18.9267 4.49012 18.88L4.58263 18.8567C4.67514 18.8333 4.8139 18.7167 4.86016 18.6L4.90641 18.53C5.11456 18.1799 4.67514 18.0865 4.67514 18.0865Z" fill="#FFE000"/>
<path d="M2.87117 18.2498L3.07932 18.2265L2.8943 17.6664C2.87117 17.573 2.77866 17.5264 2.68615 17.5497L2.61677 17.573C2.52426 17.5964 2.47801 17.6897 2.50113 17.7831L2.61677 18.1565C2.6399 18.2032 2.75554 18.1798 2.77866 18.2498C2.94056 18.5532 3.19496 18.5532 3.19496 18.5532L3.12558 18.3198L2.87117 18.2498Z" fill="#FFE000"/>
<path d="M4.32824 17.5731L4.23573 17.2697C4.2126 17.1764 4.12009 17.1297 4.02758 17.153L3.9582 17.1764C3.86569 17.1997 3.81944 17.2931 3.84256 17.3864L4.00446 17.8998L4.23573 17.6898L4.05071 18.0165L4.07384 18.0632L4.14322 18.2966C4.14322 18.2966 4.35137 18.0165 4.30511 17.7831C4.25886 17.7131 4.35137 17.6665 4.32824 17.5731Z" fill="#FFE000"/>
<path d="M3.56496 17.4565C3.54183 17.3865 3.44932 17.3398 3.37994 17.3631L3.2643 17.4098C3.19492 17.4331 3.14866 17.5265 3.17179 17.5965L3.31055 18.0166L3.63434 18.1799H3.42619C3.47245 18.39 3.58808 18.4833 3.72685 18.5767C3.72685 18.5767 3.84249 18.2966 3.7731 18.0866L3.56496 17.4565Z" fill="#FFE000"/>
<path d="M13.2786 17.0363L13.5562 17.1763C13.6024 17.1063 13.7181 17.013 13.8799 17.0596L13.9493 17.083C13.9493 17.083 13.9493 17.083 13.9725 17.083C13.4637 16.4762 13.1399 15.8928 13.0705 15.146L12.1454 15.5194C12.1916 15.6594 12.261 15.7994 12.3304 15.9395L12.5848 15.6361L12.6542 15.7061L12.3767 16.0328C12.4229 16.1028 12.4692 16.1728 12.5154 16.2428L12.7236 15.9861L12.793 16.0561L12.5617 16.3362C12.6079 16.4062 12.6542 16.4762 12.7236 16.5229L12.9317 16.2895L13.0011 16.3595L12.793 16.6162C12.9086 16.7796 13.0705 16.9196 13.2786 17.0363Z" fill="#FFE000"/>
<path d="M4.09692 17.0597C4.16631 17.0597 4.23569 17.1064 4.28194 17.153L4.92951 16.8963C5.04515 16.8263 5.13766 16.733 5.23017 16.6396L4.9989 16.3596L5.06828 16.2896L5.29955 16.5696C5.34581 16.4996 5.39206 16.4529 5.46145 16.3829L5.16079 16.0795L5.23017 16.0095L5.46145 16.3129C5.5077 16.2429 5.55396 16.1729 5.60021 16.1029L5.29955 15.7295L5.36894 15.6595L5.64647 15.9862C5.78523 15.7061 5.87774 15.4494 5.90087 15.2161L4.95264 14.7726C4.95264 15.6595 4.65198 16.3829 4.09692 17.0597Z" fill="#FFE000"/>
<path d="M0.882285 4.62089V4.36418L1.04418 4.57421C1.18294 4.76091 1.32171 4.92427 1.46047 5.0643C1.36796 4.85426 1.29858 4.59755 1.27545 4.3175C0.859157 3.71074 0.512245 3.12731 0.396607 2.6839C0.142204 3.89743 0.465989 4.71424 0.997922 5.36768C0.92854 5.13431 0.882285 4.90093 0.882285 4.62089Z" fill="#FFE000"/>
<path d="M3.10243 8.89172C3.0793 8.86839 3.0793 8.84505 3.05618 8.82171L2.91741 8.61168L3.14869 8.68169C3.31058 8.72836 3.4956 8.7517 3.70375 8.7517C3.33371 8.65835 2.96367 8.47165 2.70926 8.05158C2.06169 7.7482 1.41412 7.25812 0.997829 6.67469C0.835936 6.558 0.674043 6.44131 0.535278 6.27795C0.812808 7.49149 1.99231 8.54166 3.10243 8.89172Z" fill="#FFE000"/>
<path d="M3.44936 7.91154C3.0562 7.74818 2.77867 7.46813 2.61677 7.18808C2.1311 6.93137 1.57604 6.5113 1.22912 5.90454C1.02098 5.74118 0.835955 5.55448 0.627808 5.32111C0.674063 6.5113 1.64542 7.42146 2.6399 7.91154C2.61677 7.8882 2.61677 7.86486 2.59365 7.81819L2.50114 7.60815L2.70928 7.7015C2.96369 7.81819 3.21809 7.86486 3.44936 7.91154Z" fill="#FFE000"/>
<path d="M2.68618 6.27778C2.66305 6.20777 2.66305 6.13776 2.63992 6.06775L2.6168 5.85771L2.77869 5.9744C2.96371 6.11442 3.14873 6.20777 3.33375 6.30112C3.17186 6.1611 3.03309 5.92773 3.00996 5.601C2.2005 5.20427 1.83046 4.71419 1.32166 4.10742C1.39104 5.18093 1.99235 5.7877 2.68618 6.27778Z" fill="#FFE000"/>
<path d="M4.39755 10.6419C4.49006 10.5019 4.6057 10.3852 4.74446 10.3152C4.53632 10.3385 4.32817 10.3385 4.12002 10.3385C3.44932 10.3385 2.84801 10.1985 2.3392 9.94177C2.17731 9.98845 2.03855 10.0351 1.89978 10.1285C2.36233 10.6419 3.31056 10.8519 4.39755 10.6419Z" fill="#FFE000"/>
<path d="M5.11458 10.8753C5.06833 10.8753 4.99894 10.8753 4.92956 10.8753C4.76767 10.8753 4.60578 10.852 4.42076 10.8286L4.28199 10.8053L4.32825 10.7353C4.07384 10.782 3.81944 10.8053 3.56504 10.8053C3.33376 10.8053 3.12562 10.782 2.91747 10.7586C2.59368 10.852 2.36241 10.9687 2.2699 11.1787C3.31064 11.4821 4.18948 11.3187 5.11458 10.8753Z" fill="#FFE000"/>
<path d="M4.97583 10.1752H4.9527C4.67517 10.1752 4.32826 10.1285 3.91196 10.0352L3.7732 10.0118L3.84258 9.89516C3.86571 9.84848 3.91196 9.80181 3.93509 9.75514C2.91748 9.70846 2.08489 9.33507 1.43732 8.63495C1.32168 8.65829 1.22917 8.70496 1.15979 8.70496C2.03864 10.1052 3.47254 10.3852 4.97583 10.1752Z" fill="#FFE000"/>
<path d="M4.02763 9.6618C4.07388 9.61513 4.12014 9.56845 4.16639 9.54512C3.7501 9.45177 3.42631 9.26507 3.21816 9.00836C2.75561 8.89168 2.24681 8.63497 1.80739 8.26157C1.4836 8.00486 1.2292 7.72481 0.997923 7.42143C0.882286 7.39809 0.766648 7.37476 0.697266 7.37476C1.39109 8.79833 2.45496 9.61513 4.02763 9.6618Z" fill="#FFE000"/>
<path d="M3.58822 6.34794C4.51332 6.76801 5.39217 6.97805 5.50781 7.98155C5.11464 6.67466 3.95826 6.8847 2.73251 6.04456C2.77876 6.53464 3.12567 6.86136 3.65761 7.0714C4.3283 7.30477 4.999 7.5148 5.2534 8.19158C4.53645 7.14141 3.42633 7.44479 2.54749 6.76801C2.66312 7.18808 3.05629 7.79485 3.86575 7.91154C4.44394 8.05156 4.7446 8.14491 5.04526 8.58832C4.42081 7.93487 3.49571 8.12157 2.66312 7.77151C3.17193 8.96171 4.37456 8.58832 5.06838 9.0784C4.46707 8.79835 3.63448 8.93838 3.12567 8.77501C3.38008 9.17175 3.79637 9.38178 4.25892 9.47513C4.51332 9.31177 4.79085 9.31177 5.09151 9.28843C5.20715 9.28843 5.34591 9.2651 5.46155 9.2651C5.11464 8.8917 5.18402 8.23826 5.78534 8.2616C5.85472 6.11457 3.88888 6.25459 3.12567 5.32111C3.05629 5.90454 3.33382 6.20792 3.58822 6.34794Z" fill="#FFE000"/>
<path d="M7.10361 4.50432C7.33489 4.59767 7.82057 4.64434 8.0981 4.06091C7.88995 4.1776 7.61242 4.1776 7.38114 4.15426C7.05736 4.13092 6.73357 4.06091 6.38666 4.08425C6.29415 4.08425 6.13226 4.1776 6.10913 4.29429C6.71045 4.1776 6.87234 4.41097 7.10361 4.50432Z" fill="#FFE000"/>
<path d="M8.46807 5.83441C8.46807 6.02111 8.46807 6.20781 8.37556 6.34783L8.25992 6.53453L8.21367 6.32449C8.19054 6.25448 8.16741 6.18447 8.14428 6.11446C8.09803 6.25448 8.05177 6.39451 7.95926 6.51119L7.8205 6.72123L7.79737 6.46452C7.79737 6.41784 7.79737 6.39451 7.77424 6.34783C7.75112 6.44118 7.70486 6.53453 7.63548 6.62788L7.61235 6.67455C7.58922 6.83791 7.5661 7.00127 7.54297 7.09462C7.75112 7.04795 8.00552 6.7679 8.09803 6.53453C8.14428 6.67455 8.23679 6.86125 8.3293 6.93126C8.4912 6.74456 8.53745 6.51119 8.58371 6.23114C8.67622 6.37117 8.79185 6.41784 9 6.44118C9.20815 6.41784 9.32379 6.34783 9.4163 6.23114C9.43942 6.51119 9.50881 6.74456 9.6707 6.93126C9.74008 6.86125 9.85572 6.67455 9.90197 6.53453C9.99448 6.74456 10.2489 7.04795 10.457 7.09462C10.4339 7.00127 10.4108 6.83791 10.3877 6.67455L10.3645 6.65121C10.2951 6.55787 10.2489 6.46452 10.2258 6.37117C10.2258 6.39451 10.2258 6.44118 10.2026 6.48785L10.1564 6.72123L10.0176 6.51119C9.9251 6.39451 9.87885 6.25448 9.83259 6.11446C9.80946 6.18447 9.78634 6.25448 9.76321 6.32449L9.71695 6.53453L9.60132 6.34783C9.50881 6.20781 9.50881 6.02111 9.50881 5.83441C9.39317 5.9511 9.2544 6.04445 9.13877 6.11446C9.11564 6.23114 9.04626 6.34783 8.97687 6.44118C8.90749 6.34783 8.86124 6.20781 8.81498 6.11446C8.72247 6.04445 8.58371 5.9511 8.46807 5.83441Z" fill="#FFE000"/>
<path d="M7.77427 4.57429C7.3811 4.78433 7.05731 4.62096 6.87229 4.48094C6.64102 4.31758 6.40974 4.31758 6.17847 4.36426C6.61789 4.6443 6.456 5.15772 6.75665 5.29774C6.89542 5.39109 7.21921 5.60113 7.35797 5.97452C7.42735 5.85784 7.49674 5.43777 7.1267 4.97102C7.21921 5.0177 7.33484 5.15772 7.33484 5.15772C7.56612 5.29774 7.75114 5.4611 7.86677 5.6478C7.91303 5.36776 7.77427 5.11105 7.54299 4.831C7.91303 5.27441 8.32933 5.29774 8.60686 5.2044C8.28307 5.18106 7.93616 4.85434 7.77427 4.57429ZM6.38661 4.43427C6.456 4.43427 6.59476 4.41093 6.80291 4.52762C6.73353 4.59763 6.57163 4.71431 6.38661 4.43427Z" fill="#FFE000"/>
<path d="M7.88985 5.27429C7.93611 5.39098 7.95924 5.531 7.93611 5.69436L7.88985 5.95107L7.75109 5.74104C7.65858 5.60101 7.54294 5.48433 7.40417 5.39098C7.49668 5.67102 7.47356 5.88106 7.4273 6.02108C7.49669 6.20778 7.54294 6.41782 7.54294 6.60451C7.68171 6.39448 7.72796 6.18444 7.72796 5.95107C7.79734 6.11443 7.8436 6.27779 7.86672 6.46449C8.00549 6.25445 8.07487 6.04442 8.098 5.81105C8.19051 5.97441 8.25989 6.13777 8.28302 6.30113C8.39866 6.13777 8.3524 5.83439 8.32928 5.57768C8.49117 5.76437 8.74557 5.99775 8.90746 6.06776C8.81495 5.81105 8.62993 5.57768 8.44491 5.39098C8.42179 5.36764 8.098 5.41432 7.88985 5.27429Z" fill="#FFE000"/>
<path d="M7.14979 7.63145C6.5716 7.93484 6.59472 8.51827 6.29407 8.63495C6.36345 8.65829 6.4097 8.68163 6.47909 8.68163C6.54847 8.61162 6.59473 8.51827 6.64098 8.42492C6.826 8.14487 7.03415 7.79481 7.58921 7.65479C7.58921 7.63145 7.56608 7.60812 7.56608 7.58478C7.47357 7.60812 7.40419 7.63145 7.33481 7.63145C7.31168 7.63145 7.28855 7.63145 7.26542 7.63145H7.14979Z" fill="#FFE000"/>
<path d="M3.65752 7.18804C3.19497 7.00135 2.89431 6.74464 2.75555 6.41792C2.293 6.13787 1.89983 5.78781 1.59917 5.3444C1.3679 5.13437 1.18288 4.901 0.974731 4.64429C0.974731 5.83449 1.73794 6.60461 2.5474 7.04802C2.52427 6.97801 2.47802 6.88466 2.45489 6.81465L2.38551 6.5346L2.59366 6.69796C2.94057 6.95467 3.28748 7.07136 3.65752 7.18804Z" fill="#FFE000"/>
<path d="M0.535365 5.34435V5.0643L0.720385 5.27434C0.882278 5.48437 1.04417 5.62439 1.20606 5.76442L0.928533 5.41436C0.627875 5.04096 0.419728 4.62089 0.30409 4.20082C0.257835 4.10747 0.21158 4.01413 0.165325 3.92078C-0.0890776 5.15765 0.350345 5.76442 0.85915 6.37119C0.67413 6.0678 0.558492 5.71774 0.535365 5.34435Z" fill="#FFE000"/>
<path d="M4.88322 12.5789C4.76759 12.6489 4.65195 12.6956 4.51318 12.7423L4.81384 12.8823C4.81384 12.8123 4.8601 12.6956 4.88322 12.5789Z" fill="#FFE000"/>
<path d="M5.41516 13.2557L5.50767 13.3024L5.57705 13.2557L5.73895 13.3257C5.73895 13.209 5.73895 13.0457 5.73895 12.9056C5.64644 13.0223 5.5308 13.1623 5.41516 13.2557Z" fill="#FFE000"/>
<path d="M6.22473 13.5591L6.34037 13.6058L6.40975 13.7225L6.59477 13.8158C6.54852 13.6291 6.52539 13.3958 6.52539 13.1857C6.43288 13.3258 6.34037 13.4424 6.22473 13.5591Z" fill="#FFE000"/>
<path d="M2.94067 12.0189L3.26446 12.1822C3.98141 12.1589 4.5596 11.8555 5.13779 11.4821V11.4588C5.13779 11.2487 5.27655 10.992 5.39219 10.8287C4.79087 11.1554 4.25894 11.3421 3.72701 11.4121C3.35697 11.5988 3.05631 11.7855 2.94067 12.0189Z" fill="#FFE000"/>
<path d="M16.9327 4.57421L17.0945 4.36418V4.62089C17.0945 4.90093 17.0483 5.13431 16.9789 5.36768C17.5108 4.71424 17.8346 3.89743 17.5802 2.6839C17.4646 3.12731 17.1177 3.71074 16.7014 4.3175C16.6783 4.59755 16.6089 4.83092 16.5164 5.0643C16.6551 4.90093 16.7939 4.73757 16.9327 4.57421Z" fill="#FFE000"/>
<path d="M15.2445 8.07482C14.9901 8.49489 14.62 8.65825 14.25 8.77493C14.4581 8.75159 14.6663 8.7516 14.8051 8.70492L15.0363 8.63491L14.8976 8.84494C14.8744 8.86828 14.8744 8.89162 14.8513 8.91496C15.9614 8.5649 17.1409 7.51472 17.3953 6.32452C17.2335 6.46455 17.0716 6.60457 16.9328 6.72126C16.5396 7.30469 15.8921 7.77143 15.2445 8.07482Z" fill="#FFE000"/>
<path d="M15.3368 7.93479C16.3313 7.42137 17.3026 6.51122 17.3489 5.34436C17.1639 5.57773 16.9557 5.76443 16.7476 5.92779C16.4007 6.53456 15.8225 6.93129 15.3599 7.21134C15.198 7.51472 14.9205 7.77143 14.5273 7.93479C14.7817 7.88812 15.013 7.84144 15.2674 7.74809L15.4756 7.65475L15.3831 7.86478C15.3599 7.86478 15.3599 7.91145 15.3368 7.93479Z" fill="#FFE000"/>
<path d="M14.62 6.30122C14.805 6.20787 14.99 6.11452 15.1751 5.9745L15.3369 5.85781L15.3138 6.06785C15.3138 6.13786 15.2907 6.20787 15.2676 6.27788C15.9845 5.81114 16.5627 5.18103 16.609 4.13086C16.1233 4.73763 15.7532 5.22771 14.9207 5.62444C14.9207 5.92783 14.7819 6.1612 14.62 6.30122Z" fill="#FFE000"/>
<path d="M13.8567 10.3385C13.6717 10.3385 13.4636 10.3385 13.2323 10.3152C13.3479 10.3852 13.4636 10.5019 13.5792 10.6419C14.6662 10.852 15.6144 10.6653 16.077 10.1518C15.9382 10.0585 15.7995 9.98849 15.6376 9.96515C15.1288 10.1985 14.5274 10.3385 13.8567 10.3385Z" fill="#FFE000"/>
<path d="M15.0594 10.7586C14.8513 10.8053 14.6431 10.8053 14.4118 10.8053C14.1574 10.8053 13.903 10.782 13.6486 10.7353L13.6949 10.8053L13.5561 10.8286C13.3711 10.8753 13.2092 10.8753 13.0473 10.8753C12.9779 10.8753 12.9317 10.8753 12.8623 10.8753C13.7643 11.3187 14.6663 11.4821 15.6839 11.1787C15.6145 10.9687 15.3832 10.852 15.0594 10.7586Z" fill="#FFE000"/>
<path d="M14.0417 9.75505C14.0648 9.80173 14.1111 9.8484 14.1342 9.89508L14.2036 10.0118L14.0648 10.0351C13.6485 10.1284 13.3016 10.1751 13.0241 10.1751H13.001C14.4811 10.3852 15.9382 10.1051 16.817 8.72821C16.7476 8.70488 16.632 8.68154 16.5395 8.6582C15.8688 9.33498 15.0362 9.70838 14.0417 9.75505Z" fill="#FFE000"/>
<path d="M16.1926 8.28492C15.7532 8.63498 15.2444 8.89169 14.7818 9.03172C14.5506 9.28843 14.2268 9.47512 13.8336 9.56847C13.8799 9.61515 13.9261 9.63848 13.9724 9.68516C15.5451 9.61515 16.6089 8.79834 17.3259 7.42145C17.2565 7.42145 17.1409 7.44478 17.0252 7.46812C16.7708 7.74817 16.5164 8.02821 16.1926 8.28492Z" fill="#FFE000"/>
<path d="M12.4923 9.26499C12.631 9.28833 12.7467 9.28833 12.8623 9.28833C13.163 9.31167 13.4405 9.31167 13.6949 9.47503C14.1574 9.38168 14.5737 9.17164 14.8281 8.77491C14.3193 8.93827 13.5099 8.79825 12.8854 9.07829C13.5793 8.58821 14.7819 8.96161 15.2676 7.81808C14.435 8.16814 13.5099 7.98144 12.8854 8.63489C13.1861 8.19148 13.4867 8.09813 14.0649 7.95811C14.8975 7.81808 15.2676 7.23465 15.3832 6.81458C14.5044 7.49136 13.3942 7.18798 12.6773 8.23815C12.9548 7.53804 13.6024 7.328 14.2731 7.11797C14.805 6.90793 15.1519 6.58121 15.1982 6.09113C13.9724 6.93127 12.816 6.72123 12.4229 8.02812C12.5385 7.02462 13.4405 6.79125 14.3425 6.39451C14.5969 6.23115 14.8513 5.92777 14.805 5.36768C14.0418 6.27783 12.076 6.16114 12.1453 8.30817C12.7929 8.23815 12.8623 8.8916 12.4923 9.26499Z" fill="#FFE000"/>
<path d="M10.8733 4.50432C11.1045 4.38763 11.2664 4.1776 11.8678 4.29429C11.8446 4.1776 11.7059 4.08425 11.5902 4.08425C11.2433 4.06091 10.9195 4.13092 10.5957 4.15426C10.3645 4.1776 10.0869 4.1776 9.87878 4.06091C10.1563 4.64434 10.642 4.59767 10.8733 4.50432Z" fill="#FFE000"/>
<path d="M9.62439 5.57768C9.60126 5.83439 9.555 6.13777 9.67064 6.30113C9.7169 6.13777 9.78628 5.95107 9.85566 5.81105C9.87879 6.04442 9.94817 6.25445 10.0869 6.46449C10.1101 6.27779 10.1563 6.11443 10.2257 5.95107C10.2257 6.18444 10.272 6.41782 10.4107 6.60451C10.4107 6.39448 10.4338 6.20778 10.5264 6.02108C10.4801 5.88106 10.457 5.67102 10.5495 5.39098C10.4107 5.48433 10.2951 5.62435 10.2026 5.74104L10.0638 5.95107L10.0176 5.69436C9.99443 5.55434 10.0176 5.41432 10.0638 5.27429C9.85566 5.39098 9.53188 5.36764 9.48562 5.36764C9.3006 5.55434 9.13871 5.78771 9.02307 6.04442C9.23122 5.97441 9.46249 5.76437 9.62439 5.57768Z" fill="#FFE000"/>
<path d="M10.8271 7.63143L10.7346 7.65477C10.7114 7.65477 10.6883 7.65477 10.6652 7.65477C10.5958 7.65477 10.5033 7.63143 10.4339 7.60809C10.4339 7.63143 10.4108 7.65477 10.4108 7.6781C10.9658 7.79479 11.174 8.14485 11.359 8.44823C11.4053 8.54158 11.4746 8.63493 11.5209 8.70494C11.5903 8.70494 11.6365 8.68161 11.7059 8.65827C11.3821 8.51824 11.4053 7.93481 10.8271 7.63143Z" fill="#FFE000"/>
<path d="M15.4295 7.04802C16.239 6.58128 17.0022 5.81115 17.0022 4.64429C16.794 4.92433 16.5859 5.13437 16.3778 5.3444C16.1002 5.81115 15.6839 6.16121 15.2445 6.44125C15.1057 6.76797 14.8051 7.00135 14.3657 7.18804H14.3425C14.6894 7.0947 15.0595 6.97801 15.3833 6.7213L15.5914 6.55794L15.522 6.83799C15.4989 6.88466 15.4527 6.95467 15.4295 7.04802Z" fill="#FFE000"/>
<path d="M16.7708 5.76443C16.9326 5.62441 17.0945 5.46105 17.2564 5.27435L17.4415 5.06432V5.34436C17.4183 5.71776 17.3258 6.09116 17.1408 6.41788C17.6496 5.78777 18.089 5.20434 17.8346 3.96747C17.7884 4.06082 17.7421 4.15417 17.6959 4.24751C17.5802 4.69092 17.3721 5.08765 17.0714 5.46105L16.7708 5.76443Z" fill="#FFE000"/>
<path d="M14.9207 11.8788C14.782 11.7155 14.5275 11.5755 14.25 11.4121C13.7181 11.3421 13.1862 11.1554 12.5848 10.8287C12.7236 10.992 12.8392 11.2487 12.8392 11.4588V11.4821C13.348 11.8088 13.8569 12.0655 14.4582 12.1356C14.5969 12.0422 14.7588 11.9489 14.9207 11.8788Z" fill="#FFE000"/>
<path d="M13.371 12.7189C13.2785 12.6723 13.186 12.6256 13.0935 12.5789C13.1166 12.6723 13.1166 12.7656 13.1398 12.8356C13.2323 12.8123 13.3017 12.7656 13.371 12.7189Z" fill="#FFE000"/>
<path d="M12.5153 13.2091C12.4228 13.1158 12.3303 13.0224 12.2378 12.9291C12.2609 13.0924 12.2609 13.2325 12.2378 13.3491C12.3303 13.3025 12.4228 13.2558 12.5153 13.2091Z" fill="#FFE000"/>
<path d="M11.3589 13.8158C11.4977 13.7458 11.6364 13.6525 11.7983 13.5825C11.6827 13.4424 11.567 13.3258 11.4745 13.1857C11.4514 13.4424 11.4283 13.6525 11.3589 13.8158Z" fill="#FFE000"/>
<path d="M14.0187 12.3689C13.9493 12.2755 13.8799 12.1822 13.7874 12.0888C13.4174 11.9721 13.0936 11.7621 12.7467 11.5521H12.7235C12.6773 11.5521 12.6542 11.5521 12.6079 11.5521C12.3997 11.5521 12.1685 11.482 11.9835 11.3654C11.9835 11.412 11.9603 11.4354 11.9603 11.482C12.3997 11.9955 12.8623 12.4389 13.4867 12.6722C13.6718 12.5556 13.8568 12.4622 14.0187 12.3689Z" fill="#FFE000"/>
<path d="M13.0472 12.9057C13.0472 12.789 13.0241 12.6723 12.9778 12.5323C12.5847 12.2989 12.2378 11.9722 11.9371 11.5988C11.8909 11.7388 11.8446 11.8789 11.7983 12.0189C11.9834 12.4623 12.2378 12.8357 12.6078 13.1624C12.7466 13.0691 12.9085 12.999 13.0472 12.9057Z" fill="#FFE000"/>
<path d="M12.1222 12.7888C11.9603 12.5788 11.8447 12.3454 11.7522 12.1121C11.6365 12.3454 11.4978 12.5555 11.3127 12.7422C11.4515 13.0222 11.6365 13.2789 11.8678 13.5356C11.9603 13.489 12.0528 13.4423 12.1453 13.3956C12.1685 13.2322 12.1453 13.0222 12.1222 12.7888Z" fill="#FFE000"/>
<path d="M11.359 13.0457C11.3128 12.9757 11.2665 12.9057 11.2434 12.8357C11.1509 12.929 11.0584 13.0224 10.9427 13.0924V13.4425V13.5125C11.0353 13.6292 11.1278 13.7458 11.2203 13.8625C11.3359 13.6758 11.3822 13.3958 11.359 13.0457Z" fill="#FFE000"/>
<path d="M10.5957 13.5358C10.5263 13.6291 10.4801 13.7458 10.3876 13.8158C10.457 13.9325 10.5495 14.0725 10.642 14.1892C10.7114 14.1426 10.7807 14.1192 10.8501 14.0725C10.8964 13.9559 10.9426 13.8392 10.9658 13.6758C10.9195 13.6291 10.8733 13.5591 10.8501 13.5125H10.5957V13.5358Z" fill="#FFE000"/>
<path d="M10.3182 13.8857C10.1794 14.0258 10.0175 14.1658 9.83252 14.2591C9.92503 14.3291 10.0175 14.3992 10.11 14.4692C10.2257 14.3992 10.3645 14.3525 10.4801 14.2825C10.4801 14.2125 10.457 14.1658 10.4338 14.0958C10.3876 14.0258 10.3645 13.9558 10.3182 13.8857Z" fill="#FFE000"/>
<path d="M9.97139 14.5392C9.97139 14.5159 9.97139 14.4925 9.97139 14.4925C9.90201 14.4459 9.8095 14.3759 9.74012 14.3058C9.57823 14.3759 9.39321 14.4225 9.18506 14.4459C9.25444 14.5859 9.32382 14.7026 9.41633 14.8193C9.60135 14.7259 9.78637 14.6326 9.97139 14.5392Z" fill="#FFE000"/>
<path d="M9.09251 14.4459C9.06938 14.4459 9.04625 14.4459 9.04625 14.4459H8.93062C8.90749 14.4459 8.88436 14.4459 8.88436 14.4459C8.83811 14.5626 8.7456 14.6793 8.69934 14.796L8.95374 14.9127C8.97687 14.866 9 14.796 9 14.7493C9.02313 14.8427 9.04625 14.9127 9.06938 15.006C9.16189 14.9593 9.2544 14.9127 9.34691 14.866C9.2544 14.726 9.16189 14.5859 9.09251 14.4459Z" fill="#FFE000"/>
<path d="M8.00562 14.5159L8.16751 14.5859L8.21376 14.5626L8.5838 14.7493C8.65319 14.6559 8.72257 14.5392 8.76882 14.4459C8.5838 14.4225 8.39878 14.3759 8.21376 14.3058C8.16751 14.3525 8.075 14.4692 8.00562 14.5159Z" fill="#FFE000"/>
<path d="M8.14427 14.2591C7.95925 14.1658 7.79736 14.0491 7.6586 13.8857C7.61234 13.9558 7.58921 14.0258 7.54296 14.0724C7.54296 14.1191 7.4967 14.2125 7.4967 14.2358L7.93613 14.4458C7.98238 14.4225 8.07489 14.3058 8.14427 14.2591Z" fill="#FFE000"/>
<path d="M7.38109 13.5358H7.14982C7.10356 13.5825 7.08043 13.6525 7.03418 13.6992C7.03418 13.8159 7.05731 13.9792 7.08043 14.0492L7.38109 14.1893C7.45047 14.0959 7.56611 13.9092 7.61237 13.8159C7.51986 13.7225 7.45047 13.6292 7.38109 13.5358Z" fill="#FFE000"/>
<path d="M7.05726 13.4424V13.0923C6.94162 12.999 6.84911 12.9056 6.7566 12.8123C6.71035 12.8823 6.66409 12.9756 6.61784 13.0456C6.59471 13.3723 6.61784 13.6991 6.71035 13.8858L6.7566 13.9091C6.84911 13.7924 6.96475 13.6057 7.03413 13.489V13.4424H7.05726Z" fill="#FFE000"/>
<path d="M6.24777 12.0889C6.13214 12.3222 6.0165 12.5556 5.85461 12.789C5.83148 13.0224 5.80835 13.2324 5.83148 13.3958L6.13214 13.5358C6.36341 13.2791 6.54843 13.0224 6.6872 12.7423C6.50218 12.5323 6.36341 12.3222 6.24777 12.0889Z" fill="#FFE000"/>
<path d="M6.03968 11.5754C5.71589 11.9488 5.36898 12.2989 4.97581 12.5323C4.92956 12.6956 4.8833 12.8823 4.8833 13.0223L5.34585 13.2324C5.73902 12.9057 6.01655 12.4156 6.20157 11.9722C6.13219 11.8555 6.08593 11.7155 6.03968 11.5754Z" fill="#FFE000"/>
<path d="M6.01651 11.4587C6.01651 11.4354 5.99338 11.3887 5.99338 11.3654C5.78523 11.482 5.57708 11.5754 5.34581 11.5754C5.29955 11.5754 5.27643 11.5754 5.23017 11.5754H5.20704C4.88326 11.7854 4.53635 11.9721 4.1663 12.1121C4.05067 12.2522 3.88877 12.4155 3.79626 12.5322L4.25881 12.7656C4.9989 12.5089 5.55396 12.0188 6.01651 11.4587Z" fill="#FFE000"/>
<path d="M14.0418 9.96516C13.4404 9.03167 12.6772 9.68512 11.7521 9.10168C11.6828 9.14836 11.5902 9.14836 11.4746 9.1717C11.729 9.52176 11.8909 9.91849 11.9603 10.3152C12.2609 10.782 12.8854 10.852 13.4867 10.7353C13.2786 10.3852 13.001 10.2685 12.6772 10.1985C12.3072 10.0818 12.0065 9.94183 11.914 9.54509C12.2378 10.2219 13.2092 10.1285 14.0418 9.96516Z" fill="#FFE000"/>
<path d="M12.7235 11.4588C12.7235 11.2255 12.5385 10.8987 12.3997 10.8054C12.2147 10.7354 12.099 10.642 12.0065 10.502C12.0297 10.6187 12.0297 10.7354 12.0297 10.8287C12.0297 10.9688 12.0065 11.1321 11.9834 11.2721C12.2378 11.4122 12.4922 11.4822 12.7235 11.4588Z" fill="#FFE000"/>
<path d="M5.55401 10.8053C5.41524 10.922 5.25335 11.2254 5.23022 11.4588C5.48463 11.4821 5.7159 11.4121 5.9703 11.2487C5.94718 11.1087 5.94718 10.9687 5.94718 10.8287C5.94718 10.712 5.94718 10.5719 5.9703 10.4553C5.87779 10.6186 5.76216 10.712 5.55401 10.8053Z" fill="#FFE000"/>
<path d="M5.25333 10.1985C4.92954 10.2685 4.65201 10.4086 4.44386 10.7353C5.06831 10.852 5.71588 10.782 6.01653 10.2685C6.08592 9.87181 6.27094 9.49842 6.50221 9.1717C6.38657 9.1717 6.29406 9.14836 6.22468 9.10168C5.32271 9.68512 4.53637 9.03167 3.93506 9.96516C4.76765 10.1519 5.739 10.2452 6.03966 9.54509C5.92402 9.94182 5.62337 10.0818 5.25333 10.1985Z" fill="#FFE000"/>
<path d="M10.9427 8.56491C11.1277 8.70493 11.2896 8.89163 11.4284 9.05499C11.5671 9.05499 11.6828 9.03166 11.7984 8.96164C11.174 8.84496 11.2896 7.93481 10.3414 7.74811L10.3182 7.77145C10.4107 7.86479 10.5033 7.98148 10.5726 8.1215H10.8502H10.9427V8.21485V8.56491Z" fill="#FFE000"/>
<path d="M6.57169 9.07831C6.71046 8.89161 6.87235 8.72825 7.05737 8.58823V8.23817V8.14482H7.14988H7.38115C7.45054 8.0048 7.54305 7.88811 7.63556 7.79476L7.61243 7.77142C6.6642 7.98146 6.77984 8.86827 6.1554 8.98496C6.29416 9.05497 6.4098 9.07831 6.57169 9.07831Z" fill="#FFE000"/>
<path d="M7.65857 7.56142C7.6817 7.60809 7.70482 7.65477 7.72795 7.70144C7.82046 7.60809 7.91297 7.53808 8.02861 7.46807C8.00548 7.4214 8.00548 7.35138 8.00548 7.28137C7.88984 7.4214 7.77421 7.51474 7.65857 7.56142Z" fill="#FFE000"/>
<path d="M9.99444 7.30463C9.99444 7.37464 9.97131 7.44465 9.97131 7.49132C10.087 7.56134 10.1795 7.63135 10.272 7.7247C10.2951 7.67802 10.3182 7.63135 10.3414 7.58467C10.2026 7.51466 10.087 7.42131 9.99444 7.30463Z" fill="#FFE000"/>
<path d="M8.67615 7.23471C8.69927 7.23471 8.74553 7.23471 8.76866 7.23471C8.76866 7.21137 8.74553 7.16469 8.74553 7.14136C8.7224 7.16469 8.69927 7.21137 8.67615 7.23471Z" fill="#FFE000"/>
<path d="M9.30064 7.23479C9.27751 7.21145 9.25438 7.16478 9.23126 7.1181C9.23126 7.16478 9.20813 7.18812 9.20813 7.21145C9.23126 7.23479 9.27751 7.23479 9.30064 7.23479Z" fill="#FFE000"/>
<path d="M10.4107 7.18808C10.2257 7.1414 10.0176 6.9547 9.90192 6.768C9.85566 6.86135 9.78628 6.9547 9.7169 7.02471L9.64751 7.09473L9.57813 7.02471C9.43937 6.86135 9.36998 6.65132 9.32373 6.44128C9.23122 6.62798 8.69929 6.62798 8.6299 6.44128C8.60678 6.62798 8.53739 6.83802 8.3755 7.02471L8.30612 7.09473L8.23674 7.02471C8.16735 6.97804 8.1211 6.88469 8.05172 6.768C7.91295 6.9547 7.7048 7.16474 7.54291 7.18808L7.47353 7.21141C7.42727 7.3281 7.35789 7.44478 7.26538 7.56147C7.51978 7.60815 7.88982 7.37477 8.07484 7.02471C8.07484 7.21141 8.07484 7.3281 8.09797 7.44478C8.23674 7.37477 8.3755 7.30476 8.53739 7.28142C8.6299 7.16474 8.72241 7.00138 8.74554 6.79134C8.7918 7.02471 8.81492 7.1414 8.86118 7.23475C8.88431 7.23475 9.06933 7.23475 9.09245 7.23475C9.13871 7.1414 9.16184 7.00138 9.20809 6.79134C9.23122 7.00138 9.32373 7.16474 9.41624 7.28142C9.57813 7.3281 9.7169 7.37477 9.85566 7.44478C9.87879 7.35144 9.87879 7.23475 9.87879 7.02471C10.0869 7.37477 10.4338 7.60815 10.6883 7.56147C10.5957 7.44478 10.5264 7.3281 10.4801 7.21141L10.4107 7.18808Z" fill="#FFE000"/>
<path d="M10.5264 13.4423H10.8502V13.0456C11.5209 12.5322 11.9603 11.7387 11.9603 10.8285C11.9603 9.94173 11.5209 9.12493 10.8502 8.61151V8.21478H10.5264C10.2489 7.67802 9.69382 7.30463 9.04625 7.30463H8.93061C8.28304 7.30463 7.72798 7.67802 7.45045 8.21478H7.14979V8.61151C6.4791 9.12493 6.03967 9.91839 6.03967 10.8285C6.03967 11.7154 6.4791 12.5322 7.14979 13.0456V13.4423H7.45045C7.72798 13.9791 8.28304 14.3525 8.93061 14.3525H9.04625C9.69382 14.3525 10.2489 13.9791 10.5264 13.4423ZM9.04625 14.2124H8.93061C8.35242 14.2124 7.84362 13.8857 7.56609 13.3723L7.51983 13.3023H7.26543V12.9989L7.21918 12.9522C6.54848 12.4388 6.17844 11.6687 6.17844 10.8519C6.17844 10.0351 6.57161 9.26495 7.21918 8.75153L7.26543 8.70486V8.37814H7.51983L7.56609 8.30813C7.84362 7.79471 8.35242 7.46799 8.93061 7.46799H9.04625C9.62444 7.46799 10.1332 7.79471 10.4108 8.30813L10.457 8.37814H10.7114V8.68152L10.7577 8.7282C11.4284 9.24162 11.7984 10.0117 11.7984 10.8285C11.7984 11.6453 11.4053 12.4155 10.7577 12.9289L10.7114 12.9756V13.279H10.457L10.4108 13.349C10.1332 13.8857 9.62444 14.2124 9.04625 14.2124Z" fill="#FFE000"/>
<path d="M10.4571 4.87769C10.2258 5.15774 10.0871 5.41445 10.1333 5.69449C10.249 5.5078 10.4109 5.34444 10.6653 5.20441C10.6653 5.20441 10.7809 5.04105 10.8734 5.01772C10.5034 5.48446 10.5728 5.88119 10.6421 6.02122C10.7809 5.62448 11.1047 5.41445 11.2435 5.34444C11.5441 5.20441 11.3822 4.66766 11.8216 4.41095C11.5672 4.36427 11.336 4.36427 11.1278 4.52763C10.9428 4.66766 10.619 4.83102 10.2258 4.62098C10.064 4.87769 9.71704 5.22775 9.41638 5.27442C9.67078 5.3211 10.0871 5.29776 10.4571 4.87769ZM11.5904 4.43428C11.4053 4.69099 11.2666 4.57431 11.1741 4.52763C11.3822 4.43428 11.4979 4.45762 11.5904 4.43428Z" fill="#FFE000"/>
<path d="M13.0936 18.2732L12.9548 18.4132L13.0936 17.9698C13.0936 17.9698 12.631 18.0165 12.816 18.4132L12.8392 18.4832C12.8854 18.5999 13.001 18.7166 13.0936 18.7633L13.1629 18.8099C13.2554 18.8566 13.3017 18.8099 13.2554 18.6932L13.0936 18.2732Z" fill="#FFE000"/>
<path d="M15.1982 17.7132L15.1288 17.6899C15.0363 17.6432 14.9438 17.6899 14.8976 17.7832L14.6432 18.32L14.8513 18.3667L14.5969 18.4133L14.5044 18.6467C14.5044 18.6467 14.7588 18.6934 14.9438 18.39C14.9901 18.32 15.0826 18.3667 15.1057 18.32L15.2676 17.9466C15.3139 17.8532 15.2907 17.7599 15.1982 17.7132Z" fill="#FFE000"/>
<path d="M14.0187 17.4097C14.0649 17.3164 14.0187 17.223 13.9262 17.1764L13.8568 17.1297C13.7643 17.083 13.6718 17.1297 13.6255 17.223L13.4868 17.5031C13.4405 17.5964 13.533 17.6431 13.4868 17.7365C13.4174 17.9698 13.6024 18.2499 13.6024 18.2499L13.6949 18.0165L13.718 17.9698L13.5793 17.6431L13.7874 17.8532L14.0187 17.4097Z" fill="#FFE000"/>
<path d="M14.6431 17.6432C14.6662 17.5732 14.6431 17.4798 14.5737 17.4565L14.4581 17.4098C14.3887 17.3865 14.2962 17.4098 14.2731 17.4798L14.0187 18.0633C13.9261 18.2733 14.0187 18.5767 14.0187 18.5767C14.1574 18.4833 14.2731 18.39 14.3424 18.2033L14.1574 18.1799L14.4812 18.0633L14.6431 17.6432Z" fill="#FFE000"/>
</svg>
