<svg width="35" height="18" viewBox="0 0 35 18" fill="none" xmlns="http://www.w3.org/2000/svg">
<path d="M34.9683 0.114544L34.9366 0.0832208L34.8414 0.0518977C34.0484 -0.0107484 33.3822 -0.0107484 32.6527 0.0205747L31.5107 0.0518977C23.7709 0.0518977 9.78205 1.08556 3.37447 7.91398C0.868535 10.6078 -0.24169 13.928 0.0437962 17.8121L0.075517 17.9687L19.2665 18L19.3934 17.7807L19.3617 17.6868C18.3784 15.5881 17.5853 12.3932 19.33 9.10426C21.4553 5.06358 26.8161 2.18186 34.8731 0.709682L34.9683 0.678358L35 0.584389V0.239836L34.9683 0.114544Z" fill="#003DA6"/>
<path d="M31.7645 0.490486C32.4941 0.42784 34.8097 0.333871 34.8414 0.333871C34.8414 0.302548 34.8414 0.239902 34.8414 0.208578C33.636 0.0832863 32.7478 0.208578 31.5107 0.208578C15.3649 0.208578 -0.844367 4.34322 0.202416 17.8121C1.97878 17.8121 4.26267 17.8121 6.13419 17.8121C4.51643 6.03467 17.1095 1.49282 31.7645 0.490486Z" fill="white"/>
<path d="M34.8414 0.396423C29.5757 0.928915 9.84547 3.6227 12.7955 17.812H19.1396C19.1396 17.812 19.2348 17.7494 19.2348 17.7181C16.3482 11.4848 18.6638 3.4974 34.8414 0.521715C34.8414 0.490392 34.8414 0.427746 34.8414 0.396423Z" fill="#ED1C2E"/>
<path fill-rule="evenodd" clip-rule="evenodd" d="M27.6409 15.8077C26.8796 16.2149 26.0232 16.4341 25.0398 16.4341C24.2785 16.4341 23.549 16.3089 22.9146 16.0583C22.2801 15.8077 21.8043 15.4631 21.4871 14.9933C21.2968 14.7114 21.1699 14.3982 21.1699 14.1162C21.1699 13.4585 21.5506 12.926 22.3436 12.4561C23.1049 12.0176 23.9931 11.7983 25.0398 11.7983C26.0232 11.7983 26.8796 12.0176 27.6409 12.4248V13.6151C27.292 13.2392 26.9431 12.9573 26.5942 12.7694C26.1501 12.5188 25.6108 12.3935 25.0398 12.3935C24.3103 12.3935 23.6759 12.5501 23.2 12.8946C22.7242 13.2392 22.4705 13.6464 22.4705 14.1162C22.4705 14.5861 22.6925 14.9933 23.2 15.3065C23.7076 15.6511 24.3103 15.839 25.0716 15.839C26.0232 15.839 26.8796 15.4318 27.6727 14.5861V15.8077H27.6409Z" fill="#003DA6"/>
<path fill-rule="evenodd" clip-rule="evenodd" d="M33.6361 11.7668V12.0174C33.0968 11.8608 32.5258 11.7668 31.9231 11.7668C30.8764 11.7668 29.9882 11.986 29.2269 12.4246C28.4656 12.8631 28.0532 13.4269 28.0532 14.0847C28.0532 14.3979 28.1484 14.6798 28.3704 14.9617C28.6876 15.4003 29.1634 15.7448 29.7979 16.0267C30.4323 16.2773 31.1619 16.4026 31.9231 16.4026C32.5258 16.4026 33.1285 16.3086 33.6361 16.152V16.5279H34.9049V11.7668H33.6361ZM31.9231 15.8075C31.1936 15.8075 30.5592 15.6195 30.0516 15.275C29.5758 14.9304 29.3221 14.5545 29.3221 14.0847C29.3221 13.6148 29.5758 13.2076 30.0516 12.8631C30.5592 12.5185 31.1619 12.3619 31.8914 12.3619C32.4624 12.3619 32.9699 12.4872 33.4457 12.7378C33.5092 12.7691 33.5726 12.8004 33.6361 12.8318V15.2436C33.0968 15.6508 32.5258 15.8075 31.9231 15.8075Z" fill="#003DA6"/>
<path fill-rule="evenodd" clip-rule="evenodd" d="M19.6155 12.5811C18.8542 12.1425 17.966 11.9233 16.9192 11.9233C16.2848 11.9233 15.7139 12.0172 15.2063 12.1739V11.9233H13.9375V17.8433H15.2063V16.3398C15.7456 16.4964 16.3166 16.5904 16.9192 16.5904C17.6805 16.5904 18.4101 16.4651 19.0445 16.2145C19.6789 15.964 20.1548 15.6194 20.472 15.1496C20.6623 14.8676 20.7892 14.5544 20.7892 14.2725C20.7892 13.5834 20.3768 13.0509 19.6155 12.5811ZM18.7908 15.4315C18.2832 15.776 17.6805 15.964 16.9192 15.964C16.3166 15.964 15.7139 15.776 15.2063 15.4628V13.0509C15.2698 13.0196 15.3332 12.9883 15.3967 12.9569C15.8407 12.7064 16.38 12.5811 16.951 12.5811C17.6805 12.5811 18.315 12.7377 18.7908 13.0822C19.2666 13.4268 19.5203 13.834 19.5203 14.3038C19.4886 14.711 19.2666 15.1182 18.7908 15.4315Z" fill="#003DA6"/>
</svg>
