<svg xmlns="http://www.w3.org/2000/svg" viewBox="0 0 32 25"><defs><style>.cls-1{fill:#fff;}</style></defs><title>accident</title><g id="Слой_2" data-name="Слой 2"><g id="Слой_1-2" data-name="Слой 1"><path class="cls-1" d="M6.54,13.05a4.65,4.65,0,0,0-.12,1.66L4.66,16.13a.46.46,0,0,1-.25.1.43.43,0,0,1-.27-.06A.49.49,0,0,1,4,16a.42.42,0,0,1,0-.27L4.7,12a.54.54,0,0,0,0-.18.38.38,0,0,0-.08-.17.41.41,0,0,0-.14-.12.48.48,0,0,0-.18-.06L.41,11.07A.39.39,0,0,1,.16,11,.51.51,0,0,1,0,10.74a.46.46,0,0,1,0-.26.39.39,0,0,1,.17-.21L3.46,8.15A.57.57,0,0,0,3.6,8a.43.43,0,0,0,.06-.18.41.41,0,0,0,0-.19.42.42,0,0,0-.09-.16l-2.49-3A.43.43,0,0,1,1,4.29.46.46,0,0,1,1,4a.46.46,0,0,1,.21-.18.42.42,0,0,1,.27,0l3.83.75a.31.31,0,0,0,.19,0A.36.36,0,0,0,5.7,4.5a.44.44,0,0,0,.13-.14.49.49,0,0,0,.06-.17L6.26.4A.47.47,0,0,1,6.37.15.42.42,0,0,1,6.61,0a.5.5,0,0,1,.27,0A.43.43,0,0,1,7.09.2L9.26,3.38a.57.57,0,0,0,.13.14.64.64,0,0,0,.18.06.45.45,0,0,0,.2,0,.56.56,0,0,0,.17-.09l3-2.43a.39.39,0,0,1,.25-.1.43.43,0,0,1,.27.06.39.39,0,0,1,.18.2.39.39,0,0,1,0,.26l-.56,2.75a5.72,5.72,0,0,0-.4.46L11.1,6.78l-.55.7A4.8,4.8,0,0,0,8.4,8.69,4.7,4.7,0,0,0,7.15,10.8Zm24.72,6.47A3.07,3.07,0,0,1,30.39,21a4.59,4.59,0,0,1-.44.33l-.7,2.55a1.76,1.76,0,0,1-.29.56,1.62,1.62,0,0,1-1.67.55l-1.55-.41a1.53,1.53,0,0,1-.56-.27,1.39,1.39,0,0,1-.41-.46,1.44,1.44,0,0,1-.2-.57,1.56,1.56,0,0,1,0-.61L25,21.12,12.67,17.89l-.42,1.51A1.42,1.42,0,0,1,12,20a1.64,1.64,0,0,1-.47.4,1.72,1.72,0,0,1-.59.2,1.91,1.91,0,0,1-.63,0L8.75,20.1a1.57,1.57,0,0,1-1.18-1.29,1.84,1.84,0,0,1,0-.62l.71-2.55a4.71,4.71,0,0,1-.21-.52,3,3,0,0,1,0-1.66l.62-2.29a3.05,3.05,0,0,1,.68-1.23,3.25,3.25,0,0,1,1.16-.81,4.22,4.22,0,0,1,.93-.23L14,5.62A5.5,5.5,0,0,1,15.89,4a5.57,5.57,0,0,1,2.37-.62,5.91,5.91,0,0,1,1.67.19l6.12,1.61a5.75,5.75,0,0,1,1.55.66,6.62,6.62,0,0,1,1.73,1.69,5.48,5.48,0,0,1,.84,2.27l.5,4.08a3.68,3.68,0,0,1,1.13,1.46,3,3,0,0,1,.09,1.88Zm-20.44-7a1.42,1.42,0,0,0-.07.61,1.52,1.52,0,0,0,.19.59,1.45,1.45,0,0,0,.43.46,1.51,1.51,0,0,0,.58.25c.92.24,2.28.76,2.52-.15a3,3,0,0,0-1.7-2.86,1.5,1.5,0,0,0-.63-.07,1.56,1.56,0,0,0-.6.19,1.71,1.71,0,0,0-.47.42,1.46,1.46,0,0,0-.25.57ZM27,10.21a2.69,2.69,0,0,0-.19-.67,2.43,2.43,0,0,0-.64-.82,2.38,2.38,0,0,0-.93-.49L19.1,6.63a2.57,2.57,0,0,0-.62-.08,2.77,2.77,0,0,0-1.06.27,2.7,2.7,0,0,0-.86.67L14.94,9.58l8.6,2.26,3.77,1Zm-1.71,6.93c-.24.9,1.19,1.11,2.12,1.35a1.61,1.61,0,0,0,.65.1,1.68,1.68,0,0,0,.63-.17,1.6,1.6,0,0,0,.81-1,1.54,1.54,0,0,0,0-.64,1.69,1.69,0,0,0-.24-.61,1.52,1.52,0,0,0-.46-.45,1.62,1.62,0,0,0-.61-.24,3.06,3.06,0,0,0-2.93,1.65Z"/></g></g></svg>