<svg xmlns="http://www.w3.org/2000/svg" viewBox="0 0 34 16"><defs><style>.cls-1{fill:#fff;}</style></defs><title>advrtsing</title><g id="Слой_2" data-name="Слой 2"><g id="Слой_1-2" data-name="Слой 1"><path class="cls-1" d="M32.11,16H1.89A2,2,0,0,1,0,14V2A2,2,0,0,1,1.89,0H32.11A2,2,0,0,1,34,2V14A2,2,0,0,1,32.11,16ZM2,14H32V2H2Z"/><path class="cls-1" d="M7.12,8.35,5,7.75l.42-1.27,2.08.88L7.34,5H8.73L8.56,7.41l2-.86L11,7.83l-2.15.6,1.43,1.78L9.15,11,8,9l-1.2,1.9-1.12-.75Z"/><path class="cls-1" d="M16.12,8.35,14,7.75l.42-1.27,2.08.88L16.34,5h1.39l-.17,2.41,2-.86L20,7.83l-2.15.6,1.43,1.78L18.15,11,17,9l-1.2,1.9-1.12-.75Z"/><path class="cls-1" d="M25.12,8.35,23,7.75l.42-1.27,2.08.88L25.34,5h1.39l-.17,2.41,2-.86L29,7.83l-2.15.6,1.43,1.78L27.15,11,26,9l-1.2,1.9-1.12-.75Z"/></g></g></svg>