<svg xmlns="http://www.w3.org/2000/svg" viewBox="0 0 18 18"><defs><style>.cls-1{fill:#959baa;}</style></defs><title>answer</title><g id="Слой_2" data-name="Слой 2"><g id="Слой_1-2" data-name="Слой 1"><path class="cls-1" d="M9,14.19a.88.88,0,1,0-.88-.88A.88.88,0,0,0,9,14.19Z"/><path class="cls-1" d="M9,0a9,9,0,1,0,9,9A9,9,0,0,0,9,0ZM9,16.59A7.59,7.59,0,1,1,16.59,9,7.58,7.58,0,0,1,9,16.59Z"/><path class="cls-1" d="M9,4.52A2.81,2.81,0,0,0,6.19,7.33a.7.7,0,0,0,1.4,0A1.41,1.41,0,1,1,9,8.74a.7.7,0,0,0-.7.7V11.2a.7.7,0,1,0,1.4,0V10.05A2.81,2.81,0,0,0,9,4.52Z"/></g></g></svg>