<svg xmlns="http://www.w3.org/2000/svg" viewBox="0 0 25 25"><defs><style>.cls-1{fill:#265dce;opacity:0.99;isolation:isolate;}</style></defs><title>big-search</title><g id="Слой_2" data-name="Слой 2"><g id="Слой_1-2" data-name="Слой 1"><path class="cls-1" d="M9,20.74h.16a1.16,1.16,0,0,0,.16-2.31,8.1,8.1,0,1,1,4.21-.54A1.16,1.16,0,0,0,14.4,20a10.91,10.91,0,0,0,2.52-1.48l6.1,6.1a1.16,1.16,0,0,0,.82.34,1.14,1.14,0,0,0,.82-.34,1.16,1.16,0,0,0,0-1.64l-6.1-6.1A10.42,10.42,0,1,0,9,20.74Z"/></g></g></svg>