<svg xmlns="http://www.w3.org/2000/svg" viewBox="0 0 20 28"><defs><style>.cls-1{fill:#fff;}</style></defs><title>bottle</title><g id="Слой_2" data-name="Слой 2"><g id="Слой_1-2" data-name="Слой 1"><path class="cls-1" d="M19.18,12.2a.71.71,0,0,0-.69-.57H12.11a.71.71,0,0,0-.69.57l-.75,4.28A4.63,4.63,0,0,0,14.77,22v4.7a.38.38,0,0,1-.33.36l-2,.24a.37.37,0,0,0-.33.35.35.35,0,0,0,.36.36h5.66a.35.35,0,0,0,.36-.36.37.37,0,0,0-.33-.35l-2-.24a.38.38,0,0,1-.33-.36V21.93a4.58,4.58,0,0,0,3.39-2.05,4.71,4.71,0,0,0,.69-3.43Zm-2.4,3.15c-2.16-.17-2.73,1.46-5,.78l.6-3.45h5.81l.6,3.39A3.72,3.72,0,0,0,16.78,15.35Z"/><path class="cls-1" d="M5.93.54A.54.54,0,0,0,5.39,0H3.21a.54.54,0,0,0-.54.54V2.41H5.9V.54Z"/><path class="cls-1" d="M5.93,5.3V3.54H2.7V5.3a4,4,0,0,1-1.35,3,4.06,4.06,0,0,0-1.35,3V27.08A.93.93,0,0,0,.93,28h6.8a.93.93,0,0,0,.93-.92V11.37a4.06,4.06,0,0,0-1.35-3A4.05,4.05,0,0,1,5.93,5.3ZM7,23.42a.63.63,0,0,1-.63.62h-4a.63.63,0,0,1-.63-.62V15.06a.62.62,0,0,1,.63-.63h4a.63.63,0,0,1,.63.63Z"/></g></g></svg>