<svg xmlns="http://www.w3.org/2000/svg" viewBox="0 0 16 16"><defs><style>.cls-1{fill:#265dce;}</style></defs><title>calc</title><g id="Слой_2" data-name="Слой 2"><g id="Слой_1-2" data-name="Слой 1"><path class="cls-1" d="M14,16H2a2,2,0,0,1-2-2V2A2,2,0,0,1,2,0H14a2,2,0,0,1,2,2V14A2,2,0,0,1,14,16ZM14,2H2V14H14ZM5,4h6a1,1,0,0,1,0,2H5A1,1,0,0,1,5,4ZM5,8A1,1,0,1,1,4,9,1,1,0,0,1,5,8Zm0,3a1,1,0,1,1-1,1A1,1,0,0,1,5,11ZM8,8A1,1,0,1,1,7,9,1,1,0,0,1,8,8Zm0,3a1,1,0,1,1-1,1A1,1,0,0,1,8,11Zm3-3a1,1,0,1,1-1,1A1,1,0,0,1,11,8Zm0,3a1,1,0,1,1-1,1A1,1,0,0,1,11,11Z"/></g></g></svg>