<svg xmlns="http://www.w3.org/2000/svg" viewBox="0 0 16.7 12.45"><defs><style>.cls-1{fill:#265dce;}.cls-2{fill:none;stroke:#265dce;stroke-width:0.7px;}</style></defs><title>camera</title><g id="Слой_2" data-name="Слой 2"><g id="Слой_1-2" data-name="Слой 1"><path class="cls-1" d="M13.32,6.82a.63.63,0,1,0-.63-.63A.63.63,0,0,0,13.32,6.82Z"/><path class="cls-1" d="M15.72,7.1a.63.63,0,0,0,.63-.63V2.85a2.5,2.5,0,0,0-2.5-2.5h-11a2.5,2.5,0,0,0-2.5,2.5V9.6a2.5,2.5,0,0,0,2.5,2.5h11a2.5,2.5,0,0,0,2.5-2.5.63.63,0,1,0-1.25,0,1.25,1.25,0,0,1-1.25,1.25h-11A1.25,1.25,0,0,1,1.6,9.6V2.85A1.25,1.25,0,0,1,2.85,1.6h11A1.25,1.25,0,0,1,15.1,2.85V6.47A.63.63,0,0,0,15.72,7.1Z"/><path class="cls-1" d="M5.19,6.22A3.28,3.28,0,0,0,8.35,9.6a3.28,3.28,0,0,0,3.16-3.38A3.27,3.27,0,0,0,8.35,2.85,3.27,3.27,0,0,0,5.19,6.22Zm5.07,0A2,2,0,0,1,8.35,8.35,2,2,0,0,1,6.44,6.22,2,2,0,0,1,8.35,4.1,2,2,0,0,1,10.26,6.22Z"/><path class="cls-1" d="M3.38,6.82a.63.63,0,1,0-.62-.63A.63.63,0,0,0,3.38,6.82Z"/><path class="cls-2" d="M13.32,6.82a.63.63,0,1,0-.63-.63A.63.63,0,0,0,13.32,6.82Z"/><path class="cls-2" d="M15.72,7.1a.63.63,0,0,0,.63-.63V2.85a2.5,2.5,0,0,0-2.5-2.5h-11a2.5,2.5,0,0,0-2.5,2.5V9.6a2.5,2.5,0,0,0,2.5,2.5h11a2.5,2.5,0,0,0,2.5-2.5.63.63,0,1,0-1.25,0,1.25,1.25,0,0,1-1.25,1.25h-11A1.25,1.25,0,0,1,1.6,9.6V2.85A1.25,1.25,0,0,1,2.85,1.6h11A1.25,1.25,0,0,1,15.1,2.85V6.47A.63.63,0,0,0,15.72,7.1Z"/><path class="cls-2" d="M5.19,6.22A3.28,3.28,0,0,0,8.35,9.6a3.28,3.28,0,0,0,3.16-3.38A3.27,3.27,0,0,0,8.35,2.85,3.27,3.27,0,0,0,5.19,6.22Zm5.07,0A2,2,0,0,1,8.35,8.35,2,2,0,0,1,6.44,6.22,2,2,0,0,1,8.35,4.1,2,2,0,0,1,10.26,6.22Z"/><path class="cls-2" d="M3.38,6.82a.63.63,0,1,0-.62-.63A.63.63,0,0,0,3.38,6.82Z"/></g></g></svg>