<svg xmlns="http://www.w3.org/2000/svg" viewBox="0 0 18 14"><defs><style>.cls-1{fill:#265dce;}</style></defs><title>car-policy</title><g id="Слой_2" data-name="Слой 2"><g id="Слой_1-2" data-name="Слой 1"><path class="cls-1" d="M15.75,3.5H13.58L12,1a2.18,2.18,0,0,0-1.86-1H2.25A2.3,2.3,0,0,0,0,2.33v7a2.35,2.35,0,0,0,1.25,2.09A3.4,3.4,0,0,0,4.5,14a3.39,3.39,0,0,0,3.17-2.33h2.66a3.33,3.33,0,0,0,6.42-.25A2.35,2.35,0,0,0,18,9.33V5.83A2.3,2.3,0,0,0,15.75,3.5ZM14.63,5.83h1.12V7.9A3.31,3.31,0,0,0,13.5,7a3.39,3.39,0,0,0-3.17,2.33H7.67A3.39,3.39,0,0,0,4.5,7a3.29,3.29,0,0,0-2.25.9V5.83H14.63Zm-4.5-3.5.75,1.17h-3V2.33Zm-7.88,0H5.63V3.5H2.25ZM3.38,10.5A1.15,1.15,0,0,1,4.5,9.33a1.17,1.17,0,0,1,0,2.34A1.15,1.15,0,0,1,3.38,10.5Zm9,0a1.13,1.13,0,1,1,1.12,1.17A1.15,1.15,0,0,1,12.38,10.5Z"/></g></g></svg>