<svg xmlns="http://www.w3.org/2000/svg" viewBox="0 0 24.09 17"><defs><style>.cls-1{fill:#959baa;}</style></defs><title>car</title><g id="Слой_2" data-name="Слой 2"><g id="Слой_1-2" data-name="Слой 1"><path class="cls-1" d="M24,5.3a.6.6,0,0,0-.48-.23H21.13A7.93,7.93,0,0,0,19,1.48C16-.47,8.14-.5,5.17,1.43A8,8,0,0,0,3,5H.62a.6.6,0,0,0-.48.23A.62.62,0,0,0,0,5.72L.35,7.39a.62.62,0,0,0,.61.5h.69a4.15,4.15,0,0,0-1,2.7,4,4,0,0,0,1.28,3.06l0,0V16a.93.93,0,0,0,.92.93H5A.92.92,0,0,0,6,16v-1l12.12.05v.94A.93.93,0,0,0,19,17h2.17a.92.92,0,0,0,.93-.91v-2.3A4.21,4.21,0,0,0,22.38,8h.74a.61.61,0,0,0,.6-.49l.36-1.67A.62.62,0,0,0,24,5.3ZM6.18,3c2.36-1.54,9.4-1.51,11.75,0a7.56,7.56,0,0,1,1.58,3L4.58,6A7.54,7.54,0,0,1,6.18,3Zm-2.8,7.87a1.82,1.82,0,1,1,1.81,1.81A1.81,1.81,0,0,1,3.38,10.84ZM18.87,12.7a1.81,1.81,0,0,1-1.82-1.81,1.83,1.83,0,0,1,1.83-1.81,1.81,1.81,0,1,1,0,3.62Z"/></g></g></svg>