<svg xmlns="http://www.w3.org/2000/svg" viewBox="0 0 16.5 16.5"><defs><style>.cls-1{fill:#265dce;stroke:#265dce;stroke-width:0.5px;}</style></defs><title>carfax</title><g id="Слой_2" data-name="Слой 2"><g id="Слой_1-2" data-name="Слой 1"><path class="cls-1" d="M13.92,2.61A8,8,0,0,0,8.27.25h0a8,8,0,0,0-8,8,7.9,7.9,0,0,0,2.33,5.66,8,8,0,0,0,5.65,2.36h0a8,8,0,0,0,4.12-1.14.63.63,0,0,0,.22-.86.62.62,0,0,0-.86-.21,6.67,6.67,0,0,1-1.6.69c0-.4,0-.77,0-1.11a2.57,2.57,0,0,1,3.5-2.32,5.49,5.49,0,0,1,.51.21,5.09,5.09,0,0,1-.3.5.62.62,0,1,0,1,.7,8,8,0,0,0-1-10.1ZM3.49,3.47a6.69,6.69,0,0,1,4.76-2h0A6.76,6.76,0,0,1,15,7.44,9.46,9.46,0,0,1,10.3,5.72a2.65,2.65,0,0,0-4.1,0A9.42,9.42,0,0,1,1.55,7.44,6.68,6.68,0,0,1,3.49,3.47ZM7.11,6.59a.36.36,0,0,0,.07-.1,1.41,1.41,0,0,1,2.14,0,.36.36,0,0,0,.07.1,1.37,1.37,0,0,1,.27.82,1.41,1.41,0,0,1-2.82,0A1.37,1.37,0,0,1,7.11,6.59ZM2.34,11.51l.52-.21a2.57,2.57,0,0,1,3.5,2.32c0,.34,0,.71,0,1.12A6.7,6.7,0,0,1,3.47,13,6.79,6.79,0,0,1,2.34,11.51ZM14.1,10.13a3.88,3.88,0,0,0-1.84-.24,4,4,0,0,0-1.66.62,3.71,3.71,0,0,0-1.21,1.28,3.85,3.85,0,0,0-.5,1.79c0,.42,0,.88,0,1.39l-.63,0h0l-.61,0c0-.51,0-1,0-1.39a3.85,3.85,0,0,0-.5-1.79A3.71,3.71,0,0,0,5.9,10.51a4,4,0,0,0-1.66-.62,3.88,3.88,0,0,0-1.84.24l-.56.24A6.33,6.33,0,0,1,1.52,8.7,10.44,10.44,0,0,0,5.6,7.55a2.65,2.65,0,0,0,5.3,0A10.44,10.44,0,0,0,15,8.7a6.18,6.18,0,0,1-.32,1.66Z"/></g></g></svg>