<svg xmlns="http://www.w3.org/2000/svg" viewBox="0 0 16 14"><defs><style>.cls-1{fill:#265dce;}</style></defs><title>check-discount</title><g id="Слой_2" data-name="Слой 2"><g id="Слой_1-2" data-name="Слой 1"><path class="cls-1" d="M12,5V5a2,2,0,0,0-2-2H9V2A2,2,0,0,0,7,0H2A2,2,0,0,0,0,2V3A2,2,0,0,0,2,5H3V6A2,2,0,0,0,1,8V9a2,2,0,0,0,1,1.74A2.11,2.11,0,0,0,2,11v1a2,2,0,0,0,2,2H9a2,2,0,0,0,1-.26A4.44,4.44,0,0,0,11.5,14,4.5,4.5,0,0,0,12,5ZM2,3V2H7V3H2ZM5,5h5v.26A4.28,4.28,0,0,0,8.68,6H5ZM3,8H7.26A4.16,4.16,0,0,0,7,9H3Zm1,4V11H7.26a4.07,4.07,0,0,0,.5,1Zm7.5,0A2.73,2.73,0,0,1,11,12a2.48,2.48,0,0,1-1.76-1.39A2.36,2.36,0,0,1,9,9.5,2.73,2.73,0,0,1,9.05,9,2.53,2.53,0,0,1,9.5,8a2.51,2.51,0,0,1,2-1h.23a2.5,2.5,0,0,1-.23,5Z"/></g></g></svg>