<svg xmlns="http://www.w3.org/2000/svg" viewBox="0 0 24 24"><defs><style>.cls-1{fill:#fff;}</style></defs><title>crossroad-line</title><g id="Слой_2" data-name="Слой 2"><g id="Слой_1-2" data-name="Слой 1"><path class="cls-1" d="M22.61,10.88l-2.74-2-.8-.57a.28.28,0,0,0-.45.23v1.79h-5v-5h1.79a.28.28,0,0,0,.23-.45L12.24.12a.28.28,0,0,0-.46,0l-.9,1.27-2,2.74-.57.8a.28.28,0,0,0,.23.45h1.79v5h-5V8.56a.28.28,0,0,0-.45-.23l-.8.57-2.74,2-1.27.9a.28.28,0,0,0,0,.46l4.81,3.43a.28.28,0,0,0,.45-.23V13.65h5v5H8.56a.28.28,0,0,0-.23.45l.57.8,2,2.74.9,1.27a.28.28,0,0,0,.46,0l3.43-4.81a.28.28,0,0,0-.23-.45H13.65v-5h5v1.79a.28.28,0,0,0,.45.23l4.81-3.43a.28.28,0,0,0,0-.46Z"/></g></g></svg>