<svg xmlns="http://www.w3.org/2000/svg" viewBox="0 0 24 24"><defs><style>.cls-1{fill:#959baa;}</style></defs><title>crossroads</title><g id="Слой_2" data-name="Слой 2"><g id="Слой_1-2" data-name="Слой 1"><path class="cls-1" d="M15,12a3,3,0,1,0-3,3A3,3,0,0,0,15,12Zm-3,1a1,1,0,1,1,1-1A1,1,0,0,1,12,13Z"/><path class="cls-1" d="M1,11H6.34a1,1,0,0,0,1-.67,5,5,0,0,1,3-3,1,1,0,0,0,.67-1V1A1,1,0,0,0,9,1V5.68A7,7,0,0,0,5.68,9H1a1,1,0,0,0,0,2Z"/><path class="cls-1" d="M10.33,16.71a5,5,0,0,1-3-3,1,1,0,0,0-1-.67H1a1,1,0,0,0,0,2H5.68A7,7,0,0,0,9,18.32V23a1,1,0,0,0,2,0V17.66A1,1,0,0,0,10.33,16.71Z"/><path class="cls-1" d="M23,9H18.32A7,7,0,0,0,15,5.68V1a1,1,0,0,0-2,0V6.34a1,1,0,0,0,.67,1,5,5,0,0,1,3,3,1,1,0,0,0,.95.67H23a1,1,0,0,0,0-2Z"/><path class="cls-1" d="M23,13H17.66a1,1,0,0,0-.95.67,5,5,0,0,1-3,3,1,1,0,0,0-.67.95V23a1,1,0,0,0,2,0V18.32A7,7,0,0,0,18.32,15H23a1,1,0,0,0,0-2Z"/></g></g></svg>