<svg xmlns="http://www.w3.org/2000/svg" viewBox="0 0 17.4 17.4"><defs><style>.cls-1{fill:#265dce;}</style></defs><title>customs</title><g id="Слой_2" data-name="Слой 2"><g id="Слой_1-2" data-name="Слой 1"><path class="cls-1" d="M14.87,7.11a.63.63,0,0,0,.47-.2L17,5.25a.66.66,0,0,0,0-.94L15.34,2.65a.67.67,0,0,0-.47-.19H10.68V2.19a2,2,0,0,0-4,0v.27H2.33a.67.67,0,0,0-.67.66V6.44a.67.67,0,0,0,.67.67H6.69V8.43H2.53a.63.63,0,0,0-.47.2L.39,10.29a.66.66,0,0,0,0,.94l1.67,1.66a.67.67,0,0,0,.47.19H6.69v2.79H5.34a.67.67,0,0,0,0,1.33H12a.67.67,0,0,0,0-1.33H10.68v-.79a.67.67,0,1,0-1.33,0v.79H8V13.08h7.05a.66.66,0,0,0,.67-.66V9.1a.67.67,0,0,0-.67-.67H10.68V7.11ZM8,2.19a.67.67,0,0,1,1.33,0v.27H8ZM3,3.79H14.6l1,1-1,1H3Zm11.41,8H2.8l-1-1,1-1H14.4ZM9.35,8.43H8V7.11H9.35Z"/><path class="cls-1" d="M12,17.4H5.34a.87.87,0,0,1,0-1.73H6.49V13.28h-4A.86.86,0,0,1,1.92,13L.25,11.37a.88.88,0,0,1,0-1.22L1.92,8.49a.87.87,0,0,1,.61-.26h4V7.31H2.33a.87.87,0,0,1-.87-.87V3.12a.87.87,0,0,1,.87-.86H6.49V2.19a2.2,2.2,0,0,1,4.39,0v.07h4a.86.86,0,0,1,.61.25l1.67,1.66a.86.86,0,0,1,.25.61.83.83,0,0,1-.26.61L15.48,7.05a.83.83,0,0,1-.61.26h-4v.92h4.19a.87.87,0,0,1,.87.87v3.32a.86.86,0,0,1-.87.86H8.22v2.39h.93v-.59a.87.87,0,1,1,1.73,0v.59H12a.87.87,0,0,1,0,1.73ZM5.34,16.07a.47.47,0,0,0,0,.93H12a.47.47,0,0,0,0-.93H10.48v-1a.47.47,0,1,0-.93,0v1H7.82V12.88h7.25a.47.47,0,0,0,.47-.46V9.1a.47.47,0,0,0-.47-.47H10.48V6.91h4.39a.47.47,0,0,0,.33-.14l1.66-1.66A.45.45,0,0,0,17,4.78a.47.47,0,0,0-.14-.33L15.2,2.79a.51.51,0,0,0-.33-.13H10.48V2.19a1.8,1.8,0,0,0-3.59,0v.47H2.33a.47.47,0,0,0-.47.46V6.44a.47.47,0,0,0,.47.47H6.89V8.63H2.53a.47.47,0,0,0-.33.14L.54,10.43a.45.45,0,0,0,0,.66L2.2,12.75a.51.51,0,0,0,.33.13H6.89v3.19ZM14.6,12H2.72l-1.2-1.2,1.2-1.2H14.6ZM2.89,11.55H14.2V10H2.89l-.8.8ZM9.55,8.63H7.82V6.91H9.55Zm-1.33-.4h.93V7.31H8.22ZM14.68,6H2.79V3.59H14.68l1.2,1.19ZM3.19,5.58H14.51l.8-.8L14.51,4H3.19ZM9.55,2.66H7.82V2.19a.87.87,0,0,1,1.73,0Zm-1.33-.4h.93V2.19a.47.47,0,0,0-.93,0Z"/></g></g></svg>