<svg xmlns="http://www.w3.org/2000/svg" viewBox="0 0 26 26"><defs><style>.cls-1{opacity:0.99;}.cls-2{fill:#265dce;}</style></defs><title>discount-amount</title><g id="Слой_2" data-name="Слой 2"><g id="Слой_1-2" data-name="Слой 1"><g class="cls-1"><path class="cls-2" d="M23.94,14.43a3.07,3.07,0,0,0-1.05-6A.94.94,0,0,1,22.1,7a3,3,0,0,0-.67-3.95,3,3,0,0,0-3.94.07A.9.9,0,0,1,16,2.6a3,3,0,0,0-6,0,.91.91,0,0,1-1.49.56,3,3,0,0,0-3.94-.07A3,3,0,0,0,3.9,7a.93.93,0,0,1-.79,1.42,3.07,3.07,0,0,0-1,6A.94.94,0,0,1,2.33,16,3,3,0,0,0,1.63,20a3,3,0,0,0,3.72,1.3.91.91,0,0,1,1.21,1,3,3,0,0,0,2,3.48,3,3,0,0,0,3.69-1.41.89.89,0,0,1,1.58,0,3,3,0,0,0,5.65-2.07.91.91,0,0,1,1.21-1A3,3,0,0,0,24.38,20,3,3,0,0,0,23.67,16,.94.94,0,0,1,23.94,14.43Zm-.69-2a3.08,3.08,0,0,0-.93,5.29.9.9,0,0,1,.21,1.2.85.85,0,0,1-1.1.39,3,3,0,0,0-4.08,3.45.88.88,0,0,1-.59,1.06.85.85,0,0,1-1.09-.42,3,3,0,0,0-5.34,0,.84.84,0,0,1-1.08.42.87.87,0,0,1-.59-1.06,3.05,3.05,0,0,0-4.09-3.45.85.85,0,0,1-1.1-.39.9.9,0,0,1,.21-1.2,3.08,3.08,0,0,0-.92-5.29.88.88,0,0,1-.6-1.05.85.85,0,0,1,.9-.76A3.07,3.07,0,0,0,5.73,6a.9.9,0,0,1,.21-1.21.83.83,0,0,1,1.15,0,3,3,0,0,0,5-1.84.9.9,0,0,1,1.78,0,3,3,0,0,0,5,1.84.84.84,0,0,1,1.16,0A.91.91,0,0,1,20.27,6a3.07,3.07,0,0,0,2.67,4.65.88.88,0,0,1,.91.76A.9.9,0,0,1,23.25,12.41Z"/><path class="cls-2" d="M10.29,11.9a1.61,1.61,0,1,0-1.61-1.61A1.62,1.62,0,0,0,10.29,11.9Z"/><path class="cls-2" d="M15.71,14.1a1.61,1.61,0,1,0,1.62,1.61A1.62,1.62,0,0,0,15.71,14.1Z"/><path class="cls-2" d="M17,9A1.06,1.06,0,0,0,15.5,9L9,15.5A1.07,1.07,0,0,0,10.5,17L17,10.5A1.06,1.06,0,0,0,17,9Z"/></g></g></g></svg>