<svg xmlns="http://www.w3.org/2000/svg" viewBox="0 0 3 18"><defs><style>.cls-1{fill:#c8cbd3;}</style></defs><title>exclamation-point</title><g id="Слой_2" data-name="Слой 2"><g id="Слой_1-2" data-name="Слой 1"><path class="cls-1" d="M.08,1.65v9.51A1.54,1.54,0,0,0,1.5,12.81a1.54,1.54,0,0,0,1.42-1.65V1.65A1.54,1.54,0,0,0,1.5,0,1.54,1.54,0,0,0,.08,1.65Z"/><path class="cls-1" d="M1.5,14.53A1.62,1.62,0,0,0,0,16.26,1.63,1.63,0,0,0,1.5,18,1.63,1.63,0,0,0,3,16.26,1.62,1.62,0,0,0,1.5,14.53Z"/></g></g></svg>