<svg xmlns="http://www.w3.org/2000/svg" viewBox="0 0 24 22"><defs><style>.cls-1{fill:#fff;}</style></defs><title>fast-speed</title><g id="Слой_2" data-name="Слой 2"><g id="Слой_1-2" data-name="Слой 1"><path class="cls-1" d="M11.91,0h0A11.88,11.88,0,0,0,3.51,3.55a12.28,12.28,0,0,0,0,17.2,12.12,12.12,0,0,0,1.32,1.18.34.34,0,0,0,.24.07.36.36,0,0,0,.21-.11l.31-.35a9,9,0,0,1,12.81,0c.11.11.21.22.31.34a.28.28,0,0,0,.21.1.32.32,0,0,0,.23-.06,12.11,12.11,0,0,0,1.33-1.17,12.28,12.28,0,0,0,0-17.2A11.88,11.88,0,0,0,12,0h-.09Zm0,2.33H12A9.63,9.63,0,0,1,18.87,5.2a10,10,0,0,1,.34,13.57.3.3,0,0,1-.21.1.32.32,0,0,1-.23-.06,11.24,11.24,0,0,0-13.53,0,.39.39,0,0,1-.23.07.33.33,0,0,1-.21-.11A10,10,0,0,1,5.14,5.2,9.58,9.58,0,0,1,11.9,2.34ZM12,3A8.92,8.92,0,0,0,5.6,5.67a9.25,9.25,0,0,0-.47,12.42,11.85,11.85,0,0,1,13.76,0,9.27,9.27,0,0,0-.48-12.44A9,9,0,0,0,12,3Zm4.65,3.06a.41.41,0,0,1,.3.11.45.45,0,0,1,.11.3.78.78,0,0,1,0,.18,1.4,1.4,0,0,1-.18.3l-2.55,3.67a2.38,2.38,0,0,1-.62,2.24,2.32,2.32,0,0,1-3.32,0,2.41,2.41,0,0,1,0-3.36,2.3,2.3,0,0,1,2.21-.62l3.62-2.6h0a1.4,1.4,0,0,1,.3-.18A.65.65,0,0,1,16.65,6.05Z"/></g></g></svg>