<svg xmlns="http://www.w3.org/2000/svg" viewBox="0 0 15.43 16"><defs><style>.cls-1{fill:#265dce;}</style></defs><title>hexagon</title><g id="Слой_2" data-name="Слой 2"><g id="Слой_1-2" data-name="Слой 1"><path class="cls-1" d="M14.43,7.6,13.71,8l.72.42a2,2,0,0,1,.73,2.73l-1,1.74a2,2,0,0,1-1.22.93,1.81,1.81,0,0,1-.52.07,2,2,0,0,1-1-.27l-.7-.43V14a2,2,0,0,1-2,2h-2a2,2,0,0,1-2-2l0-.81L4,13.6a2,2,0,0,1-1,.27,1.81,1.81,0,0,1-.52-.07,2,2,0,0,1-1.22-.93l-1-1.74A2,2,0,0,1,1,8.4L1.71,8,1,7.6A2,2,0,0,1,.27,4.87l1-1.74A2,2,0,0,1,2.49,2.2,1.81,1.81,0,0,1,3,2.13,2,2,0,0,1,4,2.4l.7.43V2a2,2,0,0,1,2-2h2a2,2,0,0,1,2,2l0,.81.72-.41a2,2,0,0,1,1-.27,1.81,1.81,0,0,1,.52.07,2,2,0,0,1,1.22.93l1,1.74A2,2,0,0,1,14.43,7.6ZM12.7,6.29l.73-.42-1-1.74-.72.42a2,2,0,0,1-1,.26,2,2,0,0,1-1-.27h0a2,2,0,0,1-1-1.7V2h-2v.83a2,2,0,0,1-1,1.7h0a2,2,0,0,1-1,.27,2,2,0,0,1-1-.26L3,4.13,2,5.87l.71.41a2,2,0,0,1,0,3.44L2,10.13l1,1.74.72-.42a2,2,0,0,1,1-.26,2,2,0,0,1,1,.27h0a2,2,0,0,1,1,1.7V14h2v-.83a2,2,0,0,1,1-1.7h0a2,2,0,0,1,1-.27,2,2,0,0,1,1,.26l.72.42,1-1.74-.73-.42a2,2,0,0,1-1-1.7h0A2,2,0,0,1,12.7,6.29ZM7.72,10a2,2,0,1,1,2-2A2,2,0,0,1,7.72,10Z"/></g></g></svg>