<svg xmlns="http://www.w3.org/2000/svg" viewBox="0 0 15 15"><defs><style>.cls-1{fill:#b7bbc4;}</style></defs><title>hidden-icon</title><g id="Слой_2" data-name="Слой 2"><g id="Слой_1-2" data-name="Слой 1"><path class="cls-1" d="M13.78,9.77,12.53,8.41a6.83,6.83,0,0,0,.6-1c-.5-1-2.18-3.92-5.36-4L6,1.94a7.2,7.2,0,0,1,1.5-.15c5.26,0,7.35,5.09,7.44,5.31a1.05,1.05,0,0,1,0,.7A10,10,0,0,1,13.78,9.77Zm1,5a.94.94,0,0,1-.67.28.92.92,0,0,1-.66-.28L11,12.26h0a5.43,5.43,0,0,1-.64.31l-.27.1-.71.23h0L9,13a4.27,4.27,0,0,1-.82.11,5,5,0,0,1-.68,0C2.24,13.11.15,8,.06,7.8a1.05,1.05,0,0,1,0-.7A10,10,0,0,1,.83,5.69c.12-.18.24-.37.39-.56s.11-.15.17-.23a6.47,6.47,0,0,1,.43-.51c.06-.06.11-.13.18-.19s.31-.32.48-.47h0L.27,1.51A1,1,0,0,1,.27.18c.37-.37,1-.11,1.34.26L14.47,13.38C14.83,13.75,15.09,14.35,14.73,14.72ZM3.82,5.08a5.34,5.34,0,0,0-.49.45l-.18.2a6,6,0,0,0-.42.52l-.17.23c-.15.21-.27.39-.38.56L2,7.45a6.94,6.94,0,0,0,4.26,3.7,5.31,5.31,0,0,0,1.09.15h.39a5.87,5.87,0,0,0,.86-.07l.3-.08a3.49,3.49,0,0,0,.71-.24h0L8.77,9.76a2.7,2.7,0,0,1-1.2.29,2.66,2.66,0,0,1-.94-.17,2.81,2.81,0,0,1-1.7-1.72,2.45,2.45,0,0,1-.17-.94,4,4,0,0,1,0-.5A1.44,1.44,0,0,1,5,6.24L3.82,5.08Z"/></g></g></svg>