<svg xmlns="http://www.w3.org/2000/svg" viewBox="0 0 16 16"><defs><style>.cls-1{fill:#265dce;}</style></defs><title>history</title><g id="Слой_2" data-name="Слой 2"><g id="Слой_1-2" data-name="Слой 1"><path class="cls-1" d="M8,16C4.13,16,0,15,0,12c0-1.84,1.61-2.94,3.76-3.51a1,1,0,0,1,.49,1.95C2.88,10.81,2,11.37,2,12c0,1.1,2.69,2,6,2s6-.9,6-2c0-.63-.88-1.19-2.25-1.56a1,1,0,0,1,.49-1.95C14.39,9.06,16,10.16,16,12,16,15,11.87,16,8,16ZM9,7.86V12a1,1,0,0,1-2,0V7.86a4,4,0,1,1,2,0ZM8,2a2,2,0,1,0,2,2A2,2,0,0,0,8,2Z"/></g></g></svg>