<svg xmlns="http://www.w3.org/2000/svg" viewBox="0 0 15.82 16"><defs><style>.cls-1{fill:#265dce;}</style></defs><title>information</title><g id="Слой_2" data-name="Слой 2"><g id="Слой_1-2" data-name="Слой 1"><path class="cls-1" d="M15.72,8.63l-2,6A2,2,0,0,1,11.87,16H4a2,2,0,0,1-1.88-1.37l-2-6a2,2,0,0,1,.27-1.8A2,2,0,0,1,2,6H13.85a2,2,0,0,1,1.6.83A2,2,0,0,1,15.72,8.63ZM2,8l2,6h7.91l2-6ZM12.86,5H3A1,1,0,0,1,3,3h9.89a1,1,0,0,1,0,2Zm-2-3H4.94A1,1,0,0,1,4,1a1,1,0,0,1,1-1h5.94a1,1,0,0,1,0,2Z"/></g></g></svg>