<svg xmlns="http://www.w3.org/2000/svg" viewBox="0 0 16 16"><defs><style>.cls-1{fill:#265dce;}</style></defs><title>inspection</title><g id="Слой_2" data-name="Слой 2"><g id="Слой_1-2" data-name="Слой 1"><path class="cls-1" d="M15.41,8.59l-1-1A2,2,0,0,0,13,7H10.83L9,5.17V3a2,2,0,0,0-.59-1.41l-1-1A2,2,0,0,0,6,0H3A2,2,0,0,0,1.18,1.18,2,2,0,0,0,0,3V6A2,2,0,0,0,.59,7.41l1,1A2,2,0,0,0,3,9H5.17L7,10.83V13a2,2,0,0,0,.59,1.41l1,1A2,2,0,0,0,10,16h3a2,2,0,0,0,1.82-1.18A2,2,0,0,0,16,13V10A2,2,0,0,0,15.41,8.59ZM14,13l-2-2H11v1l2,2H10L9,13V10L6,7H3L2,6V3L4,5H5V4L3,2H6L7,3V6l3,3h3l1,1Z"/></g></g></svg>