<svg xmlns="http://www.w3.org/2000/svg" viewBox="0 0 14 14"><defs><style>.cls-1{fill:#fff;}</style></defs><title>insta</title><g id="Слой_2" data-name="Слой 2"><g id="Слой_1-2" data-name="Слой 1"><path class="cls-1" d="M4.66,7A2.32,2.32,0,1,1,7,9.31,2.31,2.31,0,0,1,4.66,7ZM3.4,7A3.58,3.58,0,1,0,7,3.42,3.58,3.58,0,0,0,3.4,7ZM9.86,3.28a.85.85,0,0,0,.84.84.84.84,0,0,0,.83-.84.83.83,0,0,0-.83-.83A.84.84,0,0,0,9.86,3.28ZM4.17,12.65a4,4,0,0,1-1.3-.24,2.26,2.26,0,0,1-1.32-1.32C1.14,10,1.27,5,1.31,4.18a3,3,0,0,1,.76-2.09c.7-.69,1.6-1,7.73-.75a2.94,2.94,0,0,1,2.09.75c.7.7,1,1.61.76,7.71a3.65,3.65,0,0,1-.24,1.29C11.78,12.71,10.33,12.93,4.17,12.65ZM4.11.09A4.19,4.19,0,0,0,1.18,1.21,4.14,4.14,0,0,0,.06,4.13c0,.7-.22,6,.32,7.41a3.52,3.52,0,0,0,2,2,5,5,0,0,0,1.69.33c6.2.28,8.5.13,9.47-2.36a5,5,0,0,0,.32-1.68c.29-6.22,0-7.57-1.12-8.65C11.92.35,10.91-.23,4.11.09Z"/></g></g></svg>