<svg xmlns="http://www.w3.org/2000/svg" viewBox="0 0 16.4 16.4"><defs><style>.cls-1{fill:#265dce;stroke:#265dce;stroke-width:0.4px;}</style></defs><title>фываыфваф</title><g id="Слой_2" data-name="Слой 2"><g id="Слой_1-2" data-name="Слой 1"><path class="cls-1" d="M15.58,9.2H12l1.34-3.5.74,1.86A.63.63,0,0,0,14.7,8a.59.59,0,0,0,.23,0,.63.63,0,0,0,.35-.82L14.2,4.4a1.87,1.87,0,0,0,1-1.67.63.63,0,0,0-1.25,0,.64.64,0,0,1-.62.63,2.51,2.51,0,0,1-1-.59,4.53,4.53,0,0,0-1.85-1A2.61,2.61,0,0,0,8.83,2V.83A.63.63,0,0,0,8.2.2a.62.62,0,0,0-.62.63V2a2.62,2.62,0,0,0-1.64-.21,4.6,4.6,0,0,0-1.85,1,2.45,2.45,0,0,1-1,.59.64.64,0,0,1-.62-.63.63.63,0,0,0-1.25,0,1.87,1.87,0,0,0,1,1.66l-2,5.18a.73.73,0,0,0,0,.25h0a2.85,2.85,0,1,0,5.69,0,.63.63,0,0,0-.63-.62H1.72L3.18,5.37l.88,2.19A.63.63,0,0,0,4.64,8a.48.48,0,0,0,.23,0,.62.62,0,0,0,.35-.81L4.09,4.29a5.74,5.74,0,0,0,.76-.53c.9-.69,1.57-1.2,2.73-.33V14.05a8.29,8.29,0,0,0-3.07,1,.62.62,0,0,0,.63,1.07,7.08,7.08,0,0,1,3.06-.85,7.14,7.14,0,0,1,3.06.85A.62.62,0,0,0,11.89,15a8.28,8.28,0,0,0-3.06-1V3.46c1.17-.91,1.84-.4,2.75.3a7.19,7.19,0,0,0,.95.64l-2,5.17h0a.64.64,0,0,0-.05.24,2.85,2.85,0,1,0,5.69,0A.62.62,0,0,0,15.58,9.2ZM4.51,10.45a1.59,1.59,0,0,1-2.93,0Zm8.85,1a1.59,1.59,0,0,1-1.47-1h2.93A1.59,1.59,0,0,1,13.36,11.42Z"/></g></g></svg>