<svg xmlns="http://www.w3.org/2000/svg" viewBox="0 0 15.83 16"><defs><style>.cls-1{fill:#265dce;}</style></defs><title>key</title><g id="Слой_2" data-name="Слой 2"><g id="Слой_1-2" data-name="Слой 1"><path class="cls-1" d="M10.88,10a5.19,5.19,0,0,1-1.05-.11L8.68,11.06a2,2,0,0,1-.36,2.35l-1,1A2,2,0,0,1,5.94,15,2,2,0,0,1,5,14.77l-.65.64A2,2,0,0,1,3,16a2,2,0,0,1-1.4-.59l-1-1a2,2,0,0,1,0-2.82L6,6.07A6.26,6.26,0,0,1,5.94,5a4.95,4.95,0,1,1,9.89,0A5,5,0,0,1,10.88,10Zm0-8A3,3,0,0,0,8.09,4a2.77,2.77,0,0,0-.18,1,3,3,0,0,0,.44,1.56L6.92,8,2,13l1,1,2-2,1,1,1-1-1-1,2-2L9.34,7.56A2.89,2.89,0,0,0,10.88,8a2.72,2.72,0,0,0,1-.18,3,3,0,0,0-1-5.82Zm0,4a1,1,0,1,1,1-1A1,1,0,0,1,10.88,6Z"/></g></g></svg>