<svg xmlns="http://www.w3.org/2000/svg" viewBox="0 0 18 18"><defs><style>.cls-1{fill:#265dce;}</style></defs><title>limit</title><g id="Слой_2" data-name="Слой 2"><g id="Слой_1-2" data-name="Слой 1"><path class="cls-1" d="M17.18,11.5l-.12-.05-3.49-1.14-.43-1.49v0L11.3,2.37a7.43,7.43,0,0,0-.53-1.3,2,2,0,0,0-3.58,0,7.43,7.43,0,0,0-.5,1.28L6.51,3h0L5.68,5.91h0L4.53,10,.85,11.49l-.08,0A1.53,1.53,0,0,0,.6,14.07l.13.08,7.43,3.59a1.51,1.51,0,0,0,1.67,0l7.41-3.59.1-.06A1.52,1.52,0,0,0,17.18,11.5Zm-5.4.55h0a3.48,3.48,0,0,1-1.32.48A7.75,7.75,0,0,1,9,12.65a7.86,7.86,0,0,1-1.47-.12A3.13,3.13,0,0,1,6,11.91a.86.86,0,0,1-.14-.13.61.61,0,0,1-.15-.26.79.79,0,0,1,0-.34L6,10.26A6.52,6.52,0,0,0,9.11,11,6.12,6.12,0,0,0,12,10.27l.26.92v0a.65.65,0,0,1-.15.56,1.84,1.84,0,0,1-.33.27ZM9,4.31a4.34,4.34,0,0,0,1.25-.18l.43,1.53A5.14,5.14,0,0,1,9,6,5.09,5.09,0,0,1,7.3,5.7l.44-1.56A4.27,4.27,0,0,0,9,4.31ZM9,7.48a6.67,6.67,0,0,0,2.09-.37l.48,1.66a4.34,4.34,0,0,1-2.46.7,4.59,4.59,0,0,1-2.68-.71l.46-1.62A6.31,6.31,0,0,0,9,7.48Zm.45-5.7a5.82,5.82,0,0,1,.38.91A2.92,2.92,0,0,1,9,2.81a2.84,2.84,0,0,1-.84-.11,6,6,0,0,1,.36-.93A.53.53,0,0,1,9.45,1.78ZM9.14,16.43,9,16.49a.8.8,0,0,1-.16-.08L1.5,12.86v0L4.24,11.7a2.49,2.49,0,0,0,.09.37h0l0,0v.07l0,0v0l0,0v0l0,.06h0a1.32,1.32,0,0,0,.12.2h0l0,.07h0a1.37,1.37,0,0,0,.16.18A1.07,1.07,0,0,0,5,13a4.63,4.63,0,0,0,2.3,1A9.77,9.77,0,0,0,9,14.15,9.65,9.65,0,0,0,10.7,14a4.91,4.91,0,0,0,2.12-.85,4.17,4.17,0,0,0,.38-.34,2.1,2.1,0,0,0,.31-.41h0l.06-.1h0l0-.11h0a.76.76,0,0,0,0-.11h0l0-.12h0l2.8.92v0Z"/></g></g></svg>