<svg xmlns="http://www.w3.org/2000/svg" viewBox="0 0 16 16"><defs><style>.cls-1{fill:#959baa;}</style></defs><title>loading</title><g id="Слой_2" data-name="Слой 2"><g id="Слой_1-2" data-name="Слой 1"><path class="cls-1" d="M15.67,5.74A1,1,0,0,1,15,6H11a1,1,0,0,1,0-2h1.46A6,6,0,0,0,8,2,6,6,0,0,0,2.06,7.15a1,1,0,0,1-1,.85,1,1,0,0,1-1-1.13A8,8,0,0,1,14,2.72V1a1,1,0,0,1,2,0V5A1,1,0,0,1,15.67,5.74ZM1,10H5a1,1,0,0,1,0,2H3.53a5.84,5.84,0,0,0,3.18,1.86,6,6,0,0,0,7.23-5,1,1,0,0,1,1-.86,1,1,0,0,1,1,1.14A8,8,0,0,1,2,13.28V15a1,1,0,0,1-2,0V11A1,1,0,0,1,1,10Z"/></g></g></svg>