<svg xmlns="http://www.w3.org/2000/svg" viewBox="0 0 14 18.67"><defs><style>.cls-1{fill:#959baa;}</style></defs><title>lock</title><g id="Слой_2" data-name="Слой 2"><g id="Слой_1-2" data-name="Слой 1"><path class="cls-1" d="M13.61,7H12.44V5.44a5.44,5.44,0,1,0-10.88,0V7H.39A.38.38,0,0,0,0,7.39v9.72a1.56,1.56,0,0,0,1.56,1.56H12.44A1.56,1.56,0,0,0,14,17.11V7.39A.38.38,0,0,0,13.61,7ZM8.16,15.12a.39.39,0,0,1-.09.31.41.41,0,0,1-.29.13H6.22a.41.41,0,0,1-.29-.13.39.39,0,0,1-.09-.31l.24-2.2a1.54,1.54,0,0,1-.64-1.25,1.56,1.56,0,0,1,3.12,0,1.54,1.54,0,0,1-.64,1.25ZM10.11,7H3.89V5.44a3.11,3.11,0,1,1,6.22,0Z"/></g></g></svg>