<svg xmlns="http://www.w3.org/2000/svg" viewBox="0 0 15.83 15.91"><defs><style>.cls-1{fill:#265dce;}</style></defs><title>mark</title><g id="Слой_2" data-name="Слой 2"><g id="Слой_1-2" data-name="Слой 1"><path class="cls-1" d="M15.54,6.26,9.6.29a1,1,0,0,0-1.4,0,1,1,0,0,0,0,1.41l.11.11L2.12,5.7l-.43-.44A1,1,0,0,0,.29,6.67l1,1L4,10.44.29,14.22a1,1,0,0,0,0,1.4,1,1,0,0,0,.7.29,1,1,0,0,0,.7-.29l3.75-3.77L8.2,14.63l1,1a1,1,0,0,0,.7.29.94.94,0,0,0,.7-.29,1,1,0,0,0,0-1.4l-.43-.44L14,7.56l.11.11a1,1,0,0,0,1.4,0A1,1,0,0,0,15.54,6.26ZM8.72,12.34,3.56,7.14,9.75,3.25l2.84,2.86Z"/></g></g></svg>