<svg xmlns="http://www.w3.org/2000/svg" viewBox="0 0 14 14"><defs><style>.cls-1{fill:#959baa;}</style></defs><title>mobile</title><g id="Слой_2" data-name="Слой 2"><g id="Слой_1-2" data-name="Слой 1"><path class="cls-1" d="M13.91,10.18l-.67,2a1.77,1.77,0,0,1-1,1A8.62,8.62,0,0,1,8.75,14a8.74,8.74,0,0,1-5.88-2.27l-.3-.29A8.34,8.34,0,0,1,1.26,9.79c-.11-.2-.23-.41-.34-.64A8.58,8.58,0,0,1,0,5.25,8.62,8.62,0,0,1,.75,1.71a1.77,1.77,0,0,1,1-.95l2-.67A1.81,1.81,0,0,1,4.37,0,1.76,1.76,0,0,1,6,1.2l.87,2.62A1.76,1.76,0,0,1,6,5.94l-.63.32A3.49,3.49,0,0,0,7.74,8.6L8.06,8A1.74,1.74,0,0,1,9.62,7a1.77,1.77,0,0,1,.56.09L12.8,8A1.75,1.75,0,0,1,13.91,10.18Zm-1.66-.55L9.62,8.75,8.75,10.5A5.26,5.26,0,0,1,3.5,5.25l1.75-.87L4.37,1.75l-2,.67a7,7,0,0,0-.59,2.83,6.84,6.84,0,0,0,.74,3.13,3.84,3.84,0,0,0,.27.49,6.31,6.31,0,0,0,1,1.32l.24.24a7,7,0,0,0,4.71,1.82,6.87,6.87,0,0,0,2.83-.6Z"/></g></g></svg>