<svg xmlns="http://www.w3.org/2000/svg" viewBox="0 0 16 15.93"><defs><style>.cls-1{fill:#959baa;}</style></defs><title>notebook</title><g id="Слой_2" data-name="Слой 2"><g id="Слой_1-2" data-name="Слой 1"><path class="cls-1" d="M15.53.15a1,1,0,0,0-1,0l-3.63,1.8L5.39.08h0l-.07,0L5.2,0,5,0a.91.91,0,0,0-.23,0L4.7.06,4.53.13l-.09,0L.55,2.1A1,1,0,0,0,0,3V14.93a1,1,0,0,0,.47.85,1,1,0,0,0,.53.15,1,1,0,0,0,.45-.11L5.08,14l5.6,1.86a1,1,0,0,0,.77-.06l4-2a1,1,0,0,0,.55-.89V1A1,1,0,0,0,15.53.15ZM2,3.6l2-1v9.72l-2,1ZM6,2.38,10,3.7v9.85L6,12.23Zm8,10-2,1V3.6l2-1Z"/></g></g></svg>