<svg xmlns="http://www.w3.org/2000/svg" viewBox="0 0 11 18"><defs><style>.cls-1{fill:#fff;}</style></defs><title>ok</title><g id="Слой_2" data-name="Слой 2"><g id="Слой_1-2" data-name="Слой 1"><path class="cls-1" d="M.16,9.66c-.45.9.06,1.34,1.23,2.07a7.87,7.87,0,0,0,3.23.95L1.16,16.09c-1,1,.62,2.57,1.62,1.6L5.51,15l2.73,2.7c1,1,2.63-.61,1.63-1.61L6.39,12.68a8,8,0,0,0,3.22-.94h0c1.16-.74,1.67-1.18,1.23-2.08-.27-.51-1-.94-1.95-.2a5.85,5.85,0,0,1-3.39,1,5.85,5.85,0,0,1-3.39-1C1.15,8.71.43,9.15.16,9.66Z"/><path class="cls-1" d="M5.5,9.11a4.6,4.6,0,0,0,4.63-4.55A4.6,4.6,0,0,0,5.5,0,4.6,4.6,0,0,0,.87,4.56,4.6,4.6,0,0,0,5.5,9.11Zm0-6.8A2.27,2.27,0,0,1,7.78,4.56a2.28,2.28,0,0,1-4.56,0A2.27,2.27,0,0,1,5.5,2.31Z"/></g></g></svg>