<svg xmlns="http://www.w3.org/2000/svg" viewBox="0 0 20 20"><defs><style>.cls-1{fill:#fff;}</style></defs><title>parking</title><g id="Слой_2" data-name="Слой 2"><g id="Слой_1-2" data-name="Слой 1"><path class="cls-1" d="M10.68,6.38h-2V9.57h1.93a1.68,1.68,0,0,0,1.22-.36,1.43,1.43,0,0,0,.43-1.12,1.75,1.75,0,0,0-.44-1.25A1.46,1.46,0,0,0,10.68,6.38Z"/><path class="cls-1" d="M17.23,0H2.82A2.86,2.86,0,0,0,0,2.82V17.23A2.81,2.81,0,0,0,2.82,20H17.23A2.77,2.77,0,0,0,20,17.23V2.82A2.81,2.81,0,0,0,17.23,0ZM13.91,10.74a5,5,0,0,1-3.31,1H8.72v4H6V4.26h4.69A5.36,5.36,0,0,1,13,4.7a3.59,3.59,0,0,1,2.13,3.38A3.27,3.27,0,0,1,13.91,10.74Z"/></g></g></svg>