<svg xmlns="http://www.w3.org/2000/svg" viewBox="0 0 15.6 15.59"><defs><style>.cls-1{fill:#959baa;}</style></defs><title>pencil</title><g id="Слой_2" data-name="Слой 2"><g id="Слой_1-2" data-name="Слой 1"><path class="cls-1" d="M.8,15.59a.79.79,0,0,1-.56-.23A.8.8,0,0,1,0,14.61L.8,11.34A.75.75,0,0,1,1,11L10.72.75h0a2.45,2.45,0,0,1,2.7-.56,2.42,2.42,0,0,1,.79.56,2.63,2.63,0,0,1,.53.82,2.64,2.64,0,0,1,.18,1,2.59,2.59,0,0,1-.18,1,2.67,2.67,0,0,1-.53.83L4.49,14.53a.85.85,0,0,1-.38.22L1,15.57Zm1.51-3.67-.42,1.76,1.6-.42L13.05,3.2a1,1,0,0,0,.2-.3,1.21,1.21,0,0,0,.07-.37,1.22,1.22,0,0,0-.07-.38,1,1,0,0,0-.2-.3.83.83,0,0,0-.27-.19.79.79,0,0,0-.9.19ZM14.8,15.59h-7a.8.8,0,1,1,0-1.6h7a.8.8,0,0,1,0,1.6Z"/></g></g></svg>