<svg xmlns="http://www.w3.org/2000/svg" viewBox="0 0 22 22"><defs><style>.cls-1{fill:#fff;}</style></defs><title>progress</title><g id="Слой_2" data-name="Слой 2"><g id="Слой_1-2" data-name="Слой 1"><path class="cls-1" d="M11,22a1,1,0,0,1-1-1V17a1,1,0,0,1,2,0v4A1,1,0,0,1,11,22ZM3.93,19.07a1,1,0,0,1-.71-.29,1,1,0,0,1,0-1.42l2.83-2.83A1,1,0,1,1,7.47,16L4.64,18.78A1,1,0,0,1,3.93,19.07Zm14.14,0a1,1,0,0,1-.71-.29L14.53,16A1,1,0,1,1,16,14.53l2.83,2.83a1,1,0,0,1,0,1.42A1,1,0,0,1,18.07,19.07ZM21,12H17a1,1,0,0,1,0-2h4a1,1,0,0,1,0,2ZM5,12H1a1,1,0,0,1,0-2H5a1,1,0,0,1,0,2ZM6.76,7.76a1,1,0,0,1-.71-.29L3.22,4.64A1,1,0,0,1,4.64,3.22L7.47,6.05a1,1,0,0,1,0,1.42A1,1,0,0,1,6.76,7.76Zm8.48,0a1,1,0,0,1-.71-.29,1,1,0,0,1,0-1.42l2.83-2.83a1,1,0,1,1,1.42,1.42L16,7.47A1,1,0,0,1,15.24,7.76ZM11,6a1,1,0,0,1-1-1V1a1,1,0,0,1,2,0V5A1,1,0,0,1,11,6Z"/></g></g></svg>