<svg xmlns="http://www.w3.org/2000/svg" viewBox="0 0 15.99 15.74"><defs><style>.cls-1{fill:#959baa;}</style></defs><title>reload</title><g id="Слой_2" data-name="Слой 2"><g id="Слой_1-2" data-name="Слой 1"><path class="cls-1" d="M15.66,5.65A1,1,0,0,1,15,5.9H11a1,1,0,1,1,0-2h1.46A6,6,0,0,0,2.06,7a1,1,0,0,1-1,.84,1,1,0,0,1-1-1.11A8,8,0,0,1,6.89.07,8.08,8.08,0,0,1,14,2.68V1a1,1,0,0,1,2,0V4.92A1,1,0,0,1,15.66,5.65ZM1,9.84H5a1,1,0,1,1,0,2H3.52A5.86,5.86,0,0,0,6.7,13.63a6,6,0,0,0,7.23-4.91,1,1,0,0,1,1-.85,1,1,0,0,1,1,1.12A8,8,0,0,1,2,13.06v1.7a1,1,0,0,1-1,1,1,1,0,0,1-1-1V10.82A1,1,0,0,1,1,9.84Z"/></g></g></svg>