<svg xmlns="http://www.w3.org/2000/svg" viewBox="0 0 26 26"><defs><style>.cls-1{opacity:0.99;}.cls-2{fill:#265dce;}</style></defs><title>ruble</title><g id="Слой_2" data-name="Слой 2"><g id="Слой_1-2" data-name="Слой 1"><g class="cls-1"><path class="cls-2" d="M4,21a1.07,1.07,0,0,0,.22-1.49,10.86,10.86,0,1,1,17.54,0,1.07,1.07,0,1,0,1.72,1.26,13,13,0,1,0-21,0A1.07,1.07,0,0,0,4,21Z"/><path class="cls-2" d="M14.63,14.06a3.75,3.75,0,1,0,0-7.49h-3.8A1.07,1.07,0,0,0,9.76,7.63v4.31H8.66a1.06,1.06,0,0,0,0,2.12h1.1v1.1H8.66a1.06,1.06,0,1,0,0,2.12h1.1v1.09a1.07,1.07,0,0,0,2.14,0V17.28h2.18a1.06,1.06,0,1,0,0-2.12H11.9v-1.1Zm1.64-3.74a1.64,1.64,0,0,1-1.64,1.62H11.9V8.69h2.73A1.64,1.64,0,0,1,16.27,10.32Z"/><path class="cls-2" d="M24.93,23.81H1.07a1.1,1.1,0,0,0,0,2.19H24.93a1.1,1.1,0,0,0,0-2.19Z"/></g></g></g></svg>