<svg xmlns="http://www.w3.org/2000/svg" viewBox="0 0 18 16"><defs><style>.cls-1{fill:#265dce;}</style></defs><title>runs</title><g id="Слой_2" data-name="Слой 2"><g id="Слой_1-2" data-name="Слой 1"><path class="cls-1" d="M9,0a8.94,8.94,0,0,1,9,8.85A8.64,8.64,0,0,1,16.3,14l-1.65-1.28a6.65,6.65,0,0,0,1.23-3.87A6.81,6.81,0,0,0,9,2.08,6.81,6.81,0,0,0,2.12,8.85a6.72,6.72,0,0,0,1.23,3.87L1.7,14A8.64,8.64,0,0,1,0,8.85,8.94,8.94,0,0,1,9,0ZM5,5l5.37,4.16a1.28,1.28,0,0,1,0,1.84A1.33,1.33,0,0,1,8.5,11Z"/><path class="cls-1" d="M5,14h8l1.5,1.5A47.59,47.59,0,0,1,9,16a47.59,47.59,0,0,1-5.5-.5Z"/></g></g></svg>