<svg xmlns="http://www.w3.org/2000/svg" viewBox="0 0 14.4 16.4"><defs><style>.cls-1{fill:#265dce;}</style></defs><title>vecto</title><g id="Слой_2" data-name="Слой 2"><g id="Слой_1-2" data-name="Слой 1"><path class="cls-1" d="M8.41,12.08a1,1,0,1,1,1,.93A1,1,0,0,1,8.41,12.08ZM12.34,5a3.72,3.72,0,0,1-1.07-2.13.68.68,0,0,0-.7-.63.81.81,0,0,0-.46.14A13.33,13.33,0,0,0,8.35,4.22,5.28,5.28,0,0,1,7.47.83.72.72,0,0,0,6.73.2.91.91,0,0,0,6.3.3a15.43,15.43,0,0,0-3.43,3A11.75,11.75,0,0,0,1,6.1,8.61,8.61,0,0,0,.2,9.69a6.78,6.78,0,0,0,7,6.51,7.15,7.15,0,0,0,4.66-1.63.6.6,0,0,0,.05-.88.71.71,0,0,0-.95,0A5.77,5.77,0,0,1,7.2,15,5.47,5.47,0,0,1,1.55,9.69,8.63,8.63,0,0,1,3.92,4.05,15,15,0,0,1,6.17,1.94,5.34,5.34,0,0,0,8,5.68a.69.69,0,0,0,.54.17A.67.67,0,0,0,9,5.58a15.13,15.13,0,0,1,1.21-1.47,8.17,8.17,0,0,0,1.06,1.64A6.28,6.28,0,0,1,12.85,9.6h0a5.15,5.15,0,0,1-.24,1.54.63.63,0,0,0,.46.78.7.7,0,0,0,.84-.43,7.13,7.13,0,0,0,.29-1.83A7.19,7.19,0,0,0,12.34,5ZM4.55,12.87a.73.73,0,0,0,1-.08l4.44-5a.59.59,0,0,0-.09-.88A.71.71,0,0,0,8.9,7L4.46,12A.59.59,0,0,0,4.55,12.87ZM6,7.7a1,1,0,0,0-1-.94A.94.94,0,1,0,5,8.64,1,1,0,0,0,6,7.7Z"/><path class="cls-1" d="M7.2,16.4A7,7,0,0,1,0,9.69,8.73,8.73,0,0,1,.84,6,12.1,12.1,0,0,1,2.72,3.14,15.7,15.7,0,0,1,6.2.12,1.28,1.28,0,0,1,6.73,0a.92.92,0,0,1,.94.83,5.42,5.42,0,0,0,.69,3.06A12.32,12.32,0,0,1,10,2.25a1,1,0,0,1,.59-.19.88.88,0,0,1,.9.83,3.59,3.59,0,0,0,1,2h0a7.41,7.41,0,0,1,1.9,4.77,7.2,7.2,0,0,1-.3,1.88.89.89,0,0,1-1.08.57.85.85,0,0,1-.53-.41.77.77,0,0,1-.07-.61,5.11,5.11,0,0,0,.23-1.49,6,6,0,0,0-1.57-3.74,9.42,9.42,0,0,1-.95-1.41,12.4,12.4,0,0,0-1,1.23.91.91,0,0,1-.63.36.9.9,0,0,1-.69-.21A5.41,5.41,0,0,1,6,2.32,14.63,14.63,0,0,0,4.07,4.18,8.45,8.45,0,0,0,1.75,9.69,5.27,5.27,0,0,0,7.2,14.75a5.6,5.6,0,0,0,3.63-1.26.91.91,0,0,1,1.22.06A.79.79,0,0,1,12,14.72,7.36,7.36,0,0,1,7.2,16.4ZM6.73.4a.72.72,0,0,0-.32.07A15,15,0,0,0,3,3.4,11.65,11.65,0,0,0,1.2,6.18,8.42,8.42,0,0,0,.4,9.69,6.58,6.58,0,0,0,7.2,16a7,7,0,0,0,4.53-1.58.43.43,0,0,0,.15-.29.39.39,0,0,0-.12-.3.52.52,0,0,0-.68,0A5.94,5.94,0,0,1,7.2,15.15,5.67,5.67,0,0,1,1.35,9.69,8.82,8.82,0,0,1,3.77,3.92,14.92,14.92,0,0,1,6.05,1.78l.29-.22,0,.36A5.17,5.17,0,0,0,8.08,5.54a.49.49,0,0,0,.39.11.46.46,0,0,0,.34-.19A13,13,0,0,1,10,4l.21-.22.12.28a7.55,7.55,0,0,0,1,1.59,6.47,6.47,0,0,1,1.65,4,5.56,5.56,0,0,1-.25,1.62.39.39,0,0,0,0,.3.46.46,0,0,0,.3.22.47.47,0,0,0,.58-.29A6.47,6.47,0,0,0,14,9.67a7,7,0,0,0-1.82-4.52h0a3.88,3.88,0,0,1-1.11-2.26.48.48,0,0,0-.5-.43.57.57,0,0,0-.34.1A12.39,12.39,0,0,0,8.51,4.35l-.16.2-.16-.2A5.52,5.52,0,0,1,7.27.83.52.52,0,0,0,6.73.4ZM9.42,13.21a1.14,1.14,0,1,1,1.21-1.13A1.17,1.17,0,0,1,9.42,13.21Zm0-1.87a.74.74,0,1,0,.81.74A.78.78,0,0,0,9.42,11.34ZM5,13.21A.89.89,0,0,1,4.43,13h0a.78.78,0,0,1-.32-.57.79.79,0,0,1,.2-.6l4.44-5A.91.91,0,0,1,10,6.75a.78.78,0,0,1,.32.56.81.81,0,0,1-.2.61l-4.44,5A.88.88,0,0,1,5,13.21Zm-.31-.5a.53.53,0,0,0,.68-.06l4.44-5a.37.37,0,0,0,.1-.3.45.45,0,0,0-.16-.29.52.52,0,0,0-.68.06l-4.44,5a.38.38,0,0,0-.1.3.41.41,0,0,0,.16.29ZM5,8.84A1.14,1.14,0,1,1,5,6.56,1.14,1.14,0,1,1,5,8.84ZM5,7A.74.74,0,1,0,5,8.44.74.74,0,1,0,5,7Z"/></g></g></svg>