<svg xmlns="http://www.w3.org/2000/svg" viewBox="0 0 38 38"><defs><style>.cls-1{fill:#fff;}</style></defs><title>settings</title><g id="Слой_2" data-name="Слой 2"><g id="Слой_1-2" data-name="Слой 1"><path class="cls-1" d="M35.07,20.59V14.13l-2.66-.41a15.14,15.14,0,0,0-1.67-4l1.59-2.17-4.8-4.81L25.36,4.32a15,15,0,0,0-4-1.66L20.93,0h-6.8l-.41,2.66a15.11,15.11,0,0,0-4,1.66L7.54,2.73,2.73,7.54,4.32,9.71a15.11,15.11,0,0,0-1.66,4L0,14.13v6.8l2.66.41a15,15,0,0,0,1.66,4L2.73,27.53l4.81,4.8,2.17-1.59a15.14,15.14,0,0,0,4,1.67l.41,2.66h6.46A10.24,10.24,0,0,0,35.07,20.59Zm-19.38,10-.76-.15a12.76,12.76,0,0,1-4.65-1.93L9.63,28,7.76,29.41,5.66,27.3,7,25.44l-.43-.65a13,13,0,0,1-1.92-4.65l-.16-.76L2.23,19V16l2.28-.35.16-.76a12.92,12.92,0,0,1,1.92-4.65L7,9.63,5.66,7.76l2.1-2.1L9.63,7l.65-.43a12.92,12.92,0,0,1,4.65-1.92l.76-.16L16,2.23h3l.36,2.28.76.16a13,13,0,0,1,4.65,1.92l.65.43L27.3,5.66l2.11,2.1L28,9.63l.43.65a12.76,12.76,0,0,1,1.93,4.65l.15.76,2.29.35v2.83a10.13,10.13,0,0,0-4.59-1.34A10.72,10.72,0,1,0,17.53,28.45h0a10.24,10.24,0,0,0,1.33,4.39H16Zm4.59-9.78a4.18,4.18,0,1,1,.33-.34Zm-2.75-9.36a6.32,6.32,0,0,0,0,12.64q.36,0,.69,0a10.73,10.73,0,0,0-.59,2.21h-.1A8.5,8.5,0,1,1,26,17.66a10,10,0,0,0-2.2.64c0-.19,0-.38,0-.57a6.33,6.33,0,0,0-6.32-6.32ZM27.76,35.77a8,8,0,0,1-5.89-13.44l.36-.37a8,8,0,1,1,5.53,13.81Z"/></g></g></svg>