<svg xmlns="http://www.w3.org/2000/svg" viewBox="0 0 24 21"><defs><style>.cls-1{fill:#fff;}</style></defs><title>signal</title><g id="Слой_2" data-name="Слой 2"><g id="Слой_1-2" data-name="Слой 1"><path class="cls-1" d="M4.69,18.45H19.26a1.27,1.27,0,0,1,1.26,1.25V21H3.42V19.7A1.32,1.32,0,0,1,4.69,18.45Zm.88-1.25L6.79,8.84A3.33,3.33,0,0,1,7.67,7l0-.06a2.73,2.73,0,0,1,1.94-.81h4.63a3,3,0,0,1,2,.81,3.5,3.5,0,0,1,.93,2l1.16,8.36ZM3.42,11a.87.87,0,1,1,0,1.74H.88A.87.87,0,1,1,.88,11Zm19.7,0a.87.87,0,1,1,0,1.74H20.58a.87.87,0,1,1,0-1.74ZM5.57,5.43a.84.84,0,0,1,0,1.19.86.86,0,0,1-1.21,0L2.54,4.83a.84.84,0,0,1,0-1.19.86.86,0,0,1,1.21,0ZM19.64,6.62a.86.86,0,0,1-1.21,0,.84.84,0,0,1,0-1.19l1.82-1.79a.86.86,0,0,1,1.21,0,.84.84,0,0,1,0,1.19ZM12.86,3.36a.87.87,0,0,1-.89.87.86.86,0,0,1-.83-.87V.87A.86.86,0,0,1,12,0a.87.87,0,0,1,.89.87Z"/></g></g></svg>