<svg xmlns="http://www.w3.org/2000/svg" viewBox="0 0 25.09 23.02"><defs><style>.cls-1{fill:#f50000;}</style></defs><title>small-warning</title><g id="Слой_2" data-name="Слой 2"><g id="Слой_1-2" data-name="Слой 1"><path class="cls-1" d="M25,21.74,13.39.45A.87.87,0,0,0,12.63,0a.86.86,0,0,0-.76.45L.11,21.64a.87.87,0,0,0,0,.87.9.9,0,0,0,.75.43L24.22,23A.87.87,0,0,0,25,21.74ZM2.34,21.2,12.62,2.67,22.76,21.28Z"/><path class="cls-1" d="M11.51,8.88l0,6.28a1.11,1.11,0,0,0,1.09,1.1,1.09,1.09,0,0,0,1.09-1.09l0-6.28a1.09,1.09,0,1,0-2.17,0Z"/><path class="cls-1" d="M12.56,17.39a1.15,1.15,0,1,0,1.15,1.15A1.15,1.15,0,0,0,12.56,17.39Z"/></g></g></svg>