<svg xmlns="http://www.w3.org/2000/svg" viewBox="0 0 24 19.64"><defs><style>.cls-1{fill:#959baa;}</style></defs><title>speed</title><g id="Слой_2" data-name="Слой 2"><g id="Слой_1-2" data-name="Слой 1"><path class="cls-1" d="M16.75,7.63a1.1,1.1,0,0,0-1.54,0L12.1,10.72a2.61,2.61,0,0,0-.48-.05,2.07,2.07,0,1,0,2.08,2.06,1.84,1.84,0,0,0-.06-.47l3.11-3.1A1.07,1.07,0,0,0,16.75,7.63Z"/><path class="cls-1" d="M20.49,3.49a12.08,12.08,0,0,0-17,0A11.9,11.9,0,0,0,2,18.56a1.09,1.09,0,0,0,1.51.29,1.06,1.06,0,0,0,.3-1.5A9.79,9.79,0,0,1,2.24,13h1a1.09,1.09,0,1,0,0-2.17h-1a9.8,9.8,0,0,1,2.07-5l.75.73a1.09,1.09,0,0,0,1.54,0,1.09,1.09,0,0,0,0-1.53l-.75-.74A9.9,9.9,0,0,1,11,2.22v1a1.1,1.1,0,0,0,2.19,0v-1a9.86,9.86,0,0,1,5,2.08l-.75.74a1.09,1.09,0,0,0,0,1.53,1.09,1.09,0,0,0,1.54,0l.75-.73a9.8,9.8,0,0,1,2.07,5h-1a1.09,1.09,0,1,0,0,2.17h1a9.79,9.79,0,0,1-1.59,4.31,1.09,1.09,0,0,0,.9,1.69,1.1,1.1,0,0,0,.91-.48A11.9,11.9,0,0,0,20.49,3.49Z"/><path class="cls-1" d="M16.92,17.47H7.08a1.09,1.09,0,1,0,0,2.17h9.84a1.09,1.09,0,1,0,0-2.17Z"/></g></g></svg>