<svg xmlns="http://www.w3.org/2000/svg" viewBox="0 0 14 13"><defs><style>.cls-1{fill:#fff;}</style></defs><title>star</title><g id="Слой_2" data-name="Слой 2"><g id="Слой_1-2" data-name="Слой 1"><path class="cls-1" d="M14,4.91a.73.73,0,0,0-.64-.49l-4-.36L7.68.44a.75.75,0,0,0-1.36,0L4.72,4.06l-4,.36A.73.73,0,0,0,0,4.91a.7.7,0,0,0,.21.77L3.31,8.27l-.9,3.85a.7.7,0,0,0,.29.74.77.77,0,0,0,.82,0l3.48-2,3.48,2a.76.76,0,0,0,.82,0,.7.7,0,0,0,.29-.74l-.9-3.85,3.06-2.59A.7.7,0,0,0,14,4.91Z"/></g></g></svg>