<svg width="109" height="100" viewBox="0 0 109 100" fill="none" xmlns="http://www.w3.org/2000/svg">
<path d="M50.0004 100C22.4321 100 0 77.5687 0 50.0004C0 22.4321 22.4321 0 50.0004 0C59.5868 0 68.9136 2.73161 76.9728 7.90435C78.555 8.92309 79.0186 11.0321 77.9998 12.6185C76.9778 14.2049 74.8729 14.6635 73.2865 13.6456C66.3318 9.17694 58.2776 6.8182 50.0004 6.8182C26.1908 6.8182 6.8182 26.1908 6.8182 50.0004C6.8182 73.8092 26.1908 93.1818 50.0004 93.1818C73.8092 93.1818 93.1818 73.8092 93.1818 50.0004C93.1818 48.5772 93.1135 47.1681 92.982 45.7823C92.8006 43.9046 94.1731 42.2409 96.0457 42.0594C97.9276 41.8863 99.5863 43.2505 99.7686 45.1231C99.9226 46.7278 100 48.355 100 50.0004C100 77.5687 77.5687 100 50.0004 100Z" fill="#009335"/>
<path d="M55.7772 62C54.908 62 54.038 61.6668 53.377 60.9972L32.9952 40.4767C31.6683 39.1399 31.6683 36.9739 32.9952 35.638C34.3222 34.302 36.4735 34.302 37.8004 35.638L55.7821 53.742L103.199 6.00198C104.527 4.66601 106.678 4.66601 108.005 6.00198C109.332 7.33795 109.332 9.50389 108.005 10.8399L58.1822 61.0014C57.5163 61.6668 56.6471 62 55.7772 62Z" fill="#009335"/>
</svg>
