<svg xmlns="http://www.w3.org/2000/svg" viewBox="0 0 16 16"><defs><style>.cls-1{fill:#265dce;}</style></defs><title>support</title><g id="Слой_2" data-name="Слой 2"><g id="Слой_1-2" data-name="Слой 1"><path class="cls-1" d="M16,9a4,4,0,0,0-2-3.46,6,6,0,0,0-12,0A4,4,0,0,0,4,13a2,2,0,0,0,2-2V7A2,2,0,0,0,4.14,5h7.72A2,2,0,0,0,10,7v4a2,2,0,0,0,.88,1.66A2,2,0,0,1,9,14H7a1,1,0,0,0,0,2H9a4,4,0,0,0,3.89-3.11A4,4,0,0,0,16,9ZM10.62,3H5.38a3.93,3.93,0,0,1,5.24,0ZM4,11A2,2,0,0,1,4,7Zm8,0V7a2,2,0,0,1,0,4Z"/></g></g></svg>