<svg xmlns="http://www.w3.org/2000/svg" viewBox="0 0 16 15.91"><defs><style>.cls-1{fill:#959baa;}</style></defs><title>target</title><g id="Слой_2" data-name="Слой 2"><g id="Слой_1-2" data-name="Слой 1"><path class="cls-1" d="M15.94,3.34s0,0,0,0h0a1,1,0,0,1-.2.3l0,0-2,2a1,1,0,0,1-1.41,0,1,1,0,0,1,0-1.41l.17-.17A6.94,6.94,0,0,0,6,10.94a1,1,0,0,1-1,1H5a1,1,0,0,1-1-1c0-.08.1-8.23,8.68-8.86L12.3,1.7A1,1,0,0,1,13.71.29l2,2a1,1,0,0,1,.2.3l0,.09a.74.74,0,0,1,.05.25S16,3,16,3A1.2,1.2,0,0,1,15.94,3.34ZM4,4H2v9.94H12V9a1,1,0,0,1,2,0v5a2,2,0,0,1-2,2H2a2,2,0,0,1-2-2V4A2,2,0,0,1,2,2H4A1,1,0,1,1,4,4Z"/></g></g></svg>