<svg xmlns="http://www.w3.org/2000/svg" viewBox="0 0 28 19"><defs><style>.cls-1{fill:#959baa;}</style></defs><title>tinting</title><g id="Слой_2" data-name="Слой 2"><g id="Слой_1-2" data-name="Слой 1"><path class="cls-1" d="M28,19H0V0H15.31a10.83,10.83,0,0,1,7.92,2.94c3.06,3,4.66,8.1,4.76,15.3ZM1.5,17.5h25C26.29,11.12,24.84,6.59,22.18,4A9.34,9.34,0,0,0,15.31,1.5H1.5Z"/><path class="cls-1" d="M25,16.5H4.86L2.5,13.4l0-10.9H15a8.68,8.68,0,0,1,7.06,3.44h0c1.77,2.25,2.78,5.54,2.92,9.52Zm-19.17-2H22.92a13.62,13.62,0,0,0-2.43-7.33h0A6.75,6.75,0,0,0,15,4.5H4.47l0,8.22Z"/><polygon class="cls-1" points="8.75 14 7.25 14 7.25 11.75 5 11.75 5 10.25 8.75 10.25 8.75 14"/></g></g></svg>