<svg xmlns="http://www.w3.org/2000/svg" viewBox="0 0 28 22"><defs><style>.cls-1{fill:#fff;}</style></defs><title>traffic-police</title><g id="Слой_2" data-name="Слой 2"><g id="Слой_1-2" data-name="Слой 1"><path class="cls-1" d="M25.23,14.44S22,22,14.07,22,2.9,14.44,2.9,14.44a55.12,55.12,0,0,0,11,1.37A59.72,59.72,0,0,0,25.23,14.44Z"/><path class="cls-1" d="M27.05,6.19C21.19,4.4,16.58,0,14.07,0S7,4.4,1.09,6.19a1.44,1.44,0,0,0-.84,2.2C1.51,10,2.9,10.18,2.9,12.1a53.35,53.35,0,0,0,11.17,1.38A53.32,53.32,0,0,0,25.23,12.1c0-1.92,1.4-2.06,2.52-3.85A1.36,1.36,0,0,0,27.05,6.19ZM14.07,11c-1.54,0-2.79-2.61-2.79-4.12A4.37,4.37,0,0,1,14.07,5.5a4.4,4.4,0,0,1,2.79,1.38C16.86,8.39,15.6,11,14.07,11Z"/></g></g></svg>