<svg xmlns="http://www.w3.org/2000/svg" viewBox="0 0 14 11"><defs><style>.cls-1{fill:#fff;}</style></defs><title>twi</title><g id="Слой_2" data-name="Слой 2"><g id="Слой_1-2" data-name="Слой 1"><path class="cls-1" d="M4.4,11a8,8,0,0,0,8.18-7.9c0-.12,0-.24,0-.36A5.76,5.76,0,0,0,14,1.3a5.84,5.84,0,0,1-1.65.44A2.81,2.81,0,0,0,13.61.2a6.15,6.15,0,0,1-1.82.68A2.94,2.94,0,0,0,7.72.76a2.72,2.72,0,0,0-.83,2.65A8.26,8.26,0,0,1,1,.51a2.72,2.72,0,0,0,.89,3.7,3,3,0,0,1-1.3-.34v0a2.8,2.8,0,0,0,2.3,2.72,2.81,2.81,0,0,1-1.29,0A2.85,2.85,0,0,0,4.25,8.6,5.92,5.92,0,0,1,.68,9.79a5.27,5.27,0,0,1-.68,0A8.3,8.3,0,0,0,4.4,11"/></g></g></svg>