<svg xmlns="http://www.w3.org/2000/svg" viewBox="0 0 34 16"><defs><style>.cls-1{fill:#fff;}</style></defs><title>unreadable-signs</title><g id="Слой_2" data-name="Слой 2"><g id="Слой_1-2" data-name="Слой 1"><path class="cls-1" d="M32.11,16H1.89A2,2,0,0,1,0,14V2A2,2,0,0,1,1.89,0H32.11A2,2,0,0,1,34,2V14A2,2,0,0,1,32.11,16ZM2,14H32V2H2Z"/><rect class="cls-1" x="16" y="4" width="4" height="2"/><rect class="cls-1" x="18" y="5" width="2" height="7"/><rect class="cls-1" x="23" y="4" width="4" height="2"/><rect class="cls-1" x="24" y="10" width="4" height="2"/><rect class="cls-1" x="26" y="5" width="2" height="2"/><rect class="cls-1" x="24" y="7" width="2" height="2"/><rect class="cls-1" x="23" y="8" width="2" height="3"/><rect class="cls-1" x="8" y="4" width="3" height="2"/><rect class="cls-1" x="8" y="10" width="3" height="2"/><rect class="cls-1" x="6" y="5" width="2" height="6"/><rect class="cls-1" x="11" y="5" width="2" height="6"/></g></g></svg>