<svg xmlns="http://www.w3.org/2000/svg" viewBox="0 0 15 15"><defs><style>.cls-1{fill:#959baa;}</style></defs><title>user</title><g id="Слой_2" data-name="Слой 2"><g id="Слой_1-2" data-name="Слой 1"><path class="cls-1" d="M14.89,12.51a7.57,7.57,0,0,0-4.16-4.33A4.56,4.56,0,0,0,12.4,4.69,4.74,4.74,0,0,0,8.08,0,3.36,3.36,0,0,0,7.5,0a3.36,3.36,0,0,0-.58,0A4.74,4.74,0,0,0,2.6,4.69,4.56,4.56,0,0,0,4.27,8.18,7.57,7.57,0,0,0,.11,12.51a1.82,1.82,0,0,0,.25,1.7A2,2,0,0,0,2,15H13a2,2,0,0,0,1.6-.79A1.79,1.79,0,0,0,14.89,12.51ZM4.56,4.69A2.85,2.85,0,0,1,7.2,1.89h.6a2.85,2.85,0,0,1,2.64,2.8A2.87,2.87,0,0,1,7.5,7.5,2.87,2.87,0,0,1,4.56,4.69ZM2,13.13A5.84,5.84,0,0,1,7.5,9.38,5.85,5.85,0,0,1,13,13.13Z"/></g></g></svg>