<svg xmlns="http://www.w3.org/2000/svg" viewBox="0 0 18 11.47"><defs><style>.cls-1{fill:#959baa;}</style></defs><title>view</title><g id="Слой_2" data-name="Слой 2"><g id="Слой_1-2" data-name="Слой 1"><path class="cls-1" d="M17.89,5.39C17.72,5.17,13.89,0,9,0S.27,5.17.11,5.39a.6.6,0,0,0,0,.7c.16.22,4,5.38,8.89,5.38s8.72-5.16,8.89-5.38A.6.6,0,0,0,17.89,5.39ZM9,10.29c-3.6,0-6.73-3.43-7.65-4.55.92-1.13,4-4.55,7.65-4.55s6.73,3.43,7.65,4.55C15.73,6.86,12.61,10.29,9,10.29Z"/><path class="cls-1" d="M9,2.18a3.56,3.56,0,1,0,3.56,3.56A3.56,3.56,0,0,0,9,2.18ZM9,8.11a2.38,2.38,0,1,1,2.37-2.37A2.37,2.37,0,0,1,9,8.11Z"/></g></g></svg>