<svg xmlns="http://www.w3.org/2000/svg" viewBox="0 0 511.96 292.11"><defs><style>.cls-1{fill:#f1f1f1;}</style></defs><title>vk</title><g id="Слой_2" data-name="Слой 2"><g id="Capa_1" data-name="Capa 1"><path class="cls-1" d="M250.5,290.88h30.6s9.24-1,13.95-6.11c4.35-4.67,4.19-13.44,4.19-13.44s-.61-41.06,18.46-47.1c18.79-6,42.92,39.68,68.48,57.24,19.33,13.28,34,10.37,34,10.37l68.38-1s35.78-2.21,18.82-30.33c-1.38-2.31-9.89-20.8-50.85-58.82-42.88-39.81-37.12-33.34,14.53-102.18,31.46-41.92,44-67.52,40.1-78.46-3.75-10.43-26.88-7.68-26.88-7.68l-76.93.45s-5.7-.77-9.95,1.76-6.79,8.25-6.79,8.25-12.19,32.45-28.45,60c-34.27,58.2-48,61.28-53.6,57.66-13-8.42-9.76-33.86-9.76-51.9,0-56.42,8.55-79.94-16.67-86-8.38-2-14.53-3.36-35.93-3.58-27.46-.29-50.72.09-63.88,6.52C173.58,10.88,166.82,20.45,171,21c5.09.68,16.61,3.11,22.72,11.43,7.91,10.72,7.62,34.85,7.62,34.85s4.54,66.4-10.59,74.65c-10.4,5.67-24.64-5.89-55.2-58.72-15.65-27-27.49-57-27.49-57s-2.27-5.57-6.34-8.54c-4.93-3.62-11.84-4.77-11.84-4.77l-73.15.45s-11,.32-15,5.09c-3.58,4.25-.29,13-.29,13S58.66,165.47,123.5,233c59.48,61.92,127,57.85,127,57.85Z"/></g></g></svg>