<svg xmlns="http://www.w3.org/2000/svg" viewBox="0 0 19 19"><defs><style>.cls-1{fill:#f50000;}</style></defs><title>warning-romb</title><g id="Слой_2" data-name="Слой 2"><g id="Слой_1-2" data-name="Слой 1"><path class="cls-1" d="M13,19H6a1.05,1.05,0,0,1-.71-.29l-5-5A1.05,1.05,0,0,1,0,13V6a1.05,1.05,0,0,1,.29-.71l5-5A1.05,1.05,0,0,1,6,0h7a1.05,1.05,0,0,1,.71.29l5,5A1.05,1.05,0,0,1,19,6v7a1.05,1.05,0,0,1-.29.71l-5,5A1.05,1.05,0,0,1,13,19ZM6.4,17h6.2L17,12.6V6.4L12.6,2H6.4L2,6.4v6.2Zm3.11-3.1a1,1,0,1,1,0-2h0a1,1,0,0,1,0,2Zm0-3.4a1,1,0,0,1-1-1V6.1a1,1,0,0,1,2,0V9.5A1,1,0,0,1,9.5,10.5Z"/></g></g></svg>