<svg xmlns="http://www.w3.org/2000/svg" viewBox="0 0 22 19.36"><defs><style>.cls-1{fill:#959baa;}</style></defs><title>warning</title><g id="Слой_2" data-name="Слой 2"><g id="Слой_1-2" data-name="Слой 1"><path class="cls-1" d="M21.91,18.27,11.67.38a.78.78,0,0,0-1.34,0L.09,18.27a.71.71,0,0,0,0,.73.76.76,0,0,0,.65.36H21.24a.76.76,0,0,0,.65-.36A.71.71,0,0,0,21.91,18.27ZM2.05,17.9,11,2.25,20,17.9Z"/><path class="cls-1" d="M10.05,7.48v5.3a1,1,0,0,0,1.9,0V7.48a1,1,0,0,0-1.9,0Z"/><path class="cls-1" d="M11,14.65a1,1,0,1,0,1,1A1,1,0,0,0,11,14.65Z"/></g></g></svg>