<svg width="33" height="37" viewBox="0 0 33 37" fill="none" xmlns="http://www.w3.org/2000/svg">
<path opacity="0.7" d="M32.7394 6.88837L32.5274 7.18786C32.6546 6.33217 32.485 5.13419 32.273 4.44963C31.9762 5.56204 31.425 6.54609 30.6617 7.48736L30.6193 6.93115C29.7289 8.34306 28.6265 9.49825 27.3969 10.0545C27.3969 9.84053 27.3545 9.58382 27.2697 9.41268C25.6585 11.5519 21.7577 11.0385 22.1817 15.3598C23.0721 15.2314 23.4961 16.1299 22.7329 16.9856C22.3937 16.9856 22.0545 16.8573 21.7577 16.6861L21.9273 16.4294L21.2488 16.0871C21.4185 16.0443 21.5881 15.9588 21.7577 15.8732C20.74 15.3598 21.0792 14.3757 19.892 13.8623C19.68 13.6484 19.5104 13.3489 19.3832 13.0494C19.3408 12.8355 19.2984 12.5788 19.256 12.3221C19.256 11.8086 19.256 11.5091 19.3832 11.2952L19.468 11.4236C19.7648 10.739 20.1464 10.2256 20.6552 9.9261C22.0545 9.96888 22.8601 9.88331 23.1145 9.02762C23.0297 9.0704 22.9873 9.0704 22.9449 9.0704C22.9025 8.98483 22.8601 8.94205 22.8177 8.89926C23.1569 8.77091 23.6657 8.98483 23.7929 8.98483C23.7505 8.55698 23.5809 8.42863 23.4961 8.25749L23.9625 7.91521C25.1497 8.30027 26.1673 7.40179 26.8881 7.78685L27.1425 6.88837C26.0825 6.37495 25.4465 7.05951 24.5561 7.05951C24.8105 6.50331 24.8529 5.98989 24.6409 5.47647L23.7081 5.17697C22.5633 5.51925 22.6057 6.58888 23.0297 7.31622C22.7753 7.57293 22.5209 7.70128 22.3513 7.78685L22.0545 7.82964C22.0545 7.82964 22.0121 7.44457 21.5033 7.31622V7.05951C22.1393 6.54609 22.1817 6.03267 22.0545 5.73318C21.9273 5.43368 21.5881 5.26254 21.2912 5.34811L20.8672 5.47647L20.8248 5.3909C20.8672 5.34811 20.8672 5.30533 20.8672 5.26254C20.8672 5.17697 20.8248 5.0914 20.7824 5.04862H20.8248L20.7824 4.87748L20.952 4.92026V4.32128L20.7824 4.36406L20.8248 4.19292H20.2312L20.2736 4.36406L20.104 4.32128V4.92026L20.2736 4.87748L20.104 5.0914H20.1888C20.1464 5.13419 20.104 5.21976 20.104 5.30533C20.104 5.34811 20.104 5.43368 20.1464 5.47647L20.104 5.56204L19.68 5.43368C19.3832 5.34811 19.044 5.47647 18.9168 5.81875C18.7896 6.11824 18.832 6.58888 19.468 7.14508V7.48736C19.2984 7.48736 19.1288 7.48736 19.0016 7.48736C18.4928 7.18786 18.0688 6.67445 17.9416 6.03267C18.2808 5.98989 18.5352 5.86153 18.7472 5.64761V4.74913C20.104 3.72229 20.4856 2.35317 19.2984 1.75418C18.62 1.4119 17.772 1.7114 17.348 2.05368C17.2632 1.92532 17.136 1.79697 17.0088 1.75418C17.0088 1.62583 16.9664 1.49747 16.8392 1.36912H16.924L16.8392 1.06962L17.136 1.15519V0.213925L16.8392 0.299494L16.924 0H15.9912L16.076 0.299494L15.7792 0.213925V1.15519L16.076 1.06962L15.9912 1.36912H16.076C15.9912 1.45469 15.9064 1.58304 15.9064 1.75418V1.79697C15.8216 1.83975 15.6944 1.96811 15.6096 2.05368C15.1856 1.7114 14.3376 1.4119 13.7016 1.75418C12.5144 2.35317 12.896 3.72229 14.2528 4.74913V5.64761C14.4648 5.86153 14.7616 5.98989 15.0584 6.03267C14.9312 6.63166 14.5072 7.14508 13.9984 7.48736C13.8712 7.48736 13.7016 7.48736 13.532 7.48736V7.10229C14.168 6.58888 14.2104 6.07546 14.0832 5.77596C13.956 5.47647 13.6168 5.30533 13.32 5.3909L12.896 5.51925L12.8536 5.43368C12.896 5.3909 12.896 5.34811 12.896 5.30533C12.896 5.21976 12.8536 5.13419 12.8112 5.0914H12.8536L12.8112 4.92026L12.9808 4.96305V4.36406L12.8112 4.40685L12.8536 4.23571H12.26L12.3024 4.40685L12.1328 4.36406V4.96305L12.3024 4.92026V5.0914H12.3872C12.3448 5.13419 12.3024 5.21976 12.3024 5.30533C12.3024 5.34811 12.3024 5.43368 12.3448 5.47647L12.3024 5.56204L11.8784 5.43368C11.5815 5.34811 11.2423 5.47647 11.1151 5.81875C10.9879 6.11824 11.0303 6.58888 11.6664 7.14508V7.40179C11.1575 7.53014 11.1151 7.95799 11.1151 7.95799H10.9031C10.7335 7.87242 10.3519 7.61571 10.0975 7.359C10.5215 6.58888 10.5215 5.64761 9.41913 5.30533L8.44392 5.51925C8.23192 6.03267 8.27432 6.50331 8.52872 7.05951C7.63831 7.05951 7.0023 6.37495 5.94229 6.88837L6.1967 7.78685C6.9175 7.40179 7.93511 8.30027 9.12232 7.91521L9.58873 8.25749C9.41913 8.47141 9.24953 8.68534 9.20712 9.0704C9.50393 8.89926 9.80073 8.85648 10.2671 8.94205C10.0975 8.94205 10.0551 9.02762 10.0551 9.0704C10.0975 9.11318 10.1399 9.11318 10.1399 9.11318C10.0975 9.11318 9.97033 9.0704 9.84313 9.0704C10.0975 9.88331 10.9455 9.96888 12.3448 9.9261C12.8536 10.1828 13.1928 10.6962 13.532 11.4236L13.6168 11.2952C13.7016 11.5519 13.744 11.8086 13.744 12.3221C13.744 12.6215 13.7016 12.8355 13.6168 13.0494C13.4472 13.3489 13.2776 13.6484 13.108 13.8623C11.9208 14.3757 12.26 15.3598 11.2423 15.8304C11.4119 15.9588 11.5391 16.0443 11.7512 16.0443L11.0727 16.3866L11.2423 16.6433C10.9455 16.8145 10.6487 16.9428 10.2671 16.9428C9.46153 16.0871 9.88553 15.2314 10.8183 15.317C11.2423 10.9957 7.34151 11.5519 5.73029 9.36989C5.68789 9.54103 5.64549 9.79774 5.60309 10.0117C4.37348 9.45546 3.27106 8.30027 2.38066 6.88837L2.33826 7.44457C1.61745 6.50331 1.06624 5.47647 0.727039 4.40685C0.515037 5.0914 0.345435 6.28938 0.472636 7.14508L0.260634 6.84559C-0.16337 8.47141 -0.12097 9.54103 0.769439 10.9529C0.896641 11.8514 1.27824 12.7499 1.70225 13.4345C1.44785 13.3917 1.27824 13.3489 1.02384 13.3489C1.49025 14.2474 2.04145 15.1031 2.55026 15.6593L1.82945 15.8732C2.46546 16.8573 3.18626 17.499 4.03427 18.0552C3.65267 18.1408 3.48307 18.2692 3.18626 18.4831C3.73747 19.0821 4.20387 19.3816 4.96708 19.5955C4.37348 19.8094 4.11907 20.0661 3.94947 20.5368C4.71268 20.7935 5.56069 20.9646 6.4087 20.9218C5.89989 21.2213 5.43349 21.5636 5.17908 22.0342L5.00948 21.9487C4.92468 21.9059 4.88228 21.9059 4.79748 21.9059C4.62788 21.9059 4.41588 22.0342 4.37348 22.2054C4.37348 22.2482 4.33108 22.2909 4.33108 22.2909V22.3765C4.28867 22.4193 4.20387 22.4621 4.16147 22.5049L3.94947 22.4193C3.86467 22.3765 3.77987 22.3765 3.69507 22.3765C3.48307 22.3765 3.27106 22.5049 3.18626 22.7188C3.05906 23.0183 3.18626 23.3178 3.44067 23.4889L3.61027 23.5745H3.65267C3.65267 23.6601 3.65267 23.7028 3.65267 23.7884L3.61027 23.874C3.61027 23.9168 3.56787 23.9168 3.56787 23.9595C3.52547 24.0879 3.52547 24.2163 3.56787 24.3446C3.61027 24.473 3.69507 24.5585 3.82227 24.6441L4.16147 24.8152L4.07667 24.7725L4.24627 24.858L4.83988 25.1575L4.88228 25.2003C4.45828 25.7137 3.94947 26.0132 3.35587 26.0132C3.27106 26.0132 3.18626 26.0132 3.05906 26.0132L2.93186 25.9277H2.88946C2.63506 25.8849 2.38066 25.7993 2.12625 25.6709L1.82945 25.4998L1.91425 25.8421C2.08385 26.655 2.80466 27.4679 3.90707 28.1953C4.96708 28.837 6.11189 29.2221 7.0871 29.2221C7.59591 29.2221 8.01991 29.0937 8.31672 28.8798L8.61352 28.6659L8.27432 28.5803C8.01991 28.4948 7.76551 28.3664 7.59591 28.238L7.42631 28.1953L7.29911 28.0669C6.7055 27.5107 6.7055 26.6978 6.8751 26.0988H6.9175L7.51111 26.3983L7.68071 26.4839L7.72311 26.3983L8.95272 26.9973C8.91032 28.9226 8.31672 30.1206 7.2143 31.3613H7.1719C7.0023 31.4041 6.8751 31.5753 6.8327 31.7464C6.7903 31.7892 6.7479 31.832 6.7055 31.8748C6.7055 31.8748 6.7055 31.8748 6.6631 31.8748C6.5783 31.7464 6.4511 31.6608 6.2815 31.6608C6.2391 31.6608 6.19669 31.6608 6.15429 31.7036L5.94229 31.7892C5.81509 31.832 5.73029 31.9175 5.68789 32.0031C5.64549 32.0887 5.64549 32.1743 5.64549 32.3026C5.60309 32.3026 5.51829 32.3454 5.47589 32.3454C5.39109 32.1743 5.22149 32.0459 5.05188 32.0459C5.00948 32.0459 4.96708 32.0459 4.88228 32.0887L4.75508 32.1315C4.50068 32.217 4.37348 32.431 4.45828 32.6877C3.90707 32.8588 3.35587 33.0727 2.84706 33.2011C2.93186 34.5274 3.35587 35.6398 4.20387 36.6667C5.51829 36.0249 6.7903 35.3831 8.01991 34.7841C8.06231 34.8269 8.14711 34.8697 8.23192 34.8697C8.27432 34.8697 8.31672 34.8697 8.35912 34.8269L8.52872 34.7841C8.74072 34.6986 8.99512 34.4846 9.12232 34.2707C10.9031 33.415 12.5568 32.6449 13.9984 32.0031C14.0408 32.5165 14.0832 32.9872 14.2528 33.3294C14.592 33.2011 14.8888 33.1155 15.1856 32.8588C15.1856 33.0299 15.2704 33.2011 15.3128 33.415L14.6768 34.0996L15.1008 34.5274L15.7368 33.9284C15.8216 34.3991 16.3304 35.0836 16.6272 35.2548C16.8392 35.0836 17.3904 34.3563 17.5176 33.9284L18.1536 34.5274L18.5776 34.0996L17.9416 33.415C18.0264 33.2439 18.0688 33.0727 18.0688 32.8588C18.3656 33.0727 18.6624 33.2011 19.0016 33.3294C19.1288 32.9872 19.2136 32.5593 19.256 32.0031L19.4256 32.0887L19.5104 32.0031L22.5633 33.5006L22.8177 33.6289L22.9025 33.7573L22.9449 33.8001H22.9873L23.4113 34.014L23.5385 34.0568C23.6657 34.2707 24.0049 34.8269 24.5985 34.7841C24.7257 34.7841 24.8105 34.7413 24.8953 34.6986L25.3193 34.9125L25.4889 34.9981L25.5313 34.9125L27.1001 35.6398L27.0577 35.7254L27.2273 35.811L27.8209 36.1105L27.9905 36.196L28.0329 36.1105L28.4993 36.3244C28.3721 36.3244 28.4569 36.3244 28.4993 36.3244C28.6689 36.3244 28.8809 36.196 28.9233 36.0249C28.9233 35.9821 28.9657 35.9393 28.9657 35.9393V35.8538C29.0081 35.811 29.0929 35.811 29.1353 35.7254H29.1777L29.4321 35.8538C29.5169 35.8965 29.6017 35.8965 29.6865 35.8965C29.8985 35.8965 30.1105 35.7682 30.1953 35.5543C30.3225 35.2548 30.1953 34.9553 29.9409 34.7841L29.7289 34.6558C29.7289 34.5702 29.7289 34.5274 29.7289 34.4419L29.7713 34.3991C29.8137 34.3563 29.8137 34.3563 29.8137 34.3135C29.8561 34.1851 29.8561 34.0568 29.8137 33.9284C29.7713 33.8001 29.6441 33.8001 29.5593 33.7573L29.0505 33.5006L29.0929 33.415L28.9233 33.3294L28.3297 33.03L28.1601 32.9444L28.2025 32.8588C28.2873 32.6449 28.1177 32.3882 27.9905 32.3454L27.7785 32.2598C27.5665 32.1743 27.3121 32.2598 27.2273 32.4737L27.1849 32.5593L27.0153 32.4737L27.0577 32.3454C27.1425 32.1315 27.0577 31.8748 26.8033 31.7464L26.5913 31.6608C26.4641 31.618 26.2945 31.6608 26.2097 31.7036C24.9377 30.3345 24.2593 29.1793 24.1745 27.6818C26.1673 26.9117 28.4145 26.0988 30.7889 25.3287C30.5345 24.0879 30.0681 22.9327 29.4321 21.8631L28.8385 22.2054L28.3297 21.2213C28.0753 21.3925 27.8209 21.5208 27.5241 21.6919C27.2697 21.4352 26.9305 21.1785 26.5913 21.0074C27.4393 21.0502 28.3297 20.879 29.0505 20.6223C28.8385 20.1945 28.5841 19.895 28.0329 19.6811C28.7961 19.4671 29.3049 19.1676 29.8137 18.5687C29.5169 18.3547 29.3473 18.2264 28.9657 18.1408C29.8137 17.5846 30.4921 16.9428 31.1705 15.9588L30.4497 15.7448C30.9585 15.1886 31.5098 14.3329 31.9762 13.4345C31.7218 13.4345 31.5522 13.4345 31.2978 13.52C31.7642 12.8783 32.1034 11.937 32.2306 11.0385C33.121 9.54103 33.1634 8.5142 32.7394 6.88837ZM20.4008 25.6282C20.3584 25.6709 20.2736 25.6709 20.2312 25.7137L20.2736 25.4142L20.4008 25.6282ZM16.2032 6.20381H16.5H16.7968C17.0512 7.18786 17.6448 7.87242 18.4928 8.42863C18.4928 8.42863 17.9416 9.24154 16.9664 9.58382C17.0512 9.71217 17.0936 9.71217 17.2208 9.79774C16.8816 10.0972 16.5 10.8246 16.5 10.8246V10.8674V10.8246C16.5 10.8246 16.1184 10.0972 15.7792 9.79774C15.864 9.71217 15.9488 9.71217 16.0336 9.58382C15.0584 9.24154 14.5072 8.42863 14.5072 8.42863C15.3552 7.87242 15.9912 7.18786 16.2032 6.20381ZM12.7688 25.6709L12.5992 25.6282L12.7264 25.4142L12.7688 25.6709ZM6.2815 22.5049C6.6207 22.4621 6.9599 22.4193 7.25671 22.3337C7.0871 22.4621 6.9175 22.676 6.8327 22.8471L6.2391 22.5904L6.2815 22.5049ZM9.54633 30.8051C10.1399 30.1206 10.6911 29.3932 11.0303 28.0241L12.5992 28.7515L12.8536 28.8798L12.9384 29.0082L12.9808 29.051H13.0232L13.2352 29.1793L11.7512 29.9067C11.0303 30.1634 10.2247 30.5056 9.54633 30.8051ZM23.4961 30.8479L21.6729 29.9922L21.4184 29.8639L21.3337 29.7355L21.2912 29.6927H21.2488L20.3584 29.2649C20.8672 29.051 21.4608 28.837 22.0545 28.5803C22.3937 29.436 22.8601 30.2061 23.4961 30.8479ZM25.9553 22.5476C25.8705 22.4621 25.7857 22.3765 25.7009 22.2909C25.8281 22.3337 25.9977 22.3765 26.1673 22.4193C26.0825 22.4621 26.0401 22.5049 25.9553 22.5476Z" fill="#231F20"/>
<path d="M11.1575 8.08633C10.7759 8.04355 10.3519 8.04355 10.0975 8.12912C9.75831 8.21469 9.50391 8.38583 9.37671 8.81367C10.4367 8.51418 10.5215 9.11317 11.4967 9.32709C11.1999 9.45545 10.4367 9.45545 10.0127 9.19874C10.3095 9.66937 10.6911 9.79773 12.0903 9.75494C11.6239 9.36988 11.8783 8.51418 11.1575 8.08633Z" fill="#FCD015"/>
<path d="M10.2247 9.07048C10.4791 9.11326 10.4367 9.2844 10.8607 9.2844C10.7759 9.19883 10.3943 8.89934 10.2247 9.07048Z" fill="#FCD015"/>
<path d="M21.7576 8.08633C22.1392 8.04355 22.5632 8.04355 22.8176 8.12912C23.1569 8.21469 23.4113 8.38583 23.5385 8.81367C22.4784 8.51418 22.3936 9.11317 21.4184 9.32709C21.7152 9.45545 22.4784 9.45545 22.9024 9.19874C22.6056 9.66937 22.224 9.79773 20.8248 9.75494C21.2912 9.36988 21.0792 8.51418 21.7576 8.08633Z" fill="#FCD015"/>
<path d="M22.7329 9.07048C22.4785 9.11326 22.5209 9.2844 22.0969 9.2844C22.1817 9.19883 22.5633 8.89934 22.7329 9.07048Z" fill="#FCD015"/>
<path d="M16.4576 27.9814L17.6448 30.4202L16.6272 30.848L15.4824 28.3665L16.4576 27.9814Z" fill="#221F1F"/>
<path d="M15.3552 33.5862L14.8464 34.0996L15.016 34.2707L15.4824 33.8001C15.4824 33.7145 15.3976 33.629 15.3552 33.5862Z" fill="#221F1F"/>
<path d="M17.6872 33.5862C17.6448 33.6718 17.6024 33.7145 17.5176 33.7573L17.984 34.228L18.1536 34.0568L17.6872 33.5862Z" fill="#221F1F"/>
<path d="M11.7086 7.10251V7.35922C12.3446 7.31643 12.8534 7.402 13.447 7.44479V7.10251C12.8958 7.01694 12.3022 7.01694 11.7086 7.10251Z" fill="#FFC112"/>
<path d="M11.7935 5.69049L11.6239 5.56213C11.4967 5.56213 11.3695 5.6477 11.2847 5.77606C10.9031 6.24669 11.4119 6.76011 11.6663 6.97404H11.7511C11.8783 6.97404 12.0479 6.93125 12.1751 6.93125C12.1751 6.41783 12.0903 5.9472 11.7935 5.69049Z" fill="#FFC112"/>
<path d="M13.5319 5.56213L13.3623 5.69049C13.0655 5.9472 13.0231 6.41783 12.9807 6.93125C13.1079 6.93125 13.2775 6.97404 13.4047 6.97404H13.4895C13.7439 6.76011 14.2527 6.24669 13.8711 5.77606C13.7863 5.60492 13.6591 5.56213 13.5319 5.56213Z" fill="#FFC112"/>
<path d="M12.599 5.47656C12.6927 5.47656 12.7686 5.39993 12.7686 5.30542C12.7686 5.2109 12.6927 5.13428 12.599 5.13428C12.5054 5.13428 12.4294 5.2109 12.4294 5.30542C12.4294 5.39993 12.5054 5.47656 12.599 5.47656Z" fill="#FFC112"/>
<path d="M12.3023 6.88847C12.3871 6.88847 12.4719 6.88847 12.5991 6.88847C12.6839 6.88847 12.7687 6.88847 12.8959 6.88847C12.8959 6.33226 12.9807 5.81884 13.3199 5.56213L12.8959 5.69049L12.8111 5.56213C12.7687 5.60492 12.6839 5.60492 12.6415 5.60492C12.5567 5.60492 12.5143 5.56213 12.4719 5.56213L12.3871 5.69049L11.9631 5.56213C12.2175 5.86163 12.3023 6.37505 12.3023 6.88847Z" fill="#FFC112"/>
<path d="M12.4294 4.96331H12.7263L12.6839 4.79217L12.8959 4.83495V4.53546L12.6839 4.57824L12.7263 4.4071H12.4294L12.5142 4.57824L12.3022 4.53546V4.83495L12.5142 4.79217L12.4294 4.96331Z" fill="#FFC112"/>
<path d="M20.9519 7.0598H20.9095C20.5703 7.01701 20.2311 7.01701 19.8495 7.0598H19.8071C19.7223 7.0598 19.6375 7.0598 19.5527 7.10258V7.44486C20.1039 7.44486 20.6127 7.31651 21.2488 7.35929V7.10258C21.1216 7.0598 21.0367 7.0598 20.9519 7.0598Z" fill="#FFC112"/>
<path d="M21.6729 5.73333C21.5881 5.60498 21.4609 5.56219 21.3337 5.51941L21.1641 5.69055C20.8673 5.94726 20.8249 6.41789 20.7825 6.93131C20.9097 6.93131 21.0793 6.9741 21.2065 6.9741H21.2913C21.5457 6.76017 22.0545 6.24675 21.6729 5.73333Z" fill="#FFC112"/>
<path d="M19.5952 5.69049L19.4256 5.56213C19.2984 5.56213 19.1712 5.60492 19.044 5.77606C18.6624 6.24669 19.1712 6.76011 19.4256 6.97404H19.5104C19.6376 6.97404 19.8072 6.93125 19.9344 6.93125C19.9344 6.41783 19.892 5.9472 19.5952 5.69049Z" fill="#FFC112"/>
<path d="M20.3584 5.47656C20.4521 5.47656 20.528 5.39993 20.528 5.30542C20.528 5.2109 20.4521 5.13428 20.3584 5.13428C20.2648 5.13428 20.1888 5.2109 20.1888 5.30542C20.1888 5.39993 20.2648 5.47656 20.3584 5.47656Z" fill="#FFC112"/>
<path d="M20.1039 5.73333L19.6799 5.60498C20.0191 5.86169 20.1039 6.37511 20.1039 6.93131C20.1887 6.93131 20.2735 6.93131 20.4007 6.93131C20.4855 6.93131 20.5703 6.93131 20.6975 6.93131C20.6975 6.37511 20.7823 5.86169 21.1215 5.60498L20.6975 5.73333L20.6127 5.60498C20.5703 5.64777 20.4855 5.64776 20.4431 5.64776C20.3583 5.64776 20.3159 5.60498 20.2735 5.60498L20.1039 5.73333Z" fill="#FFC112"/>
<path d="M20.2312 4.96331H20.528L20.4432 4.79217L20.6553 4.83495V4.53546L20.4432 4.57824L20.528 4.4071H20.2312L20.2736 4.57824L20.0616 4.53546V4.83495L20.2736 4.79217L20.2312 4.96331Z" fill="#FFC112"/>
<path d="M14.0408 2.78113V3.03784L14.2528 3.12341V2.90948L14.0408 2.78113Z" fill="#FFC112"/>
<path d="M16.4575 4.19312C15.3127 4.19312 14.3799 4.49261 14.3799 4.83489V5.39109C14.7191 5.04881 15.6095 4.92046 16.4575 4.92046C17.3055 4.92046 18.1535 5.0916 18.5351 5.39109V4.83489C18.5351 4.49261 17.6023 4.19312 16.4575 4.19312Z" fill="#FFC112"/>
<path d="M17.5175 3.03795C17.6871 2.31061 18.2807 1.92555 18.8743 1.79719C18.2383 1.66884 17.5175 1.96833 17.2631 2.39618C17.1359 2.6101 17.0511 2.86681 16.9663 3.08074C17.1359 2.99517 17.3479 2.99517 17.5175 3.03795Z" fill="#FFC112"/>
<path d="M15.3976 3.03793C15.6096 2.99515 15.7792 2.99515 15.9488 3.08072C15.864 2.82401 15.7792 2.5673 15.652 2.35337C15.3976 1.96831 14.6768 1.62603 14.0408 1.75438C14.6344 1.92552 15.228 2.31059 15.3976 3.03793Z" fill="#FFC112"/>
<path d="M14.4647 5.56237C14.5919 5.69073 14.8039 5.81908 15.1007 5.90465C15.1431 5.69073 15.1431 5.4768 15.1855 5.22009C14.8463 5.30566 14.5919 5.43402 14.4647 5.56237Z" fill="#FFC112"/>
<path d="M16.5847 5.04895C16.5423 5.04895 16.4999 5.04895 16.4575 5.04895C16.4151 5.04895 16.3727 5.04895 16.3303 5.04895C16.3303 5.39123 16.2879 5.73351 16.2031 6.033C16.2879 6.033 16.3727 6.033 16.4575 6.033C16.5423 6.033 16.6271 6.033 16.7119 6.033C16.6695 5.73351 16.6271 5.43401 16.5847 5.04895Z" fill="#FFC112"/>
<path d="M17.772 5.22009C17.772 5.4768 17.8144 5.69073 17.8568 5.90465C18.1536 5.81908 18.3656 5.69073 18.4928 5.56237C18.3656 5.43402 18.1112 5.30566 17.772 5.22009Z" fill="#FFC112"/>
<path d="M16.4575 2.13951C16.6683 2.13951 16.8391 1.96711 16.8391 1.75445C16.8391 1.54178 16.6683 1.36938 16.4575 1.36938C16.2468 1.36938 16.0759 1.54178 16.0759 1.75445C16.0759 1.96711 16.2468 2.13951 16.4575 2.13951Z" fill="#FFC112"/>
<path d="M16.2031 1.19829H16.6695L16.5423 0.813222L16.9239 0.941577V0.470943L16.5423 0.599298L16.6695 0.214233H16.2031L16.3727 0.599298L15.9487 0.470943V0.941577L16.3727 0.813222L16.2031 1.19829Z" fill="#FFC112"/>
<path d="M18.7048 3.12341L18.9168 3.03784V2.78113L18.7472 2.90948L18.7048 3.12341Z" fill="#FFC112"/>
<path d="M19.5951 2.26782C19.5103 2.09668 19.3831 2.01111 19.2135 1.92554C18.5775 1.96832 17.8567 2.3106 17.6871 3.1663V3.25187L17.6023 3.20908C17.3479 3.12351 17.1359 3.1663 16.9239 3.29465C16.8815 3.46579 16.8391 3.59415 16.8391 3.67972C16.7967 3.85086 16.6271 3.93643 16.4999 3.93643C16.3727 3.93643 16.2031 3.80807 16.1607 3.67972C16.1607 3.63693 16.1183 3.50858 16.0759 3.33744C15.9063 3.20908 15.6519 3.20908 15.3975 3.25187L15.3127 3.29465V3.20908C15.1431 2.35339 14.4647 2.01111 13.7863 1.96832C13.6591 2.05389 13.5319 2.18225 13.4047 2.3106C12.8111 3.20908 13.9559 4.27871 14.3799 4.62099C14.6767 4.23592 15.6095 4.06478 16.4999 4.06478C17.4327 4.06478 18.3655 4.27871 18.6199 4.62099C19.0015 4.23592 20.1463 3.1663 19.5951 2.26782ZM13.9559 3.1663L13.8711 3.12351V2.99516V2.78124V2.52453L14.1255 2.65288L14.3375 2.73845L14.4223 2.78124V2.90959V3.12351V3.38022L14.1679 3.25187L13.9559 3.1663ZM14.3375 4.19314C14.2527 4.19314 14.2103 4.15035 14.2103 4.06478C14.2103 3.97921 14.2527 3.93643 14.3375 3.93643C14.4223 3.93643 14.4647 3.97921 14.4647 4.06478C14.4647 4.10757 14.4223 4.19314 14.3375 4.19314ZM14.9735 3.93643C14.8887 3.93643 14.8463 3.89364 14.8463 3.80807C14.8463 3.7225 14.8887 3.67972 14.9735 3.67972C15.0583 3.67972 15.1007 3.7225 15.1007 3.80807C15.1007 3.85086 15.0159 3.93643 14.9735 3.93643ZM15.6095 3.76529C15.5247 3.76529 15.4823 3.7225 15.4823 3.63693C15.4823 3.55136 15.5247 3.50858 15.6095 3.50858C15.6943 3.50858 15.7367 3.55136 15.7367 3.63693C15.7367 3.7225 15.6943 3.76529 15.6095 3.76529ZM17.3479 3.76529C17.2631 3.76529 17.2207 3.7225 17.2207 3.63693C17.2207 3.55136 17.2631 3.50858 17.3479 3.50858C17.4327 3.50858 17.4751 3.55136 17.4751 3.63693C17.4751 3.7225 17.3903 3.76529 17.3479 3.76529ZM17.9839 3.93643C17.8991 3.93643 17.8567 3.89364 17.8567 3.80807C17.8567 3.7225 17.8991 3.67972 17.9839 3.67972C18.0687 3.67972 18.1111 3.7225 18.1111 3.80807C18.1111 3.85086 18.0687 3.93643 17.9839 3.93643ZM18.6199 4.19314C18.5351 4.19314 18.4927 4.15035 18.4927 4.06478C18.4927 3.97921 18.5351 3.93643 18.6199 3.93643C18.7047 3.93643 18.7471 3.97921 18.7471 4.06478C18.7471 4.10757 18.7047 4.19314 18.6199 4.19314ZM18.5351 3.38022V3.12351V2.90959V2.78124L18.6199 2.73845L18.8319 2.65288L19.0863 2.52453V2.78124V2.99516V3.12351L19.0015 3.1663L18.7895 3.25187L18.5351 3.38022Z" fill="#FFC112"/>
<path d="M16.4576 3.76537C16.5747 3.76537 16.6696 3.6696 16.6696 3.55145C16.6696 3.4333 16.5747 3.33752 16.4576 3.33752C16.3405 3.33752 16.2456 3.4333 16.2456 3.55145C16.2456 3.6696 16.3405 3.76537 16.4576 3.76537Z" fill="#FFC112"/>
<path d="M16.2032 3.25187C16.288 3.1663 16.3728 3.1663 16.4576 3.1663C16.5424 3.1663 16.6696 3.20908 16.712 3.25187C16.7544 2.99516 16.8816 2.6101 17.0936 2.26782C17.0936 2.26782 17.0936 2.22503 17.136 2.22503C17.136 2.09668 17.0512 2.01111 16.924 1.92554C16.8392 2.09668 16.6696 2.26782 16.4152 2.26782C16.2032 2.26782 15.9912 2.13946 15.9064 1.92554C15.8216 1.96832 15.7368 2.05389 15.7368 2.18225C15.7368 2.22503 15.7792 2.22503 15.7792 2.26782C16.0336 2.65288 16.1608 2.99516 16.2032 3.25187Z" fill="#FFC112"/>
<path d="M28.2025 21.5209C24.0048 23.7885 20.316 25.8849 16.5424 27.7675L16.6272 27.8958V27.9386C20.4432 26.27 24.4712 24.4302 28.6265 22.3338C28.5417 22.0771 28.3721 21.7348 28.2025 21.5209Z" fill="#E0E0E0"/>
<path d="M15.3551 28.452L15.3127 28.3665C14.4647 28.7943 13.5743 29.1794 12.7263 29.5644C13.5743 29.2222 14.4647 28.8799 15.3551 28.452Z" fill="#E0E0E0"/>
<path d="M29.22 22.2484C25.2344 24.2593 20.9944 26.2274 16.7119 28.1099L17.6871 30.1636C21.9272 28.3667 26.252 26.6553 30.4073 25.2434C30.2377 24.1737 29.8136 23.1897 29.22 22.2484Z" fill="#E0E0E0"/>
<path d="M7.89257 31.618L8.10457 32.2598C8.14697 32.3881 8.01977 32.5165 8.01977 32.6876C8.06217 33.2866 7.68057 33.7145 7.68057 33.7145L7.46857 33.8856L7.38377 33.6289L6.83256 32.0031C6.83256 32.0458 6.79016 32.0458 6.74776 32.0458L7.08696 33.0299C7.21416 33.4577 7.00216 34.0567 6.95976 34.0567L6.87496 34.2279L6.70536 34.1851C6.70536 34.1851 6.28135 33.8856 6.06935 33.3294C6.02695 33.2438 5.94215 33.2438 5.89975 33.1582L5.68775 32.4737C5.64535 32.4737 5.60295 32.5165 5.51815 32.5165L6.02695 34.0567L6.11175 34.3134H5.85735C5.81495 34.3134 5.34854 34.3134 4.96694 33.7572C4.92454 33.6717 4.71254 33.7145 4.67014 33.5861L4.45814 32.9015C3.94933 33.0727 3.48293 33.2438 2.97412 33.415C3.14372 34.5701 3.52533 35.597 4.20373 36.4099C5.39095 35.8109 6.62056 35.2119 7.89257 34.6129C7.89257 34.5701 7.93497 34.4846 7.97737 34.399L8.48618 33.5433C8.48618 33.5433 8.40138 33.2866 8.44378 32.9871C8.82538 33.0727 9.12218 33.2438 9.24938 33.5005C9.29178 33.6289 9.29178 33.8428 9.20698 34.0139C11.539 32.9015 13.9558 31.8319 16.3727 30.8051L15.4398 28.623C12.9382 29.6927 10.3942 30.7195 7.89257 31.618Z" fill="#E0E0E0"/>
<path d="M7.38396 28.3666C7.38396 28.3666 7.34156 28.3666 7.38396 28.3666C6.95995 28.3239 6.57835 28.2811 6.19675 28.1955L6.23915 28.0244C6.53595 28.1099 6.83275 28.1527 7.17196 28.1955C6.57835 27.6393 6.49355 26.8264 6.70555 26.0135L5.05194 25.2006C4.54313 25.9279 3.86472 26.2274 3.05911 26.099C3.77992 26.8692 4.58553 27.4682 5.56074 27.8104L5.51834 27.9816C4.45833 27.5965 3.56792 26.9547 2.80471 26.0563C2.55031 26.0135 2.29591 25.8851 2.0415 25.7568C2.46551 27.7677 6.66315 29.7785 8.14717 28.7089C7.85036 28.6234 7.59596 28.495 7.38396 28.3666Z" fill="#E2E2E2"/>
<path d="M4.03435 22.6334L3.82235 22.5479C3.61034 22.4623 3.39834 22.5479 3.31354 22.719C3.22874 22.9329 3.31354 23.1468 3.48314 23.2324L3.65274 23.318C3.73755 23.1468 3.86475 23.0613 4.03435 23.0613C3.99195 22.9329 3.99195 22.7618 4.03435 22.6334Z" fill="#A5A5A5"/>
<path d="M29.8562 35.041L29.6442 34.9126C29.5594 35.041 29.4322 35.1693 29.2626 35.1693C29.3474 35.2977 29.3474 35.4688 29.2626 35.5972L29.517 35.7255C29.729 35.8111 29.941 35.7255 30.0258 35.5544C30.1106 35.3832 30.0258 35.1265 29.8562 35.041Z" fill="#A5A5A5"/>
<path d="M28.2228 33.2095L27.0742 35.6429L27.6867 35.9373L28.8353 33.5039L28.2228 33.2095Z" fill="#939393"/>
<path d="M8.10578 23.5066L6.95715 25.9401L7.56962 26.2344L8.71825 23.801L8.10578 23.5066Z" fill="#939393"/>
<path d="M5.44331 22.2611L4.29468 24.6946L4.90714 24.9889L6.05577 22.5555L5.44331 22.2611Z" fill="#939393"/>
<path d="M10.2671 24.5586L13.0231 28.8799L13.4471 29.0938C13.5743 29.051 13.6591 29.0082 13.7863 28.9227L11.3271 25.072L10.2671 24.5586Z" fill="#939393"/>
<path d="M15.2279 26.9546L15.8639 27.9386C16.0335 27.8531 16.2455 27.7675 16.4151 27.6819L16.2879 27.468L15.2279 26.9546Z" fill="#939393"/>
<path d="M17.7719 30.2919L17.8567 30.463L17.6871 30.5486L17.5599 30.5914L17.9415 31.2331L18.9592 31.7466L17.9839 30.2063C17.9415 30.2491 17.8567 30.2919 17.7719 30.2919Z" fill="#939393"/>
<path d="M20.1464 29.3077L22.9024 33.629L23.3264 33.8429C23.1992 33.5007 23.3264 33.2439 23.3688 33.2012L21.2064 29.8212L20.1464 29.3077Z" fill="#939393"/>
<path d="M25.9553 32.0888L25.7857 32.046L25.0225 33.8002L24.9377 33.7146L24.5985 34.442L25.1921 34.7415L25.5313 34.0141C25.4889 33.843 25.3617 33.4151 25.5313 33.0729L25.9553 32.0888Z" fill="#939393"/>
<path d="M7.89275 25.9277L7.72314 26.2272L12.6416 28.5804L12.26 28.0242L7.89275 25.9277Z" fill="#DBDBDB"/>
<path d="M11.4543 26.7405L8.23186 25.1575L7.93506 25.7565L12.0903 27.7673L11.4543 26.7405Z" fill="#DBDBDB"/>
<path d="M10.6064 25.4141L8.57117 24.4301L8.31677 25.029L11.2848 26.4409L10.6064 25.4141Z" fill="#DBDBDB"/>
<path d="M10.1399 24.6443L10.0975 24.6015L8.78308 23.9597L8.65588 24.2592L10.4367 25.1149L10.1399 24.6443Z" fill="#DBDBDB"/>
<path d="M3.69505 23.874L3.65265 23.9168C3.56785 24.0879 3.65265 24.2591 3.82225 24.3447L4.16146 24.5158L4.28866 24.2163L3.86465 24.0024C3.82225 23.9596 3.77985 23.9168 3.69505 23.874Z" fill="#DBDBDB"/>
<path d="M5.24925 24.6544L5.10339 24.9634L6.82596 25.7913L6.97181 25.4823L5.24925 24.6544Z" fill="#DBDBDB"/>
<path d="M3.82233 23.4034C3.73753 23.5745 3.82233 23.7456 3.99193 23.8312L4.41594 24.0451L4.67034 23.4462L4.24633 23.2322C4.07673 23.1894 3.86473 23.2322 3.82233 23.4034Z" fill="#DBDBDB"/>
<path d="M5.59172 23.9266L5.31824 24.506L7.0408 25.3339L7.31428 24.7545L5.59172 23.9266Z" fill="#DBDBDB"/>
<path d="M4.20392 22.6759C4.11912 22.847 4.20392 23.0182 4.37352 23.1037L4.75513 23.2749L5.00953 22.6759L4.62793 22.5475C4.45832 22.462 4.28872 22.5048 4.20392 22.6759Z" fill="#DBDBDB"/>
<path d="M5.93755 23.1433L5.66406 23.7227L7.38662 24.5505L7.66011 23.9712L5.93755 23.1433Z" fill="#DBDBDB"/>
<path d="M4.50065 22.3336C4.58545 22.3336 4.62785 22.3336 4.71265 22.3764L5.09426 22.5475L5.22146 22.248L4.88226 22.0769C4.71265 21.9913 4.54305 22.0769 4.45825 22.248C4.50065 22.2908 4.50065 22.2908 4.50065 22.3336Z" fill="#DBDBDB"/>
<path d="M6.15245 22.686L6.00659 22.995L7.72915 23.8229L7.87501 23.5139L6.15245 22.686Z" fill="#DBDBDB"/>
<path d="M18.832 31.1903L19.1288 31.6609L19.1712 31.7037L22.5209 33.3296L22.1817 32.7733L18.832 31.1903Z" fill="#DBDBDB"/>
<path d="M25.5443 34.3989L25.3984 34.7079L26.9679 35.4622L27.1137 35.1532L25.5443 34.3989Z" fill="#DBDBDB"/>
<path d="M15.3976 27.5106L15.0584 27.0399L15.016 26.9544L11.7087 25.3713L12.0479 25.9275L15.3976 27.5106Z" fill="#DBDBDB"/>
<path d="M29.4321 33.8855L28.9233 33.6288L28.7961 33.9283L29.3897 34.2278C29.4746 34.2706 29.517 34.3133 29.5594 34.3561L29.6018 34.3133C29.6866 34.1422 29.6018 33.9711 29.4321 33.8855Z" fill="#DBDBDB"/>
<path d="M28.5842 35.8538L28.033 35.597L27.8634 35.8965L28.3298 36.1105C28.4994 36.196 28.669 36.1105 28.7538 35.9393C28.7538 35.8965 28.7538 35.8965 28.7962 35.8538C28.7114 35.8965 28.6266 35.8965 28.5842 35.8538Z" fill="#DBDBDB"/>
<path d="M28.9234 35.1263L28.3722 34.8696L28.1178 35.4686L28.669 35.7253C28.8386 35.8109 29.0082 35.7253 29.093 35.5542C29.1354 35.383 29.093 35.2119 28.9234 35.1263Z" fill="#DBDBDB"/>
<path d="M29.3049 34.3991L28.7113 34.0996L28.4569 34.6986L29.0505 34.9981C29.2201 35.0837 29.3897 34.9981 29.4745 34.827C29.5593 34.6558 29.4745 34.4847 29.3049 34.3991Z" fill="#DBDBDB"/>
<path d="M13.7439 28.5375L14.1679 28.7514C14.4223 28.623 14.6767 28.5375 14.9311 28.4091L13.1079 27.5106L13.7439 28.5375Z" fill="#DBDBDB"/>
<path d="M12.2175 26.1843L12.8535 27.2112L15.1008 28.2808C15.3128 28.1952 15.4824 28.1096 15.6944 27.9813L15.5672 27.7674L12.2175 26.1843Z" fill="#DBDBDB"/>
<path d="M17.2208 30.7623L17.56 30.9335L17.3904 30.6768L17.2208 30.7623Z" fill="#DBDBDB"/>
<path d="M20.0192 29.3931C19.892 29.4359 19.7648 29.4786 19.5952 29.5214L20.316 29.8637L20.0192 29.3931Z" fill="#DBDBDB"/>
<path d="M20.4857 30.1633L19.3832 29.6499C19.1288 29.7783 18.8744 29.8638 18.5776 29.9922L21.1217 31.2329L20.4857 30.1633Z" fill="#DBDBDB"/>
<path d="M21.3336 31.4897L18.3656 30.0778C18.2808 30.1205 18.2384 30.1205 18.1536 30.1633L18.62 30.9335L21.9272 32.5165L21.3336 31.4897Z" fill="#DBDBDB"/>
<path d="M24.641 31.9604L24.8106 31.6609L21.5881 30.1206L21.9273 30.6768L24.641 31.9604Z" fill="#DBDBDB"/>
<path d="M24.5985 32.1742L22.1393 30.9335L22.7753 31.9603L24.5985 32.816C24.5985 32.6877 24.6409 32.5593 24.6409 32.4737C24.5985 32.3454 24.5137 32.3026 24.5985 32.1742Z" fill="#DBDBDB"/>
<path d="M22.9449 32.2598L23.4538 33.0727C23.7506 32.816 24.1746 32.8588 24.1746 32.8588L24.0474 33.2866L24.1746 33.5433L24.7258 33.8L24.853 33.5861C24.7682 33.4577 24.6834 33.2866 24.641 33.0299L22.9449 32.2598Z" fill="#DBDBDB"/>
<path d="M24.5138 34.228L24.641 33.9713L24.3018 33.8002L24.5138 34.228Z" fill="#DBDBDB"/>
<path d="M27.0577 32.7303L26.8881 32.6448L26.7185 32.9871L26.9305 33.0726L27.0577 32.7303Z" fill="#DBDBDB"/>
<path d="M26.8456 33.2009L26.676 33.1154L26.5912 33.2865C26.5488 33.3721 26.464 33.2865 26.2944 33.6288L26.5488 33.7571L26.8456 33.2009Z" fill="#DBDBDB"/>
<path d="M27.5242 34.2278L27.7786 33.7144C27.7362 33.7571 27.609 33.7144 27.5666 33.7999C27.4818 33.9283 27.3122 34.0994 27.2698 34.0994L27.5242 34.2278Z" fill="#DBDBDB"/>
<path d="M26.6337 34.3136H26.3793L26.4641 34.0569L26.5065 33.9713L26.2521 33.8002C26.0401 34.0569 25.7009 34.2708 25.7009 34.2708L27.2273 34.9981L27.4817 34.3992L27.1001 34.228C26.8457 34.2708 26.6761 34.3136 26.6337 34.3136Z" fill="#DBDBDB"/>
<path d="M16.5424 31.5326C15.8639 31.5326 15.3127 32.0888 15.3127 32.7734C15.3127 33.4579 15.8639 34.0141 16.5424 34.0141C17.2208 34.0141 17.772 33.4579 17.772 32.7734C17.772 32.0888 17.2208 31.5326 16.5424 31.5326ZM16.8392 32.3027C16.924 32.3027 16.924 32.2172 16.8816 32.1744C16.924 32.0888 16.9664 32.1744 16.9664 32.2172C16.9664 32.2172 17.0512 32.2171 17.0512 32.2599C17.0512 32.3027 17.0088 32.3027 17.0088 32.3883C17.0088 32.3883 16.924 32.3455 16.9664 32.3883C16.9664 32.3883 16.924 32.3883 16.924 32.3455C16.924 32.3027 16.9664 32.3027 16.9664 32.2599C16.9664 32.2171 16.8816 32.2172 16.8816 32.2172C16.924 32.2599 16.924 32.3455 16.8392 32.3027C16.8392 32.3455 16.8392 32.3027 16.8392 32.3027ZM16.712 32.7306H16.4152C16.5 32.645 16.4152 32.4311 16.2456 32.4311C16.2032 32.4311 16.2032 32.4739 16.2032 32.4739V32.4311C16.2032 32.3455 16.4152 32.3883 16.5 32.3455C16.5 32.3883 16.4576 32.4311 16.4576 32.4311C16.5 32.4739 16.5424 32.5594 16.5848 32.6878C16.5848 32.5594 16.6272 32.4739 16.712 32.4311C16.6696 32.4311 16.6272 32.3883 16.6696 32.3455C16.7544 32.3883 16.9664 32.3455 16.9664 32.4311V32.4739C16.9664 32.4739 16.9664 32.4311 16.924 32.4311C16.712 32.4311 16.5848 32.645 16.712 32.7306ZM16.8392 32.5166C16.7968 32.5166 16.7968 32.5166 16.7544 32.5166L16.7968 32.4739C16.7968 32.4739 16.8392 32.4739 16.8392 32.5166ZM16.5848 33.0301C16.5848 33.0301 16.6272 32.9873 16.6272 33.0301C16.6272 33.0728 16.5848 33.0728 16.5848 33.0728L16.5 32.8161H16.5424C16.5424 32.8161 16.5848 32.7734 16.6272 32.8161V32.8589V32.8161C16.6272 32.8161 16.6272 32.8161 16.6272 32.8589V32.9017C16.6696 32.9017 16.6696 32.9017 16.6696 32.9445C16.6696 32.9017 16.6272 32.9017 16.6272 32.9017C16.5848 32.9873 16.5848 32.9873 16.5848 33.0301ZM16.4576 32.9445C16.4576 32.9445 16.4576 32.9873 16.4576 32.9445C16.4576 32.9445 16.4152 32.9445 16.4576 32.9445C16.4152 32.9017 16.4152 32.9017 16.4152 32.9017C16.4152 32.9017 16.4576 32.9017 16.4576 32.9445C16.4576 32.9017 16.5 32.9017 16.5 32.9017C16.4576 32.9017 16.4152 32.9017 16.4152 32.8589L16.4576 32.8161V32.7734L16.5848 33.1156C16.5424 33.1156 16.5 33.1156 16.4576 33.1156C16.4576 33.1156 16.4152 33.1156 16.4152 33.0728C16.4152 33.0728 16.4152 33.0728 16.4152 33.0301C16.4152 33.0301 16.4576 32.9873 16.4576 32.9445ZM16.3304 32.5166C16.3304 32.5166 16.288 32.5166 16.2456 32.5166C16.2456 32.4739 16.2456 32.4739 16.288 32.4739C16.288 32.4739 16.3304 32.4739 16.3304 32.5166ZM16.7544 32.1316V32.2172V32.1316ZM16.5424 32.0032L16.5848 32.046L16.5424 32.0888L16.5 32.046L16.5424 32.0032ZM16.288 32.1316V32.2172V32.1316ZM16.288 32.2172H16.3728C16.4152 32.2172 16.4152 32.2171 16.4152 32.2599C16.4576 32.2599 16.5 32.2172 16.5 32.1744L16.4576 32.1316C16.4152 32.0888 16.4576 32.046 16.5 32.046L16.5424 32.1316L16.5848 32.046C16.6272 32.046 16.6696 32.0888 16.6272 32.1316L16.5848 32.1744C16.5848 32.2172 16.6272 32.2599 16.6696 32.2599C16.6696 32.2171 16.6696 32.2172 16.712 32.2172L16.7544 32.2599L16.7968 32.2172C16.8392 32.2172 16.8392 32.2171 16.8392 32.2599L16.7968 32.3027H16.712C16.6272 32.3027 16.5848 32.2599 16.5848 32.2172H16.5C16.5 32.2599 16.4576 32.3027 16.3728 32.3027H16.288C16.288 32.3027 16.288 32.2599 16.2456 32.2599C16.2032 32.2599 16.2456 32.2172 16.288 32.2172ZM16.076 32.2172C16.1184 32.1744 16.1608 32.0888 16.1608 32.1744C16.1184 32.2172 16.1184 32.3027 16.2032 32.3027C16.1184 32.3027 16.1184 32.2599 16.1184 32.2172C16.1184 32.2172 16.0336 32.2171 16.0336 32.2599C16.0336 32.3027 16.076 32.3027 16.076 32.3455C16.076 32.3455 16.076 32.3883 16.0336 32.3883C16.0336 32.3455 15.9912 32.3455 15.9912 32.3883C16.0336 32.3027 15.9488 32.3027 15.9488 32.2599C15.9912 32.2171 16.076 32.2599 16.076 32.2172ZM15.7791 32.645C15.8215 32.645 15.864 32.645 15.8215 32.6022C15.7791 32.5594 15.7367 32.4739 15.7791 32.4311C15.7791 32.4311 15.9063 32.4739 15.8639 32.4311C15.8215 32.3455 15.8215 32.2599 15.8639 32.2172C15.8639 32.2599 16.0336 32.4739 16.2032 32.6022C16.2032 32.6022 16.1608 32.645 16.1608 32.6878C16.1608 32.7306 16.2032 32.7734 16.2456 32.7734C16.288 32.7734 16.288 32.7734 16.3304 32.7734V32.9017C16.3304 32.8589 16.2456 32.8161 16.2032 32.8161C16.2032 32.8589 16.1608 32.9017 16.1608 32.9445C16.1184 32.9873 16.076 32.9873 16.0336 32.9445C16.0336 32.9445 16.076 32.8589 16.0336 32.9017C15.9912 32.9445 15.9487 32.9017 15.9063 32.8589C15.9487 32.8589 15.9487 32.8161 15.9063 32.8161C15.8639 32.8161 15.7791 32.8161 15.7791 32.7306C15.7791 32.7306 15.864 32.6878 15.8215 32.6878C15.8215 32.7734 15.7791 32.7306 15.7791 32.645ZM16.9664 33.3296C16.924 33.3296 16.8816 33.3296 16.8816 33.2868C16.8392 33.244 16.7968 33.244 16.712 33.244C16.7544 33.2012 16.6696 33.1584 16.6272 33.2012C16.5848 33.2012 16.5848 33.244 16.5848 33.2868C16.6696 33.2868 16.7968 33.3723 16.7968 33.4151C16.7968 33.4579 16.7968 33.4579 16.7544 33.4579C16.7544 33.3723 16.712 33.3723 16.712 33.4579C16.712 33.5007 16.6696 33.5007 16.6696 33.5435C16.6696 33.4579 16.6272 33.4579 16.6272 33.5435C16.6272 33.5863 16.5848 33.5863 16.5848 33.5863L16.5424 33.5435C16.5424 33.4579 16.5 33.4579 16.5 33.5435C16.4576 33.5435 16.4576 33.5007 16.4576 33.4579C16.4576 33.3723 16.4152 33.3723 16.4152 33.4579C16.3728 33.4579 16.3728 33.4151 16.3728 33.4151C16.4152 33.3723 16.5 33.2868 16.5848 33.2868C16.5848 33.244 16.5424 33.2012 16.5424 33.2012C16.5 33.1584 16.4576 33.2012 16.4576 33.244C16.4152 33.244 16.3304 33.244 16.3304 33.2868L16.3728 33.3296L16.3304 33.2868H16.288C16.2456 33.2868 16.2456 33.244 16.2456 33.244V33.2012L16.076 33.0728H16.0336C16.0336 33.0728 15.9488 33.0728 15.9488 33.0301H15.9912C15.9912 33.0301 15.9488 32.9873 15.9912 32.9873C16.0336 32.9873 16.076 32.9873 16.076 32.9873V32.9445C16.1184 32.9445 16.1184 33.0301 16.1184 33.0301C16.1184 33.0301 16.1608 33.0301 16.1184 33.0728L16.288 33.244H16.3304C16.3728 33.244 16.4576 33.244 16.4576 33.2012C16.3728 33.0728 16.4576 32.9873 16.5 32.9873V33.0728C16.5 33.1156 16.5424 33.1156 16.5424 33.1156H16.5848C16.6272 33.1156 16.6696 33.1584 16.6696 33.1584C16.6696 33.1584 16.712 33.1156 16.7544 33.1156H16.7968C16.8392 33.1156 16.8392 33.0728 16.8392 33.0728V32.9873C16.924 32.9873 17.0088 33.0728 16.8816 33.2012L16.9664 33.244C16.9664 33.2012 16.9664 33.2012 17.0088 33.2012L17.0512 33.244L17.0936 33.2012C17.136 33.2012 17.136 33.244 17.136 33.2868C17.0512 33.2868 17.0088 33.3296 16.9664 33.3296ZM16.924 33.1156H17.0088H16.924ZM17.3056 32.645C17.3056 32.6878 17.2632 32.7734 17.2208 32.7734C17.136 32.7734 17.2208 32.8161 17.2632 32.8161C17.2632 32.8589 17.2208 32.9017 17.136 32.9017C17.0936 32.9017 17.0936 32.9445 17.136 32.9445C17.0936 32.9873 17.0512 32.9873 17.0088 32.9873C16.9664 32.9873 17.0088 33.0301 17.0088 33.0301C16.9664 33.0728 16.924 33.0728 16.8816 33.0301C16.8392 32.9873 16.8392 32.9445 16.8392 32.9017C16.7968 32.9017 16.7544 32.9017 16.712 32.9873V32.8589C16.7544 32.8589 16.7968 32.8589 16.7968 32.8589C16.8392 32.8589 16.8816 32.8161 16.8816 32.7734C16.8816 32.7306 16.8816 32.7306 16.8392 32.6878C17.0088 32.6022 17.136 32.3455 17.1784 32.3027C17.2208 32.3455 17.2208 32.4311 17.1784 32.5166C17.136 32.5594 17.2632 32.5166 17.2632 32.5166C17.3056 32.5594 17.2632 32.645 17.2208 32.6878C17.1784 32.645 17.2632 32.645 17.3056 32.645Z" fill="#D0D2D3"/>
<path d="M9.20717 5.43408C8.86797 5.51965 8.74077 5.56244 8.52877 5.64801C8.14716 6.58927 8.86797 7.6589 9.71598 8.17232C9.88558 8.08675 10.2248 7.91561 10.6064 7.95839C9.63118 7.3594 8.82557 6.5037 9.20717 5.43408Z" fill="#1FC150"/>
<path d="M23.7505 5.43408C24.0897 5.51965 24.2169 5.56244 24.4289 5.64801C24.7681 6.58927 24.0897 7.6589 23.2417 8.17232C23.0721 8.08675 22.7329 7.91561 22.3513 7.95839C23.3689 7.3594 24.1321 6.5037 23.7505 5.43408Z" fill="#1FC150"/>
<path d="M8.52881 7.27386C7.808 7.27386 6.83279 6.54651 6.06958 7.01715L6.23918 7.61614C7.04479 7.27386 7.7656 8.12955 8.95281 7.83006C8.78321 7.61614 8.65601 7.445 8.52881 7.27386Z" fill="#1FC150"/>
<path d="M9.46151 6.76041C9.54631 6.93155 9.71592 7.10269 9.88552 7.23105C10.3095 6.67484 10.1823 5.56244 9.37671 5.43408V5.47687C9.29191 5.64801 9.29191 5.81915 9.24951 5.9475C9.50391 6.16143 9.54631 6.46092 9.46151 6.76041Z" fill="#1FC150"/>
<path d="M24.4289 7.27378C24.3017 7.44492 24.1745 7.65884 24.0049 7.7872C25.1921 8.08669 25.9129 7.23099 26.7185 7.57327L26.8881 6.97429C26.1249 6.54644 25.1497 7.27378 24.4289 7.27378Z" fill="#1FC150"/>
<path d="M23.4961 6.76041C23.4113 6.5037 23.4537 6.16143 23.7081 5.9475C23.7081 5.81915 23.6657 5.64801 23.5809 5.47687V5.43408C22.7752 5.56244 22.6904 6.67484 23.0721 7.23105C23.2417 7.05991 23.4113 6.93155 23.4961 6.76041Z" fill="#1FC150"/>
<path d="M14.3376 8.3006C15.4401 7.70161 16.1185 6.67478 16.1609 5.04895C15.8641 5.04895 15.5673 5.09174 15.3129 5.13452C15.3129 6.20414 14.9737 6.93149 14.3376 7.40212C14.5072 7.35933 14.6344 7.31655 14.7617 7.27377L15.1857 7.05984L14.9737 7.48769C14.8041 7.91554 14.592 8.17225 14.3376 8.3006Z" fill="#1FC150"/>
<path d="M18.5776 8.30066C18.3656 8.17231 18.1112 7.9156 17.9416 7.53054L17.7296 7.10269L18.1536 7.31661C18.2808 7.3594 18.408 7.40218 18.5776 7.44497C17.9416 6.97433 17.6024 6.24699 17.6024 5.17737C17.348 5.13458 17.0936 5.0918 16.7544 5.0918C16.8392 6.67484 17.5176 7.74446 18.5776 8.30066Z" fill="#1FC150"/>
<path d="M19.6377 16.1301L19.4681 16.0018V15.5312H19.0441L18.9169 15.3172C18.4505 14.4188 17.5601 13.8625 16.5849 13.8625H16.3729C15.3977 13.8625 14.4649 14.4188 14.0409 15.3172L13.9137 15.5312H13.532V16.0018L13.3624 16.1301C12.1752 17.0286 11.4968 18.3977 11.4968 19.8524C11.4968 21.3071 12.1752 22.6762 13.3624 23.5747L13.532 23.7031V24.1737H13.9137L14.0409 24.3876C14.5073 25.2861 15.3977 25.8423 16.3729 25.8423H16.5849C17.5601 25.8423 18.4929 25.2861 18.9169 24.3876L19.0441 24.1737H19.4681V23.7031L19.6377 23.5747C20.8249 22.6762 21.5033 21.3071 21.5033 19.8524C21.5033 18.3977 20.8249 17.0714 19.6377 16.1301ZM18.1537 23.917H14.7617V23.1897H15.0161V22.8046H15.1857V22.4623H15.4825V20.1519H15.0585V18.954H15.4825V18.74H15.3129V18.4405H15.1433V17.7988H15.3129V17.4993H15.5249V17.2853C15.2281 16.9858 14.9313 16.4296 15.2281 16.0446C15.5249 15.6595 16.1185 15.9162 16.1185 15.9162C16.1185 15.8734 16.1185 15.7451 16.1185 15.7023H16.0761L16.1185 15.6167L16.0337 15.6595V14.975L16.1185 15.0177L16.0761 14.9322H16.7545L16.7121 15.0177L16.7969 14.975V15.6595L16.7121 15.6167L16.7545 15.7023H16.7121C16.7121 15.7451 16.7121 15.8734 16.7121 15.9162C16.7121 15.9162 17.3481 15.6595 17.6025 16.0446C17.8993 16.4724 17.6025 16.9858 17.3481 17.2853V17.4993H17.5601V17.7988H17.7721V18.4405H17.6025V18.74H17.4329V18.954H17.8569V20.1519H17.4329V22.4623H17.7297V22.8046H17.8993V23.1897H18.1537V23.917Z" fill="#1FC150"/>
<path d="M15.6521 17.0713H16.0761C16.0761 16.6862 15.9913 16.2156 15.7793 16.0016L15.6521 15.8733C15.5249 15.8733 15.4401 15.9161 15.3553 16.0444C15.1009 16.4295 15.4401 16.9001 15.6521 17.0713Z" fill="#FFD400"/>
<path d="M17.433 17.5848H15.4825V17.756H17.433V17.5848Z" fill="#FFD400"/>
<path d="M17.5602 17.8842H15.313V18.1836H17.5602V17.8842Z" fill="#FFD400"/>
<path d="M17.2634 18.6543H15.6946V18.9538H17.2634V18.6543Z" fill="#FFD400"/>
<path d="M17.221 17.1997H15.6946V17.4564H17.221V17.1997Z" fill="#FFD400"/>
<path d="M17.221 17.0713C17.433 16.8574 17.7722 16.4296 17.5178 16.0873C17.433 15.9589 17.3482 15.9161 17.221 15.9161L17.0938 16.0445C16.8818 16.2156 16.797 16.7291 16.797 17.1141H17.221V17.0713Z" fill="#FFD400"/>
<path d="M16.3306 15.4456H16.585L16.5426 15.2745L16.6698 15.3173V15.1033L16.5426 15.1461L16.585 14.975H16.3306L16.373 15.1461L16.2034 15.1033V15.3173L16.373 15.2745L16.3306 15.4456Z" fill="#FFD400"/>
<path d="M16.4578 15.8733C16.5515 15.8733 16.6274 15.7967 16.6274 15.7021C16.6274 15.6076 16.5515 15.531 16.4578 15.531C16.3641 15.531 16.2882 15.6076 16.2882 15.7021C16.2882 15.7967 16.3641 15.8733 16.4578 15.8733Z" fill="#FFD400"/>
<path d="M16.2034 17.0713H16.6698C16.6698 16.6435 16.7546 16.1301 17.009 15.9161L16.6698 16.0445L16.6274 15.9161C16.585 15.9589 16.5426 15.9589 16.4578 15.9589C16.4154 15.9589 16.3306 15.9589 16.2882 15.9161L16.2458 16.0445L15.9066 15.9161C16.161 16.1301 16.2034 16.6435 16.2034 17.0713Z" fill="#FFD400"/>
<path d="M17.433 18.3549H15.4825V18.526H17.433V18.3549Z" fill="#FFD400"/>
<path d="M17.5178 22.6333H15.3553V22.8472H17.5178V22.6333Z" fill="#FFD400"/>
<path d="M17.7298 22.9327H15.1858V23.1894H17.7298V22.9327Z" fill="#FFD400"/>
<path d="M17.9842 23.318H14.9314V23.7031H17.9842V23.318Z" fill="#FFD400"/>
<path d="M17.2634 22.5051V20.0664H15.6946V22.4624H17.2634V22.5051ZM16.8818 20.3231H17.009V22.1629H16.8818V20.3231ZM16.4154 20.3231H16.5426V22.1629H16.4154V20.3231ZM15.949 20.3231H16.0762V22.1629H15.949V20.3231Z" fill="#FFD400"/>
<path d="M15.9913 19.5526H16.0337V19.467L15.9913 19.5526Z" fill="#FFD400"/>
<path d="M15.2281 19.0822V19.9379H17.645V19.0822H15.2281ZM15.6946 19.7239C15.6522 19.7239 15.6098 19.7239 15.5674 19.6811V19.5956C15.5674 19.5956 15.5674 19.5956 15.6098 19.5956L15.6522 19.6384H15.6946C15.737 19.6384 15.7794 19.6384 15.7794 19.5956C15.7794 19.5528 15.7794 19.5528 15.6946 19.5528H15.6522C15.6946 19.5528 15.6946 19.5528 15.6946 19.51C15.6946 19.4672 15.6522 19.4672 15.6522 19.4672H15.6098V19.51H15.5674V19.4244C15.6098 19.4244 15.6522 19.3816 15.6946 19.3816C15.7794 19.3816 15.8218 19.4244 15.8218 19.4672C15.8218 19.51 15.8218 19.5528 15.7794 19.5528C15.8218 19.5528 15.8218 19.5956 15.8218 19.6384C15.8218 19.6811 15.737 19.7239 15.6946 19.7239ZM16.2458 19.6811H16.0762C16.0762 19.6811 16.0762 19.6811 16.0762 19.6384H16.1186L16.0762 19.5956H15.949V19.6384H15.9914C15.9914 19.6384 15.9914 19.6384 15.9914 19.6811H15.8642C15.8642 19.6811 15.8642 19.6811 15.8642 19.6384H15.9066L16.0338 19.3389H16.0762L16.2458 19.6811ZM16.6274 19.7239H16.5002L16.373 19.5528V19.6384H16.4154C16.4154 19.6384 16.4154 19.6384 16.4154 19.6811H16.2458C16.2458 19.6811 16.2458 19.6811 16.2458 19.6384H16.2882V19.3816H16.2458C16.2458 19.3816 16.2458 19.3816 16.2458 19.3389H16.4154C16.4154 19.3389 16.4154 19.3389 16.4154 19.3816H16.373V19.51L16.4578 19.3816C16.4578 19.3816 16.4578 19.3816 16.4578 19.3389H16.585C16.585 19.3389 16.585 19.3389 16.585 19.3816H16.5426L16.4578 19.4672L16.585 19.6384L16.6274 19.7239C16.6274 19.6811 16.6274 19.6811 16.6274 19.7239ZM16.797 19.7239C16.6698 19.7239 16.6274 19.6384 16.6274 19.5528C16.6274 19.4244 16.6698 19.3816 16.797 19.3816C16.9242 19.3816 16.9666 19.4672 16.9666 19.5528C16.9666 19.6384 16.8818 19.7239 16.797 19.7239ZM17.3482 19.7239H17.1786C17.1786 19.7239 17.1786 19.7239 17.1786 19.6811H17.221V19.5528H17.0938V19.6384H17.1362C17.1362 19.6384 17.1362 19.6384 17.1362 19.6811H16.9666C16.9666 19.6811 16.9666 19.6811 16.9666 19.6384H17.009V19.3816H16.9666C16.9666 19.3816 16.9666 19.3816 16.9666 19.3389H17.1362C17.1362 19.3389 17.1362 19.3389 17.1362 19.3816H17.0938V19.4672H17.221V19.3816H17.1786C17.1786 19.3816 17.1786 19.3816 17.1786 19.3389H17.3482C17.3482 19.3389 17.3482 19.3389 17.3482 19.3816H17.3058V19.6384L17.3482 19.7239C17.3482 19.6811 17.3482 19.6811 17.3482 19.7239Z" fill="#FFD400"/>
<path d="M16.797 19.3816C16.7546 19.3816 16.7122 19.4244 16.7122 19.5099C16.7122 19.5955 16.7546 19.6383 16.797 19.6383C16.8394 19.6383 16.8818 19.5527 16.8818 19.5099C16.8394 19.4672 16.8394 19.3816 16.797 19.3816Z" fill="#FFD400"/>
<path d="M25.9977 31.9177C26.0401 31.9177 26.0401 31.9177 25.9977 31.9177C25.9553 31.7894 25.9129 31.7466 25.8281 31.661C25.8281 31.7038 25.8705 31.7894 25.8281 31.8322L25.9977 31.9177Z" fill="#FFE000"/>
<path d="M14.1256 31.9177C14.1256 32.3028 14.168 32.6878 14.2528 33.0729C14.5496 32.9445 14.8464 32.8162 15.1008 32.6023C15.1432 32.1744 15.3976 31.7894 15.7792 31.5754C15.8216 31.4471 15.864 31.2759 15.9064 31.1476L14.1256 31.9177Z" fill="#FFE000"/>
<path d="M16.4152 30.8909L16.1184 31.0192C16.076 31.1476 16.0336 31.3187 15.9912 31.4471C16.1608 31.4043 16.3304 31.3615 16.5 31.3615C16.6696 31.3615 16.8392 31.4043 17.0088 31.4471C16.9664 31.2759 16.924 31.1048 16.8816 30.9337L16.5 31.1048L16.4152 30.8909Z" fill="#FFE000"/>
<path d="M17.2632 31.5326C17.6448 31.7466 17.8992 32.1316 17.9416 32.5595C18.196 32.7734 18.4928 32.9445 18.7896 33.0301C18.8744 32.6023 18.9592 32.2172 18.9168 31.8749L17.0936 30.9764C17.136 31.1904 17.1784 31.3615 17.2632 31.5326Z" fill="#FFE000"/>
<path d="M15.9064 34.057C16.0336 34.3565 16.2456 34.7844 16.5 34.9983C16.7544 34.7844 17.0088 34.3565 17.136 34.057C16.924 34.2709 16.1608 34.2709 15.9064 34.057Z" fill="#FFE000"/>
<path d="M8.57111 33.1586L8.74071 33.9715L8.52871 33.672L8.1047 34.3993C7.9775 34.5705 8.0623 34.6988 8.2319 34.6133L8.4015 34.5705C8.57111 34.5277 8.82551 34.3138 8.91031 34.0998L8.99511 33.9715C9.37671 33.3297 8.57111 33.1586 8.57111 33.1586Z" fill="#FFE000"/>
<path d="M5.26392 33.4579L5.64552 33.4151L5.30632 32.3883C5.26392 32.2171 5.09432 32.1316 4.92472 32.1744L4.79751 32.2171C4.62791 32.2599 4.54311 32.4311 4.58551 32.6022L4.79751 33.2868C4.83991 33.3723 5.05192 33.3295 5.09432 33.4579C5.39112 34.0141 5.85753 34.0141 5.85753 34.0141L5.73032 33.5863L5.26392 33.4579Z" fill="#FFE000"/>
<path d="M7.93515 32.2173L7.76555 31.6611C7.72315 31.49 7.55355 31.4044 7.38394 31.4472L7.25674 31.49C7.08714 31.5328 7.00234 31.7039 7.04474 31.875L7.34154 32.8163L7.76555 32.4312L7.42634 33.0302L7.46874 33.1158L7.59595 33.5436C7.59595 33.5436 7.97755 33.0302 7.89275 32.6024C7.80795 32.474 7.97755 32.3885 7.93515 32.2173Z" fill="#FFE000"/>
<path d="M6.53591 32.0034C6.49351 31.8751 6.32391 31.7895 6.19671 31.8323L5.98471 31.9179C5.85751 31.9606 5.77271 32.1318 5.81511 32.2601L6.06951 33.0303L6.66312 33.3298H6.28151C6.36631 33.7148 6.57832 33.886 6.83272 34.0571C6.83272 34.0571 7.04472 33.5437 6.91752 33.1586L6.53591 32.0034Z" fill="#FFE000"/>
<path d="M24.3441 31.233L24.8529 31.4897C24.9377 31.3614 25.1497 31.1902 25.4465 31.2758L25.5737 31.3186C25.5737 31.3186 25.5737 31.3186 25.6161 31.3186C24.6833 30.2062 24.0897 29.1366 23.9625 27.7675L22.2665 28.452C22.3513 28.7087 22.4785 28.9654 22.6057 29.2221L23.0721 28.6659L23.1993 28.7943L22.6905 29.3933C22.7753 29.5216 22.8601 29.65 22.9449 29.7783L23.3265 29.3077L23.4537 29.4361L23.0297 29.9495C23.1145 30.0778 23.1993 30.2062 23.3265 30.2918L23.7081 29.8639L23.8353 29.9923L23.4537 30.4629C23.6657 30.7624 23.9625 31.0191 24.3441 31.233Z" fill="#FFE000"/>
<path d="M7.51123 31.2759C7.63843 31.2759 7.76563 31.3615 7.85043 31.4471L9.03765 30.9764C9.24965 30.8481 9.41925 30.6769 9.58885 30.5058L9.16485 29.9924L9.29205 29.864L9.71605 30.3774C9.80085 30.2491 9.88566 30.1635 10.0129 30.0352L9.46165 29.479L9.58885 29.3506L10.0129 29.9068C10.0977 29.7785 10.1825 29.6501 10.2673 29.5217L9.71605 28.8372L9.84325 28.7088L10.3521 29.3078C10.6065 28.7944 10.7761 28.3238 10.8185 27.8959L9.08005 27.083C9.08005 28.7088 8.52884 30.0352 7.51123 31.2759Z" fill="#FFE000"/>
<path d="M1.6175 8.47143V8.0008L1.9143 8.38587C2.16871 8.72814 2.42311 9.02764 2.67751 9.28435C2.50791 8.89928 2.38071 8.42865 2.33831 7.91523C1.5751 6.80282 0.939095 5.7332 0.727093 4.92029C0.260688 7.1451 0.854294 8.64257 1.8295 9.84055C1.7023 9.4127 1.6175 8.98485 1.6175 8.47143Z" fill="#FFE000"/>
<path d="M5.68802 16.3013C5.64562 16.2585 5.64562 16.2157 5.60321 16.173L5.34881 15.7879L5.77282 15.9162C6.06962 16.0018 6.40882 16.0446 6.79043 16.0446C6.11202 15.8735 5.43361 15.5312 4.96721 14.7611C3.78 14.2048 2.59278 13.3064 1.82958 12.2367C1.53277 12.0228 1.23597 11.8089 0.981567 11.5094C1.49037 13.7342 3.65279 15.6595 5.68802 16.3013Z" fill="#FFE000"/>
<path d="M6.32398 14.5044C5.60317 14.2049 5.09436 13.6915 4.79756 13.178C3.90715 12.7074 2.88954 11.9373 2.25353 10.8249C1.87193 10.5254 1.53273 10.1831 1.15112 9.75525C1.23592 11.9373 3.01674 13.6059 4.83996 14.5044C4.79756 14.4616 4.79756 14.4188 4.75516 14.3332L4.58556 13.9482L4.96716 14.1193C5.43357 14.3332 5.89997 14.4188 6.32398 14.5044Z" fill="#FFE000"/>
<path d="M4.92472 11.5091C4.88232 11.3808 4.88232 11.2524 4.83992 11.1241L4.79752 10.739L5.09432 10.9529C5.43353 11.2097 5.77273 11.3808 6.11193 11.5519C5.81513 11.2952 5.56073 10.8674 5.51833 10.2684C4.03431 9.54104 3.35591 8.64256 2.4231 7.53015C2.5503 9.49826 3.65271 10.6107 4.92472 11.5091Z" fill="#FFE000"/>
<path d="M8.06228 19.51C8.23188 19.2533 8.44388 19.0394 8.69829 18.911C8.31668 18.9538 7.93508 18.9538 7.55347 18.9538C6.32386 18.9538 5.22145 18.6971 4.28864 18.2264C3.99184 18.312 3.73743 18.3976 3.48303 18.5687C4.33104 19.51 6.06946 19.8951 8.06228 19.51Z" fill="#FFE000"/>
<path d="M9.37675 19.938C9.29195 19.938 9.16475 19.938 9.03755 19.938C8.74075 19.938 8.44394 19.8952 8.10474 19.8524L7.85034 19.8096L7.93514 19.6813C7.46873 19.7668 7.00233 19.8096 6.53592 19.8096C6.11192 19.8096 5.73032 19.7668 5.34871 19.7241C4.75511 19.8952 4.3311 20.1091 4.1615 20.4942C6.06952 21.0504 7.68074 20.7509 9.37675 19.938Z" fill="#FFE000"/>
<path d="M9.12229 18.6545H9.07989C8.57109 18.6545 7.93508 18.5689 7.17187 18.3978L6.91747 18.355L7.04467 18.1411C7.08707 18.0555 7.17187 17.9699 7.21427 17.8844C5.34865 17.7988 3.82224 17.1142 2.63503 15.8307C2.42302 15.8735 2.25342 15.959 2.12622 15.959C3.73744 18.5261 6.36626 19.0396 9.12229 18.6545Z" fill="#FFE000"/>
<path d="M7.38398 17.7133C7.46878 17.6277 7.55358 17.5422 7.63838 17.4994C6.87518 17.3282 6.28157 16.986 5.89997 16.5153C5.05196 16.3014 4.11915 15.8308 3.31354 15.1462C2.71993 14.6756 2.25353 14.1622 1.82953 13.606C1.61752 13.5632 1.40552 13.5204 1.27832 13.5204C2.55033 16.1303 4.50075 17.6277 7.38398 17.7133Z" fill="#FFE000"/>
<path d="M6.57831 11.6378C8.27432 12.4079 9.88554 12.793 10.0975 14.6327C9.37674 12.2368 7.25671 12.6218 5.00949 11.0816C5.09429 11.9801 5.7303 12.5791 6.70551 12.9641C7.93512 13.392 9.16473 13.777 9.63114 15.0178C8.31672 13.0925 6.2815 13.6487 4.67029 12.4079C4.88229 13.178 5.6031 14.2904 7.08711 14.5044C8.14712 14.7611 8.69833 14.9322 9.24953 15.7451C8.10472 14.5472 6.40871 14.8894 4.88229 14.2477C5.8151 16.4297 8.01992 15.7451 9.29193 16.6436C8.18952 16.1302 6.66311 16.3869 5.7303 16.0874C6.1967 16.8148 6.95991 17.1998 7.80792 17.371C8.27432 17.0715 8.78313 17.0715 9.33434 17.0287C9.54634 17.0287 9.80074 16.9859 10.0127 16.9859C9.37674 16.3013 9.50394 15.1034 10.6063 15.1461C10.7335 11.2099 7.12951 11.4666 5.7303 9.75525C5.6031 10.8249 6.1119 11.3811 6.57831 11.6378Z" fill="#FFE000"/>
<path d="M13.0233 8.25762C13.4473 8.42875 14.3377 8.51432 14.8465 7.4447C14.4649 7.65863 13.9561 7.65863 13.5321 7.61584C12.9385 7.57306 12.3449 7.4447 11.7089 7.48749C11.5393 7.48749 11.2425 7.65863 11.2001 7.87255C12.3025 7.65863 12.5993 8.08648 13.0233 8.25762Z" fill="#FFE000"/>
<path d="M15.5248 10.6964C15.5248 11.0387 15.5248 11.381 15.3552 11.6377L15.1431 11.98L15.0583 11.5949C15.0159 11.4665 14.9735 11.3382 14.9311 11.2098C14.8463 11.4665 14.7615 11.7232 14.5919 11.9372L14.3375 12.3222L14.2951 11.8516C14.2951 11.766 14.2951 11.7232 14.2527 11.6377C14.2103 11.8088 14.1255 11.98 13.9983 12.1511L13.9559 12.2367C13.9135 12.5362 13.8711 12.8357 13.8287 13.0068C14.2103 12.9212 14.6767 12.4078 14.8463 11.98C14.9311 12.2367 15.1007 12.5789 15.2703 12.7073C15.5672 12.365 15.652 11.9372 15.7368 11.4238C15.9064 11.6805 16.1184 11.766 16.5 11.8088C16.8816 11.766 17.0936 11.6377 17.2632 11.4238C17.3056 11.9372 17.4328 12.365 17.7296 12.7073C17.8568 12.5789 18.0688 12.2367 18.1536 11.98C18.3232 12.365 18.7896 12.9212 19.1712 13.0068C19.1288 12.8357 19.0864 12.5362 19.044 12.2367L19.0016 12.1939C18.8744 12.0227 18.7896 11.8516 18.7472 11.6805C18.7472 11.7233 18.7472 11.8088 18.7048 11.8944L18.62 12.3222L18.3656 11.9372C18.196 11.7232 18.1112 11.4665 18.0264 11.2098C17.984 11.3382 17.9416 11.4665 17.8992 11.5949L17.8144 11.98L17.6024 11.6377C17.4328 11.381 17.4328 11.0387 17.4328 10.6964C17.2208 10.9103 16.9664 11.0815 16.7544 11.2098C16.712 11.4238 16.5848 11.6377 16.4576 11.8088C16.3304 11.6377 16.2456 11.381 16.1608 11.2098C15.9912 11.0815 15.7368 10.9103 15.5248 10.6964Z" fill="#FFE000"/>
<path d="M14.2528 8.38608C13.532 8.77114 12.9384 8.47165 12.5992 8.21494C12.1752 7.91544 11.7512 7.91544 11.3271 8.00101C12.1328 8.51443 11.836 9.4557 12.3872 9.71241C12.6416 9.88355 13.2352 10.2686 13.4896 10.9532C13.6168 10.7392 13.744 9.96912 13.0656 9.11342C13.2352 9.19899 13.4472 9.4557 13.4472 9.4557C13.8712 9.71241 14.2104 10.0119 14.4224 10.3542C14.5072 9.84076 14.2528 9.37013 13.8288 8.85671C14.5072 9.66962 15.2704 9.71241 15.7792 9.54127C15.1856 9.49848 14.5496 8.8995 14.2528 8.38608ZM11.7088 8.12937C11.836 8.12937 12.0904 8.08658 12.472 8.30051C12.3448 8.42886 12.048 8.64279 11.7088 8.12937Z" fill="#FFE000"/>
<path d="M14.4649 9.66943C14.5497 9.88336 14.5921 10.1401 14.5497 10.4396L14.4649 10.9102L14.2105 10.5251C14.0409 10.2684 13.8289 10.0545 13.5745 9.88336C13.7441 10.3968 13.7017 10.7818 13.6169 11.0386C13.7441 11.3808 13.8289 11.7659 13.8289 12.1082C14.0833 11.7231 14.1681 11.338 14.1681 10.9102C14.2953 11.2097 14.3801 11.5092 14.4225 11.8515C14.6769 11.4664 14.8041 11.0813 14.8465 10.6535C15.0161 10.953 15.1433 11.2525 15.1857 11.552C15.3977 11.2525 15.3129 10.6963 15.2705 10.2256C15.5673 10.5679 16.0337 10.9958 16.3305 11.1241C16.1609 10.6535 15.8217 10.2256 15.4825 9.88336C15.4401 9.84057 14.8465 9.92614 14.4649 9.66943Z" fill="#FFE000"/>
<path d="M13.108 13.9908C12.048 14.547 12.0904 15.6167 11.5392 15.8306C11.6664 15.8734 11.7512 15.9162 11.8784 15.9162C12.0056 15.7878 12.0904 15.6167 12.1752 15.4455C12.5144 14.9321 12.896 14.2903 13.9136 14.0336C13.9136 13.9908 13.8712 13.9481 13.8712 13.9053C13.7016 13.9481 13.5744 13.9908 13.4472 13.9908C13.4048 13.9908 13.3624 13.9908 13.32 13.9908H13.108Z" fill="#FFE000"/>
<path d="M6.70556 13.178C5.85755 12.8357 5.30635 12.365 5.05194 11.7661C4.20393 11.2526 3.48313 10.6109 2.93192 9.79795C2.50792 9.41289 2.16871 8.98504 1.78711 8.5144C1.78711 10.6964 3.18632 12.1083 4.67034 12.9212C4.62794 12.7929 4.54314 12.6218 4.50074 12.4934L4.37354 11.98L4.75514 12.2795C5.39115 12.7501 6.02715 12.964 6.70556 13.178Z" fill="#FFE000"/>
<path d="M0.981523 9.79787V9.28445L1.32073 9.66951C1.61753 10.0546 1.91433 10.3113 2.21114 10.568L1.70233 9.92622C1.15112 9.24166 0.769521 8.47154 0.557519 7.70141C0.472718 7.53027 0.387917 7.35913 0.303116 7.18799C-0.163289 9.45559 0.64232 10.568 1.57513 11.6804C1.23593 11.1242 1.02392 10.4824 0.981523 9.79787Z" fill="#FFE000"/>
<path d="M8.95282 23.0612C8.74082 23.1895 8.52882 23.2751 8.27441 23.3607L8.82562 23.6174C8.82562 23.489 8.91042 23.2751 8.95282 23.0612Z" fill="#FFE000"/>
<path d="M9.92798 24.3019L10.0976 24.3875L10.2248 24.3019L10.5216 24.4303C10.5216 24.2164 10.5216 23.9169 10.5216 23.6602C10.352 23.8741 10.14 24.1308 9.92798 24.3019Z" fill="#FFE000"/>
<path d="M11.412 24.8583L11.624 24.9438L11.7512 25.1578L12.0904 25.3289C12.0056 24.9866 11.9632 24.5588 11.9632 24.1737C11.7936 24.4304 11.624 24.6443 11.412 24.8583Z" fill="#FFE000"/>
<path d="M5.39111 22.0344L5.98472 22.3339C7.29913 22.2912 8.35914 21.735 9.41915 21.0504V21.0076C9.41915 20.6225 9.67356 20.1519 9.88556 19.8524C8.78315 20.4514 7.80794 20.7937 6.83273 20.922C6.15432 21.2643 5.60312 21.6066 5.39111 22.0344Z" fill="#FFE000"/>
<path d="M31.0434 8.38587L31.3402 8.0008V8.47143C31.3402 8.98485 31.2554 9.4127 31.1282 9.84055C32.1034 8.64257 32.697 7.1451 32.2306 4.92029C32.0186 5.7332 31.3826 6.80282 30.6194 7.91523C30.577 8.42865 30.4498 8.8565 30.2802 9.28435C30.5346 8.98485 30.789 8.68536 31.0434 8.38587Z" fill="#FFE000"/>
<path d="M27.9481 14.8037C27.4817 15.5738 26.8033 15.8733 26.1249 16.0873C26.5065 16.0445 26.8881 16.0445 27.1425 15.9589L27.5665 15.8306L27.3121 16.2156C27.2697 16.2584 27.2697 16.3012 27.2273 16.344C29.2625 15.7022 31.4249 13.7769 31.8913 11.5948C31.5945 11.8516 31.2977 12.1083 31.0433 12.3222C30.3225 13.3918 29.1353 14.2475 27.9481 14.8037Z" fill="#FFE000"/>
<path d="M28.1178 14.5471C29.941 13.6058 31.7218 11.9372 31.8066 9.79797C31.4674 10.2258 31.0858 10.5681 30.7042 10.8676C30.0682 11.98 29.0082 12.7073 28.1602 13.2208C27.8634 13.777 27.3546 14.2476 26.6338 14.5471C27.1002 14.4615 27.5242 14.376 27.9906 14.2048L28.3722 14.0337L28.2026 14.4187C28.1602 14.4187 28.1602 14.5043 28.1178 14.5471Z" fill="#FFE000"/>
<path d="M26.8033 11.5521C27.1425 11.381 27.4817 11.2098 27.821 10.9531L28.1178 10.7392L28.0754 11.1243C28.0754 11.2526 28.033 11.381 27.9906 11.5093C29.305 10.6536 30.365 9.49844 30.4498 7.57312C29.5594 8.68553 28.881 9.58401 27.3545 10.3114C27.3545 10.8676 27.1001 11.2954 26.8033 11.5521Z" fill="#FFE000"/>
<path d="M25.4042 18.9538C25.065 18.9538 24.6834 18.9538 24.2594 18.9111C24.4714 19.0394 24.6834 19.2533 24.8954 19.51C26.8882 19.8951 28.6266 19.5528 29.4747 18.6116C29.2202 18.4404 28.9658 18.3121 28.669 18.2693C27.7362 18.6971 26.6338 18.9538 25.4042 18.9538Z" fill="#FFE000"/>
<path d="M27.609 19.7241C27.2274 19.8096 26.8458 19.8096 26.4218 19.8096C25.9554 19.8096 25.489 19.7668 25.0225 19.6813L25.1073 19.8096L24.8529 19.8524C24.5137 19.938 24.2169 19.938 23.9201 19.938C23.7929 19.938 23.7081 19.938 23.5809 19.938C25.2345 20.7509 26.8882 21.0504 28.7538 20.4942C28.6266 20.1091 28.2026 19.8952 27.609 19.7241Z" fill="#FFE000"/>
<path d="M25.7433 17.8842C25.7857 17.9698 25.8705 18.0553 25.9129 18.1409L26.0402 18.3548L25.7857 18.3976C25.0225 18.5687 24.3865 18.6543 23.8777 18.6543H23.8353C26.549 19.0394 29.2202 18.526 30.8314 16.0016C30.7042 15.9589 30.4922 15.9161 30.3226 15.8733C29.093 17.1141 27.5666 17.7986 25.7433 17.8842Z" fill="#FFE000"/>
<path d="M29.6865 15.1889C28.8809 15.8306 27.9481 16.3013 27.1001 16.558C26.6761 17.0286 26.0825 17.3709 25.3617 17.542C25.4465 17.6276 25.5313 17.6704 25.6161 17.756C28.4993 17.6276 30.4497 16.1301 31.7642 13.6058C31.637 13.6058 31.425 13.6486 31.213 13.6914C30.7465 14.2048 30.2801 14.7182 29.6865 15.1889Z" fill="#FFE000"/>
<path d="M22.9025 16.9858C23.1569 17.0286 23.3689 17.0286 23.5809 17.0286C24.1321 17.0713 24.6409 17.0713 25.1073 17.3708C25.9553 17.1997 26.7185 16.8146 27.1849 16.0873C26.2521 16.3868 24.7681 16.1301 23.6233 16.6435C24.8953 15.745 27.1001 16.4296 27.9905 14.3331C26.4641 14.9749 24.7681 14.6326 23.6233 15.8306C24.1745 15.0177 24.7257 14.8465 25.7857 14.5898C27.3121 14.3331 27.9905 13.2635 28.2025 12.4934C26.5913 13.7341 24.5561 13.1779 23.2417 15.1032C23.7505 13.8197 24.9377 13.4346 26.1673 13.0496C27.1425 12.6645 27.7785 12.0655 27.8633 11.167C25.6161 12.7073 23.4961 12.3222 22.7753 14.7182C22.9873 12.8784 24.6409 12.4506 26.2945 11.7232C26.7609 11.4237 27.2273 10.8675 27.1425 9.8407C25.7433 11.5093 22.1393 11.2954 22.2665 15.2316C23.4537 15.1032 23.5809 16.3012 22.9025 16.9858Z" fill="#FFE000"/>
<path d="M19.9344 8.25762C20.3584 8.04369 20.6552 7.65863 21.7576 7.87255C21.7152 7.65863 21.4608 7.48749 21.2488 7.48749C20.6128 7.4447 20.0192 7.57306 19.4256 7.61584C19.0016 7.65863 18.4928 7.65863 18.1112 7.4447C18.62 8.51432 19.5104 8.42875 19.9344 8.25762Z" fill="#FFE000"/>
<path d="M17.6449 10.2256C17.6025 10.6963 17.5177 11.2525 17.7297 11.552C17.8145 11.2525 17.9417 10.9102 18.0689 10.6535C18.1113 11.0813 18.2385 11.4664 18.4929 11.8515C18.5353 11.5092 18.6201 11.2097 18.7473 10.9102C18.7473 11.338 18.8321 11.7659 19.0865 12.1082C19.0865 11.7231 19.1289 11.3808 19.2985 11.0386C19.2137 10.7818 19.1713 10.3968 19.3409 9.88336C19.0865 10.0545 18.8745 10.3112 18.7049 10.5251L18.4505 10.9102L18.3657 10.4396C18.3233 10.1829 18.3657 9.92614 18.4505 9.66943C18.0689 9.88336 17.4753 9.84057 17.3905 9.84057C17.0513 10.1829 16.7545 10.6107 16.5425 11.0813C16.9241 10.953 17.3481 10.5679 17.6449 10.2256Z" fill="#FFE000"/>
<path d="M19.8496 13.9908L19.68 14.0336C19.6376 14.0336 19.5952 14.0336 19.5528 14.0336C19.4256 14.0336 19.256 13.9908 19.1288 13.948C19.1288 13.9908 19.0864 14.0336 19.0864 14.0764C20.104 14.2903 20.4856 14.9321 20.8248 15.4883C20.9096 15.6594 21.0368 15.8305 21.1216 15.9589C21.2488 15.9589 21.3336 15.9161 21.4609 15.8733C20.8672 15.6166 20.9096 14.547 19.8496 13.9908Z" fill="#FFE000"/>
<path d="M28.2874 12.9212C29.7714 12.0656 31.1706 10.6536 31.1706 8.5144C30.789 9.02782 30.4074 9.41289 30.0258 9.79795C29.517 10.6536 28.7538 11.2954 27.9482 11.8088C27.6938 12.4078 27.1426 12.8357 26.337 13.178H26.2946C26.9306 13.0068 27.609 12.7929 28.2026 12.3223L28.5842 12.0228L28.457 12.5362C28.4146 12.6218 28.3298 12.7501 28.2874 12.9212Z" fill="#FFE000"/>
<path d="M30.7466 10.568C31.0434 10.3113 31.3402 10.0118 31.637 9.66951L31.9762 9.28445V9.79787C31.9338 10.4824 31.7642 11.167 31.425 11.766C32.3578 10.6108 33.1634 9.54116 32.697 7.27356C32.6122 7.4447 32.5274 7.61584 32.4426 7.78698C32.2306 8.59989 31.849 9.32723 31.2978 10.0118L30.7466 10.568Z" fill="#FFE000"/>
<path d="M27.3546 21.7777C27.1002 21.4782 26.6338 21.2215 26.125 20.922C25.1498 20.7937 24.1746 20.4514 23.0721 19.8524C23.3265 20.1519 23.5385 20.6225 23.5385 21.0076V21.0504C24.4714 21.6494 25.4042 22.12 26.5066 22.2484C26.761 22.0772 27.0578 21.9061 27.3546 21.7777Z" fill="#FFE000"/>
<path d="M24.5137 23.3179C24.3441 23.2323 24.1745 23.1467 24.0049 23.0612C24.0473 23.2323 24.0473 23.4034 24.0897 23.5318C24.2593 23.489 24.3865 23.4034 24.5137 23.3179Z" fill="#FFE000"/>
<path d="M22.9448 24.2164C22.7752 24.0453 22.6056 23.8741 22.436 23.703C22.4784 24.0025 22.4784 24.2592 22.436 24.4731C22.6056 24.3876 22.7752 24.302 22.9448 24.2164Z" fill="#FFE000"/>
<path d="M20.8248 25.3289C21.0792 25.2005 21.3336 25.0294 21.6304 24.9011C21.4184 24.6443 21.2064 24.4304 21.0368 24.1737C20.9944 24.6443 20.952 25.0294 20.8248 25.3289Z" fill="#FFE000"/>
<path d="M25.7009 22.6762C25.5737 22.505 25.4465 22.3339 25.2769 22.1628C24.5985 21.9488 24.0049 21.5638 23.3689 21.1787H23.3265C23.2417 21.1787 23.1993 21.1787 23.1145 21.1787C22.7329 21.1787 22.3089 21.0504 21.9696 20.8364C21.9696 20.922 21.9272 20.9648 21.9272 21.0504C22.7329 21.9916 23.5809 22.8045 24.7257 23.2324C25.0649 23.0185 25.4041 22.8473 25.7009 22.6762Z" fill="#FFE000"/>
<path d="M23.9201 23.6604C23.9201 23.4464 23.8777 23.2325 23.7929 22.9758C23.0721 22.548 22.4361 21.949 21.8849 21.2644C21.8001 21.5211 21.7153 21.7778 21.6305 22.0345C21.9697 22.8474 22.4361 23.532 23.1145 24.131C23.3689 23.9599 23.6657 23.8315 23.9201 23.6604Z" fill="#FFE000"/>
<path d="M22.2241 23.4462C21.9273 23.0611 21.7153 22.6333 21.5457 22.2054C21.3337 22.6333 21.0793 23.0184 20.7401 23.3606C20.9945 23.8741 21.3337 24.3447 21.7577 24.8153C21.9273 24.7298 22.0969 24.6442 22.2665 24.5586C22.3089 24.2591 22.2665 23.8741 22.2241 23.4462Z" fill="#FFE000"/>
<path d="M20.8249 23.917C20.7401 23.7887 20.6553 23.6603 20.6129 23.532C20.4432 23.7031 20.2736 23.8743 20.0616 24.0026V24.6444V24.7727C20.2312 24.9867 20.4008 25.2006 20.5704 25.4145C20.7825 25.0722 20.8673 24.5588 20.8249 23.917Z" fill="#FFE000"/>
<path d="M19.4257 24.8155C19.2985 24.9866 19.2137 25.2006 19.0441 25.3289C19.1713 25.5428 19.3409 25.7995 19.5105 26.0135C19.6377 25.9279 19.7649 25.8851 19.8921 25.7995C19.9769 25.5856 20.0617 25.3717 20.1041 25.0722C20.0193 24.9866 19.9345 24.8583 19.8921 24.7727H19.4257V24.8155Z" fill="#FFE000"/>
<path d="M18.9169 25.457C18.6625 25.7137 18.3657 25.9704 18.0265 26.1416C18.1961 26.2699 18.3657 26.3983 18.5353 26.5267C18.7473 26.3983 19.0017 26.3127 19.2137 26.1844C19.2137 26.056 19.1713 25.9705 19.1289 25.8421C19.0441 25.7137 19.0017 25.5854 18.9169 25.457Z" fill="#FFE000"/>
<path d="M18.2808 26.6551C18.2808 26.6124 18.2808 26.5696 18.2808 26.5696C18.1536 26.484 17.984 26.3556 17.8568 26.2273C17.56 26.3556 17.2208 26.4412 16.8392 26.484C16.9664 26.7407 17.0936 26.9546 17.2632 27.1686C17.6024 26.9974 17.9416 26.8263 18.2808 26.6551Z" fill="#FFE000"/>
<path d="M16.6697 26.4841C16.6273 26.4841 16.5849 26.4841 16.5849 26.4841H16.3729C16.3305 26.4841 16.2881 26.4841 16.2881 26.4841C16.2033 26.6981 16.0337 26.912 15.9489 27.1259L16.4153 27.3398C16.4577 27.2543 16.5001 27.1259 16.5001 27.0403C16.5425 27.2115 16.5849 27.3398 16.6273 27.511C16.7969 27.4254 16.9665 27.3398 17.1361 27.2543C16.9665 26.9976 16.7969 26.7408 16.6697 26.4841Z" fill="#FFE000"/>
<path d="M14.6768 26.6124L14.9736 26.7407L15.0584 26.6979L15.7368 27.0402C15.864 26.8691 15.9912 26.6551 16.076 26.484C15.7368 26.4412 15.3976 26.3556 15.0584 26.2273C14.9736 26.3129 14.804 26.5268 14.6768 26.6124Z" fill="#FFE000"/>
<path d="M14.9312 26.1416C14.592 25.9704 14.2952 25.7565 14.0408 25.457C13.956 25.5854 13.9136 25.7137 13.8288 25.7993C13.8288 25.8849 13.744 26.056 13.744 26.0988L14.5496 26.4839C14.6344 26.4411 14.804 26.2272 14.9312 26.1416Z" fill="#FFE000"/>
<path d="M13.532 24.8156H13.108C13.0232 24.9011 12.9808 25.0295 12.896 25.115C12.896 25.329 12.9384 25.6285 12.9808 25.7568L13.532 26.0135C13.6592 25.8424 13.8712 25.5001 13.956 25.329C13.7864 25.1578 13.6592 24.9867 13.532 24.8156Z" fill="#FFE000"/>
<path d="M12.9383 24.6443V24.0026C12.7263 23.8314 12.5567 23.6603 12.3871 23.4891C12.3023 23.6175 12.2175 23.7886 12.1327 23.917C12.0903 24.516 12.1327 25.115 12.3023 25.4572L12.3871 25.5C12.5567 25.2861 12.7687 24.9438 12.8959 24.7299V24.6443H12.9383Z" fill="#FFE000"/>
<path d="M11.4545 22.1628C11.2425 22.5907 11.0305 23.0185 10.7337 23.4464C10.6913 23.8742 10.6489 24.2593 10.6913 24.5588L11.2425 24.8155C11.6665 24.3449 12.0057 23.8742 12.2601 23.3608C11.9209 22.9758 11.6665 22.5907 11.4545 22.1628Z" fill="#FFE000"/>
<path d="M11.0728 21.2216C10.4792 21.9061 9.84317 22.5479 9.12236 22.9757C9.03756 23.2752 8.95276 23.6175 8.95276 23.8742L9.80077 24.2593C10.5216 23.6603 11.0304 22.7618 11.3696 21.9489C11.2424 21.735 11.1576 21.4783 11.0728 21.2216Z" fill="#FFE000"/>
<path d="M11.0304 21.0076C11.0304 20.9648 10.988 20.8792 10.988 20.8364C10.6064 21.0504 10.2248 21.2215 9.80079 21.2215C9.71599 21.2215 9.67359 21.2215 9.58879 21.2215H9.54639C8.95278 21.6066 8.31678 21.9488 7.63837 22.2055C7.42637 22.4623 7.12956 22.7617 6.95996 22.9757L7.80797 23.4035C9.16478 22.9329 10.1824 22.0344 11.0304 21.0076Z" fill="#FFE000"/>
<path d="M25.7433 18.2693C24.6409 16.5579 23.2417 17.7559 21.5457 16.6863C21.4185 16.7718 21.2489 16.7719 21.0369 16.8146C21.5033 17.4564 21.8001 18.1838 21.9273 18.9111C22.4785 19.7668 23.6233 19.8951 24.7257 19.6812C24.3441 19.0394 23.8353 18.8255 23.2417 18.6972C22.5633 18.4832 22.0121 18.2265 21.8425 17.4992C22.4361 18.74 24.2169 18.5688 25.7433 18.2693Z" fill="#FFE000"/>
<path d="M23.3264 21.0077C23.3264 20.5799 22.9872 19.9809 22.7328 19.8097C22.3936 19.6814 22.1816 19.5102 22.012 19.2535C22.0544 19.4675 22.0544 19.6814 22.0544 19.8525C22.0544 20.1092 22.012 20.4087 21.9696 20.6654C22.436 20.9222 22.9024 21.0505 23.3264 21.0077Z" fill="#FFE000"/>
<path d="M10.1824 19.8096C9.92795 20.0235 9.63115 20.5797 9.58875 21.0076C10.0551 21.0504 10.4792 20.922 10.9456 20.6225C10.9032 20.3658 10.9032 20.1091 10.9032 19.8524C10.9032 19.6385 10.9032 19.3818 10.9456 19.1678C10.776 19.4673 10.564 19.6385 10.1824 19.8096Z" fill="#FFE000"/>
<path d="M9.63118 18.6972C9.03757 18.8255 8.52877 19.0822 8.14716 19.6812C9.29198 19.8951 10.4792 19.7668 11.0304 18.8255C11.1576 18.0982 11.4968 17.4136 11.9208 16.8146C11.7088 16.8146 11.5392 16.7718 11.412 16.6863C9.75838 17.7559 8.31677 16.5579 7.21436 18.2693C8.74077 18.6116 10.5216 18.7827 11.0728 17.4992C10.8608 18.2265 10.3096 18.4832 9.63118 18.6972Z" fill="#FFE000"/>
<path d="M20.0617 15.7022C20.4009 15.9589 20.6977 16.3012 20.9521 16.6007C21.2065 16.6007 21.4185 16.5579 21.6305 16.4295C20.4857 16.2156 20.6977 14.547 18.9593 14.2047L18.9169 14.2475C19.0865 14.4186 19.2561 14.6326 19.3833 14.8893H19.8921H20.0617V15.0604V15.7022Z" fill="#FFE000"/>
<path d="M12.048 16.6435C12.3024 16.3012 12.5992 16.0017 12.9384 15.745V15.1033V14.9321H13.108H13.532C13.6592 14.6754 13.8288 14.4615 13.9984 14.2903L13.956 14.2476C12.2176 14.6326 12.4296 16.2584 11.2848 16.4724C11.5392 16.6007 11.7512 16.6435 12.048 16.6435Z" fill="#FFE000"/>
<path d="M14.0409 13.8625C14.0833 13.9481 14.1257 14.0337 14.1681 14.1192C14.3377 13.9481 14.5073 13.8198 14.7193 13.6914C14.6769 13.6058 14.6769 13.4775 14.6769 13.3491C14.4649 13.6058 14.2529 13.777 14.0409 13.8625Z" fill="#FFE000"/>
<path d="M18.3232 13.3917C18.3232 13.5201 18.2808 13.6484 18.2808 13.734C18.4928 13.8624 18.6624 13.9907 18.832 14.1619C18.8744 14.0763 18.9168 13.9907 18.9592 13.9051C18.7048 13.7768 18.4928 13.6056 18.3232 13.3917Z" fill="#FFE000"/>
<path d="M15.9064 13.2635C15.9488 13.2635 16.0336 13.2635 16.076 13.2635C16.076 13.2208 16.0336 13.1352 16.0336 13.0924C15.9912 13.1352 15.9488 13.2208 15.9064 13.2635Z" fill="#FFE000"/>
<path d="M17.0512 13.2636C17.0088 13.2208 16.9664 13.1353 16.924 13.0497C16.924 13.1353 16.8816 13.178 16.8816 13.2208C16.924 13.2636 17.0088 13.2636 17.0512 13.2636Z" fill="#FFE000"/>
<path d="M19.0865 13.178C18.7473 13.0924 18.3657 12.7501 18.1537 12.4078C18.0689 12.579 17.9417 12.7501 17.8145 12.8785L17.6873 13.0068L17.5601 12.8785C17.3057 12.579 17.1785 12.1939 17.0937 11.8088C16.9241 12.1511 15.9489 12.1511 15.8217 11.8088C15.7793 12.1511 15.6521 12.5362 15.3553 12.8785L15.2281 13.0068L15.1009 12.8785C14.9737 12.7929 14.8889 12.6218 14.7617 12.4078C14.5073 12.7501 14.1257 13.1352 13.8289 13.178L13.7017 13.2207C13.6169 13.4347 13.4897 13.6486 13.3201 13.8625C13.7865 13.9481 14.4649 13.5202 14.8041 12.8785C14.8041 13.2207 14.8041 13.4347 14.8465 13.6486C15.1009 13.5202 15.3553 13.3919 15.6521 13.3491C15.8217 13.1352 15.9913 12.8357 16.0337 12.4506C16.1185 12.8785 16.1609 13.0924 16.2457 13.2635C16.2881 13.2635 16.6273 13.2635 16.6697 13.2635C16.7545 13.0924 16.7969 12.8357 16.8817 12.4506C16.9241 12.8357 17.0937 13.1352 17.2633 13.3491C17.5601 13.4347 17.8145 13.5202 18.0689 13.6486C18.1113 13.4774 18.1113 13.2635 18.1113 12.8785C18.4929 13.5202 19.1289 13.9481 19.5953 13.8625C19.4257 13.6486 19.2985 13.4347 19.2137 13.2207L19.0865 13.178Z" fill="#FFE000"/>
<path d="M19.2984 24.6442H19.892V23.9168C21.1217 22.9755 21.9273 21.5209 21.9273 19.8522C21.9273 18.2264 21.1217 16.7289 19.892 15.7877V15.0603H19.2984C18.7896 14.0763 17.772 13.3917 16.5848 13.3917H16.3728C15.1856 13.3917 14.168 14.0763 13.6592 15.0603H13.108V15.7877C11.8784 16.7289 11.0728 18.1836 11.0728 19.8522C11.0728 21.4781 11.8784 22.9755 13.108 23.9168V24.6442H13.6592C14.168 25.6282 15.1856 26.3128 16.3728 26.3128H16.5848C17.772 26.3128 18.7896 25.6282 19.2984 24.6442ZM16.5848 26.0561H16.3728C15.3128 26.0561 14.38 25.4571 13.8712 24.5158L13.7864 24.3874H13.32V23.8312L13.2352 23.7457C12.0056 22.8044 11.3272 21.3925 11.3272 19.895C11.3272 18.3976 12.048 16.9857 13.2352 16.0444L13.32 15.9588V15.3598H13.7864L13.8712 15.2315C14.38 14.2902 15.3128 13.6912 16.3728 13.6912H16.5848C17.6448 13.6912 18.5776 14.2902 19.0864 15.2315L19.1712 15.3598H19.6376V15.916L19.7224 16.0016C20.9521 16.9429 21.6305 18.3548 21.6305 19.8522C21.6305 21.3497 20.9097 22.7616 19.7224 23.7029L19.6376 23.7885V24.3447H19.1712L19.0864 24.473C18.5776 25.4571 17.6448 26.0561 16.5848 26.0561Z" fill="#FFE000"/>
<path d="M19.1712 8.94216C18.7472 9.45558 18.4928 9.92621 18.5776 10.4396C18.7896 10.0974 19.0864 9.79786 19.5528 9.54115C19.5528 9.54115 19.7648 9.24165 19.9344 9.19887C19.256 10.0546 19.3832 10.7819 19.5104 11.0386C19.7648 10.3113 20.3584 9.92621 20.6128 9.79786C21.164 9.54115 20.8672 8.5571 21.6728 8.08646C21.2064 8.00089 20.7824 8.00089 20.4008 8.30039C20.0616 8.5571 19.468 8.85659 18.7472 8.47153C18.4504 8.94216 17.8144 9.58393 17.2632 9.6695C17.7296 9.75507 18.4928 9.71229 19.1712 8.94216ZM21.2488 8.12925C20.9096 8.59988 20.6552 8.38596 20.4856 8.30039C20.8672 8.12925 21.0792 8.17203 21.2488 8.12925Z" fill="#FFE000"/>
<path d="M24.0049 33.5007L23.7505 33.7574L24.0049 32.9445C24.0049 32.9445 23.1569 33.03 23.4961 33.7574L23.5385 33.8857C23.6233 34.0997 23.8353 34.3136 24.0049 34.3991L24.1321 34.4847C24.3017 34.5703 24.3865 34.4847 24.3017 34.2708L24.0049 33.5007Z" fill="#FFE000"/>
<path d="M27.8633 32.4741L27.7361 32.4313C27.5665 32.3457 27.3969 32.4313 27.3121 32.6024L26.8457 33.5865L27.2273 33.672L26.7609 33.7576L26.5913 34.1855C26.5913 34.1855 27.0577 34.271 27.3969 33.7148C27.4817 33.5865 27.6513 33.672 27.6937 33.5865L27.9905 32.9019C28.0753 32.7308 28.0329 32.5596 27.8633 32.4741Z" fill="#FFE000"/>
<path d="M25.7009 31.9177C25.7857 31.7466 25.7009 31.5754 25.5313 31.4899L25.4041 31.4043C25.2345 31.3187 25.0649 31.4043 24.9801 31.5754L24.7257 32.0889C24.6409 32.26 24.8105 32.3456 24.7257 32.5167C24.5985 32.9446 24.9377 33.458 24.9377 33.458L25.1073 33.0301L25.1497 32.9446L24.8953 32.3456L25.2769 32.7306L25.7009 31.9177Z" fill="#FFE000"/>
<path d="M26.8457 32.3457C26.8881 32.2174 26.8457 32.0463 26.7185 32.0035L26.5065 31.9179C26.3793 31.8751 26.2097 31.9179 26.1673 32.0463L25.7009 33.1159C25.5313 33.5009 25.7009 34.0571 25.7009 34.0571C25.9553 33.886 26.1673 33.7149 26.2945 33.3726L25.9553 33.3298L26.5489 33.1159L26.8457 32.3457Z" fill="#FFE000"/>
</svg>
