<svg width="42" height="42" viewBox="0 0 42 42" fill="none" xmlns="http://www.w3.org/2000/svg">
<path d="M21 41.9999C32.5979 41.9999 41.9999 32.5979 41.9999 21C41.9999 9.402 32.5979 0 21 0C9.402 0 0 9.402 0 21C0 32.5979 9.402 41.9999 21 41.9999Z" fill="#0070AD"/>
<path d="M35.9272 18.4313C35.7628 17.0093 31.8651 18.4313 31.8651 18.4313L31.6354 20.4546C31.5504 20.4068 31.464 20.3603 31.3732 20.3208L30.3887 16.1014C30.0279 14.0925 28.4843 12.6127 26.2344 12.6888H20.4534C20.4182 12.9244 20.3619 13.1525 20.2922 13.3756H26.6246C27.9379 13.3756 29.1412 14.2056 29.47 15.5761L30.5275 19.742C30.4609 19.7402 30.3951 19.7339 30.3279 19.7339H18.0673L18.0705 23.7949H25.6657V24.7029H18.0711L18.0718 24.9681H25.589V25.8779H18.0718L18.0743 29.2899H26.1839V31.4508C26.1839 32.3286 27.2899 33.0418 28.6531 33.0418C30.0163 33.0418 31.1205 32.3292 31.1205 31.4508V29.0398C32.2854 28.6075 33.0965 27.6618 33.0965 26.5616V22.6953C33.0965 21.8407 32.6052 21.0798 31.8446 20.5803L35.9272 20.3635C35.9272 20.3635 36.091 19.852 35.9272 18.4313ZM31.2503 25.81H26.7942V23.7289H31.2503V25.81Z" fill="white"/>
<path d="M18.0718 24.9681L17.9586 24.9674V25.8773L18.0718 25.8779V24.9681Z" fill="white"/>
<path d="M18.0711 23.7949H18.036V24.7029H18.0711V23.7949Z" fill="white"/>
<path d="M19.5764 12.0768C19.5725 10.3312 18.6066 8.81058 17.1679 8V11.7657L14.7875 13.1154L12.4053 11.7613V8C10.9692 8.81058 10.0013 10.3312 10 12.0768C10 13.9071 11.0683 15.4931 12.6253 16.2716V31.78C12.6253 32.3933 12.8768 32.9481 13.2862 33.3509C13.6949 33.7531 14.2592 33.9975 14.8848 34C16.1284 34 17.1391 33.0085 17.1436 31.7807L17.134 16.173C18.5919 15.3674 19.5745 13.833 19.5764 12.0768ZM15.3825 32.7628C15.046 33.0945 14.4984 33.0945 14.1594 32.7621C13.8254 32.4329 13.8261 31.8975 14.1626 31.5658C14.501 31.2352 15.0466 31.2352 15.3806 31.5632C15.719 31.8956 15.7196 32.4316 15.3825 32.7628Z" fill="white"/>
</svg>
