<svg width="42" height="42" viewBox="0 0 42 42" fill="none" xmlns="http://www.w3.org/2000/svg">
<path d="M21 41.9999C32.5979 41.9999 41.9999 32.5979 41.9999 21C41.9999 9.402 32.5979 0 21 0C9.402 0 0 9.402 0 21C0 32.5979 9.402 41.9999 21 41.9999Z" fill="#F50000"/>
<path d="M9.73242 33H23.0137C23.4183 33 23.7461 32.6721 23.7461 32.2676V31.4863C23.7461 30.6772 23.0904 30.0215 22.2813 30.0215V29.1458C22.2813 27.9863 21.3379 27.043 20.1784 27.043H12.5677C11.4082 27.043 10.4648 27.9863 10.4648 29.1458V30.0215C9.65575 30.0215 9 30.6772 9 31.4863V32.2676C9 32.6719 9.32806 33 9.73242 33Z" fill="white"/>
<path d="M18.1667 24.1301C18.6535 24.7761 19.5721 24.9052 20.2181 24.4183C20.8643 23.9315 20.9932 23.0129 20.5065 22.3667L16.0986 16.5175C15.6116 15.8712 14.6933 15.7423 14.0472 16.2291C13.401 16.716 13.2719 17.6344 13.7588 18.2806L18.1667 24.1301Z" fill="white"/>
<path d="M28.6955 16.1959C29.1825 16.8419 30.1009 16.971 30.7471 16.4841C31.3931 15.9973 31.5222 15.0789 31.0353 14.4327L26.6274 8.58347C26.1406 7.93727 25.222 7.80814 24.576 8.29508C23.93 8.78203 23.8009 9.70042 24.2878 10.3466L28.6955 16.1959Z" fill="white"/>
<path d="M25.4826 20.4512C26.5652 19.6354 27.3779 18.6224 27.8862 17.5558L22.7574 10.7496C21.592 10.9444 20.3943 11.4462 19.3115 12.2622C18.2289 13.0779 17.4162 14.0909 16.9079 15.1573L22.0368 21.9639C23.2022 21.7692 24.3998 21.2671 25.4826 20.4512Z" fill="white"/>
<path d="M27.4603 20.6419C27.1193 20.9894 26.7601 21.3226 26.3642 21.6211C25.968 21.9195 25.5486 22.1729 25.1208 22.4051L26.0758 23.6725L28.4155 21.9095L27.4603 20.6419Z" fill="white"/>
<path d="M29.2971 23.0793L26.9574 24.8423L31.3652 30.6917C31.8522 31.3379 32.7706 31.4669 33.4166 30.9801C34.0628 30.4932 34.1918 29.5748 33.705 28.9286L29.2971 23.0793Z" fill="white"/>
</svg>
