<svg width="42" height="42" viewBox="0 0 42 42" fill="none" xmlns="http://www.w3.org/2000/svg">
<circle cx="21" cy="21" r="21" fill="#265DCE"/>
<path d="M12.8116 26.4504C12.5557 26.921 12.352 27.6292 12.352 28.0754C12.352 28.1789 12.352 28.3107 12.3771 28.4935L9.17863 22.8606C9.07625 22.6778 9 22.4156 9 22.1794C9 21.9428 9.07625 21.6553 9.17863 21.4722L10.7141 18.721L9 17.7263L14.578 17.6205L17.2896 22.6244L15.5505 21.6027L12.8116 26.4504ZM15.2684 10.5736C15.7541 9.70813 16.548 9.23655 17.5195 9.23655C18.5692 9.23655 19.3882 9.73501 19.9762 10.7555L20.8464 12.2487L17.8265 17.5949L12.9401 14.6863L15.2684 10.5736ZM15.6256 30.9827C14.1674 30.9827 12.9651 29.7513 12.9651 28.2581C12.9651 27.8388 13.1448 27.1307 13.4007 26.6857L14.2186 25.1925H20.2833V30.9827L15.6256 30.9827ZM20.4881 10.4153C20.1047 9.73501 19.5929 9.26221 18.9787 9H25.2722C25.8352 9 26.2697 9.23655 26.5267 9.68243L28.0873 12.407L29.7754 11.3844L27.0626 16.3635L21.5117 16.2834L23.2259 15.2886L20.4881 10.4153ZM30.186 25.245C30.9527 25.245 31.593 25.0354 32.1299 24.617L28.9565 30.2754C28.7006 30.7204 28.241 30.9826 27.704 30.9826H24.7092V33L21.8439 28.101L24.7092 23.2007V25.245L30.186 25.245ZM32.6407 20.5288C32.8715 20.9481 33 21.3931 33 21.8649C33 22.8084 32.4109 23.804 31.593 24.2747C31.2086 24.4856 30.6706 24.617 30.1348 24.617H28.4447L25.4268 19.2709L30.3134 16.4149L32.6407 20.5288Z" fill="white"/>
</svg>
