<svg width="39" height="20" viewBox="0 0 39 20" fill="none" xmlns="http://www.w3.org/2000/svg">
<path d="M38.8536 0.127271L38.8184 0.0924676L38.7127 0.0576641C37.8315 -0.0119427 37.0914 -0.0119426 36.2807 0.0228608L35.0119 0.0576641C26.4121 0.0576641 10.8689 1.20618 3.74941 8.79331C0.965038 11.7864 -0.268545 15.4756 0.0486624 19.7912L0.0839078 19.9652L21.4073 20L21.5482 19.7564L21.513 19.652C20.4204 17.3201 19.5393 13.7702 21.4778 10.1158C23.8392 5.6262 29.7956 2.42429 38.7479 0.788535L38.8536 0.753732L38.8889 0.649321V0.266484L38.8536 0.127271Z" fill="#003DA6"/>
<path d="M35.294 0.545025C36.1046 0.475418 38.6775 0.371008 38.7127 0.371008C38.7127 0.336205 38.7127 0.266598 38.7127 0.231795C37.3734 0.092581 36.3866 0.231795 35.012 0.231795C17.0722 0.231795 -0.938117 4.82584 0.224975 19.7913C2.19871 19.7913 4.73636 19.7913 6.81583 19.7913C5.01832 6.70522 19.0107 1.65873 35.294 0.545025Z" fill="white"/>
<path d="M38.7127 0.44043C32.862 1.03209 10.9395 4.02518 14.2173 19.7911H21.2663C21.2663 19.7911 21.372 19.7215 21.372 19.6867C18.1647 12.7608 20.7376 3.88596 38.7127 0.579643C38.7127 0.54484 38.7127 0.475233 38.7127 0.44043Z" fill="#ED1C2E"/>
<path fill-rule="evenodd" clip-rule="evenodd" d="M30.7122 17.5642C29.8664 18.0167 28.9147 18.2603 27.8221 18.2603C26.9762 18.2603 26.1656 18.1211 25.4607 17.8426C24.7558 17.5642 24.2271 17.1814 23.8747 16.6593C23.6632 16.3461 23.5222 15.9981 23.5222 15.6848C23.5222 14.954 23.9452 14.3623 24.8263 13.8402C25.6722 13.353 26.659 13.1094 27.8221 13.1094C28.9147 13.1094 29.8664 13.353 30.7122 13.8054V15.128C30.3245 14.7103 29.9368 14.3971 29.5491 14.1883C29.0557 13.9099 28.4565 13.7706 27.8221 13.7706C27.0115 13.7706 26.3066 13.9447 25.7779 14.3275C25.2492 14.7103 24.9673 15.1628 24.9673 15.6848C24.9673 16.2069 25.214 16.6593 25.7779 17.0074C26.3418 17.3902 27.0115 17.599 27.8574 17.599C28.9147 17.599 29.8664 17.1466 30.7475 16.2069V17.5642H30.7122Z" fill="#003DA6"/>
<path fill-rule="evenodd" clip-rule="evenodd" d="M37.3734 13.0742V13.3526C36.7743 13.1786 36.1399 13.0742 35.4702 13.0742C34.3071 13.0742 33.3202 13.3178 32.4744 13.8051C31.6285 14.2923 31.1703 14.9188 31.1703 15.6497C31.1703 15.9977 31.276 16.3109 31.5227 16.6242C31.8752 17.1114 32.4039 17.4942 33.1088 17.8075C33.8137 18.0859 34.6243 18.2251 35.4702 18.2251C36.1399 18.2251 36.8095 18.1207 37.3734 17.9467V18.3643H38.7833V13.0742H37.3734ZM35.4702 17.5639C34.6596 17.5639 33.9547 17.355 33.3907 16.9722C32.8621 16.5894 32.5801 16.1717 32.5801 15.6497C32.5801 15.1276 32.8621 14.6752 33.3907 14.2923C33.9547 13.9095 34.6243 13.7355 35.435 13.7355C36.0694 13.7355 36.6333 13.8747 37.162 14.1531C37.2325 14.1879 37.303 14.2227 37.3734 14.2575V16.9374C36.7743 17.3898 36.1399 17.5639 35.4702 17.5639Z" fill="#003DA6"/>
<path fill-rule="evenodd" clip-rule="evenodd" d="M21.795 13.9789C20.9491 13.4917 19.9622 13.248 18.7991 13.248C18.0942 13.248 17.4598 13.3525 16.8959 13.5265V13.248H15.4861V19.8259H16.8959V18.1553C17.4951 18.3293 18.1295 18.4338 18.7991 18.4338C19.645 18.4338 20.4557 18.2945 21.1606 18.0161C21.8655 17.7377 22.3941 17.3548 22.7466 16.8328C22.9581 16.5196 23.0991 16.1715 23.0991 15.8583C23.0991 15.0926 22.6409 14.501 21.795 13.9789ZM20.8786 17.146C20.3147 17.5289 19.645 17.7377 18.7991 17.7377C18.1295 17.7377 17.4598 17.5289 16.8959 17.1808V14.501C16.9664 14.4662 17.0369 14.4314 17.1074 14.3966C17.6008 14.1181 18.2 13.9789 18.8344 13.9789C19.645 13.9789 20.3499 14.1529 20.8786 14.5358C21.4073 14.9186 21.6892 15.3711 21.6892 15.8931C21.654 16.3455 21.4073 16.798 20.8786 17.146Z" fill="#003DA6"/>
</svg>
