<svg xmlns="http://www.w3.org/2000/svg" viewBox="0 0 35 18"><defs><style>.cls-1{fill:#003da6;}.cls-2{fill:#fff;}.cls-3{fill:#ed1c2e;}</style></defs><title>rsa</title><g id="Слой_2" data-name="Слой 2"><g id="Слой_1-2" data-name="Слой 1"><path class="cls-1" d="M35,.11l0,0-.1,0a17.94,17.94,0,0,0-2.19,0l-1.14,0c-7.74,0-21.73,1-28.14,7.86A12.64,12.64,0,0,0,0,17.81l0,.16,19.19,0,.12-.22,0-.09a9.45,9.45,0,0,1,0-8.59c2.13-4,7.49-6.92,15.54-8.39l.1,0,0-.1V.24Z"/><path class="cls-2" d="M31.76.49c.73-.06,3.05-.16,3.08-.16V.21a28.46,28.46,0,0,0-3.33,0C15.36.21-.84,4.34.2,17.81H6.13C4.52,6,17.11,1.49,31.76.49Z"/><path class="cls-3" d="M34.84.4c-5.26.53-25,3.22-22,17.41h6.34s.09-.06.09-.09C16.35,11.48,18.66,3.5,34.84.52Z"/><path class="cls-1" d="M27.64,15.81a5.49,5.49,0,0,1-2.6.62,5.88,5.88,0,0,1-2.13-.37A2.92,2.92,0,0,1,21.49,15a1.64,1.64,0,0,1-.32-.87,1.94,1.94,0,0,1,1.17-1.66A5.27,5.27,0,0,1,25,11.8a5.49,5.49,0,0,1,2.6.62v1.2a4.13,4.13,0,0,0-1.05-.85,3.5,3.5,0,0,0-3.39.12,1.52,1.52,0,0,0-.73,1.23,1.36,1.36,0,0,0,.73,1.19,3.25,3.25,0,0,0,1.87.53,3.5,3.5,0,0,0,2.6-1.25v1.22Z"/><path class="cls-1" d="M33.64,11.77V12a6,6,0,0,0-1.72-.25,5.36,5.36,0,0,0-2.69.65,2,2,0,0,0-1.18,1.66,1.37,1.37,0,0,0,.32.88A3.45,3.45,0,0,0,29.8,16a5.79,5.79,0,0,0,2.12.37,5.86,5.86,0,0,0,1.72-.25v.38H34.9V11.77Zm-1.72,4a3.25,3.25,0,0,1-1.87-.54,1.47,1.47,0,0,1-.73-1.19,1.53,1.53,0,0,1,.73-1.22,3.21,3.21,0,0,1,1.84-.5,3.3,3.3,0,0,1,1.56.38l.19.09v2.41A2.74,2.74,0,0,1,31.92,15.81Z"/><path class="cls-1" d="M19.62,12.58a5.3,5.3,0,0,0-2.7-.66,5.92,5.92,0,0,0-1.71.25v-.25H13.94v5.92h1.27v-1.5a6,6,0,0,0,1.71.25A5.59,5.59,0,0,0,19,16.21a2.94,2.94,0,0,0,1.43-1.06,1.67,1.67,0,0,0,.32-.88A2,2,0,0,0,19.62,12.58Zm-.83,2.85a3.18,3.18,0,0,1-1.87.53,3.22,3.22,0,0,1-1.71-.5V13.05L15.4,13A3.15,3.15,0,0,1,17,12.58a3.12,3.12,0,0,1,1.84.5,1.5,1.5,0,0,1,.73,1.22A1.47,1.47,0,0,1,18.79,15.43Z"/></g></g></svg>