<svg width="137" height="22" viewBox="0 0 137 22" fill="none" xmlns="http://www.w3.org/2000/svg">
<path d="M89.4238 0.568966H78.2147C78.0902 0.568966 78.0279 0.632184 78.0279 0.758621C77.7165 5.87931 76.7824 11.4425 75.4124 15.931V16.1207C75.4747 16.1839 75.537 16.1839 75.5993 16.1839H79.4602C79.5224 16.1839 79.647 16.1207 79.647 16.0575C80.7056 12.5805 81.5774 8.02874 81.8888 4.17241H85.5629V15.9943C85.5629 16.1207 85.6252 16.1839 85.7497 16.1839H89.4238C89.5483 16.1839 89.6106 16.1207 89.6106 15.9943V0.821839C89.6106 0.695402 89.5483 0.568966 89.4238 0.568966ZM136.813 0.568966H133.139C133.015 0.568966 132.952 0.632184 132.952 0.758621V12.5172C132.143 12.7701 131.333 12.8333 130.461 12.8333C128.033 12.8333 127.472 12.0747 127.472 8.78736V0.821839C127.472 0.695402 127.41 0.632184 127.286 0.632184H123.611C123.487 0.632184 123.425 0.695402 123.425 0.821839V9.2931C123.425 14.6034 125.168 16.6897 129.714 16.6897C132.267 16.6897 135.194 15.9943 136.876 15.3621C136.938 15.3621 137 15.2356 137 15.1724V0.821839C137 0.695402 136.938 0.568966 136.813 0.568966ZM59.2838 0.632184H55.5475C55.4229 0.632184 55.3606 0.695402 55.3606 0.758621C54.8002 3.0977 53.617 7.01724 51.9979 11.1264L48.2616 0.695402C48.2616 0.632184 48.137 0.568966 48.0747 0.568966H44.3384C44.2761 0.568966 44.2138 0.632184 44.1516 0.632184C44.0893 0.695402 44.0893 0.758621 44.1516 0.821839L49.7561 16.3736C49.1956 17.5747 48.6352 18.5862 48.137 19.5345C47.7634 20.2299 47.3897 20.9253 47.0161 21.6839C46.9538 21.7471 47.0161 21.8103 47.0161 21.8736C47.0784 21.9368 47.1407 22 47.2029 22H51.2506C51.3129 22 51.3752 21.9368 51.4375 21.8736C52.1225 20.546 52.9943 18.6494 53.8038 16.7529C56.1702 11.0632 58.1006 5.75287 59.5329 0.885057C59.5329 0.821839 59.5329 0.758621 59.4706 0.695402C59.4084 0.632184 59.3461 0.632184 59.2838 0.632184ZM72.6102 12.5805C72.6102 12.5172 72.5479 12.454 72.4856 12.454H72.2988C71.427 12.7701 69.7456 13.0862 68.5624 13.0862C66.0093 13.0862 64.8261 12.3908 64.8261 8.40805C64.8261 5.24713 65.1997 3.72989 68.5624 3.72989C69.4965 3.72989 70.4306 3.85632 71.5515 4.23563C71.6761 4.23563 71.7384 4.23563 71.8006 4.1092C72.2365 3.28736 72.7347 2.33908 73.2952 1.07471V0.885057C73.2952 0.821839 73.2329 0.758621 73.1706 0.758621C71.6761 0.252874 69.8702 0 68.3134 0C62.9579 0 60.5915 2.52874 60.5915 8.28161C60.5915 14.0977 62.9579 16.6897 68.3134 16.6897C69.6211 16.6897 72.2988 16.3736 73.5443 15.8678C73.6688 15.8046 73.6688 15.7414 73.6688 15.6149L72.6102 12.5805ZM107.421 0.632184H103.684C103.622 0.632184 103.497 0.695402 103.497 0.758621C102.937 3.0977 101.754 7.01724 100.135 11.1264L96.3983 0.695402C96.3983 0.632184 96.2738 0.568966 96.2115 0.568966H92.4752C92.4129 0.568966 92.3506 0.632184 92.2883 0.632184C92.2261 0.695402 92.2261 0.758621 92.2883 0.821839L97.8929 16.3736C97.3324 17.5747 96.772 18.523 96.2738 19.5345C95.9002 20.2299 95.5265 20.9253 95.1529 21.6839C95.0906 21.7471 95.1529 21.8103 95.1529 21.8736C95.2151 21.9368 95.2774 22 95.3397 22H99.3874C99.4497 22 99.512 21.9368 99.5742 21.8736C100.259 20.546 101.131 18.6494 101.941 16.7529C104.307 11.0632 106.237 5.75287 107.607 0.885057C107.607 0.821839 107.607 0.758621 107.545 0.695402C107.545 0.632184 107.483 0.632184 107.421 0.632184ZM121.121 0.568966H110.285C110.161 0.568966 110.098 0.632184 110.098 0.758621V15.9943C110.098 16.1207 110.161 16.1839 110.285 16.1839H113.959C114.084 16.1839 114.146 16.1207 114.146 15.9943V4.23563H119.813C119.875 4.23563 120 4.17241 120 4.1092C120.436 3.0977 120.871 1.95977 121.307 0.885057V0.695402C121.245 0.632184 121.183 0.568966 121.121 0.568966Z" fill="#EE3F58"/>
<path d="M19.4913 13.2127C17.0627 13.2127 16.3154 12.5173 16.3154 8.40806C16.3154 3.98277 17.125 3.60346 19.4913 3.60346C21.8577 3.60346 22.7295 3.98277 22.7295 8.40806C22.7295 12.5805 21.92 13.2127 19.4913 13.2127ZM19.4913 0.126451C14.1982 0.126451 12.1432 2.40231 12.1432 8.34484C12.1432 14.3506 14.1982 16.6897 19.4913 16.6897C24.7845 16.6897 26.9018 14.3506 26.9018 8.34484C26.9018 2.46553 24.7845 0.126451 19.4913 0.126451ZM41.4736 12.5805C41.4736 12.5173 41.4113 12.454 41.3491 12.454H41.1622C40.2904 12.7701 38.6091 13.0862 37.4259 13.0862C34.8727 13.0862 33.6895 12.3908 33.6895 8.40806C33.6895 5.24714 34.0631 3.7299 37.4259 3.7299C38.36 3.7299 39.2941 3.85634 40.415 4.23565C40.4772 4.23565 40.6018 4.23565 40.6641 4.10921C41.1 3.28737 41.5981 2.33909 42.1586 1.07473V0.885071C42.1586 0.821853 42.0963 0.758635 42.034 0.758635C40.6018 0.316106 38.7959 0.0632324 37.2391 0.0632324C31.8836 0.0632324 29.5172 2.59197 29.5172 8.34484C29.5172 14.1609 31.8836 16.7529 37.2391 16.7529C38.5468 16.7529 41.2245 16.4368 42.47 15.931C42.5945 15.8678 42.5945 15.8046 42.5945 15.6782L41.4736 12.5805ZM11.0223 0.56898H0.186818C0.0622727 0.56898 0 0.695416 0 0.821853V16.0575C0 16.1839 0.0622727 16.2471 0.186818 16.2471H3.86091C3.98545 16.2471 4.04772 16.1839 4.04772 16.0575V4.23565H9.71454C9.77681 4.23565 9.83908 4.17243 9.90135 4.10921C10.3373 3.09772 10.7732 1.95978 11.2091 0.885071V0.695416C11.1468 0.632198 11.0845 0.56898 11.0223 0.56898Z" fill="#0065B1"/>
</svg>
