<svg width="25" height="15" viewBox="0 0 25 15" fill="none" xmlns="http://www.w3.org/2000/svg">
<path d="M7.5 15C11.6421 15 15 11.6421 15 7.5C15 3.35786 11.6421 0 7.5 0C3.35786 0 0 3.35786 0 7.5C0 11.6421 3.35786 15 7.5 15Z" fill="#EE0005"/>
<path d="M16.8164 15C20.9585 15 24.3164 11.6421 24.3164 7.5C24.3164 3.35786 20.9585 0 16.8164 0C12.6743 0 9.31641 3.35786 9.31641 7.5C9.31641 11.6421 12.6743 15 16.8164 15Z" fill="#0098E2"/>
<path d="M9.31836 7.49925C9.31836 9.88065 10.4285 12.0026 12.1592 13.3764C13.8899 12.0025 15.0001 9.88065 15.0001 7.49925C15.0001 5.11785 13.8899 2.99595 12.1592 1.62207C10.4285 2.99601 9.31836 5.1179 9.31836 7.49925Z" fill="#6C69BF"/>
</svg>
