<svg width="24" height="15" viewBox="0 0 24 15" fill="none" xmlns="http://www.w3.org/2000/svg">
<path d="M14.9128 1.99902H8.56372V13.4429H14.9128V1.99902Z" fill="#FF5F00"/>
<path d="M8.96959 7.72147C8.96959 5.39645 10.0586 3.33421 11.7314 1.99991C10.4585 0.990296 8.88145 0.441018 7.25677 0.441406C3.24585 0.441406 0 3.69745 0 7.72074C0 11.744 3.24513 15.0001 7.25677 15.0001C8.88135 15.0006 10.4584 14.4516 11.7314 13.4423C10.8685 12.7595 10.1717 11.8898 9.69345 10.8988C9.21521 9.90772 8.96796 8.82113 8.97032 7.72074L8.96959 7.72147Z" fill="#EB001B"/>
<path d="M23.4797 7.72074C23.4797 11.744 20.2345 14.9993 16.2229 14.9993C14.5984 15.0001 13.0214 14.4513 11.7483 13.4423C12.613 12.7611 13.3112 11.8917 13.7897 10.9004C14.2682 9.90896 14.5146 8.82157 14.5101 7.72074C14.5101 5.39499 13.4211 3.33276 11.7483 1.99846C13.0216 0.989259 14.5989 0.440498 16.2236 0.441407C20.2345 0.441407 23.4797 3.71711 23.4797 7.72074Z" fill="#F79E1B"/>
</svg>
