<svg width="53" height="15" viewBox="0 0 53 15" fill="none" xmlns="http://www.w3.org/2000/svg">
<path d="M29.5295 1.53807L26.2691 8.60239H25.9375V0.000361985H21.3054V14.5579H25.2374C25.7429 14.5579 26.2379 14.4131 26.6637 14.1406C27.0894 13.8681 27.4283 13.4794 27.6401 13.0204L30.9014 5.95592H31.2321V14.5579H35.8642V0.000361985H31.9333C31.4275 0.000196663 30.9324 0.144943 30.5063 0.417465C30.0803 0.689986 29.7413 1.07887 29.5295 1.53807ZM12.1515 1.91363L10.2219 8.60311H9.89146L7.9619 1.91363C7.80268 1.36212 7.46858 0.877279 7.0099 0.532134C6.55122 0.18699 5.9928 0.000234787 5.41877 0L0.792969 0V14.5585H5.42402V5.95537H5.75578L8.40243 14.5585H11.7113L14.358 5.95537H14.6885V14.5585H19.3206V0H14.6946C14.1206 0.000234787 13.5622 0.18699 13.1035 0.532134C12.6448 0.877279 12.3107 1.36212 12.1515 1.91363ZM37.849 6.61762V14.5587H42.4717V9.92653H47.4439C49.6037 9.92653 51.4361 8.54393 52.1182 6.61762H37.849Z" fill="#20AA4D"/>
<path d="M47.4426 0.000976562H37.1855C37.8085 3.38897 40.7732 5.95653 44.3407 5.95653H52.3058C52.3717 5.62972 52.405 5.29717 52.4052 4.96379C52.4052 2.22302 50.1832 0.000976562 47.4426 0.000976562Z" fill="#0096D6"/>
</svg>
