<svg xmlns="http://www.w3.org/2000/svg" viewBox="0 0 1443.52 1351.45"><defs><style>.cls-1{fill:#7e889f;}.cls-2{fill:#959baa;}.cls-3{fill:#363e52;}.cls-4{fill:#eff0f2;}.cls-5{fill:#fff;}.cls-6{fill:#265dce;}.cls-7{fill:#f50000;}</style></defs><title>new-logo</title><g id="Слой_2" data-name="Слой 2"><g id="Слой_1-2" data-name="Слой 1"><path class="cls-1" d="M1326.53,817.2c67.79-263-35.37-528.74-266.12-681.3L1073.58,116c239.1,158.09,346.46,434.16,276.08,707.2-75.12,291.43-325.57,467.75-627.15,486.62L721,1286C1014,1267.61,1254.4,1097,1326.53,817.2Z"/><path class="cls-2" d="M1039.84,18.28c33,11.17,65.07,36.13,79.14,67.51,16.8,37.43,18.84,63.66,18.84,63.66-.49.52-59.06-43.6-70.9-75.82C1050.83,29.84,1039.84,18.28,1039.84,18.28Z"/><path class="cls-2" d="M883.76,46.81c34.26-9.93,75.33,4.07,104.35,20.63,46.83,26.73,71.6,52.36,71.6,52.36-.18.91-74-14.59-103.06-34C905.05,51.22,883.76,46.81,883.76,46.81Z"/><path class="cls-2" d="M1178.85,103.13c28.16,16.72,51.51,46.92,56.77,78.69,6.44,38.88,2.25,64.66,2.25,64.66-.62.41-43.93-52.66-47.94-85.52C1184.55,117,1178.85,103.13,1178.85,103.13Z"/><path class="cls-2" d="M1236.73,153.47c25.65,19.23,44.73,51.39,46.11,82.9,1.71,39-5.3,64.15-5.3,64.15-.68.36-37.11-56.26-37.07-88.94C1240.53,167.61,1236.73,153.47,1236.73,153.47Z"/><path class="cls-2" d="M1287.28,208.45c23.07,21.53,38,55.23,35.76,86.24-2.74,38.72-12.39,63-12.39,63-.71.28-30.35-59.28-26.52-91.49C1289.31,222.73,1287.28,208.45,1287.28,208.45Z"/><path class="cls-2" d="M1330.6,267.46c20.4,23.6,31.22,58.41,25.7,88.74-6.93,38.09-19,61.33-19,61.33-.73.21-23.68-61.67-16.31-93.15C1330.93,281.75,1330.6,267.46,1330.6,267.46Z"/><path class="cls-2" d="M1366.75,329.92c17.66,25.4,24.56,60.95,16,90.38-10.86,37.15-25.22,59.08-25.22,59.08-.76.14-17.11-63.46-6.44-93.95C1365.49,344.09,1366.75,329.92,1366.75,329.92Z"/><path class="cls-2" d="M1395.83,395.22c14.85,26.92,18,62.84,6.48,91.21-14.55,35.86-31,56.31-31,56.31-.76.07-10.64-64.66,3.09-93.93C1393.05,409.15,1395.83,395.22,1395.83,395.22Z"/><path class="cls-2" d="M1417.9,462.77c12,28.15,11.54,64.11-2.69,91.23-18,34.28-36.28,53.06-36.28,53.06-.76,0-4.28-65.28,12.31-93.09C1413.7,476.32,1417.9,462.77,1417.9,462.77Z"/><path class="cls-2" d="M1433,532c9.15,29.1,5.21,64.79-11.56,90.47-21.18,32.42-41.15,49.36-41.15,49.36-.76-.07,2-65.33,21.18-91.45C1427.5,545,1433,532,1433,532Z"/><path class="cls-2" d="M1441.32,602.19c6.28,29.76-1,64.91-20.15,88.94-24.13,30.28-45.6,45.24-45.6,45.24-.75-.14,8.08-64.82,29.75-89C1434.53,614.67,1441.32,602.19,1441.32,602.19Z"/><path class="cls-2" d="M1442.83,672.87c3.42,30.15-7.09,64.48-28.45,86.66-26.85,27.88-49.61,40.75-49.61,40.75-.74-.21,14.09-63.77,38-85.88C1434.88,684.65,1442.83,672.87,1442.83,672.87Z"/><path class="cls-2" d="M1437.66,743.4c.55,30.28-13.08,63.51-36.47,83.64-29.34,25.24-53.22,35.9-53.22,35.9-.71-.27,20-62.18,45.9-82C1428.62,754.38,1437.66,743.4,1437.66,743.4Z"/><path class="cls-2" d="M1425.86,813.17c-2.3,30.17-19,62-44.21,79.91-31.59,22.38-56.39,30.74-56.39,30.74-.69-.34,25.82-60.07,53.49-77.38C1415.82,823.26,1425.86,813.17,1425.86,813.17Z"/><path class="cls-2" d="M1407.51,881.6c-5.14,29.81-24.78,60-51.66,75.46-33.62,19.32-59.16,25.3-59.16,25.3-.65-.4,31.55-57.42,60.78-72.07C1396.57,890.7,1407.51,881.6,1407.51,881.6Z"/><path class="cls-2" d="M1382.71,948.07c-8,29.22-30.52,57.51-58.83,70.34-35.42,16.07-61.53,19.61-61.53,19.61-.61-.46,37.18-54.24,67.76-66.09C1371,956.11,1382.71,948.07,1382.71,948.07Z"/><path class="cls-2" d="M1351.52,1012c-10.86,28.41-36.2,54.46-65.73,64.55-37,12.64-63.48,13.7-63.48,13.7-.56-.51,42.7-50.53,74.42-59.45C1339,1018.9,1351.52,1012,1351.52,1012Z"/><path class="cls-2" d="M1314,1072.79c-13.76,27.34-41.82,50.88-72.36,58.11-38.34,9.07-65,7.61-65,7.61-.49-.56,48.13-46.29,80.78-52.18C1300.89,1078.47,1314,1072.79,1314,1072.79Z"/><path class="cls-2" d="M1270.29,1129.82c-16.7,26-47.37,46.76-78.71,51-39.48,5.37-66.2,1.38-66.2,1.38-.42-.6,53.43-41.52,86.83-44.3C1256.59,1134.23,1270.29,1129.82,1270.29,1129.82Z"/><path class="cls-2" d="M1220.41,1182.51c-19.69,24.47-52.83,42.09-84.8,43.34-40.39,1.56-67-5-67-5-.34-.63,58.6-36.24,92.59-35.83C1206.22,1185.6,1220.41,1182.51,1220.41,1182.51Z"/><path class="cls-2" d="M1164.45,1230.26c-22.72,22.6-58.17,36.88-90.62,35-41.09-2.32-67.34-11.39-67.34-11.39-.27-.64,64.22-31.55,98-26.78C1150.34,1233.59,1164.45,1230.26,1164.45,1230.26Z"/><path class="cls-2" d="M1102.5,1272.46c-25.79,20.42-63.37,31.13-96.17,26.16-41.61-6.29-67.35-17.86-67.35-17.86-.19-.64,69.13-25.23,103.2-17.17C1087.94,1274.41,1102.5,1272.46,1102.5,1272.46Z"/><path class="cls-2" d="M1034.62,1308.52c-28.84,17.91-68.38,24.86-101.45,16.73-41.94-10.32-67-24.36-67-24.36-.11-.63,73.82-18.48,108.06-7C1019.7,1309,1034.62,1308.52,1034.62,1308.52Z"/><path class="cls-2" d="M960.91,1337.84c-31.88,15-73.19,18.11-106.49,6.73-42.07-14.38-66.23-30.83-66.23-30.83,0-.58,78.19-11.38,112.64,3.62C945.7,1336.9,960.91,1337.84,960.91,1337.84Z"/><path class="cls-2" d="M1020.4,193.84s26.07,26.89,77.22,29.78c37.27,2.1,63.3,1.47,63.3,1.47.49-.56-51.9-42.29-84.92-39C1032.78,190.49,1020.4,193.84,1020.4,193.84Z"/><path class="cls-2" d="M1113.59,58c30.59,14,58.27,41.85,67.73,73.6,11.44,38.37,10.25,64.5,10.25,64.5-.56.48-52-48.63-59.17-81.17C1122.64,70.42,1113.59,58,1113.59,58Z"/><path class="cls-2" d="M1020.4,193.84s26.07,26.89,77.22,29.78c37.27,2.1,63.3,1.47,63.3,1.47.49-.56-51.9-42.29-84.92-39C1032.78,190.49,1020.4,193.84,1020.4,193.84Z"/><path class="cls-2" d="M1039.84,18.28c33,11.17,65.07,36.13,79.14,67.51,16.8,37.43,18.84,63.66,18.84,63.66-.49.52-59.06-43.6-70.9-75.82C1050.83,29.84,1039.84,18.28,1039.84,18.28Z"/><path class="cls-2" d="M1039.84,18.28c33,11.17,65.07,36.13,79.14,67.51,16.8,37.43,18.84,63.66,18.84,63.66-.49.52-59.06-43.6-70.9-75.82C1050.83,29.84,1039.84,18.28,1039.84,18.28Z"/><path class="cls-2" d="M963.29,163.06s30.48,24.57,82.84,22.7c38.17-1.36,64.39-4.44,64.39-4.44.42-.59-58-37.52-91.44-31.12C975.63,158.53,963.29,163.06,963.29,163.06Z"/><path class="cls-2" d="M1071,228.77s21.84,28.82,71.52,36.31c36.2,5.46,61.86,7.21,61.86,7.21.57-.51-45.79-46.49-78.31-46.16C1083.29,226.56,1071,228.77,1071,228.77Z"/><path class="cls-2" d="M1115.76,267.75s17.76,30.42,65.7,42.38c35,8.72,60.06,12.84,60.06,12.84.63-.46-39.63-50.2-71.55-52.83C1128,266.68,1115.76,267.75,1115.76,267.75Z"/><path class="cls-2" d="M1154.91,310.32s13.8,31.69,59.76,48c33.49,11.87,57.9,18.3,57.9,18.3.68-.4-33.48-53.38-64.64-58.94C1167,310.37,1154.91,310.32,1154.91,310.32Z"/><path class="cls-2" d="M1188.46,356s10,32.63,53.68,53.07c31.86,14.89,55.39,23.57,55.39,23.57.73-.33-27.36-56-57.58-64.45C1200.35,357.18,1188.46,356,1188.46,356Z"/><path class="cls-2" d="M1216.46,404.4s6.27,33.25,47.48,57.64c30,17.78,45.92,18.45,52.54,28.62,0,0-4.46-53.3-50.38-69.37C1226.34,407.38,1216.46,404.4,1216.46,404.4Z"/><path class="cls-2" d="M1239,455s2.7,33.57,41.17,61.69c28,20.5,43.76,22.67,49.33,33.41,0,0,.88-53.39-43-73.67C1248.43,458.84,1239,455,1239,455Z"/><path class="cls-2" d="M1256.06,507.27s-.75,33.59,34.73,65.19c25.86,23,41.3,26.7,45.8,37.91,0,0,6.06-53-35.54-77.32C1265,512,1256.06,507.27,1256.06,507.27Z"/><path class="cls-2" d="M1267.78,560.85S1263.72,594.16,1296,629c23.5,25.38,38.52,30.5,41.93,42.08,0,0,11.08-52.19-27.91-80.31C1276.22,566.4,1267.78,560.85,1267.78,560.85Z"/><path class="cls-2" d="M1274.2,615.23S1267,648,1295.71,685.72c21,27.49,35.43,34,37.73,45.89,0,0,16-50.93-20.15-82.62C1282,621.55,1274.2,615.23,1274.2,615.23Z"/><path class="cls-2" d="M1275.37,670s-10.32,31.91,14.74,72.23c18.26,29.39,32,37.27,33.2,49.32,0,0,20.65-49.23-12.26-84.23C1282.56,677,1275.37,670,1275.37,670Z"/><path class="cls-2" d="M1271.36,724.59s-13.27,30.81,7.85,73.38c15.39,31,28.33,40.19,28.35,52.31,0,0,25.21-47.12-4.23-85.11C1277.85,732.27,1271.36,724.59,1271.36,724.59Z"/><path class="cls-2" d="M1262.23,778.62s-16.1,29.44.85,73.88c12.35,32.4,24.34,42.76,23.18,54.85,0,0,29.61-44.58,3.93-85.25C1268,786.89,1262.23,778.62,1262.23,778.62Z"/><path class="cls-2" d="M1248,831.61s-18.8,27.82-6.25,73.74c9.15,33.47,17.71,56.89,17.71,56.89.72.3,25.12-56.89,12.21-84.63C1254.65,841,1248,831.61,1248,831.61Z"/><path class="cls-2" d="M1228.81,883.09S1207.43,909,1215.36,956c5.78,34.24,11.93,58.4,11.93,58.4.69.38,30.75-54.35,20.61-83.22C1234.52,893.08,1228.81,883.09,1228.81,883.09Z"/><path class="cls-2" d="M1204.66,932.59s-23.85,23.85-20.76,71.45c2.26,34.69,5.85,59.35,5.85,59.35.64.44,36.34-51.22,29.13-81C1209.37,943.1,1204.66,932.59,1204.66,932.59Z"/><path class="cls-2" d="M1175.62,979.66s-26.2,21.51-28.16,69.25c-1.43,34.8-.55,59.72-.55,59.72.6.5,41.9-47.49,37.78-78C1179.29,990.6,1175.62,979.66,1175.62,979.66Z"/><path class="cls-2" d="M1141.76,1023.83s-28.42,19-35.66,66.35c-5.28,34.53-7.23,59.45-7.23,59.45.53.55,47.37-43.13,46.54-74.11C1144.32,1035.11,1141.76,1023.83,1141.76,1023.83Z"/><path class="cls-2" d="M1103.13,1064.63s-30.54,16.19-43.26,62.71c-9.27,33.9-14.2,58.53-14.2,58.53.45.59,52.74-38.16,55.41-69.38C1104.52,1076.17,1103.13,1064.63,1103.13,1064.63Z"/><path class="cls-2" d="M1059.79,1101.61s-32.53,13.21-50.94,58.31c-13.41,32.87-21.46,56.91-21.46,56.91.37.62,58-32.56,64.39-63.76C1060,1113.31,1059.79,1101.61,1059.79,1101.61Z"/><path class="cls-2" d="M1011.81,1134.29s-34.42,10-58.71,53.15c-17.71,31.43-29,54.57-29,54.57.27.62,63-26.38,73.46-57.24C1010.67,1146.07,1011.81,1134.29,1011.81,1134.29Z"/><path class="cls-2" d="M959.25,1162.21s-36.19,6.68-66.58,47.22c-22.15,29.54-36.82,51.45-36.82,51.45.19.62,67.9-19.66,82.66-49.8C956.71,1174,959.25,1162.21,959.25,1162.21Z"/><path class="cls-2" d="M902.17,1184.92s-37.86,3.13-74.54,40.47c-26.74,27.21-44.91,47.55-44.91,47.55.12.64,72.89-12.27,92-41.41C898,1195.88,902.17,1184.92,902.17,1184.92Z"/><path class="cls-1" d="M93.87,823.16c-70.38-273,37-549.1,276.07-707.19l13.17,19.93C152.37,288.46,49.21,554.22,117,817.2,189.12,1097,429.5,1267.61,722.51,1286L721,1309.79C419.44,1290.91,169,1114.6,93.87,823.16Z"/><path class="cls-2" d="M403.69,18.29c-33,11.16-65.07,36.13-79.15,67.51-16.79,37.42-18.83,63.65-18.83,63.65.49.52,59.05-43.6,70.89-75.82C392.7,29.84,403.69,18.29,403.69,18.29Z"/><path class="cls-2" d="M559.77,46.81c-34.26-9.93-75.33,4.07-104.35,20.63-46.83,26.73-71.61,52.36-71.61,52.36.19.91,74.05-14.59,103.08-34C538.48,51.22,559.77,46.81,559.77,46.81Z"/><path class="cls-2" d="M264.67,103.13c-28.15,16.72-51.51,46.92-56.77,78.7-6.43,38.87-2.25,64.65-2.25,64.65.63.42,43.93-52.66,47.95-85.52C259,117,264.67,103.13,264.67,103.13Z"/><path class="cls-2" d="M206.8,153.47c-25.65,19.23-44.73,51.4-46.12,82.91-1.7,39,5.31,64.14,5.31,64.14.67.36,37.1-56.26,37.06-88.94C203,167.62,206.8,153.47,206.8,153.47Z"/><path class="cls-2" d="M156.24,208.45c-23.07,21.53-37.95,55.22-35.75,86.24,2.74,38.72,12.39,63,12.39,63,.71.29,30.35-59.27,26.52-91.48C154.22,222.73,156.24,208.45,156.24,208.45Z"/><path class="cls-2" d="M112.92,267.46c-20.39,23.6-31.21,58.41-25.7,88.74,6.94,38.09,19,61.33,19,61.33.74.21,23.68-61.67,16.32-93.15C112.59,281.76,112.92,267.46,112.92,267.46Z"/><path class="cls-2" d="M76.77,329.93c-17.66,25.39-24.56,60.94-15.94,90.38,10.86,37.14,25.22,59.07,25.22,59.07.75.14,17.1-63.46,6.44-93.95C78,344.1,76.77,329.93,76.77,329.93Z"/><path class="cls-2" d="M47.7,395.22c-14.86,26.92-18,62.84-6.49,91.21,14.55,35.86,31,56.31,31,56.31.76.07,10.64-64.66-3.09-93.93C50.47,409.15,47.7,395.22,47.7,395.22Z"/><path class="cls-2" d="M25.63,462.77c-12,28.15-11.54,64.11,2.69,91.23,18,34.28,36.28,53.06,36.28,53.06.76,0,4.28-65.27-12.31-93.09C29.83,476.33,25.63,462.77,25.63,462.77Z"/><path class="cls-2" d="M10.49,532c-9.15,29.1-5.21,64.79,11.56,90.47,21.18,32.42,41.15,49.36,41.15,49.36.76-.07-2-65.33-21.18-91.45C16,545,10.49,532,10.49,532Z"/><path class="cls-2" d="M2.2,602.19c-6.28,29.76,1,64.91,20.15,88.94C46.48,721.41,68,736.37,68,736.37c.75-.13-8.08-64.82-29.74-89C9,614.67,2.2,602.19,2.2,602.19Z"/><path class="cls-2" d="M.69,672.87C-2.73,703,7.78,737.35,29.14,759.53,56,787.41,78.76,800.28,78.76,800.28c.73-.2-14.1-63.77-38-85.88C8.65,684.65.69,672.87.69,672.87Z"/><path class="cls-2" d="M5.87,743.4C5.31,773.68,18.94,806.91,42.34,827c29.34,25.24,53.21,35.9,53.21,35.9.72-.27-20-62.18-45.89-82C14.91,754.38,5.87,743.4,5.87,743.4Z"/><path class="cls-2" d="M17.66,813.17c2.3,30.17,19,62,44.21,79.91,31.59,22.38,56.39,30.74,56.39,30.74.69-.34-25.82-60.07-53.49-77.38C27.7,823.26,17.66,813.17,17.66,813.17Z"/><path class="cls-2" d="M36,881.6c5.14,29.81,24.78,60,51.66,75.47,33.63,19.31,59.16,25.29,59.16,25.29.66-.4-31.54-57.42-60.77-72.06C47,890.7,36,881.6,36,881.6Z"/><path class="cls-2" d="M60.82,948.07c8,29.22,30.52,57.51,58.83,70.35,35.42,16.06,61.52,19.6,61.52,19.6.62-.46-37.17-54.24-67.75-66.09C72.57,956.11,60.82,948.07,60.82,948.07Z"/><path class="cls-2" d="M92,1012c10.86,28.41,36.21,54.46,65.74,64.55,37,12.64,63.48,13.7,63.48,13.7.55-.51-42.71-50.53-74.43-59.45C104.49,1018.9,92,1012,92,1012Z"/><path class="cls-2" d="M129.5,1072.79c13.76,27.35,41.82,50.88,72.36,58.11,38.34,9.07,65,7.61,65,7.61.5-.56-48.13-46.29-80.78-52.18C142.63,1078.47,129.5,1072.79,129.5,1072.79Z"/><path class="cls-2" d="M173.23,1129.82c16.7,26,47.37,46.77,78.72,51,39.47,5.37,66.19,1.38,66.19,1.38.43-.6-53.43-41.52-86.83-44.3C186.93,1134.23,173.23,1129.82,173.23,1129.82Z"/><path class="cls-2" d="M223.11,1182.51c19.69,24.47,52.83,42.1,84.8,43.34,40.39,1.57,67-5,67-5,.34-.63-58.59-36.24-92.59-35.83C237.3,1185.6,223.11,1182.51,223.11,1182.51Z"/><path class="cls-2" d="M279.07,1230.26c22.72,22.6,58.17,36.88,90.62,35,41.1-2.32,67.35-11.39,67.35-11.39.27-.65-64.23-31.55-98-26.78C293.18,1233.59,279.07,1230.26,279.07,1230.26Z"/><path class="cls-2" d="M341,1272.46c25.79,20.42,63.38,31.13,96.17,26.17,41.62-6.3,67.36-17.87,67.36-17.87.18-.64-69.13-25.23-103.2-17.17C355.58,1274.41,341,1272.46,341,1272.46Z"/><path class="cls-2" d="M408.9,1308.52c28.84,17.91,68.38,24.86,101.46,16.73,41.93-10.32,67-24.36,67-24.36.11-.62-73.82-18.48-108.06-7C423.83,1309,408.9,1308.52,408.9,1308.52Z"/><path class="cls-2" d="M482.62,1337.84c31.88,15,73.19,18.11,106.49,6.73,42.07-14.38,66.23-30.83,66.23-30.83,0-.58-78.19-11.38-112.65,3.63C497.82,1336.9,482.62,1337.84,482.62,1337.84Z"/><path class="cls-2" d="M423.12,193.84s-26.07,26.89-77.21,29.78c-37.27,2.1-63.3,1.47-63.3,1.47-.49-.56,51.9-42.29,84.91-39C410.75,190.49,423.12,193.84,423.12,193.84Z"/><path class="cls-2" d="M329.94,58c-30.59,14-58.27,41.85-67.74,73.6C250.77,170,252,196.13,252,196.13c.57.48,52-48.63,59.17-81.17C320.88,70.42,329.94,58,329.94,58Z"/><path class="cls-2" d="M423.12,193.84s-26.07,26.89-77.21,29.78c-37.27,2.1-63.3,1.47-63.3,1.47-.49-.56,51.9-42.29,84.91-39C410.75,190.49,423.12,193.84,423.12,193.84Z"/><path class="cls-2" d="M403.69,18.28c-33,11.17-65.08,36.13-79.15,67.51-16.79,37.43-18.84,63.66-18.84,63.66.49.52,59.06-43.6,70.9-75.82C392.69,29.84,403.69,18.28,403.69,18.28Z"/><path class="cls-2" d="M403.69,18.28c-33,11.17-65.08,36.13-79.15,67.51-16.79,37.43-18.84,63.66-18.84,63.66.49.52,59.06-43.6,70.9-75.82C392.69,29.84,403.69,18.28,403.69,18.28Z"/><path class="cls-2" d="M480.24,163.06s-30.48,24.57-82.85,22.7c-38.16-1.36-64.38-4.44-64.38-4.44-.42-.59,58-37.52,91.44-31.12C467.9,158.53,480.24,163.06,480.24,163.06Z"/><path class="cls-2" d="M372.58,228.77s-21.84,28.82-71.52,36.31c-36.2,5.46-61.86,7.21-61.86,7.21-.57-.51,45.78-46.49,78.31-46.16C360.24,226.56,372.58,228.77,372.58,228.77Z"/><path class="cls-2" d="M327.76,267.75s-17.76,30.42-65.7,42.38C227.12,318.85,202,323,202,323c-.63-.46,39.63-50.2,71.55-52.83C315.51,266.68,327.76,267.75,327.76,267.75Z"/><path class="cls-2" d="M288.61,310.32s-13.79,31.69-59.75,48c-33.49,11.87-57.9,18.3-57.9,18.3-.68-.4,33.48-53.38,64.64-58.94C276.51,310.37,288.61,310.32,288.61,310.32Z"/><path class="cls-2" d="M255.07,356s-10,32.63-53.68,53.07C169.53,424,146,432.66,146,432.66c-.72-.33,27.36-56,57.59-64.45C243.18,357.18,255.07,356,255.07,356Z"/><path class="cls-2" d="M227.07,404.4S220.8,437.65,179.59,462c-30,17.78-45.92,18.45-52.54,28.62,0,0,4.46-53.3,50.38-69.37C217.19,407.38,227.07,404.4,227.07,404.4Z"/><path class="cls-2" d="M204.56,455s-2.7,33.58-41.17,61.7c-28,20.49-43.76,22.67-49.33,33.41,0,0-.88-53.39,43-73.67C195.1,458.84,204.56,455,204.56,455Z"/><path class="cls-2" d="M187.47,507.27s.75,33.59-34.73,65.19c-25.86,23-41.3,26.7-45.8,37.91,0,0-6.06-53,35.54-77.32C178.5,512,187.47,507.27,187.47,507.27Z"/><path class="cls-2" d="M175.74,560.85s4.07,33.31-28.18,68.13c-23.5,25.37-38.51,30.49-41.93,42.07,0,0-11.07-52.19,27.92-80.31C167.31,566.4,175.74,560.85,175.74,560.85Z"/><path class="cls-2" d="M169.33,615.24s7.25,32.75-21.52,70.48c-21,27.5-35.42,34-37.72,45.89,0,0-16-50.93,20.15-82.62C161.49,621.55,169.33,615.24,169.33,615.24Z"/><path class="cls-2" d="M168.15,670s10.33,31.91-14.73,72.23c-18.27,29.39-32,37.27-33.2,49.32,0,0-20.66-49.23,12.25-84.23C161,677,168.15,670,168.15,670Z"/><path class="cls-2" d="M172.17,724.59s13.27,30.81-7.85,73.38C148.92,829,136,838.16,136,850.28c0,0-25.2-47.12,4.23-85.11C165.68,732.27,172.17,724.59,172.17,724.59Z"/><path class="cls-2" d="M181.31,778.62s16.09,29.44-.85,73.89c-12.36,32.39-24.34,42.76-23.19,54.84,0,0-29.61-44.58-3.93-85.24C175.57,786.89,181.31,778.62,181.31,778.62Z"/><path class="cls-2" d="M195.51,831.61s18.8,27.82,6.25,73.74C192.61,938.82,184,962.24,184,962.24c-.72.3-25.12-56.89-12.2-84.63C188.88,841,195.51,831.61,195.51,831.61Z"/><path class="cls-2" d="M214.72,883.09S236.1,909,228.17,956c-5.78,34.24-11.93,58.4-11.93,58.4-.68.38-30.75-54.35-20.61-83.22C209,893.08,214.72,883.09,214.72,883.09Z"/><path class="cls-2" d="M238.87,932.59s23.84,23.85,20.76,71.45c-2.26,34.69-5.85,59.35-5.85,59.35-.64.44-36.34-51.22-29.13-81C234.16,943.1,238.87,932.59,238.87,932.59Z"/><path class="cls-2" d="M267.91,979.66s26.2,21.51,28.16,69.25c1.43,34.8.54,59.72.54,59.72-.59.5-41.89-47.49-37.77-78C264.24,990.6,267.91,979.66,267.91,979.66Z"/><path class="cls-2" d="M301.77,1023.83s28.42,19,35.66,66.35c5.28,34.53,7.23,59.45,7.23,59.45-.53.55-47.37-43.13-46.54-74.11C299.21,1035.11,301.77,1023.83,301.77,1023.83Z"/><path class="cls-2" d="M340.39,1064.63s30.54,16.19,43.26,62.71c9.27,33.9,14.2,58.53,14.2,58.53-.45.59-52.74-38.16-55.4-69.38C339,1076.17,340.39,1064.63,340.39,1064.63Z"/><path class="cls-2" d="M383.74,1101.61s32.53,13.21,50.94,58.31c13.42,32.87,21.46,56.91,21.46,56.91-.37.62-58-32.56-64.39-63.76C383.57,1113.31,383.74,1101.61,383.74,1101.61Z"/><path class="cls-2" d="M431.71,1134.29s34.42,10,58.72,53.16c17.71,31.42,29,54.56,29,54.56-.28.62-63-26.38-73.47-57.24C432.86,1146.07,431.71,1134.29,431.71,1134.29Z"/><path class="cls-2" d="M484.27,1162.21s36.2,6.68,66.59,47.22c22.15,29.54,36.82,51.45,36.82,51.45-.19.62-67.9-19.66-82.66-49.8C486.82,1174,484.27,1162.21,484.27,1162.21Z"/><path class="cls-2" d="M541.36,1184.92s37.86,3.13,74.54,40.47c26.74,27.21,44.91,47.55,44.91,47.55-.12.64-72.89-12.27-92-41.41C545.53,1195.88,541.36,1184.92,541.36,1184.92Z"/><path class="cls-3" d="M308.85,207.39,1297,1195.59l-43.71,43.71L265.14,251.1Z"/><path class="cls-3" d="M257.73,251.1,308.84,200l995.61,995.6-51.12,51.11Zm14.81,0,980.79,980.79,36.3-36.3L308.84,214.8Z"/><path class="cls-2" d="M71.74,13.87c69.3,122.4,72.24,209.48,88.35,198,48.22-34.25,103.52,48.21,103.52,48.21L318,205.74s-82.46-55.3-48.21-103.52C281.21,86.11,194.14,83.17,71.74,13.87Z"/><path class="cls-3" d="M57.87,0,74.32,9.31C135.07,43.71,187.06,61.64,222.54,73l10.88,3.45c12.51,4,22.64,7.15,29.51,10.09,4.25,1.82,8.21,3.92,10.59,6.66A9.6,9.6,0,0,1,276,99.12a9.87,9.87,0,0,1-2,6.14c-7.58,10.67-8.7,21.57-6.1,32.24,2.65,10.89,9.21,21.61,17.13,31.24A178.76,178.76,0,0,0,309,192.31c3.51,2.89,6.52,5.18,8.64,6.74,1.06.78,1.9,1.37,2.46,1.77l.64.44.16.11,0,0,5.3,3.55-63.38,63.38L259.26,263l0,0-.1-.16-.44-.63c-.4-.57-1-1.41-1.77-2.47-1.56-2.12-3.85-5.13-6.74-8.64a180,180,0,0,0-23.57-23.89c-9.63-7.92-20.35-14.48-31.24-17.13-10.67-2.6-21.57-1.48-32.24,6.1a9.87,9.87,0,0,1-6.14,2,9.55,9.55,0,0,1-5.91-2.49c-2.74-2.38-4.84-6.33-6.66-10.59-2.94-6.87-6.14-17-10.1-29.51q-1.62-5.18-3.45-10.87C119.51,129.19,101.58,77.2,67.18,16.45ZM264.26,252.05l45.66-45.66c-2.08-1.56-4.69-3.58-7.62-6a189.69,189.69,0,0,1-25.31-25C268.57,165.17,260.94,153,257.76,140s-1.84-27,7.42-40.33a26.92,26.92,0,0,0-6.37-3.47c-6.36-2.72-15.77-5.7-28.16-9.61L219.35,83C186.67,72.51,139.85,56.44,85,27.15,114.31,82,130.38,128.8,140.85,161.48q1.92,6,3.59,11.3c3.91,12.39,6.89,21.8,9.61,28.16a26.92,26.92,0,0,0,3.47,6.37c13.3-9.26,27.22-10.61,40.33-7.42S223,210.7,233.26,219.12a188.94,188.94,0,0,1,25,25.31C260.68,247.37,262.7,250,264.26,252.05Z"/><path class="cls-3" d="M150.26,92.29,255,223.11l26-26.05Z"/><path class="cls-2" d="M307.49,228.68l975.41,975.4-20.68,20.69L286.81,249.36Z"/><path class="cls-2" d="M312.59,216l-38.66,38.65c-17.08,17.09-35.89,26-42,19.85s2.76-24.93,19.84-42l38.66-38.65c17.08-17.08,35.89-26,42-19.85S329.67,198.87,312.59,216Z"/><path class="cls-3" d="M238.23,271.12c-2.07.18-2.59-.34-2.61-.36s-.54-.55-.37-2.61a25.91,25.91,0,0,1,2.62-8.35c3.28-6.93,9.37-15.42,17.6-23.65l38.65-38.66c8.23-8.23,16.72-14.32,23.65-17.59a25.66,25.66,0,0,1,8.35-2.62c2.07-.17,2.59.34,2.61.37s.54.54.37,2.61a25.87,25.87,0,0,1-2.62,8.34c-3.28,6.93-9.37,15.42-17.6,23.66l-38.65,38.65c-8.23,8.23-16.72,14.32-23.65,17.59A25.41,25.41,0,0,1,238.23,271.12ZM251.05,278c8.28-3.91,17.73-10.8,26.58-19.65l38.66-38.66c8.85-8.85,15.75-18.31,19.66-26.58a35.91,35.91,0,0,0,3.59-12c.3-3.72-.37-7.84-3.4-10.88s-7.17-3.71-10.88-3.4a35.91,35.91,0,0,0-12,3.59c-8.28,3.91-17.73,10.81-26.59,19.66l-38.65,38.65c-8.85,8.85-15.75,18.31-19.66,26.59a35.86,35.86,0,0,0-3.59,11.95c-.3,3.72.36,7.84,3.4,10.88s7.17,3.71,10.88,3.4A35.68,35.68,0,0,0,251.05,278Z"/><path class="cls-4" d="M264.56,232.39c.59.61,1.82.58,3.61-.09a35.56,35.56,0,0,0,6.81-3.83,110.08,110.08,0,0,0,9-7c3.21-2.75,6.53-5.83,9.76-9.06s6.3-6.55,9.05-9.77a108.58,108.58,0,0,0,7-9,34.59,34.59,0,0,0,3.82-6.81c.67-1.78.7-3,.09-3.6s-1.82-.58-3.61.1a34.21,34.21,0,0,0-6.81,3.83,106.45,106.45,0,0,0-9,7c-3.21,2.75-6.53,5.84-9.76,9.07s-6.31,6.55-9.06,9.76a109.47,109.47,0,0,0-7,9,34.59,34.59,0,0,0-3.82,6.81C264,230.58,263.94,231.8,264.56,232.39Z"/><path class="cls-4" d="M132.77,61.22s79.61,42.86,97.6,44.76,9,20.61,16.72,29S147,79.78,132.77,61.22Z"/><path class="cls-4" d="M303.57,236.46l974,974-9,9L294.6,245.44Z"/><path class="cls-3" d="M1130.26,207.39l-988.19,988.2,43.7,43.71L1174,251.1Z"/><path class="cls-3" d="M1181.37,251.1,1130.26,200l-995.6,995.6,51.11,51.11Zm-14.81,0L185.77,1231.89l-36.3-36.3L1130.26,214.8Z"/><path class="cls-2" d="M1367.36,13.87c-69.29,122.4-72.24,209.47-88.35,198-48.22-34.25-103.52,48.21-103.52,48.21l-54.37-54.37s82.47-55.3,48.21-103.52C1157.89,86.11,1245,83.17,1367.36,13.87Z"/><path class="cls-3" d="M1381.23,0l-16.45,9.31C1304,43.71,1252.05,61.64,1216.56,73q-5.7,1.83-10.87,3.46c-12.52,4-22.64,7.15-29.52,10.09-4.25,1.82-8.21,3.92-10.59,6.66a9.66,9.66,0,0,0-2.49,5.91,9.87,9.87,0,0,0,2,6.14c7.58,10.67,8.7,21.57,6.1,32.24-2.65,10.89-9.21,21.61-17.13,31.24a178.76,178.76,0,0,1-23.89,23.57c-3.51,2.89-6.52,5.18-8.64,6.74-1.06.78-1.9,1.37-2.46,1.77l-.64.44-.15.1,0,0-5.29,3.55,63.37,63.38,3.55-5.29,0,0,.1-.16.45-.64c.39-.56,1-1.4,1.76-2.46,1.56-2.12,3.85-5.13,6.75-8.64a179.36,179.36,0,0,1,23.57-23.89c9.62-7.92,20.35-14.48,31.23-17.13,10.68-2.6,21.58-1.48,32.25,6.1a9.87,9.87,0,0,0,6.14,2,9.54,9.54,0,0,0,5.9-2.49c2.75-2.38,4.84-6.34,6.66-10.59,2.94-6.87,6.14-17,10.1-29.51,1.09-3.45,2.23-7.08,3.45-10.87,11.36-35.49,29.3-87.48,63.69-148.23ZM1174.84,252.05l-45.66-45.66c2.08-1.56,4.69-3.58,7.63-6a189.69,189.69,0,0,0,25.31-25c8.41-10.22,16-22.37,19.22-35.41s1.84-27-7.41-40.33a26.7,26.7,0,0,1,6.37-3.47c6.35-2.72,15.77-5.7,28.15-9.61l11.3-3.59c32.68-10.47,79.5-26.54,134.33-55.83-29.29,54.83-45.36,101.65-55.83,134.33q-1.92,6-3.58,11.3c-3.92,12.39-6.9,21.8-9.62,28.16a26.55,26.55,0,0,1-3.47,6.37c-13.3-9.26-27.22-10.61-40.33-7.42s-25.18,10.81-35.41,19.23a188.94,188.94,0,0,0-25,25.31C1178.42,247.36,1176.4,250,1174.84,252.05Z"/><path class="cls-3" d="M1288.85,92.29,1184.08,223.11l-26-26.05Z"/><path class="cls-2" d="M1131.61,228.68,156.2,1204.08l20.69,20.69,975.4-975.41Z"/><path class="cls-2" d="M1126.52,216l38.65,38.65c17.09,17.08,35.9,26,42,19.85s-2.76-24.93-19.85-42l-38.65-38.65c-17.08-17.08-35.9-26-42-19.85S1109.44,198.87,1126.52,216Z"/><path class="cls-3" d="M1200.88,271.12c2.06.17,2.58-.34,2.61-.36s.54-.55.36-2.61a25.34,25.34,0,0,0-2.62-8.35c-3.27-6.93-9.36-15.42-17.59-23.65L1145,197.49c-8.24-8.23-16.73-14.32-23.66-17.59a25.61,25.61,0,0,0-8.34-2.62c-2.07-.17-2.59.34-2.61.37s-.54.54-.37,2.61a25.61,25.61,0,0,0,2.62,8.34c3.27,6.93,9.36,15.42,17.59,23.65l38.66,38.66c8.23,8.23,16.72,14.32,23.65,17.59A25.41,25.41,0,0,0,1200.88,271.12ZM1188.06,278c-8.28-3.91-17.74-10.8-26.59-19.66l-38.65-38.65c-8.85-8.85-15.75-18.31-19.66-26.58a36,36,0,0,1-3.59-12c-.31-3.72.36-7.84,3.4-10.88s7.16-3.71,10.88-3.4a35.68,35.68,0,0,1,12,3.59c8.27,3.91,17.73,10.8,26.58,19.66l38.66,38.65c8.85,8.85,15.74,18.31,19.65,26.59a35.63,35.63,0,0,1,3.59,11.95c.31,3.72-.36,7.84-3.4,10.88s-7.16,3.71-10.88,3.4A35.63,35.63,0,0,1,1188.06,278Z"/><path class="cls-4" d="M1174.55,232.39c-.6.61-1.83.58-3.61-.09a34.86,34.86,0,0,1-6.81-3.84,104.4,104.4,0,0,1-9-7c-3.22-2.75-6.53-5.83-9.76-9.06s-6.31-6.55-9.06-9.77a106.16,106.16,0,0,1-7-9,34.73,34.73,0,0,1-3.83-6.81c-.67-1.78-.7-3-.08-3.6s1.82-.58,3.61.1a34.18,34.18,0,0,1,6.8,3.83,106.45,106.45,0,0,1,9,7c3.22,2.75,6.53,5.84,9.76,9.07s6.31,6.55,9.06,9.76a110.28,110.28,0,0,1,7,9,34.59,34.59,0,0,1,3.82,6.81C1175.13,230.58,1175.16,231.8,1174.55,232.39Z"/><path class="cls-4" d="M1306.33,61.22s-79.61,42.86-97.59,44.76-9,20.61-16.73,29S1292.07,79.78,1306.33,61.22Z"/><path class="cls-4" d="M1135.53,236.46l-973.94,974,9,9,974-973.94Z"/><path class="cls-5" d="M1231.9,660.32c0,283.89-230.14,514-514,514s-514-230.14-514-514,230.13-514,514-514S1231.9,376.43,1231.9,660.32Z"/><path class="cls-3" d="M717.87,1134.54c261.91,0,474.22-212.31,474.22-474.22S979.78,186.1,717.87,186.1,243.65,398.42,243.65,660.32,456,1134.54,717.87,1134.54Zm0,39.81c283.89,0,514-230.14,514-514s-230.14-514-514-514-514,230.14-514,514S434,1174.35,717.87,1174.35Z"/><path class="cls-5" d="M1187.2,660.32c0,259.2-210.12,469.33-469.33,469.33S248.54,919.52,248.54,660.32,458.67,191,717.87,191,1187.2,401.12,1187.2,660.32Z"/><path class="cls-2" d="M717.87,1121.69c254.81,0,461.37-206.56,461.37-461.37S972.68,199,717.87,199,256.5,405.52,256.5,660.32,463.07,1121.69,717.87,1121.69Zm0,8c259.21,0,469.33-210.13,469.33-469.33S977.08,191,717.87,191,248.54,401.12,248.54,660.32,458.67,1129.65,717.87,1129.65Z"/><path class="cls-4" d="M1231.9,660.32c0,283.89-230.14,514-514,514s-514-230.14-514-514,230.13-514,514-514S1231.9,376.43,1231.9,660.32Z"/><path class="cls-6" d="M717.87,1126.58c257.51,0,466.26-208.75,466.26-466.26S975.38,194.06,717.87,194.06,251.61,402.81,251.61,660.32,460.36,1126.58,717.87,1126.58Zm0,47.77c283.89,0,514-230.14,514-514s-230.14-514-514-514-514,230.14-514,514S434,1174.35,717.87,1174.35Z"/><path class="cls-2" d="M717.87,1121.69c254.81,0,461.37-206.56,461.37-461.37S972.68,199,717.87,199,256.5,405.52,256.5,660.32,463.07,1121.69,717.87,1121.69Zm0,8c259.21,0,469.33-210.13,469.33-469.33S977.08,191,717.87,191,248.54,401.12,248.54,660.32,458.67,1129.65,717.87,1129.65Z"/><path class="cls-2" d="M720.51,1098.77c241.83,0,437.87-196,437.87-437.87S962.34,223,720.51,223s-437.87,196-437.87,437.87S478.68,1098.77,720.51,1098.77Zm0,4c244,0,441.85-197.82,441.85-441.85S964.54,219.05,720.51,219.05,278.66,416.87,278.66,660.9,476.48,1102.75,720.51,1102.75Z"/><path class="cls-7" d="M751.58,1083.87H689.29A429,429,0,0,1,315.6,799.92h809.78a429.08,429.08,0,0,1-373.8,283.95Z"/><path class="cls-6" d="M1117.24,810.43H323.74a411.33,411.33,0,0,1,.28-305H1117a411.14,411.14,0,0,1,.29,305Z"/><path class="cls-5" d="M315.6,505.45S405.75,232,723.4,232s402,273.43,402,273.43Z"/><path class="cls-2" d="M652.49,1148.08c16.73-42.06,37.45-63.86,60-63.11,22.13-.75,42.91,21,59.62,63.11l1.68,4.27-4.58,1.23c-21,5.86-38.61,10.13-57,9.54-18.14.59-35.75-3.68-56.72-9.54l-4.59-1.23,1.67-4.27Z"/><path class="cls-3" d="M772.32,1153.69c-24.11,7.11-41.44,11.5-60.07,10.82-18.62.67-35.91-3.71-60-10.82,17.5-47.31,38.83-70.87,60-70.14C733.49,1082.82,754.76,1106.38,772.32,1153.69Zm12.6,6.44-3.67-9.84c-23.7-64-50.52-76.94-69-76.5-18.4-.44-45.29,12.55-69,76.5l-3.61,9.84,10,3c22.94,6.74,42.23,11.87,62.65,11.19,20.42.69,39.71-4.45,62.74-11.19l9.92-3Z"/><path class="cls-2" d="M717.16,1139.67c6.88-2.79,11.88-11.19,11.88-21.29,0-12-7.21-21.82-16.25-22.19a1.36,1.36,0,0,0-.55-.07c-9.24,0-16.72,9.92-16.72,22.26s7.48,22.44,16.72,22.44a11.61,11.61,0,0,0,4.91-1.14Z"/><path class="cls-4" d="M732.28,1088.45a155.19,155.19,0,0,1-.51,21.16l4-17.42c0,8-.09,15.11-1.48,22.22l.05.13c2.65-6.3,3.95-12.24,5.38-19a76.37,76.37,0,0,1-2.92,23.16c2.74-6,5.49-12.81,6.82-19.11,0,7.49-2.34,16-4.13,22.79l0,.06a138.54,138.54,0,0,0,7.82-18.85,133.29,133.29,0,0,1-5,21.91l.06.06a129.9,129.9,0,0,0,8-17.6c-1.37,7.49-2.65,13.91-5.44,20.66h.09a101.65,101.65,0,0,0,8.33-16.54,82.14,82.14,0,0,1-5.89,19.29l.15.13a139.19,139.19,0,0,0,8.26-14.8c-1.43,5.81-3.86,11.68-5.93,17.11l.1.13,8-13.42L752.34,1136l.13.06,7.32-12-5.32,13.79.15.13,6.94-11.11-4.9,12.48,6.05-9.37L758.18,1141l.12.13,6-8.94-4.41,10.24.18.13,4.93-7.12-3.65,8.18.15.06,4.59-6.67-3.4,7.61.06.06,4.16-6-3.07,6.87h.1l3.62-5.25-2.68,6,.16.06,3.4-4.87-2.53,5.5.1.06,2.94-4.24-2.12,4.74,2.49-3.68-1.85,4.18.21.13,2.16-3.12-1.58,3.49.33.25,1.73-2.57-1.24,2.94h.15l1.64-2.44-1.22,2.82.46.18,1.24-1.75-.88,2.06.45.18,1-1.37-.7,1.56.42.31.61-1-.42,1.07.42.25.42-.69-.32.75c.94.56,1.42.87,1.42.87-8.27-22.67-20.66-50.26-42.37-67a33.93,33.93,0,0,0-1.83,18l2.74-14.48Z"/><path class="cls-4" d="M693.15,1088.45a207.83,207.83,0,0,0,.41,21.16l-3-17.42c0,8,.05,15.11,1.1,22.22l0,.13a143.78,143.78,0,0,1-4.07-19,105.45,105.45,0,0,0,2.19,23.16,119.27,119.27,0,0,1-5.07-19.11c0,7.49,1.73,16,3.11,22.79l0,.06a157,157,0,0,1-5.86-18.85,169.77,169.77,0,0,0,3.72,21.91l-.07.06a146.59,146.59,0,0,1-6-17.6c1,7.49,1.93,13.91,4,20.66h0a112.82,112.82,0,0,1-6.25-16.54,106.92,106.92,0,0,0,4.38,19.29l-.07.13a149.27,149.27,0,0,1-6.21-14.8,174.08,174.08,0,0,0,4.47,17.11l-.11.13-6-13.42,4.32,15.48,0,.06-5.55-12,4,13.79-.1.13-5.2-11.11,3.65,12.48-4.55-9.37,3.45,11.06-.16.13-4.43-8.94,3.29,10.24-.14.13-3.7-7.12,2.74,8.18-.09.06-3.47-6.67,2.55,7.61,0,.06-3.1-6,2.28,6.87h-.07l-2.72-5.25,2,6-.11.06-2.52-4.87,1.85,5.5-.06.06-2.18-4.24,1.58,4.74-1.94-3.68,1.42,4.18-.14.13-1.63-3.12,1.17,3.49-.22.25-1.28-2.57.88,2.94h-.08l-1.24-2.44.89,2.82-.34.18-.94-1.75.69,2.06-.32.18-.76-1.37.55,1.56-.34.31-.48-1,.32,1.07-.27.25-.37-.69.27.75c-.71.56-1.07.87-1.07.87,6.21-22.67,15.53-50.26,31.83-67a45.14,45.14,0,0,1,1.32,18l-2-14.48Z"/><path class="cls-3" d="M712.26,1140.82a27.94,27.94,0,1,1,28-28A28,28,0,0,1,712.26,1140.82Z"/><path class="cls-2" d="M717.16,1139.68c6.88-2.79,11.88-11.2,11.88-21.24,0-12.08-7.21-21.88-16.25-22.25a3.37,3.37,0,0,0-.55-.07c-9.24,0-16.72,9.92-16.72,22.32s7.48,22.38,16.72,22.38a11.61,11.61,0,0,0,4.91-1.14Z"/><path class="cls-4" d="M728.58,1111.72c-2-8.69-8.11-15.19-15.61-15.46-.22,0-.35-.14-.59-.14-7.72,0-14.16,6.58-16.13,15.46-1.2,3.38-.91,6.7.8,6.89s5.62-8,15.49-8,12.72,7.36,14.68,7.83S729.41,1115.16,728.58,1111.72Z"/><path class="cls-2" d="M652.49,172.56c16.73,42.06,37.45,63.86,60,63.11,22.13.75,42.91-21,59.62-63.11l1.68-4.27-4.58-1.23c-21-5.86-38.61-10.13-57-9.54-18.14-.59-35.75,3.68-56.72,9.54l-4.59,1.23,1.67,4.27Z"/><path class="cls-3" d="M772.32,167c-24.11-7.11-41.44-11.5-60.07-10.82-18.62-.67-35.91,3.71-60,10.82,17.5,47.31,38.83,70.87,60,70.14C733.49,237.82,754.76,214.26,772.32,167Zm12.6-6.44-3.67,9.84c-23.7,64-50.52,76.94-69,76.5-18.4.44-45.29-12.55-69-76.5l-3.61-9.84,10-3c22.94-6.74,42.23-11.87,62.65-11.19,20.42-.69,39.71,4.45,62.74,11.19l9.92,3Z"/><path class="cls-2" d="M717.16,181c6.88,2.79,11.89,11.19,11.89,21.3,0,12-7.22,21.81-16.26,22.18a1.36,1.36,0,0,1-.55.07c-9.24,0-16.72-9.92-16.72-22.26s7.48-22.44,16.72-22.44a11.61,11.61,0,0,1,4.91,1.14Z"/><path class="cls-4" d="M732.28,232.2a155.3,155.3,0,0,0-.51-21.17l4,17.42c0-8-.09-15.11-1.48-22.22l.05-.13c2.65,6.3,3.95,12.24,5.38,19a76.37,76.37,0,0,0-2.92-23.16c2.74,6,5.49,12.81,6.82,19.11,0-7.49-2.34-16-4.13-22.79l0-.06A138.54,138.54,0,0,1,747.36,217a133.29,133.29,0,0,0-5-21.91l.06-.06a129.9,129.9,0,0,1,8,17.6c-1.37-7.49-2.65-13.91-5.44-20.66h.09a101.65,101.65,0,0,1,8.33,16.54,82.14,82.14,0,0,0-5.89-19.29l.15-.13a139.19,139.19,0,0,1,8.26,14.8c-1.43-5.81-3.86-11.68-5.93-17.11l.1-.13,8,13.42-5.81-15.48.13-.06,7.32,12-5.32-13.79.15-.13,6.94,11.11-4.9-12.48,6.05,9.37-4.53-11.06.12-.13,6,8.94-4.41-10.24.18-.13,4.93,7.12L761.34,177l.15-.06,4.59,6.67-3.4-7.61.06-.06,4.16,6-3.06-6.87h.09l3.62,5.25-2.68-6,.16-.06,3.4,4.87-2.53-5.49.1-.07,2.94,4.25-2.12-4.75,2.49,3.68-1.85-4.18.21-.12,2.16,3.11-1.58-3.49.33-.25,1.73,2.57-1.24-2.94h.15l1.64,2.44-1.22-2.82.46-.18,1.24,1.75-.88-2.06.45-.18,1,1.37-.7-1.56.42-.31.61,1-.42-1.07.42-.25.42.7-.32-.76c.94-.56,1.42-.87,1.42-.87-8.27,22.67-20.66,50.26-42.37,67.05a33.93,33.93,0,0,1-1.83-18l2.74,14.49Z"/><path class="cls-4" d="M693.15,232.2a208,208,0,0,1,.41-21.17l-3,17.42c0-8,.05-15.11,1.1-22.22l0-.13a143.78,143.78,0,0,0-4.07,19,105.45,105.45,0,0,1,2.19-23.16A119.27,119.27,0,0,0,684.66,221c0-7.49,1.73-16,3.11-22.79l0-.06A157,157,0,0,0,681.86,217a169.77,169.77,0,0,1,3.72-21.91l-.07-.06a146.59,146.59,0,0,0-6,17.6c1-7.49,1.93-13.91,4-20.66h0a112.82,112.82,0,0,0-6.25,16.54,106.92,106.92,0,0,1,4.38-19.29l-.07-.13a149.27,149.27,0,0,0-6.21,14.8,174.08,174.08,0,0,1,4.47-17.11l-.11-.13-6,13.42,4.33-15.48-.05-.06-5.55,12,4-13.79-.1-.13-5.2,11.11,3.65-12.48-4.55,9.37,3.45-11.06-.16-.13-4.43,8.94,3.29-10.24-.14-.13-3.7,7.12,2.74-8.18-.09-.06-3.47,6.67,2.55-7.61,0-.06-3.1,6,2.28-6.87h-.07l-2.72,5.25,2-6-.11-.06L666,179.12l1.85-5.49-.06-.07-2.18,4.25,1.58-4.75-1.94,3.68,1.42-4.18-.14-.12-1.63,3.11,1.17-3.49-.22-.25-1.28,2.57.88-2.94h-.08l-1.24,2.44.89-2.82-.34-.18-.94,1.75.69-2.06-.32-.18-.76,1.37.55-1.56-.34-.31-.48,1,.32-1.07-.27-.25-.37.7.27-.76c-.71-.56-1.07-.87-1.07-.87,6.21,22.67,15.53,50.26,31.83,67.05a45.14,45.14,0,0,0,1.32-18l-2,14.49Z"/><path class="cls-3" d="M712.26,179.82a27.94,27.94,0,1,0,28,28A28,28,0,0,0,712.26,179.82Z"/><path class="cls-2" d="M717.16,181c6.88,2.8,11.89,11.2,11.89,21.24,0,12.08-7.22,21.88-16.26,22.25a3.37,3.37,0,0,1-.55.07c-9.24,0-16.72-9.92-16.72-22.32s7.48-22.38,16.72-22.38a11.61,11.61,0,0,1,4.91,1.14Z"/><path class="cls-4" d="M728.58,208.92c-2,8.69-8.11,15.19-15.61,15.46-.22,0-.35.14-.59.14-7.72,0-14.16-6.58-16.13-15.46-1.2-3.38-.91-6.7.8-6.89s5.62,8,15.49,8,12.72-7.36,14.68-7.83S729.41,205.48,728.58,208.92Z"/><path class="cls-2" d="M1007,273.31c-15,42.72-13.63,72.77,3.84,87,16.21,15.08,46.2,12.26,86.4-8.52l4.07-2.12-2.65-3.93c-12-18.23-22.5-33-36.78-44.62-13.31-12.34-29.39-20.67-49.07-30l-4.27-2.08-1.54,4.31Z"/><path class="cls-3" d="M1101.1,347.7c-13.54-21.19-23.73-35.87-38.24-47.58-13.62-12.73-29.54-20.76-52.39-31.2-17.82,47.19-17.18,79-.73,92.3C1025.29,375.71,1056.8,371.88,1101.1,347.7Zm13.73,3.4-9.23,5c-59.84,32.72-88.6,24.93-102.26,12.47-14.18-11.74-26-39.18-1.88-103l3.73-9.79,9.46,4.29c21.73,10,39.66,18.75,54.62,32.65,15.86,12.88,27,29.42,40,49.61l5.54,8.75Z"/><path class="cls-2" d="M1050.27,322.09c3.36,6.62,1.63,16.25-5,23.87-7.88,9.06-19.76,11.73-26.83,6.08a1.52,1.52,0,0,1-.45-.31c-7-6.07-6.11-18.46,2-27.77s20.37-12,27.35-6a11.54,11.54,0,0,1,3,4.08Z"/><path class="cls-4" d="M1028.07,370.67a153.29,153.29,0,0,0,13.5-16.31l-8.4,15.77c5.24-6,9.84-11.46,13.45-17.74l.13-.06c-2.14,6.49-5,11.82-8.39,17.85a76.65,76.65,0,0,0,13-19.39c-1.86,6.31-4.26,13.26-7.39,18.89,4.89-5.67,8.72-13.59,11.83-19.91h.08a138.72,138.72,0,0,1-6.47,19.36A133.77,133.77,0,0,0,1060,349.31h.09a129.83,129.83,0,0,1-5.5,18.55c3.88-6.55,7.13-12.24,9.45-19.15l.07.06a102.8,102.8,0,0,1-4.56,17.94,82,82,0,0,0,8.2-18.43h.2a139.36,139.36,0,0,1-3.47,16.6c2.73-5.32,4.74-11.35,6.75-16.81l.15,0-2.75,15.39,5.78-15.5.14,0-2.38,13.9,5-13.9h.2l-2.05,12.93,4.49-12.63-1.58,11,3.84-11.31.17,0L1081,358.64l3.39-10.63.22,0-1,8.6,2.61-8.56.16.05-.92,8.05,2.42-8h.09l-.79,7.25,2.19-7.2.07.06-.71,6.34,1.92-6.28.15.06-.62,5.9,1.69-5.81.12,0-.56,5.13,1.51-5-.54,4.41,1.34-4.37.25,0-.42,3.78,1.1-3.68.42,0-.38,3.07,1-3,.11.09-.36,2.92.93-2.93.46.17-.21,2.13.69-2.14.46.17-.16,1.67.5-1.63.52,0-.2,1.15.38-1.08.48.09-.13.8.25-.78,1.64.28c-21.11,11.68-48.57,24.37-76,22.8a33.91,33.91,0,0,1,10.43-14.77l-7.44,12.73Z"/><path class="cls-4" d="M998.54,345a208.16,208.16,0,0,1,14.2-15.71L999,340.46c5.24-6,9.94-11.37,15.4-16l0-.13A143.8,143.8,0,0,0,999,336a104.66,104.66,0,0,1,16.84-16A117.61,117.61,0,0,0,999.46,331c4.92-5.65,11.79-10.92,17.29-15.16v-.08a159,159,0,0,0-16.8,10.38,171.52,171.52,0,0,1,17.19-14.09V312a146.48,146.48,0,0,0-16.06,9.37c5.69-5,10.58-9.23,16.6-12.95l0,0a111.57,111.57,0,0,0-15.56,8.37A106.85,106.85,0,0,1,1018,305l0-.14a151.12,151.12,0,0,0-14.4,7.09,172.35,172.35,0,0,1,14.6-10v-.18L1005,308.06l13.43-8.85v-.08l-12.09,5.45,12.05-7.8v-.16l-11.21,5,10.94-7-9.58,4.1,9.86-6.09,0-.2-9.2,3.84,9.2-5.57,0-.19-7.46,2.95,7.43-4.38,0-.11-7,2.76,6.92-4.06v-.08l-6.27,2.48,6.23-3.68,0-.05-5.5,2.18,5.45-3.21,0-.12-5.08,2,5-2.94v-.09l-4.43,1.78,4.3-2.55-3.88,1.51,3.82-2.23,0-.19-3.28,1.29,3.18-1.87v-.33l-2.65,1.09,2.6-1.63-.07-.05-2.53,1,2.52-1.54-.14-.36-1.85.71,1.87-1.11-.13-.35-1.47.54,1.44-.82,0-.45-1,.44.94-.6,0-.36-.73.28.7-.39c-.17-.89-.24-1.36-.24-1.36-10.19,21.17-21.25,48.11-20,71.48a45.14,45.14,0,0,0,12.8-12.71l-11,9.62Z"/><path class="cls-3" d="M1047.32,318a27.93,27.93,0,1,0,2.75,39.46A28,28,0,0,0,1047.32,318Z"/><path class="cls-2" d="M1050.27,322.08c3.36,6.63,1.63,16.25-5,23.83-7.93,9.11-19.81,11.78-26.88,6.13a3.72,3.72,0,0,1-.45-.31c-7-6.07-6.11-18.46,2-27.82s20.33-12,27.31-5.91a11.54,11.54,0,0,1,3,4.08Z"/><path class="cls-4" d="M1040.55,350.68c-7.23,5.23-16.09,6.14-21.92,1.42-.17-.14-.36-.12-.54-.28-5.82-5.06-6.37-14.25-2-22.25,1.31-3.33,3.71-5.65,5.13-4.67s-1,9.69,6.43,16.21,14.42,2.79,16.21,3.73S1043.44,348.63,1040.55,350.68Z"/><path class="cls-2" d="M421.59,1038c15-42.73,13.63-72.78-3.84-87-16.21-15.09-46.2-12.27-86.4,8.52l-4.07,2.11,2.65,3.94c12,18.23,22.5,33,36.78,44.61,13.31,12.35,29.39,20.68,49.07,30l4.27,2.08,1.54-4.31Z"/><path class="cls-3" d="M327.47,963.56c13.54,21.19,23.73,35.87,38.24,47.58,13.62,12.72,29.54,20.76,52.39,31.2,17.82-47.19,17.18-79,.73-92.3C403.28,935.55,371.77,939.38,327.47,963.56Zm-13.73-3.41,9.23-5c59.84-32.72,88.6-24.93,102.26-12.47,14.18,11.74,25.95,39.18,1.88,103l-3.73,9.8-9.46-4.29c-21.73-10-39.66-18.75-54.62-32.66-15.86-12.88-27.05-29.41-40-49.61l-5.54-8.74Z"/><path class="cls-2" d="M378.3,989.17c-3.36-6.62-1.63-16.25,5-23.87,7.88-9.07,19.76-11.73,26.83-6.08a1.52,1.52,0,0,1,.45.31c7,6.06,6.11,18.45-2,27.77s-20.36,12-27.34,6a11.53,11.53,0,0,1-3-4.08Z"/><path class="cls-4" d="M400.5,940.59A153.29,153.29,0,0,0,387,956.9l8.4-15.77c-5.24,6-9.84,11.46-13.45,17.73l-.13.07c2.14-6.5,5-11.83,8.39-17.85a76.22,76.22,0,0,0-13,19.39,95.9,95.9,0,0,1,7.39-18.89c-4.89,5.67-8.72,13.59-11.83,19.9h-.08a139,139,0,0,1,6.47-19.35A132.78,132.78,0,0,0,368.55,962h-.09A128.66,128.66,0,0,1,374,943.4c-3.88,6.56-7.13,12.24-9.45,19.16l-.07-.06A102.58,102.58,0,0,1,369,944.56,82,82,0,0,0,360.8,963h-.2a139.36,139.36,0,0,1,3.47-16.6c-2.73,5.32-4.74,11.35-6.75,16.8l-.15,0,2.75-15.39-5.78,15.49-.14,0,2.38-13.9-5,13.9h-.2l2.05-12.94L348.71,963l1.58-11-3.84,11.31-.17,0,1.34-10.67-3.39,10.62-.22,0,.95-8.61-2.61,8.57-.16,0,.92-8-2.42,8h-.09l.79-7.25L339.2,963l-.07-.06.71-6.34-1.92,6.28-.16-.06.63-5.9-1.7,5.8h-.11l.56-5.14-1.51,5,.54-4.42-1.34,4.37-.25,0,.42-3.77-1.1,3.68-.42,0,.38-3.07-1,3-.11-.1.36-2.91-.93,2.93-.46-.17.21-2.14-.69,2.14-.46-.16.16-1.67-.5,1.63-.52,0,.2-1.16-.39,1.08-.47-.09.13-.79-.25.78-1.64-.28c21.11-11.68,48.56-24.37,76-22.8a33.89,33.89,0,0,1-10.42,14.77l7.44-12.73Z"/><path class="cls-4" d="M430,966.26a206,206,0,0,1-14.2,15.7l13.7-11.17c-5.25,6-9.94,11.37-15.4,16.05l-.05.12a143.69,143.69,0,0,0,15.51-11.65,105.08,105.08,0,0,1-16.84,16,119.16,119.16,0,0,0,16.36-11.1c-4.92,5.66-11.79,10.93-17.3,15.17v.07a155.79,155.79,0,0,0,16.8-10.38,170.63,170.63,0,0,1-17.2,14.1l0,.09a148.92,148.92,0,0,0,16.06-9.36c-5.69,5-10.59,9.23-16.6,12.94l0,0a112.24,112.24,0,0,0,15.57-8.38,106.92,106.92,0,0,1-16,11.69l0,.14a151.22,151.22,0,0,0,14.4-7.1,170.17,170.17,0,0,1-14.6,10v.17l13.3-6.21-13.42,8.85v.08l12.09-5.45-12,7.8v.16l11.21-5-10.94,7,9.57-4.09-9.85,6.08,0,.2,9.2-3.83-9.2,5.57,0,.19,7.46-2.95-7.43,4.38,0,.11,7-2.77-6.91,4.07v.07l6.27-2.48-6.23,3.69.05,0,5.5-2.17-5.45,3.21.05.11,5.08-2-5,2.93v.09l4.43-1.77-4.3,2.54,3.88-1.5-3.82,2.22,0,.19,3.28-1.29-3.18,1.87v.34l2.65-1.1-2.6,1.63.07.06,2.53-1-2.52,1.54.14.36,1.85-.71-1.87,1.11.13.34,1.46-.53-1.43.81.05.46,1-.44-.94.6,0,.36.73-.28-.7.39c.17.89.24,1.36.24,1.36,10.19-21.18,21.25-48.11,20-71.49A45.34,45.34,0,0,0,419,975.88l11-9.62Z"/><path class="cls-3" d="M381.25,993.25a27.94,27.94,0,1,0-2.75-39.47A27.95,27.95,0,0,0,381.25,993.25Z"/><path class="cls-2" d="M378.3,989.18c-3.36-6.63-1.63-16.25,5-23.83,7.92-9.12,19.8-11.78,26.87-6.13a3.72,3.72,0,0,1,.45.31c7,6.06,6.11,18.45-2,27.81s-20.32,12-27.3,5.92a11.53,11.53,0,0,1-3-4.08Z"/><path class="cls-4" d="M388,960.58c7.23-5.23,16.09-6.14,21.92-1.42.17.14.36.12.54.28,5.82,5.06,6.37,14.25,2,22.25-1.31,3.33-3.71,5.65-5.12,4.67s1-9.69-6.43-16.21-14.43-2.79-16.22-3.73S385.13,962.63,388,960.58Z"/><path class="cls-2" d="M1099.91,957.55c-41.08-19-71.12-20.58-86.94-4.56-16.57,14.67-16.66,44.8.15,86.82l1.71,4.25,4.18-2.26c19.3-10.21,35-19.21,48-32.3,13.57-12,23.42-27.26,34.6-46l2.49-4-4.15-1.94Z"/><path class="cls-3" d="M1016.79,1044.06c22.39-11.43,38-20.16,51-33.47,14-12.33,23.5-27.4,36.1-49.13-45.25-22.3-76.94-24.73-91.8-9.63C996.22,965.91,997,997.63,1016.79,1044.06Zm-4.72,13.33-4.1-9.66c-26.79-62.72-16.26-90.6-2.55-103,13.06-13,41.51-22,102.7,8.07l9.39,4.65-5.19,9c-12,20.67-22.48,37.67-37.76,51.22-14.35,14.54-31.89,24.09-53.24,35l-9.24,4.68Z"/><path class="cls-2" d="M1047.18,995.94c-6.91,2.7-16.32,0-23.27-7.28-8.27-8.72-9.77-20.8-3.47-27.29a1.66,1.66,0,0,1,.35-.42c6.72-6.36,19-4.3,27.45,4.65s10,21.43,3.3,27.79a11.54,11.54,0,0,1-4.35,2.55Z"/><path class="cls-4" d="M1001,969.16a155.77,155.77,0,0,0,14.93,15L1001,974.28c5.5,5.8,10.46,10.9,16.36,15.1l0,.14c-6.26-2.76-11.28-6.16-17-10.08a76.43,76.43,0,0,0,18,14.8c-6.11-2.46-12.79-5.52-18.09-9.18,5.17,5.42,12.69,10,18.67,13.7v.08a139.74,139.74,0,0,1-18.65-8.3,133.89,133.89,0,0,0,18.7,12.48v.08a128,128,0,0,1-17.94-7.26c6.15,4.5,11.49,8.28,18.16,11.26l-.07.06a103.4,103.4,0,0,1-17.42-6.27,82,82,0,0,0,17.55,9.94l0,.2a139.77,139.77,0,0,1-16.18-5.06c5,3.24,10.84,5.82,16.07,8.34l0,.16-15.05-4.22,14.86,7.24,0,.13-13.61-3.7,13.35,6.35,0,.2-12.68-3.3,12.15,5.7-10.84-2.64,10.89,4.91v.17l-10.5-2.36,10.25,4.39-.05.23-8.47-1.79,8.27,3.44-.06.14-7.92-1.69,7.7,3.18v.09l-7.14-1.48,7,2.87-.07.07-6.23-1.32,6.06,2.51-.07.15-5.82-1.19,5.62,2.25,0,.11-5.06-1.05,4.81,2-4.34-1,4.22,1.76-.07.24-3.71-.78,3.55,1.45-.07.41-3-.67,2.92,1.27-.11.11-2.87-.64,2.83,1.2-.21.45-2.11-.42,2.06.89-.21.45-1.64-.33,1.58.65-.1.52-1.13-.31,1,.49-.14.47-.78-.22.76.33c-.3,1-.44,1.61-.44,1.61C1005,1021.67,995,993.12,999.22,966a33.92,33.92,0,0,1,13.7,11.79L1001,969.16Z"/><path class="cls-4" d="M1029.37,942.24a206.85,206.85,0,0,1,14.26,15.65l-9.8-14.71c5.5,5.79,10.36,11,14.49,16.87l.12.06a143.68,143.68,0,0,0-10.11-16.56,103.9,103.9,0,0,1,14.34,18.31,117.13,117.13,0,0,0-9.46-17.35c5.15,5.43,9.74,12.78,13.42,18.67h.08a158.53,158.53,0,0,0-8.71-17.72,172.49,172.49,0,0,1,12.37,18.47h.09a145.67,145.67,0,0,0-7.77-16.89c4.41,6.14,8.17,11.43,11.28,17.77l0,0a112.09,112.09,0,0,0-6.83-16.31,107.13,107.13,0,0,1,10.09,17l.14,0a150.36,150.36,0,0,0-5.68-15,172.81,172.81,0,0,1,8.53,15.5h.17l-4.91-13.84,7.52,14.21h.08l-4.26-12.56,6.6,12.75.16,0L1071.74,955l5.94,11.58-3.15-9.93,5.11,10.39h.2l-2.93-9.53,4.66,9.69h.19l-2.22-7.72,3.64,7.83.11,0-2.07-7.23,3.38,7.27.07,0-1.86-6.48,3.06,6.55.05,0-1.63-5.68,2.67,5.73.12,0-1.53-5.26,2.44,5.26h.09l-1.34-4.57,2.12,4.53-1.12-4,1.84,4h.19l-1-3.38,1.56,3.34.33,0-.83-2.74,1.37,2.74.07-.06-.78-2.62,1.29,2.66.37-.11-.52-1.91.92,2,.36-.09-.4-1.51.68,1.51.46,0-.34-1,.5,1h.37l-.21-.75.32.73c.9-.08,1.38-.1,1.38-.1-20.1-12.18-45.84-25.8-69.23-26.77a45.3,45.3,0,0,0,11.41,14l-8.51-11.89Z"/><path class="cls-3" d="M1051.53,993.4a27.93,27.93,0,1,0-39.55-1.08A28,28,0,0,0,1051.53,993.4Z"/><path class="cls-2" d="M1047.19,995.94c-6.92,2.71-16.33.06-23.24-7.23-8.31-8.77-9.81-20.85-3.51-27.34a4.76,4.76,0,0,1,.35-.42c6.72-6.36,19-4.3,27.49,4.7s10,21.38,3.26,27.74a11.54,11.54,0,0,1-4.35,2.55Z"/><path class="cls-4" d="M1019.66,983.51c-4.51-7.7-4.56-16.61.7-22,.16-.15.16-.34.34-.51,5.6-5.3,14.8-5,22.33.13,3.2,1.62,5.27,4.24,4.16,5.55s-9.55-1.91-16.76,4.83-4.16,14.1-5.27,15.79S1021.43,986.58,1019.66,983.51Z"/><path class="cls-2" d="M343,357c41.08,19,71.12,20.59,86.94,4.57,16.57-14.68,16.66-44.8-.15-86.82l-1.71-4.25-4.18,2.26c-19.3,10.21-35,19.2-47.95,32.3-13.57,12.05-23.42,27.26-34.6,45.94l-2.49,4.05L343,357Z"/><path class="cls-3" d="M426.09,270.52c-22.39,11.43-38,20.16-51,33.47-14,12.32-23.51,27.4-36.11,49.13,45.25,22.29,76.94,24.73,91.8,9.63C446.66,348.67,445.89,317,426.09,270.52Zm4.72-13.34,4.1,9.67c26.79,62.72,16.27,90.59,2.55,103-13.06,13-41.51,22-102.7-8.07l-9.39-4.66,5.19-9c12-20.68,22.48-37.67,37.76-51.22,14.36-14.55,31.89-24.09,53.24-35l9.24-4.67Z"/><path class="cls-2" d="M395.7,318.64c6.91-2.7,16.33-.05,23.28,7.28,8.26,8.72,9.76,20.8,3.46,27.29a1.33,1.33,0,0,1-.35.42c-6.71,6.36-19,4.3-27.45-4.65s-10-21.43-3.3-27.79a11.54,11.54,0,0,1,4.35-2.55Z"/><path class="cls-4" d="M441.91,345.42a154.63,154.63,0,0,0-14.93-15l14.89,9.89c-5.5-5.8-10.46-10.9-16.36-15.11l-.05-.13c6.26,2.76,11.28,6.16,17,10.08a76.23,76.23,0,0,0-18.05-14.8c6.11,2.46,12.79,5.52,18.09,9.18-5.17-5.42-12.69-10-18.67-13.7v-.08a140.2,140.2,0,0,1,18.64,8.3,133.83,133.83,0,0,0-18.69-12.48v-.08a128.41,128.41,0,0,1,17.93,7.26c-6.15-4.5-11.49-8.28-18.15-11.26l.06-.06A102.22,102.22,0,0,1,441,313.69a82,82,0,0,0-17.55-9.94l0-.2a139.17,139.17,0,0,1,16.18,5.06c-5-3.24-10.84-5.82-16.07-8.34l0-.16,15.06,4.22-14.87-7.24.05-.14,13.6,3.71-13.35-6.35,0-.2,12.68,3.29-12.15-5.69,10.84,2.64-10.89-4.91v-.17L435,291.63l-10.25-4.39,0-.23,8.47,1.78L425,285.36l.06-.14,7.93,1.69-7.71-3.18v-.09l7.15,1.48-7-2.88.07-.06,6.24,1.32L425.75,281l.08-.14,5.81,1.19L426,279.78l0-.11,5.06,1.05-4.8-2,4.34,1-4.23-1.76.07-.24,3.71.78L426.65,277l.08-.41,3,.67L426.83,276l.1-.11,2.87.64-2.82-1.2.2-.45,2.11.42-2.06-.89.21-.45,1.65.33-1.58-.66.09-.51,1.13.3-1-.48.14-.47.78.21-.75-.32c.29-1.05.43-1.61.43-1.61,9.59,22.14,19.57,50.69,15.37,77.81A33.92,33.92,0,0,1,430,336.79l12,8.63Z"/><path class="cls-4" d="M413.51,372.34a210.77,210.77,0,0,1-14.26-15.65l9.8,14.71c-5.5-5.8-10.36-11-14.48-16.87l-.13-.07A144.34,144.34,0,0,0,404.55,371a104.64,104.64,0,0,1-14.34-18.31,117.63,117.63,0,0,0,9.46,17.35c-5.15-5.44-9.74-12.79-13.42-18.67l-.07,0a153.52,153.52,0,0,0,8.71,17.72,170.2,170.2,0,0,1-12.38-18.47h-.09a148.15,148.15,0,0,0,7.77,16.89c-4.41-6.14-8.17-11.43-11.28-17.77l0,0a112,112,0,0,0,6.83,16.3,106.6,106.6,0,0,1-10.09-17l-.14-.05a153.82,153.82,0,0,0,5.68,15,170.22,170.22,0,0,1-8.52-15.5h-.17l4.9,13.84-7.52-14.21-.07,0L374,360.72,367.43,348l-.15,0,3.86,11.65L365.2,348l3.15,9.93-5.1-10.39H363l2.93,9.53-4.65-9.69h-.19l2.21,7.71-3.64-7.82-.11,0,2.08,7.23-3.38-7.28h-.08l1.87,6.48L357,347.17l-.05.05,1.63,5.68-2.67-5.74-.12,0,1.53,5.26-2.44-5.26h-.09l1.34,4.58L354,347.25l1.13,4-1.85-4h-.19l1,3.38-1.56-3.34-.33,0L353,350l-1.37-2.74-.06.06.77,2.62-1.29-2.66-.37.1.53,1.92-.93-2-.36.09.4,1.51-.67-1.51h-.46l.34,1.06-.51-1h-.37l.21.75-.32-.73-1.37.11c20.09,12.18,45.84,25.79,69.22,26.76A45.2,45.2,0,0,0,405,360.45l8.51,11.89Z"/><path class="cls-3" d="M391.35,321.18a27.94,27.94,0,1,0,39.55,1.08A28,28,0,0,0,391.35,321.18Z"/><path class="cls-2" d="M395.69,318.64c6.92-2.71,16.33-.06,23.24,7.23,8.31,8.77,9.81,20.85,3.51,27.34a3.38,3.38,0,0,1-.35.42c-6.71,6.36-19,4.3-27.49-4.7s-10-21.38-3.26-27.74a11.54,11.54,0,0,1,4.35-2.55Z"/><path class="cls-4" d="M423.22,331.07c4.51,7.7,4.56,16.61-.7,22-.16.15-.16.34-.33.51-5.6,5.3-14.8,5-22.34-.13-3.2-1.62-5.27-4.24-4.16-5.55s9.55,1.91,16.76-4.84,4.16-14.09,5.27-15.78S421.45,328,423.22,331.07Z"/><path class="cls-2" d="M230.11,725.71c42.06-16.74,63.86-37.46,63.11-60,.75-22.13-21.05-42.91-63.11-59.61l-4.27-1.69L224.61,609c-5.86,21-10.13,38.6-9.54,57-.59,18.14,3.68,35.75,9.54,56.72l1.23,4.59,4.27-1.67Z"/><path class="cls-3" d="M224.5,605.87c-7.11,24.12-11.5,41.44-10.82,60.07-.67,18.63,3.71,35.91,10.82,60,47.31-17.51,70.87-38.84,70.14-60C295.37,644.7,271.81,623.44,224.5,605.87Zm-6.44-12.6L227.9,597c64,23.69,76.94,50.51,76.5,69,.44,18.4-12.55,45.29-76.5,69l-9.84,3.61-3-9.95c-6.74-22.94-11.87-42.23-11.19-62.65-.69-20.42,4.45-39.71,11.19-62.74l3-9.92Z"/><path class="cls-2" d="M238.52,661c2.79-6.88,11.19-11.88,21.29-11.88,12,0,21.82,7.21,22.19,16.25a1.36,1.36,0,0,1,.07.55c0,9.25-9.92,16.72-22.26,16.72S237.37,675.2,237.37,666a11.61,11.61,0,0,1,1.14-4.91Z"/><path class="cls-4" d="M289.74,645.91a155.19,155.19,0,0,0-21.16.51l17.42-4c-8,0-15.11.09-22.22,1.48l-.13,0c6.3-2.65,12.23-4,19-5.38a76.37,76.37,0,0,0-23.16,2.92c6-2.74,12.81-5.49,19.11-6.82-7.49,0-16,2.34-22.79,4.13l-.06-.05a138.54,138.54,0,0,1,18.85-7.82,133.29,133.29,0,0,0-21.91,5l-.07-.06a130,130,0,0,1,17.61-8c-7.49,1.37-13.91,2.65-20.66,5.44v-.09a101.65,101.65,0,0,1,16.54-8.33,82.14,82.14,0,0,0-19.29,5.89l-.13-.15a139.19,139.19,0,0,1,14.8-8.26c-5.81,1.43-11.68,3.86-17.11,5.93l-.13-.1,13.42-8-15.48,5.81-.06-.13,12-7.32-13.79,5.32-.13-.15,11.11-6.94-12.48,4.9,9.37-6L237.17,620l-.13-.12,8.94-6-10.24,4.41-.13-.18,7.12-4.93-8.18,3.65-.06-.15,6.67-4.59-7.61,3.4-.06-.06,6-4.16-6.87,3.06v-.09l5.25-3.62-6,2.68-.06-.16,4.87-3.4-5.5,2.53-.06-.1,4.24-2.94-4.74,2.12,3.68-2.49-4.18,1.85-.13-.21,3.12-2.16-3.49,1.58-.25-.33,2.57-1.73L229,609.12V609l2.44-1.64-2.82,1.22-.18-.46,1.75-1.24-2.06.88-.18-.45,1.37-1-1.56.7-.31-.42,1-.61-1.07.42-.25-.42.69-.42-.75.32c-.56-.94-.87-1.42-.87-1.42,22.67,8.27,50.26,20.66,67.05,42.37a33.93,33.93,0,0,1-18,1.83l14.48-2.74Z"/><path class="cls-4" d="M289.74,685a205,205,0,0,1-21.16-.41l17.42,3c-8,0-15.11,0-22.22-1.1l-.13.05a143.43,143.43,0,0,0,19,4.06,104.84,104.84,0,0,1-23.16-2.19,118.23,118.23,0,0,0,19.11,5.07c-7.49,0-16-1.73-22.79-3.11l-.06.05a158.78,158.78,0,0,0,18.85,5.87,171.44,171.44,0,0,1-21.91-3.73l-.07.07a146.77,146.77,0,0,0,17.61,6c-7.49-1-13.91-1.93-20.66-4v0a112.82,112.82,0,0,0,16.54,6.25,106.08,106.08,0,0,1-19.29-4.38l-.13.07a149.27,149.27,0,0,0,14.8,6.21,168.64,168.64,0,0,1-17.11-4.47l-.13.11,13.42,6-15.48-4.32-.06,0,12,5.55-13.79-4-.13.09,11.11,5.2-12.48-3.65,9.37,4.55-11.06-3.45-.13.16,8.94,4.43-10.24-3.29-.13.14,7.12,3.7-8.18-2.74-.06.09,6.67,3.47-7.61-2.55-.06,0,6,3.1-6.87-2.28v.07l5.25,2.72-6-2-.06.12,4.87,2.51-5.5-1.85-.06.07,4.24,2.17L230.61,711l3.68,1.95-4.18-1.43-.13.14,3.12,1.63-3.49-1.17-.25.23,2.57,1.28L229,712.7v.08l2.44,1.24-2.82-.89-.18.34,1.75.94-2.06-.68-.18.32,1.37.75-1.56-.55-.31.34,1,.48-1.07-.32-.25.28.69.36-.75-.27c-.56.71-.87,1.07-.87,1.07,22.67-6.21,50.26-15.52,67.05-31.83a45.36,45.36,0,0,0-18-1.32l14.48,2Z"/><path class="cls-3" d="M237.37,665.93a27.94,27.94,0,1,0,28-28A27.95,27.95,0,0,0,237.37,665.93Z"/><path class="cls-2" d="M238.51,661c2.79-6.88,11.2-11.88,21.24-11.88,12.08,0,21.88,7.21,22.25,16.25a3.37,3.37,0,0,1,.07.55c0,9.25-9.92,16.72-22.32,16.72S237.37,675.2,237.37,666a11.61,11.61,0,0,1,1.14-4.91Z"/><path class="cls-4" d="M266.47,649.61c8.69,2,15.19,8.11,15.46,15.61,0,.22.14.35.14.59,0,7.72-6.58,14.16-15.46,16.13-3.38,1.2-6.7.91-6.89-.8s7.95-5.62,8-15.49-7.36-12.72-7.83-14.68S263,648.78,266.47,649.61Z"/><path class="cls-2" d="M1205.64,725.71c-42.07-16.74-63.87-37.46-63.12-60-.75-22.13,21-42.91,63.12-59.61l4.26-1.69,1.23,4.59c5.87,21,10.13,38.6,9.54,57,.59,18.14-3.67,35.75-9.54,56.72l-1.23,4.59-4.26-1.67Z"/><path class="cls-3" d="M1211.24,605.87c7.11,24.12,11.5,41.44,10.82,60.07.68,18.63-3.71,35.91-10.82,60-47.31-17.51-70.87-38.84-70.14-60C1140.37,644.7,1163.93,623.44,1211.24,605.87Zm6.44-12.6-9.84,3.68c-63.95,23.69-76.94,50.51-76.5,69-.44,18.4,12.55,45.29,76.5,69l9.84,3.61,3-9.95c6.74-22.94,11.87-42.23,11.2-62.65.68-20.42-4.46-39.71-11.2-62.74l-3-9.92Z"/><path class="cls-2" d="M1197.23,661c-2.8-6.88-11.2-11.88-21.3-11.88-12,0-21.81,7.21-22.19,16.25a1.57,1.57,0,0,0-.06.55c0,9.25,9.92,16.72,22.26,16.72s22.44-7.47,22.44-16.72a11.47,11.47,0,0,0-1.15-4.91Z"/><path class="cls-4" d="M1146,645.91a155.15,155.15,0,0,1,21.16.51l-17.41-4c8,0,15.1.09,22.21,1.48l.13,0c-6.3-2.65-12.23-4-19-5.38a76.37,76.37,0,0,1,23.16,2.92c-6-2.74-12.81-5.49-19.11-6.82,7.49,0,16,2.34,22.79,4.13l.06-.05a138,138,0,0,0-18.85-7.82,133.42,133.42,0,0,1,21.92,5l.06-.06a129.48,129.48,0,0,0-17.61-8c7.49,1.37,13.92,2.65,20.66,5.44v-.09a101.65,101.65,0,0,0-16.54-8.33,82.36,82.36,0,0,1,19.3,5.89l.13-.15a140.32,140.32,0,0,0-14.81-8.26c5.81,1.43,11.68,3.86,17.11,5.93l.13-.1-13.42-8,15.49,5.81.06-.13-12.05-7.32,13.79,5.32.13-.15-11.11-6.94,12.49,4.9-9.37-6,11,4.53.13-.12-8.93-6,10.24,4.41.13-.18L1193,613.2l8.18,3.65.06-.15-6.68-4.59,7.61,3.4.06-.06-6-4.16,6.87,3.06v-.09l-5.24-3.62,6,2.68.06-.16-4.86-3.4,5.49,2.53.06-.1-4.24-2.94,4.74,2.12-3.68-2.49,4.18,1.85.13-.21-3.12-2.16,3.49,1.58.25-.33-2.56-1.73,2.93,1.24V609l-2.43-1.64,2.81,1.22.18-.46-1.75-1.24,2.07.88.18-.45-1.37-1,1.56.7.3-.42-1-.61,1.06.42.25-.42-.69-.42.75.32c.56-.94.87-1.42.87-1.42-22.66,8.27-50.25,20.66-67,42.37a34,34,0,0,0,18,1.83L1146,645.91Z"/><path class="cls-4" d="M1146,685a204.92,204.92,0,0,0,21.16-.41l-17.41,3c8,0,15.1,0,22.21-1.1l.13.05a143.43,143.43,0,0,1-19,4.06,104.84,104.84,0,0,0,23.16-2.19,118.23,118.23,0,0,1-19.11,5.07c7.49,0,16-1.73,22.79-3.11l.06.05a158.2,158.2,0,0,1-18.85,5.87,171.61,171.61,0,0,0,21.92-3.73l.06.07a146.17,146.17,0,0,1-17.61,6c7.49-1,13.92-1.93,20.66-4v0a112.82,112.82,0,0,1-16.54,6.25,106.37,106.37,0,0,0,19.3-4.38l.13.07a150.46,150.46,0,0,1-14.81,6.21,168.64,168.64,0,0,0,17.11-4.47l.13.11-13.42,6,15.49-4.32.06,0-12.05,5.55,13.79-4,.13.09L1184.4,707l12.49-3.65-9.37,4.55,11-3.45.13.16-8.93,4.43,10.24-3.29.13.14-7.12,3.7,8.18-2.74.06.09-6.68,3.47,7.61-2.55.06,0-6,3.1,6.87-2.28v.07l-5.24,2.72,6-2,.06.12-4.86,2.51,5.49-1.85.06.07-4.24,2.17,4.74-1.58-3.68,1.95,4.18-1.43.13.14-3.12,1.63,3.49-1.17.25.23-2.56,1.28,2.93-.89v.08l-2.43,1.24,2.81-.89.18.34-1.75.94,2.07-.68.18.32-1.37.75,1.56-.55.3.34-1,.48,1.06-.32.25.28-.69.36.75-.27c.56.71.87,1.07.87,1.07-22.66-6.21-50.25-15.52-67-31.83a45.43,45.43,0,0,1,18-1.32l-14.49,2Z"/><path class="cls-3" d="M1198.38,665.93a27.94,27.94,0,1,1-28-28A28,28,0,0,1,1198.38,665.93Z"/><path class="cls-2" d="M1197.23,661c-2.79-6.88-11.19-11.88-21.23-11.88-12.08,0-21.88,7.21-22.26,16.25a3.91,3.91,0,0,0-.06.55c0,9.25,9.92,16.72,22.32,16.72s22.38-7.47,22.38-16.72a11.47,11.47,0,0,0-1.15-4.91Z"/><path class="cls-4" d="M1169.27,649.61c-8.69,2-15.19,8.11-15.45,15.61,0,.22-.14.35-.14.59,0,7.72,6.57,14.16,15.45,16.13,3.38,1.2,6.7.91,6.89-.8s-8-5.62-8-15.49,7.36-12.72,7.82-14.68S1172.72,648.78,1169.27,649.61Z"/><path class="cls-3" d="M618.24,999.47c-30.9,0-71.64-13.11-75.29-56.85,0,0,42.42-7.55,63.56-24.53,23.93-19.21,20.09-48.21,20.09-48.21s-10.22-15.09-25-20c-22.24-7.33-67.13,0-67.13,0-28.44-16.21-98.2-73.82-120.85-136.74-56.25-120.34,4-237,30.08-271.07l90.77,98.32c8.47-13.9,21.61-23.28,34.16-29.2-9.95-59.41,32.43-91.33,71.3-93.68-2.15-36.58,17.64-62.06,61.35-70a18.87,18.87,0,1,1,36-.17c44.16,7.6,64.22,33.07,62.22,69.81,38.88,2.19,81.38,33.92,71.7,93.38,12.57,5.87,25.75,15.2,34.27,29.06L995.89,441c16.42,15.08,92.76,147.67,32.49,268.2-32.76,65.53-77.16,113.17-131.84,138.69-10.91-4.16-40.09-21.87-81.1,18.74.91,72.39,95.69,76,95.69,76s-21.87,56.85-84.65,56.85c-61.16,0-104.91-56.85-104.91-56.85S688.77,999.47,618.24,999.47ZM838.39,676.9q7,3.93,14.3,7.2c25.88-18.23,11-47.85-5.49-70.92-12.2,3.19-22.43,4.45-36.25-1.56-2.1.86-4.49,8.25-4.49,8.25l19.42,0C829.12,639.85,833.78,658.21,838.39,676.9ZM720.05,554c5.2-7.67,19-18.31,24.92-18.91a26.67,26.67,0,0,0-13-11.76l20-19.84-5-15.55-54.63.11-5,15.58,20.09,19.76a26.52,26.52,0,0,0-12.95,11.8C700.35,535.81,714.8,546.37,720.05,554ZM601.63,677.38c4.52-18.7,9.11-37.08,12.27-57.11l19.42,0s-2.42-7.38-4.53-8.23c-13.8,6.06-24,4.84-36.25,1.72-16.34,23.12-31.13,52.81-5.2,70.92C592.25,682.45,597,680,601.63,677.38Z"/><path class="cls-4" d="M996.18,481.36s7.4,14.32,14.62,38.88L936.71,598l79.71-55.76a341.21,341.21,0,0,1,6.08,37.23l-85.68,63.64,87.34-39.64c.34,9.44.27,19.28-.3,29.43a92.86,92.86,0,0,1-1.69,13l-85.29,28.51,77.83-3.54A233.22,233.22,0,0,1,995,709.71l-74.2-5.14,63.64,20.8a286.5,286.5,0,0,1-21.22,26l-58.13-13.05,43.24,28a248.4,248.4,0,0,1-22.37,18.53l-59.41-27.66,49.06,52a181.08,181.08,0,0,1-30.37,14.33c-34.74-12.45-63.32-6.13-88.14,29-9.42-7.24-16.36-16.75-21.84-25.61,14.15-7,28.13-18.09,41.29-42.51,12.8-23.75,10.94-50.39,6.1-73.63L821,703.46a118.7,118.7,0,0,0,43.19,21.13c56.59-31.28,52.1-100.2,32.75-134Z"/><path class="cls-4" d="M694.5,455.81c-44.89-81.2,14.74-76,27-91.94,10.57,17.63,67.54,3.38,29.14,91.82Z"/><path class="cls-4" d="M445,487.35l99.74,108.79C525.54,630,521.33,699,580.42,725.18a118.85,118.85,0,0,0,43.08-21.31l-1.63,7.37c-4.76,23.24-6.49,49.88,6.39,73.6,13.28,24.36,27.32,35.38,41.47,42.32C664.29,836,657.4,845.59,648,852.87c-25-35-53.56-41.26-88.26-28.65A181.21,181.21,0,0,1,529.32,810l48.83-52.25L511,798.11a252,252,0,0,1-22.46-18.44L545,731.48l-65.9,25.7a291.83,291.83,0,0,1-21.34-25.88l63.57-21.08-74.2,5.46A234.57,234.57,0,0,1,427.27,677l77.85,3.2L419.71,652A95.51,95.51,0,0,1,418,639c-.6-10.16-.71-20-.42-29.44l87.51,39.29-85.93-63.28A341.5,341.5,0,0,1,425,548.33L505,603.76,430.57,526.3C437.68,501.7,445,487.35,445,487.35Z"/><path class="cls-4" d="M761.21,832.89l25.95,34.71s10.15,88.94,87.25,86.28c-2.45,13.8-43.48,26.41-75.77,12.69-48.07-20.41-76-71.27-76-71.27s-27.74,51-75.73,71.59c-32.23,13.85-73.31,1.4-75.82-12.37,77.12,2.34,86.89-86.64,86.89-86.64l25.81-34.82c4.42,1.68,8.86,3.3,13.26,5.3a64.34,64.34,0,0,1,18.88,12.52l6.63,14.35,6.6-14.37A63.81,63.81,0,0,1,748,838.27C752.37,836.23,756.79,834.59,761.21,832.89Z"/><path class="cls-4" d="M666.93,644l9.15-43c-9.34-30.35-36.16-43.79-61.05-42.5-13.75,16.71-32.52-7.31-56.58,3.27.16-16.41,14.68-27.55,32.73-32.09,1.32-9.15,10.39-13.7,19-16.26l69.45-.15Q661.39,519.49,661,528.3c47.29,11.16,61,57.5,61,57.5s13.5-46.38,60.75-57.76q-.43-8.77-18.7-15l69.45-.16c8.61,2.52,17.71,7.05,19.07,16.19,18.06,4.46,32.64,15.56,32.86,32-24.1-10.5-42.76,13.61-56.6-3-24.88-1.19-51.67,12.38-60.86,42.74l9.32,43Z"/><path class="cls-4" d="M797.9,653.31c5.06,31.3,32.53,85.13,10.23,126.52C780.45,831.23,751,816.3,722.52,844c-28.58-27.51-58-12.48-85.87-63.73-22.48-41.3,4.78-95.26,9.69-126.6Z"/><path class="cls-4" d="M651.6,499.5l-39.79.08c-27.51-62.59,13-52.65,20.39-65.2C640.92,445.64,683.2,441.8,651.6,499.5Z"/><path class="cls-4" d="M792,499.21c-31.85-57.58,10.45-53.91,19.14-65.21,7.49,12.51,47.89,2.4,20.65,65.11Z"/><path class="cls-3" d="M663.77,762.65v14.14h28.5V765Z"/><path class="cls-3" d="M692.27,762.65a2.63,2.63,0,0,0-2.85,2.35v9.43h-22.8V762.65a2.9,2.9,0,0,0-5.7,0v14.14a2.63,2.63,0,0,0,2.85,2.35h28.5a2.64,2.64,0,0,0,2.85-2.35V765A2.64,2.64,0,0,0,692.27,762.65Z"/><path class="cls-3" d="M791.27,736.72s-5.44-11-12.2-13.87c-7.85-3.4-25.48-5-55.46-5s-47.6,1.58-55.46,5C661.4,725.77,656,736.72,656,736.72c.18,8.85-.58,17.91,2.2,26.53a2.81,2.81,0,0,0,2.76,1.75h25l10.8,4.47a3.42,3.42,0,0,0,1.27.25h51.3a3.43,3.43,0,0,0,1.28-.25l10.8-4.47h25a2.8,2.8,0,0,0,2.75-1.75C791.84,754.63,791.08,745.57,791.27,736.72Zm-48.37,18a3.12,3.12,0,0,1-2.19.85h-34.2a3.09,3.09,0,0,1-2.18-.85l-14.25-14.14a2,2,0,0,1-.39-2.51,2.92,2.92,0,0,1,2.58-1.36H755a2.92,2.92,0,0,1,2.58,1.36,2,2,0,0,1-.39,2.51Z"/><path class="cls-3" d="M755,765v11.79h28.5V762.65Z"/><path class="cls-3" d="M783.46,760.29a2.64,2.64,0,0,0-2.85,2.36v11.78h-22.8V765a2.9,2.9,0,0,0-5.7,0v11.79a2.64,2.64,0,0,0,2.85,2.35h28.5a2.64,2.64,0,0,0,2.85-2.35V762.65A2.64,2.64,0,0,0,783.46,760.29Z"/><path class="cls-3" d="M749.26,680.17H698c-4.72,0-8.55,3.17-8.55,7.07s3.83,7.06,8.55,7.06h51.29c4.72,0,8.55-3.17,8.55-7.06S754,680.17,749.26,680.17Zm-31.35,9.42a2.9,2.9,0,0,1-5.7,0v-4.71a2.9,2.9,0,0,1,5.7,0Zm17.1,0a2.9,2.9,0,0,1-5.7,0v-4.71a2.9,2.9,0,0,1,5.7,0Z"/><path class="cls-3" d="M780.37,724c-3.24-6.16-14.1-26.48-17.87-29.13s-14-4.57-27.53-5.1a2.9,2.9,0,0,1-5.65-.13c-1,0-1.87,0-2.86,0h-5.7c-1,0-1.9,0-2.86,0a2.89,2.89,0,0,1-5.64.13c-13.57.54-23.63,2.35-27.54,5.1s-14.63,23-17.86,29.13a2.23,2.23,0,0,0,1.47,3.11,3.12,3.12,0,0,0,3.75-1.22c6.44-12.26,14.31-25.87,16.33-27.43,2.2-1.54,11.48-4.15,32.35-4.15h5.7c20.88,0,30.16,2.61,32.34,4.14s9.91,15.18,16.35,27.43a2.91,2.91,0,0,0,2.61,1.42,3.22,3.22,0,0,0,1.14-.2A2.21,2.21,0,0,0,780.37,724Z"/></g></g></svg>