<svg width="51" height="15" viewBox="0 0 51 15" fill="none" xmlns="http://www.w3.org/2000/svg">
<path d="M15.0202 0.258324L10.7355 9.84073L9.00151 1.69307C8.93042 1.2927 8.69987 0.928023 8.35148 0.664906C8.00309 0.401788 7.55983 0.257579 7.10179 0.258324H0.0966632L0 0.665009C1.43811 0.942531 3.07153 1.39634 4.06182 1.86412C4.66746 2.15561 4.84105 2.40869 5.04819 3.10162L8.3229 14.3387H12.6727L19.3445 0.258324H15.0202ZM21.112 0.258324L17.7051 14.3387H21.8222L25.2271 0.258324H21.112ZM44.7156 4.06336L45.9644 9.34852H42.5476L44.7156 4.06336ZM44.1119 0.258324C43.7365 0.255518 43.3689 0.352517 43.0565 0.536751C42.7442 0.720986 42.5016 0.983969 42.3602 1.29161L36.1817 14.3387H40.5038L41.362 12.2355H46.6429L47.148 14.3387H50.9553L47.6254 0.258324H44.1119ZM26.3575 4.65505C26.3299 6.68325 28.4013 7.81254 29.9616 8.495C31.5654 9.19317 32.1021 9.62779 32.0962 10.2404C32.0843 11.1848 30.8158 11.6019 29.6322 11.6175C27.5629 11.6455 26.3614 11.1237 25.4046 10.7274L24.6589 13.8098C25.6197 14.2009 27.3952 14.5412 29.2376 14.5587C33.5638 14.5587 36.3907 12.6684 36.4045 9.74124C36.4223 6.02522 30.5969 5.821 30.6364 4.15587C30.6501 3.65144 31.1926 3.1086 32.3822 2.97595C33.7743 2.85929 35.1761 3.07698 36.44 3.60606L37.164 0.619627C35.9297 0.211491 34.623 0.00165394 33.3054 0C29.2357 0 26.3733 1.91998 26.3496 4.65331" fill="url(#paint0_linear)"/>
<defs>
<linearGradient id="paint0_linear" x1="0" y1="7.28018" x2="50.9494" y2="7.28018" gradientUnits="userSpaceOnUse">
<stop stop-color="#241F5D"/>
<stop offset="1" stop-color="#034EA1"/>
</linearGradient>
</defs>
</svg>
