<?xml version="1.0" encoding="UTF-8"?><!DOCTYPE svg PUBLIC "-//W3C//DTD SVG 1.1//EN" "http://www.w3.org/Graphics/SVG/1.1/DTD/svg11.dtd"><svg xmlns="http://www.w3.org/2000/svg" xmlns:xlink="http://www.w3.org/1999/xlink"><defs><style>.cls-1{fill:#fff}</style><style>.cls-1{fill:#959baa}</style><style>.cls-1{fill:#fff}</style><style>.cls-1{fill:#265dce}.cls-2{fill:none;stroke:#265dce;stroke-width:.7px}</style><style>.cls-1{fill:#959baa}</style><style>.cls-1{fill:#265dce}</style><style>.cls-2{fill:#265dce}</style><style>.cls-1{fill:#c8cbd3}</style><style>.cls-1{fill:#fff}</style><style>.cls-1{fill:#fff}</style><style>.cls-2{fill:#265dce}</style><style>.cls-1{fill:#265dce}</style><style>.cls-1{fill:#265dce}</style><style>.cls-2{fill:#959baa}</style><style>.cls-1{fill:#f50000}</style><style>.cls-1{fill:#959baa}</style><style>.cls-1{fill:#959baa}</style><style>.cls-1{fill:#959baa}</style><style>.cls-1{fill:#fff}</style><style>.cls-1{fill:#fff}</style><style>.cls-1{fill:#265dce}</style><style>.cls-1{fill:#959baa}</style><style>.cls-1{fill:#959baa}</style></defs><symbol id="accident" viewBox="0 0 32 25"><g><path d="M6.54 13.05a4.65 4.65 0 00-.12 1.66l-1.76 1.42a.46.46 0 01-.25.1.43.43 0 01-.27-.06A.49.49 0 014 16a.42.42 0 010-.27L4.7 12a.54.54 0 000-.18.38.38 0 00-.08-.17.41.41 0 00-.14-.12.48.48 0 00-.18-.06l-3.89-.4A.39.39 0 01.16 11a.51.51 0 01-.16-.26.46.46 0 010-.26.39.39 0 01.17-.21l3.29-2.12A.57.57 0 003.6 8a.43.43 0 00.06-.18.41.41 0 000-.19.42.42 0 00-.09-.16l-2.49-3A.43.43 0 011 4.29.46.46 0 011 4a.46.46 0 01.21-.18.42.42 0 01.27 0l3.83.75a.31.31 0 00.19 0 .36.36 0 00.2-.07.44.44 0 00.13-.14.49.49 0 00.06-.17L6.26.4a.47.47 0 01.11-.25.42.42 0 01.24-.15.5.5 0 01.27 0 .43.43 0 01.21.2l2.17 3.18a.57.57 0 00.13.14.64.64 0 00.18.06.45.45 0 00.2 0 .56.56 0 00.17-.09l3-2.43a.39.39 0 01.25-.1.43.43 0 01.27.06.39.39 0 01.18.2.39.39 0 010 .26l-.56 2.75a5.72 5.72 0 00-.4.46L11.1 6.78l-.55.7A4.8 4.8 0 008.4 8.69a4.7 4.7 0 00-1.25 2.11zm24.72 6.47a3.07 3.07 0 01-.87 1.48 4.59 4.59 0 01-.44.33l-.7 2.55a1.76 1.76 0 01-.29.56 1.62 1.62 0 01-1.67.55l-1.55-.41a1.53 1.53 0 01-.56-.27 1.39 1.39 0 01-.41-.46 1.44 1.44 0 01-.2-.57 1.56 1.56 0 010-.61l.43-1.55-12.33-3.23-.42 1.51a1.42 1.42 0 01-.25.6 1.64 1.64 0 01-.47.4 1.72 1.72 0 01-.59.2 1.91 1.91 0 01-.63 0l-1.56-.5a1.57 1.57 0 01-1.18-1.29 1.84 1.84 0 010-.62l.71-2.55a4.71 4.71 0 01-.21-.52 3 3 0 010-1.66l.62-2.29a3.05 3.05 0 01.68-1.23 3.25 3.25 0 011.16-.81 4.22 4.22 0 01.93-.23L14 5.62A5.5 5.5 0 0115.89 4a5.57 5.57 0 012.37-.62 5.91 5.91 0 011.67.19l6.12 1.61a5.75 5.75 0 011.55.66 6.62 6.62 0 011.73 1.69 5.48 5.48 0 01.84 2.27l.5 4.08a3.68 3.68 0 011.13 1.46 3 3 0 01.09 1.88zm-20.44-7a1.42 1.42 0 00-.07.61 1.52 1.52 0 00.19.59 1.45 1.45 0 00.43.46 1.51 1.51 0 00.58.25c.92.24 2.28.76 2.52-.15a3 3 0 00-1.7-2.86 1.5 1.5 0 00-.63-.07 1.56 1.56 0 00-.6.19 1.71 1.71 0 00-.47.42 1.46 1.46 0 00-.25.57zM27 10.21a2.69 2.69 0 00-.19-.67 2.43 2.43 0 00-.64-.82 2.38 2.38 0 00-.93-.49l-6.14-1.6a2.57 2.57 0 00-.62-.08 2.77 2.77 0 00-1.06.27 2.7 2.7 0 00-.86.67l-1.62 2.09 8.6 2.26 3.77 1zm-1.71 6.93c-.24.9 1.19 1.11 2.12 1.35a1.61 1.61 0 00.65.1 1.68 1.68 0 00.63-.17 1.6 1.6 0 00.81-1 1.54 1.54 0 000-.64 1.69 1.69 0 00-.24-.61 1.52 1.52 0 00-.46-.45 1.62 1.62 0 00-.61-.24 3.06 3.06 0 00-2.93 1.65z"/></g></symbol><symbol id="advrtsing" viewBox="0 0 34 16"><g id="&#x421;&#x43B;&#x43E;&#x439;_2"><g id="&#x421;&#x43B;&#x43E;&#x439;_1-2"><path class="cls-1" d="M32.11 16H1.89A2 2 0 010 14V2a2 2 0 011.89-2h30.22A2 2 0 0134 2v12a2 2 0 01-1.89 2zM2 14h30V2H2z"/><path class="cls-1" d="M7.12 8.35L5 7.75l.42-1.27 2.08.88L7.34 5h1.39l-.17 2.41 2-.86.44 1.28-2.15.6 1.43 1.78-1.13.79L8 9l-1.2 1.9-1.12-.75zM16.12 8.35L14 7.75l.42-1.27 2.08.88L16.34 5h1.39l-.17 2.41 2-.86.44 1.28-2.15.6 1.43 1.78-1.13.79L17 9l-1.2 1.9-1.12-.75zM25.12 8.35L23 7.75l.42-1.27 2.08.88L25.34 5h1.39l-.17 2.41 2-.86.44 1.28-2.15.6 1.43 1.78-1.13.79L26 9l-1.2 1.9-1.12-.75z"/></g></g></symbol><symbol id="answer" viewBox="0 0 18 18"><g id="&#x421;&#x43B;&#x43E;&#x439;_2"><g id="&#x421;&#x43B;&#x43E;&#x439;_1-2"><path class="cls-1" d="M9 14.19a.88.88 0 10-.88-.88.88.88 0 00.88.88z"/><path class="cls-1" d="M9 0a9 9 0 109 9 9 9 0 00-9-9zm0 16.59A7.59 7.59 0 1116.59 9 7.58 7.58 0 019 16.59z"/><path class="cls-1" d="M9 4.52a2.81 2.81 0 00-2.81 2.81.7.7 0 001.4 0A1.41 1.41 0 119 8.74a.7.7 0 00-.7.7v1.76a.7.7 0 101.4 0v-1.15A2.81 2.81 0 009 4.52z"/></g></g></symbol><symbol id="arrow-right" viewBox="0 0 20.5 7.36"><g><path d="M20.35 4a.5.5 0 000-.71L17.17.15a.5.5 0 00-.71 0 .5.5 0 000 .7l2.83 2.83-2.83 2.83a.5.5 0 10.71.71zM0 4.18h20v-1H0z"/></g></symbol><symbol id="arrow-up" viewBox="0 0 14.73 18"><g><path d="M8.07.29a1 1 0 00-1.41 0L.29 6.66a1 1 0 000 1.41 1 1 0 001.42 0l5.65-5.66L13 8.07a1 1 0 001.42 0 1 1 0 000-1.41zM8.36 18V1h-2v17z"/></g></symbol><symbol id="back-arrow" viewBox="0 0 447.243 447.243"><path d="M420.361 192.229a31.967 31.967 0 00-5.535-.41H99.305l6.88-3.2a63.998 63.998 0 0018.08-12.8l88.48-88.48c11.653-11.124 13.611-29.019 4.64-42.4-10.441-14.259-30.464-17.355-44.724-6.914a32.018 32.018 0 00-3.276 2.754l-160 160c-12.504 12.49-12.515 32.751-.025 45.255l.025.025 160 160c12.514 12.479 32.775 12.451 45.255-.063a32.084 32.084 0 002.745-3.137c8.971-13.381 7.013-31.276-4.64-42.4l-88.32-88.64a64.002 64.002 0 00-16-11.68l-9.6-4.32h314.24c16.347.607 30.689-10.812 33.76-26.88 2.829-17.445-9.019-33.88-26.464-36.71z"/></symbol><symbol id="baloon" viewBox="0 0 14 18"><g><path d="M7 0a7 7 0 00-7 7c0 3.87 7 11 7 11s7-7.13 7-11a7 7 0 00-7-7zm0 15s-5-5-5-8a5 5 0 0110 0c0 3-5 8-5 8zm2-7.78a2 2 0 11-2-2 2 2 0 012 2z"/></g></symbol><symbol id="big-search" viewBox="0 0 25 25"><g><path d="M9 20.74h.16a1.16 1.16 0 00.16-2.31 8.1 8.1 0 114.21-.54A1.16 1.16 0 0014.4 20a10.91 10.91 0 002.52-1.48l6.1 6.1a1.16 1.16 0 00.82.34 1.14 1.14 0 00.82-.34 1.16 1.16 0 000-1.64l-6.1-6.1A10.42 10.42 0 109 20.74z" opacity=".99"/></g></symbol><symbol id="bottle" viewBox="0 0 20 28"><g id="&#x421;&#x43B;&#x43E;&#x439;_2"><g id="&#x421;&#x43B;&#x43E;&#x439;_1-2"><path class="cls-1" d="M19.18 12.2a.71.71 0 00-.69-.57h-6.38a.71.71 0 00-.69.57l-.75 4.28a4.63 4.63 0 004.1 5.52v4.7a.38.38 0 01-.33.36l-2 .24a.37.37 0 00-.33.35.35.35 0 00.36.36h5.66a.35.35 0 00.36-.36.37.37 0 00-.33-.35l-2-.24a.38.38 0 01-.33-.36v-4.77a4.58 4.58 0 003.39-2.05 4.71 4.71 0 00.69-3.43zm-2.4 3.15c-2.16-.17-2.73 1.46-5 .78l.6-3.45h5.81l.6 3.39a3.72 3.72 0 00-2.01-.72zM5.93.54A.54.54 0 005.39 0H3.21a.54.54 0 00-.54.54v1.87H5.9V.54zM5.93 5.3V3.54H2.7V5.3a4 4 0 01-1.35 3 4.06 4.06 0 00-1.35 3v15.78a.93.93 0 00.93.92h6.8a.93.93 0 00.93-.92V11.37a4.06 4.06 0 00-1.35-3A4.05 4.05 0 015.93 5.3zM7 23.42a.63.63 0 01-.63.62h-4a.63.63 0 01-.63-.62v-8.36a.62.62 0 01.63-.63h4a.63.63 0 01.63.63z"/></g></g></symbol><symbol id="bread-crumbs-arrow" viewBox="0 0 5.21 9"><g><path d="M.5 9a.47.47 0 01-.35-.15.48.48 0 010-.7L3.79 4.5.15.85a.48.48 0 010-.7.48.48 0 01.7 0L5.21 4.5.85 8.85A.47.47 0 01.5 9z"/></g></symbol><symbol id="calc" viewBox="0 0 16 16"><g><path d="M14 16H2a2 2 0 01-2-2V2a2 2 0 012-2h12a2 2 0 012 2v12a2 2 0 01-2 2zm0-14H2v12h12zM5 4h6a1 1 0 010 2H5a1 1 0 010-2zm0 4a1 1 0 11-1 1 1 1 0 011-1zm0 3a1 1 0 11-1 1 1 1 0 011-1zm3-3a1 1 0 11-1 1 1 1 0 011-1zm0 3a1 1 0 11-1 1 1 1 0 011-1zm3-3a1 1 0 11-1 1 1 1 0 011-1zm0 3a1 1 0 11-1 1 1 1 0 011-1z"/></g></symbol><symbol id="calendar" viewBox="0 0 16 16"><g><path d="M14 1h-2a1 1 0 00-2 0H6a1 1 0 00-2 0H2a2 2 0 00-2 2v11a2 2 0 002 2h12a2 2 0 002-2V3a2 2 0 00-2-2zM2 3h2a1 1 0 002 0h4a1 1 0 002 0h2v2H2zm0 11V7h12v7z"/></g></symbol><symbol id="camera" viewBox="0 0 16.7 12.45"><g id="&#x421;&#x43B;&#x43E;&#x439;_2"><g id="&#x421;&#x43B;&#x43E;&#x439;_1-2"><path class="cls-1" d="M13.32 6.82a.63.63 0 10-.63-.63.63.63 0 00.63.63z"/><path class="cls-1" d="M15.72 7.1a.63.63 0 00.63-.63V2.85a2.5 2.5 0 00-2.5-2.5h-11a2.5 2.5 0 00-2.5 2.5V9.6a2.5 2.5 0 002.5 2.5h11a2.5 2.5 0 002.5-2.5.63.63 0 10-1.25 0 1.25 1.25 0 01-1.25 1.25h-11A1.25 1.25 0 011.6 9.6V2.85A1.25 1.25 0 012.85 1.6h11a1.25 1.25 0 011.25 1.25v3.62a.63.63 0 00.62.63z"/><path class="cls-1" d="M5.19 6.22A3.28 3.28 0 008.35 9.6a3.28 3.28 0 003.16-3.38 3.27 3.27 0 00-3.16-3.37 3.27 3.27 0 00-3.16 3.37zm5.07 0a2 2 0 01-1.91 2.13 2 2 0 01-1.91-2.13A2 2 0 018.35 4.1a2 2 0 011.91 2.12zM3.38 6.82a.63.63 0 10-.62-.63.63.63 0 00.62.63z"/><path class="cls-2" d="M13.32 6.82a.63.63 0 10-.63-.63.63.63 0 00.63.63z"/><path class="cls-2" d="M15.72 7.1a.63.63 0 00.63-.63V2.85a2.5 2.5 0 00-2.5-2.5h-11a2.5 2.5 0 00-2.5 2.5V9.6a2.5 2.5 0 002.5 2.5h11a2.5 2.5 0 002.5-2.5.63.63 0 10-1.25 0 1.25 1.25 0 01-1.25 1.25h-11A1.25 1.25 0 011.6 9.6V2.85A1.25 1.25 0 012.85 1.6h11a1.25 1.25 0 011.25 1.25v3.62a.63.63 0 00.62.63z"/><path class="cls-2" d="M5.19 6.22A3.28 3.28 0 008.35 9.6a3.28 3.28 0 003.16-3.38 3.27 3.27 0 00-3.16-3.37 3.27 3.27 0 00-3.16 3.37zm5.07 0a2 2 0 01-1.91 2.13 2 2 0 01-1.91-2.13A2 2 0 018.35 4.1a2 2 0 011.91 2.12zM3.38 6.82a.63.63 0 10-.62-.63.63.63 0 00.62.63z"/></g></g></symbol><symbol id="car-policy" viewBox="0 0 18 14"><g><path d="M15.75 3.5h-2.17L12 1a2.18 2.18 0 00-1.86-1H2.25A2.3 2.3 0 000 2.33v7a2.35 2.35 0 001.25 2.09A3.4 3.4 0 004.5 14a3.39 3.39 0 003.17-2.33h2.66a3.33 3.33 0 006.42-.25A2.35 2.35 0 0018 9.33v-3.5a2.3 2.3 0 00-2.25-2.33zm-1.12 2.33h1.12V7.9A3.31 3.31 0 0013.5 7a3.39 3.39 0 00-3.17 2.33H7.67A3.39 3.39 0 004.5 7a3.29 3.29 0 00-2.25.9V5.83h12.38zm-4.5-3.5l.75 1.17h-3V2.33zm-7.88 0h3.38V3.5H2.25zm1.13 8.17A1.15 1.15 0 014.5 9.33a1.17 1.17 0 010 2.34 1.15 1.15 0 01-1.12-1.17zm9 0a1.13 1.13 0 111.12 1.17 1.15 1.15 0 01-1.12-1.17z"/></g></symbol><symbol id="car" viewBox="0 0 24.09 17"><g><path d="M24 5.3a.6.6 0 00-.48-.23h-2.39A7.93 7.93 0 0019 1.48C16-.47 8.14-.5 5.17 1.43A8 8 0 003 5H.62a.6.6 0 00-.48.23.62.62 0 00-.14.49l.35 1.67a.62.62 0 00.61.5h.69a4.15 4.15 0 00-1 2.7 4 4 0 001.28 3.06V16a.93.93 0 00.92.93H5A.92.92 0 006 16v-1l12.12.05v.94A.93.93 0 0019 17h2.17a.92.92 0 00.93-.91v-2.3A4.21 4.21 0 0022.38 8h.74a.61.61 0 00.6-.49l.36-1.67A.62.62 0 0024 5.3zM6.18 3c2.36-1.54 9.4-1.51 11.75 0a7.56 7.56 0 011.58 3H4.58a7.54 7.54 0 011.6-3zm-2.8 7.87a1.82 1.82 0 111.81 1.81 1.81 1.81 0 01-1.81-1.84zm15.49 1.83a1.81 1.81 0 01-1.82-1.81 1.83 1.83 0 011.83-1.81 1.81 1.81 0 110 3.62z"/></g></symbol><symbol id="carfax" viewBox="0 0 16.5 16.5"><g><path d="M13.92 2.61A8 8 0 008.27.25h0a8 8 0 00-8 8 7.9 7.9 0 002.33 5.66 8 8 0 005.65 2.36h0a8 8 0 004.12-1.14.63.63 0 00.22-.86.62.62 0 00-.86-.21 6.67 6.67 0 01-1.6.69v-1.11a2.57 2.57 0 013.5-2.32 5.49 5.49 0 01.51.21 5.09 5.09 0 01-.3.5.62.62 0 101 .7 8 8 0 00-1-10.1zm-10.43.86a6.69 6.69 0 014.76-2h0A6.76 6.76 0 0115 7.44a9.46 9.46 0 01-4.7-1.72 2.65 2.65 0 00-4.1 0 9.42 9.42 0 01-4.65 1.72 6.68 6.68 0 011.94-3.97zm3.62 3.12a.36.36 0 00.07-.1 1.41 1.41 0 012.14 0 .36.36 0 00.07.1 1.37 1.37 0 01.27.82 1.41 1.41 0 01-2.82 0 1.37 1.37 0 01.27-.82zm-4.77 4.92l.52-.21a2.57 2.57 0 013.5 2.32v1.12A6.7 6.7 0 013.47 13a6.79 6.79 0 01-1.13-1.49zm11.76-1.38a3.88 3.88 0 00-1.84-.24 4 4 0 00-1.66.62 3.71 3.71 0 00-1.21 1.28 3.85 3.85 0 00-.5 1.79v1.39h-.63 0-.61v-1.39a3.85 3.85 0 00-.5-1.79 3.71 3.71 0 00-1.25-1.28 4 4 0 00-1.66-.62 3.88 3.88 0 00-1.84.24l-.56.24a6.33 6.33 0 01-.32-1.67A10.44 10.44 0 005.6 7.55a2.65 2.65 0 005.3 0A10.44 10.44 0 0015 8.7a6.18 6.18 0 01-.32 1.66z" stroke-width=".5"/></g></symbol><symbol id="cart" viewBox="0 0 16 12"><g><path d="M14 12H2a2 2 0 01-2-2V2a2 2 0 012-2h12a2 2 0 012 2v8a2 2 0 01-2 2zm0-10H2v2h12zm0 4H2v4h12zM5 7h2a1 1 0 010 2H5a1 1 0 010-2z"/></g></symbol><symbol id="check-discount" viewBox="0 0 16 14"><g><path d="M12 5a2 2 0 00-2-2H9V2a2 2 0 00-2-2H2a2 2 0 00-2 2v1a2 2 0 002 2h1v1a2 2 0 00-2 2v1a2 2 0 001 1.74A2.11 2.11 0 002 11v1a2 2 0 002 2h5a2 2 0 001-.26 4.44 4.44 0 001.5.26 4.5 4.5 0 00.5-9zM2 3V2h5v1H2zm3 2h5v.26A4.28 4.28 0 008.68 6H5zM3 8h4.26A4.16 4.16 0 007 9H3zm1 4v-1h3.26a4.07 4.07 0 00.5 1zm7.5 0a2.73 2.73 0 01-.5 0 2.48 2.48 0 01-1.76-1.39A2.36 2.36 0 019 9.5a2.73 2.73 0 01.05-.5 2.53 2.53 0 01.45-1 2.51 2.51 0 012-1h.23a2.5 2.5 0 01-.23 5z"/></g></symbol><symbol id="check" viewBox="0 0 10 8.51"><g><path d="M4.54 8.51L.3 4.34a1 1 0 011.4-1.43l2.62 2.58L8.2.39A1 1 0 019.61.21a1 1 0 01.19 1.4z"/></g></symbol><symbol id="close" viewBox="0 0 16 16"><g><path d="M9.41 8l6.3-6.29A1 1 0 1014.29.29L8 6.59 1.71.29A1 1 0 00.29 1.71L6.59 8l-6.3 6.29a1 1 0 000 1.42 1 1 0 001.42 0L8 9.41l6.29 6.3a1 1 0 001.42 0 1 1 0 000-1.42z"/></g></symbol><symbol id="crossroad-line" viewBox="0 0 24 24"><g><path d="M22.61 10.88l-2.74-2-.8-.57a.28.28 0 00-.45.23v1.79h-5v-5h1.79a.28.28 0 00.23-.45L12.24.12a.28.28 0 00-.46 0l-.9 1.27-2 2.74-.57.8a.28.28 0 00.23.45h1.79v5h-5V8.56a.28.28 0 00-.45-.23l-.8.57-2.74 2-1.27.9a.28.28 0 000 .46l4.81 3.43a.28.28 0 00.45-.23v-1.81h5v5H8.56a.28.28 0 00-.23.45l.57.8 2 2.74.9 1.27a.28.28 0 00.46 0l3.43-4.81a.28.28 0 00-.23-.45h-1.81v-5h5v1.79a.28.28 0 00.45.23l4.81-3.43a.28.28 0 000-.46z"/></g></symbol><symbol id="crossroads" viewBox="0 0 24 24"><g id="&#x421;&#x43B;&#x43E;&#x439;_2"><g id="&#x421;&#x43B;&#x43E;&#x439;_1-2"><path class="cls-1" d="M15 12a3 3 0 10-3 3 3 3 0 003-3zm-3 1a1 1 0 111-1 1 1 0 01-1 1zM1 11h5.34a1 1 0 001-.67 5 5 0 013-3 1 1 0 00.67-1V1A1 1 0 009 1v4.68A7 7 0 005.68 9H1a1 1 0 000 2zM10.33 16.71a5 5 0 01-3-3 1 1 0 00-1-.67H1a1 1 0 000 2h4.68A7 7 0 009 18.32V23a1 1 0 002 0v-5.34a1 1 0 00-.67-.95zM23 9h-4.68A7 7 0 0015 5.68V1a1 1 0 00-2 0v5.34a1 1 0 00.67 1 5 5 0 013 3 1 1 0 00.95.67H23a1 1 0 000-2zM23 13h-5.34a1 1 0 00-.95.67 5 5 0 01-3 3 1 1 0 00-.67.95V23a1 1 0 002 0v-4.68A7 7 0 0018.32 15H23a1 1 0 000-2z"/></g></g></symbol><symbol id="customs" viewBox="0 0 17.4 17.4"><g id="&#x421;&#x43B;&#x43E;&#x439;_2"><g id="&#x421;&#x43B;&#x43E;&#x439;_1-2"><path class="cls-1" d="M14.87 7.11a.63.63 0 00.47-.2L17 5.25a.66.66 0 000-.94l-1.66-1.66a.67.67 0 00-.47-.19h-4.19v-.27a2 2 0 00-4 0v.27H2.33a.67.67 0 00-.67.66v3.32a.67.67 0 00.67.67h4.36v1.32H2.53a.63.63 0 00-.47.2L.39 10.29a.66.66 0 000 .94l1.67 1.66a.67.67 0 00.47.19h4.16v2.79H5.34a.67.67 0 000 1.33H12a.67.67 0 000-1.33h-1.32v-.79a.67.67 0 10-1.33 0v.79H8v-2.79h7.05a.66.66 0 00.67-.66V9.1a.67.67 0 00-.67-.67h-4.37V7.11zM8 2.19a.67.67 0 011.33 0v.27H8zm-5 1.6h11.6l1 1-1 1H3zm11.41 8H2.8l-1-1 1-1h11.6zM9.35 8.43H8V7.11h1.35z"/><path class="cls-1" d="M12 17.4H5.34a.87.87 0 010-1.73h1.15v-2.39h-4a.86.86 0 01-.57-.28L.25 11.37a.88.88 0 010-1.22l1.67-1.66a.87.87 0 01.61-.26h4v-.92h-4.2a.87.87 0 01-.87-.87V3.12a.87.87 0 01.87-.86h4.16v-.07a2.2 2.2 0 014.39 0v.07h4a.86.86 0 01.61.25l1.67 1.66a.86.86 0 01.25.61.83.83 0 01-.26.61l-1.67 1.66a.83.83 0 01-.61.26h-4v.92h4.19a.87.87 0 01.87.87v3.32a.86.86 0 01-.87.86H8.22v2.39h.93v-.59a.87.87 0 111.73 0v.59H12a.87.87 0 010 1.73zm-6.66-1.33a.47.47 0 000 .93H12a.47.47 0 000-.93h-1.52v-1a.47.47 0 10-.93 0v1H7.82v-3.19h7.25a.47.47 0 00.47-.46V9.1a.47.47 0 00-.47-.47h-4.59V6.91h4.39a.47.47 0 00.33-.14l1.66-1.66a.45.45 0 00.14-.33.47.47 0 00-.14-.33L15.2 2.79a.51.51 0 00-.33-.13h-4.39v-.47a1.8 1.8 0 00-3.59 0v.47H2.33a.47.47 0 00-.47.46v3.32a.47.47 0 00.47.47h4.56v1.72H2.53a.47.47 0 00-.33.14L.54 10.43a.45.45 0 000 .66l1.66 1.66a.51.51 0 00.33.13h4.36v3.19zM14.6 12H2.72l-1.2-1.2 1.2-1.2H14.6zm-11.71-.45H14.2V10H2.89l-.8.8zm6.66-2.92H7.82V6.91h1.73zm-1.33-.4h.93v-.92h-.93zM14.68 6H2.79V3.59h11.89l1.2 1.19zM3.19 5.58h11.32l.8-.8-.8-.78H3.19zm6.36-2.92H7.82v-.47a.87.87 0 011.73 0zm-1.33-.4h.93v-.07a.47.47 0 00-.93 0z"/></g></g></symbol><symbol id="data" viewBox="0 0 14 16"><g><path d="M12 16H2a2 2 0 01-2-2V2a2 2 0 012-2h7a5 5 0 015 5v9a2 2 0 01-2 2zM9 2v3h3a3 3 0 00-3-3zm3 5H9a1 1 0 010 2H5a1 1 0 010-2h2V2H2v12h10zm-7 3h4a1 1 0 010 2H5a1 1 0 010-2z"/></g></symbol><symbol id="discount-amount" viewBox="0 0 26 26"><g id="&#x421;&#x43B;&#x43E;&#x439;_2"><g opacity=".99" id="&#x421;&#x43B;&#x43E;&#x439;_1-2"><path class="cls-2" d="M23.94 14.43a3.07 3.07 0 00-1.05-6A.94.94 0 0122.1 7a3 3 0 00-.67-3.95 3 3 0 00-3.94.07A.9.9 0 0116 2.6a3 3 0 00-6 0 .91.91 0 01-1.49.56 3 3 0 00-3.94-.07A3 3 0 003.9 7a.93.93 0 01-.79 1.42 3.07 3.07 0 00-1 6A.94.94 0 012.33 16a3 3 0 00-.7 4 3 3 0 003.72 1.3.91.91 0 011.21 1 3 3 0 002 3.48 3 3 0 003.69-1.41.89.89 0 011.58 0 3 3 0 005.65-2.07.91.91 0 011.21-1 3 3 0 003.69-1.3 3 3 0 00-.71-4 .94.94 0 01.27-1.57zm-.69-2a3.08 3.08 0 00-.93 5.29.9.9 0 01.21 1.2.85.85 0 01-1.1.39 3 3 0 00-4.08 3.45.88.88 0 01-.59 1.06.85.85 0 01-1.09-.42 3 3 0 00-5.34 0 .84.84 0 01-1.08.42.87.87 0 01-.59-1.06 3.05 3.05 0 00-4.09-3.45.85.85 0 01-1.1-.39.9.9 0 01.21-1.2 3.08 3.08 0 00-.92-5.29.88.88 0 01-.6-1.05.85.85 0 01.9-.76A3.07 3.07 0 005.73 6a.9.9 0 01.21-1.21.83.83 0 011.15 0 3 3 0 005-1.84.9.9 0 011.78 0 3 3 0 005 1.84.84.84 0 011.16 0A.91.91 0 0120.27 6a3.07 3.07 0 002.67 4.65.88.88 0 01.91.76.9.9 0 01-.6 1z"/><path class="cls-2" d="M10.29 11.9a1.61 1.61 0 10-1.61-1.61 1.62 1.62 0 001.61 1.61zM15.71 14.1a1.61 1.61 0 101.62 1.61 1.62 1.62 0 00-1.62-1.61zM17 9a1.06 1.06 0 00-1.5 0L9 15.5a1.07 1.07 0 001.5 1.5l6.5-6.5A1.06 1.06 0 0017 9z"/></g></g></symbol><symbol id="discount" viewBox="0 0 16 14"><g><path d="M12 5a2 2 0 00-2-2H9V2a2 2 0 00-2-2H2a2 2 0 00-2 2v1a2 2 0 002 2h1v1a2 2 0 00-2 2v1a2 2 0 001 1.74A2.11 2.11 0 002 11v1a2 2 0 002 2h5a2 2 0 001-.26 4.44 4.44 0 001.5.26 4.5 4.5 0 00.5-9zM2 3V2h5v1H2zm3 2h5v.26A4.28 4.28 0 008.68 6H5zM3 8h4.26A4.16 4.16 0 007 9H3zm1 4v-1h3.26a4.07 4.07 0 00.5 1zm7.5 0a2.73 2.73 0 01-.5 0 2.48 2.48 0 01-1.76-1.39A2.36 2.36 0 019 9.5a2.73 2.73 0 01.05-.5 2.53 2.53 0 01.45-1 2.51 2.51 0 012-1h.23a2.5 2.5 0 01-.23 5z"/></g></symbol><symbol id="email" viewBox="0 0 16 11.73"><g><path d="M0 0v11.73h16V0zm1.6 10.17v-6.3L8 9.37l6.4-5.5v6.3zm12.8-8.38L8 7.29 1.6 1.78v-.22h12.8z"/></g></symbol><symbol id="exclamation-point" viewBox="0 0 3 18"><g id="&#x421;&#x43B;&#x43E;&#x439;_2"><g id="&#x421;&#x43B;&#x43E;&#x439;_1-2"><path class="cls-1" d="M.08 1.65v9.51a1.54 1.54 0 001.42 1.65 1.54 1.54 0 001.42-1.65V1.65A1.54 1.54 0 001.5 0 1.54 1.54 0 00.08 1.65zM1.5 14.53A1.62 1.62 0 000 16.26 1.63 1.63 0 001.5 18 1.63 1.63 0 003 16.26a1.62 1.62 0 00-1.5-1.73z"/></g></g></symbol><symbol id="fast-speed" viewBox="0 0 24 22"><g><path d="M11.91 0a11.88 11.88 0 00-8.4 3.55 12.28 12.28 0 000 17.2 12.12 12.12 0 001.32 1.18.34.34 0 00.24.07.36.36 0 00.21-.11l.31-.35a9 9 0 0112.81 0c.11.11.21.22.31.34a.28.28 0 00.21.1.32.32 0 00.23-.06 12.11 12.11 0 001.33-1.17 12.28 12.28 0 000-17.2A11.88 11.88 0 0012 0h-.09zm0 2.33H12a9.63 9.63 0 016.87 2.87 10 10 0 01.34 13.57.3.3 0 01-.21.1.32.32 0 01-.23-.06 11.24 11.24 0 00-13.53 0 .39.39 0 01-.23.07.33.33 0 01-.21-.11A10 10 0 015.14 5.2a9.58 9.58 0 016.76-2.86zM12 3a8.92 8.92 0 00-6.4 2.67 9.25 9.25 0 00-.47 12.42 11.85 11.85 0 0113.76 0 9.27 9.27 0 00-.48-12.44A9 9 0 0012 3zm4.65 3.06a.41.41 0 01.3.11.45.45 0 01.11.3.78.78 0 010 .18 1.4 1.4 0 01-.18.3l-2.55 3.67a2.38 2.38 0 01-.62 2.24 2.32 2.32 0 01-3.32 0 2.41 2.41 0 010-3.36 2.3 2.3 0 012.21-.62l3.62-2.6a1.4 1.4 0 01.3-.18.65.65 0 01.13-.05z"/></g></symbol><symbol id="fast-time" viewBox="0 0 16 16"><g><path d="M8 16a8 8 0 118-8 8 8 0 01-8 8zM8 2a6 6 0 106 6 6 6 0 00-6-6zm3 7H8a1 1 0 01-1-1V5a1 1 0 012 0v2h2a1 1 0 010 2z"/></g></symbol><symbol id="fb" viewBox="0 0 7 14"><g><path d="M4.77 14V7.7h1.92L7 4.9H4.77V3.54c0-.72 0-1.44 1-1.44h1v-2A11.18 11.18 0 005.06 0c-1.85 0-3 1.16-3 3.29V4.9H0v2.8h2.05V14z"/></g></symbol><symbol id="fines" viewBox="0 0 16 14"><g><path d="M14 14H2a2 2 0 01-2-2V3a3 3 0 013-3h11v4h2v8a2 2 0 01-2 2zM12 2H3a1 1 0 000 2h9zm2 4H2v6h12zm-3 2a1 1 0 11-1 1 1 1 0 011-1z"/></g></symbol><symbol id="geo" viewBox="0 0 15 15"><g><path d="M14.86 2.6l-4.69 11.25A1.87 1.87 0 018.44 15a1.87 1.87 0 01-1.74-1.18L5.56 11l-.44-1.12L4 9.45 1.18 8.3a1.87 1.87 0 010-3.47L12.4.14a2 2 0 01.72-.14 1.88 1.88 0 011.74 2.6zm-13 4l2.87 1.1 1.83.74.75 1.86 1.13 2.83 4.68-11.25z"/></g></symbol><symbol id="hexagon" viewBox="0 0 15.43 16"><g><path d="M14.43 7.6l-.72.4.72.42a2 2 0 01.73 2.73l-1 1.74a2 2 0 01-1.22.93 1.81 1.81 0 01-.52.07 2 2 0 01-1-.27l-.7-.43V14a2 2 0 01-2 2h-2a2 2 0 01-2-2v-.81L4 13.6a2 2 0 01-1 .27 1.81 1.81 0 01-.52-.07 2 2 0 01-1.22-.93l-1-1.74A2 2 0 011 8.4l.71-.4L1 7.6a2 2 0 01-.73-2.73l1-1.74a2 2 0 011.22-.93A1.81 1.81 0 013 2.13a2 2 0 011 .27l.7.43V2a2 2 0 012-2h2a2 2 0 012 2v.81l.72-.41a2 2 0 011-.27 1.81 1.81 0 01.52.07 2 2 0 011.22.93l1 1.74a2 2 0 01-.73 2.73zM12.7 6.29l.73-.42-1-1.74-.72.42a2 2 0 01-1 .26 2 2 0 01-1-.27 2 2 0 01-1-1.7V2h-2v.83a2 2 0 01-1 1.7 2 2 0 01-1 .27 2 2 0 01-1-.26L3 4.13 2 5.87l.71.41a2 2 0 010 3.44l-.71.41 1 1.74.72-.42a2 2 0 011-.26 2 2 0 011 .27 2 2 0 011 1.7V14h2v-.83a2 2 0 011-1.7 2 2 0 011-.27 2 2 0 011 .26l.72.42 1-1.74-.73-.42a2 2 0 01-1-1.7 2 2 0 01.99-1.73zM7.72 10a2 2 0 112-2 2 2 0 01-2 2z"/></g></symbol><symbol id="hidden-icon" viewBox="0 0 15 15"><g><path d="M13.78 9.77l-1.25-1.36a6.83 6.83 0 00.6-1c-.5-1-2.18-3.92-5.36-4L6 1.94a7.2 7.2 0 011.5-.15c5.26 0 7.35 5.09 7.44 5.31a1.05 1.05 0 010 .7 10 10 0 01-1.16 1.97zm1 5a.94.94 0 01-.67.28.92.92 0 01-.66-.28L11 12.26a5.43 5.43 0 01-.64.31l-.27.1-.71.23L9 13a4.27 4.27 0 01-.82.11 5 5 0 01-.68 0C2.24 13.11.15 8 .06 7.8a1.05 1.05 0 010-.7 10 10 0 01.77-1.41c.12-.18.24-.37.39-.56s.11-.15.17-.23a6.47 6.47 0 01.43-.51c.06-.06.11-.13.18-.19s.31-.32.48-.47L.27 1.51a1 1 0 010-1.33c.37-.37 1-.11 1.34.26l12.86 12.94c.36.37.62.97.26 1.34zM3.82 5.08a5.34 5.34 0 00-.49.45l-.18.2a6 6 0 00-.42.52l-.17.23c-.15.21-.27.39-.38.56L2 7.45a6.94 6.94 0 004.26 3.7 5.31 5.31 0 001.09.15h.39a5.87 5.87 0 00.86-.07l.3-.08a3.49 3.49 0 00.71-.24l-.84-1.15a2.7 2.7 0 01-1.2.29 2.66 2.66 0 01-.94-.17 2.81 2.81 0 01-1.7-1.72 2.45 2.45 0 01-.17-.94 4 4 0 010-.5A1.44 1.44 0 015 6.24L3.82 5.08z"/></g></symbol><symbol id="history" viewBox="0 0 16 16"><g><path d="M8 16c-3.87 0-8-1-8-4 0-1.84 1.61-2.94 3.76-3.51a1 1 0 01.49 1.95C2.88 10.81 2 11.37 2 12c0 1.1 2.69 2 6 2s6-.9 6-2c0-.63-.88-1.19-2.25-1.56a1 1 0 01.49-1.95C14.39 9.06 16 10.16 16 12c0 3-4.13 4-8 4zm1-8.14V12a1 1 0 01-2 0V7.86a4 4 0 112 0zM8 2a2 2 0 102 2 2 2 0 00-2-2z"/></g></symbol><symbol id="information" viewBox="0 0 15.82 16"><g><path d="M15.72 8.63l-2 6A2 2 0 0111.87 16H4a2 2 0 01-1.88-1.37l-2-6a2 2 0 01.27-1.8A2 2 0 012 6h11.85a2 2 0 011.6.83 2 2 0 01.27 1.8zM2 8l2 6h7.91l2-6zm10.86-3H3a1 1 0 010-2h9.89a1 1 0 010 2zm-2-3H4.94A1 1 0 014 1a1 1 0 011-1h5.94a1 1 0 010 2z"/></g></symbol><symbol id="inspection" viewBox="0 0 16 16"><g><path d="M15.41 8.59l-1-1A2 2 0 0013 7h-2.17L9 5.17V3a2 2 0 00-.59-1.41l-1-1A2 2 0 006 0H3a2 2 0 00-1.82 1.18A2 2 0 000 3v3a2 2 0 00.59 1.41l1 1A2 2 0 003 9h2.17L7 10.83V13a2 2 0 00.59 1.41l1 1A2 2 0 0010 16h3a2 2 0 001.82-1.18A2 2 0 0016 13v-3a2 2 0 00-.59-1.41zM14 13l-2-2h-1v1l2 2h-3l-1-1v-3L6 7H3L2 6V3l2 2h1V4L3 2h3l1 1v3l3 3h3l1 1z"/></g></symbol><symbol id="insta" viewBox="0 0 14 14"><g><path d="M4.66 7A2.32 2.32 0 117 9.31 2.31 2.31 0 014.66 7zM3.4 7A3.58 3.58 0 107 3.42 3.58 3.58 0 003.4 7zm6.46-3.72a.85.85 0 00.84.84.84.84 0 00.83-.84.83.83 0 00-.83-.83.84.84 0 00-.84.83zm-5.69 9.37a4 4 0 01-1.3-.24 2.26 2.26 0 01-1.32-1.32C1.14 10 1.27 5 1.31 4.18a3 3 0 01.76-2.09c.7-.69 1.6-1 7.73-.75a2.94 2.94 0 012.09.75c.7.7 1 1.61.76 7.71a3.65 3.65 0 01-.24 1.29c-.63 1.62-2.08 1.84-8.24 1.56zM4.11.09a4.19 4.19 0 00-2.93 1.12A4.14 4.14 0 00.06 4.13c0 .7-.22 6 .32 7.41a3.52 3.52 0 002 2 5 5 0 001.69.33c6.2.28 8.5.13 9.47-2.36a5 5 0 00.32-1.68c.29-6.22 0-7.57-1.12-8.65C11.92.35 10.91-.23 4.11.09z"/></g></symbol><symbol id="judge" viewBox="0 0 16.4 16.4"><g><path d="M15.58 9.2H12l1.34-3.5.74 1.86a.63.63 0 00.62.44.59.59 0 00.23 0 .63.63 0 00.35-.82L14.2 4.4a1.87 1.87 0 001-1.67.63.63 0 00-1.25 0 .64.64 0 01-.62.63 2.51 2.51 0 01-1-.59 4.53 4.53 0 00-1.85-1A2.61 2.61 0 008.83 2V.83A.63.63 0 008.2.2a.62.62 0 00-.62.63V2a2.62 2.62 0 00-1.64-.21 4.6 4.6 0 00-1.85 1 2.45 2.45 0 01-1 .59.64.64 0 01-.62-.63.63.63 0 00-1.25 0 1.87 1.87 0 001 1.66l-2 5.18a.73.73 0 000 .25h0a2.85 2.85 0 105.69 0 .63.63 0 00-.63-.62H1.72l1.46-3.85.88 2.19a.63.63 0 00.58.44.48.48 0 00.23 0 .62.62 0 00.35-.81l-1.13-2.9a5.74 5.74 0 00.76-.53c.9-.69 1.57-1.2 2.73-.33v10.62a8.29 8.29 0 00-3.07 1 .62.62 0 00.63 1.07 7.08 7.08 0 013.06-.85 7.14 7.14 0 013.06.85.62.62 0 00.63-1.12 8.28 8.28 0 00-3.06-1V3.46c1.17-.91 1.84-.4 2.75.3a7.19 7.19 0 00.95.64l-2 5.17h0a.64.64 0 00-.05.24 2.85 2.85 0 105.69 0 .62.62 0 00-.59-.61zM4.51 10.45a1.59 1.59 0 01-2.93 0zm8.85 1a1.59 1.59 0 01-1.47-1h2.93a1.59 1.59 0 01-1.46.97z" stroke-width=".4"/></g></symbol><symbol id="key" viewBox="0 0 15.83 16"><g><path d="M10.88 10a5.19 5.19 0 01-1.05-.11l-1.15 1.17a2 2 0 01-.36 2.35l-1 1a2 2 0 01-1.38.59 2 2 0 01-.94-.23l-.65.64A2 2 0 013 16a2 2 0 01-1.4-.59l-1-1a2 2 0 010-2.82L6 6.07A6.26 6.26 0 015.94 5a4.95 4.95 0 119.89 0 5 5 0 01-4.95 5zm0-8a3 3 0 00-2.79 2 2.77 2.77 0 00-.18 1 3 3 0 00.44 1.56L6.92 8 2 13l1 1 2-2 1 1 1-1-1-1 2-2 1.34-1.44a2.89 2.89 0 001.54.44 2.72 2.72 0 001-.18 3 3 0 00-1-5.82zm0 4a1 1 0 111-1 1 1 0 01-1 1z"/></g></symbol><symbol id="lightning" viewBox="0 0 12 16"><g><path d="M8 2L6 7h4l-5 7 1-5H2l1-7zm2 5zM8 0H3a2 2 0 00-2 1.72l-1 7A2 2 0 002 11h1.56L3 13.61a2 2 0 001.2 2.23A2 2 0 005 16a2 2 0 001.63-.84l5-6.94A2 2 0 0010 5H9l.9-2.26A2 2 0 009.65.88 2 2 0 008 0zm0 4z"/></g></symbol><symbol id="like" viewBox="0 0 16 16"><g><path d="M14 5h-4V2a2 2 0 00-2-2H7a2 2 0 00-1.86 1.26L3.65 5H2a2 2 0 00-2 2v7a2 2 0 002 2h2a2 2 0 001-.27A2 2 0 006 16h4a2 2 0 001.41-.59L14 12.85l1.43-1.44A2 2 0 0016 10V7a2 2 0 00-2-2zM2 14V7h1v7zm12-4l-1.44 1.44L10 14H6l-1-1V7l2-5h1v5h6z"/></g></symbol><symbol id="limit" viewBox="0 0 18 18"><g><path d="M17.18 11.5l-.12-.05-3.49-1.14-.43-1.49-1.84-6.45a7.43 7.43 0 00-.53-1.3 2 2 0 00-3.58 0 7.43 7.43 0 00-.5 1.28L6.51 3l-.83 2.91L4.53 10 .85 11.49H.77a1.53 1.53 0 00-.17 2.58l.13.08 7.43 3.59a1.51 1.51 0 001.67 0l7.41-3.59.1-.06a1.52 1.52 0 00-.16-2.59zm-5.4.55a3.48 3.48 0 01-1.32.48 7.75 7.75 0 01-1.46.12 7.86 7.86 0 01-1.47-.12A3.13 3.13 0 016 11.91a.86.86 0 01-.14-.13.61.61 0 01-.15-.26.79.79 0 010-.34l.29-.92a6.52 6.52 0 003.11.74 6.12 6.12 0 002.89-.73l.26.92a.65.65 0 01-.15.56 1.84 1.84 0 01-.33.27zM9 4.31a4.34 4.34 0 001.25-.18l.43 1.53A5.14 5.14 0 019 6a5.09 5.09 0 01-1.7-.3l.44-1.56A4.27 4.27 0 009 4.31zm0 3.17a6.67 6.67 0 002.09-.37l.48 1.66a4.34 4.34 0 01-2.46.7 4.59 4.59 0 01-2.68-.71l.46-1.62A6.31 6.31 0 009 7.48zm.45-5.7a5.82 5.82 0 01.38.91 2.92 2.92 0 01-.83.12 2.84 2.84 0 01-.84-.11 6 6 0 01.36-.93.53.53 0 01.93.01zm-.31 14.65l-.14.06a.8.8 0 01-.16-.08L1.5 12.86l2.74-1.16a2.49 2.49 0 00.09.37v.13a1.32 1.32 0 00.12.2v.07a1.37 1.37 0 00.16.18A1.07 1.07 0 005 13a4.63 4.63 0 002.3 1 9.77 9.77 0 001.7.15 9.65 9.65 0 001.7-.15 4.91 4.91 0 002.12-.85 4.17 4.17 0 00.38-.34 2.1 2.1 0 00.31-.41l.06-.1v-.11a.76.76 0 000-.11v-.12l2.8.92z"/></g></symbol><symbol id="list" viewBox="0 0 16 16"><g><path d="M8 16H2a2 2 0 01-2-2V2a2 2 0 012-2h12a2 2 0 012 2v6a8 8 0 01-8 8zm2-2.35A6 6 0 0013.65 10H10zM14 2H2v12h6V8h6zM6 4a1 1 0 011-1h2a1 1 0 010 2H7a1 1 0 01-1-1z"/></g></symbol><symbol id="loading" viewBox="0 0 16 16"><g><path d="M15.67 5.74A1 1 0 0115 6h-4a1 1 0 010-2h1.46A6 6 0 008 2a6 6 0 00-5.94 5.15 1 1 0 01-1 .85 1 1 0 01-1-1.13A8 8 0 0114 2.72V1a1 1 0 012 0v4a1 1 0 01-.33.74zM1 10h4a1 1 0 010 2H3.53a5.84 5.84 0 003.18 1.86 6 6 0 007.23-5 1 1 0 011-.86 1 1 0 011 1.14A8 8 0 012 13.28V15a1 1 0 01-2 0v-4a1 1 0 011-1z"/></g></symbol><symbol id="lock" viewBox="0 0 14 18.67"><g><path d="M13.61 7h-1.17V5.44a5.44 5.44 0 10-10.88 0V7H.39a.38.38 0 00-.39.39v9.72a1.56 1.56 0 001.56 1.56h10.88A1.56 1.56 0 0014 17.11V7.39a.38.38 0 00-.39-.39zm-5.45 8.12a.39.39 0 01-.09.31.41.41 0 01-.29.13H6.22a.41.41 0 01-.29-.13.39.39 0 01-.09-.31l.24-2.2a1.54 1.54 0 01-.64-1.25 1.56 1.56 0 013.12 0 1.54 1.54 0 01-.64 1.25zM10.11 7H3.89V5.44a3.11 3.11 0 116.22 0z"/></g></symbol><symbol id="long-search" viewBox="0 0 15.5 15.5"><g><path d="M15.2 13.79l-4.37-4.32A6 6 0 006 0a6 6 0 103.42 10.89l4.38 4.32a1 1 0 00.7.29 1 1 0 00.7-.29 1 1 0 000-1.42zM6 10a4 4 0 114-4 4 4 0 01-4 4z"/></g></symbol><symbol id="mark" viewBox="0 0 15.83 15.91"><g><path d="M15.54 6.26L9.6.29a1 1 0 00-1.4 0 1 1 0 000 1.41l.11.11L2.12 5.7l-.43-.44a1 1 0 00-1.4 1.41l1 1L4 10.44.29 14.22a1 1 0 000 1.4 1 1 0 00.7.29 1 1 0 00.7-.29l3.75-3.77 2.76 2.78 1 1a1 1 0 00.7.29.94.94 0 00.7-.29 1 1 0 000-1.4l-.43-.44L14 7.56l.11.11a1 1 0 001.4 0 1 1 0 00.03-1.41zm-6.82 6.08l-5.16-5.2 6.19-3.89 2.84 2.86z"/></g></symbol><symbol id="mobile" viewBox="0 0 14 14"><g><path d="M13.91 10.18l-.67 2a1.77 1.77 0 01-1 1 8.62 8.62 0 01-3.49.82 8.74 8.74 0 01-5.88-2.27l-.3-.29a8.34 8.34 0 01-1.31-1.65c-.11-.2-.23-.41-.34-.64A8.58 8.58 0 010 5.25a8.62 8.62 0 01.75-3.54 1.77 1.77 0 011-.95l2-.67A1.81 1.81 0 014.37 0 1.76 1.76 0 016 1.2l.87 2.62A1.76 1.76 0 016 5.94l-.63.32A3.49 3.49 0 007.74 8.6l.32-.6a1.74 1.74 0 011.56-1 1.77 1.77 0 01.56.09L12.8 8a1.75 1.75 0 011.11 2.18zm-1.66-.55l-2.63-.88-.87 1.75A5.26 5.26 0 013.5 5.25l1.75-.87-.88-2.63-2 .67a7 7 0 00-.59 2.83 6.84 6.84 0 00.74 3.13 3.84 3.84 0 00.27.49 6.31 6.31 0 001 1.32l.24.24a7 7 0 004.71 1.82 6.87 6.87 0 002.83-.6z"/></g></symbol><symbol id="notebook" viewBox="0 0 16 15.93"><g><path d="M15.53.15a1 1 0 00-1 0l-3.63 1.8L5.39.08h-.07L5.2 0H5a.91.91 0 00-.23 0L4.7.06l-.17.07h-.09L.55 2.1A1 1 0 000 3v11.93a1 1 0 00.47.85 1 1 0 00.53.15 1 1 0 00.45-.11L5.08 14l5.6 1.86a1 1 0 00.77-.06l4-2a1 1 0 00.55-.89V1a1 1 0 00-.47-.85zM2 3.6l2-1v9.72l-2 1zm4-1.22l4 1.32v9.85l-4-1.32zm8 10l-2 1V3.6l2-1z"/></g></symbol><symbol id="notification" viewBox="0 0 16 14"><g><path d="M14 2v8H5.41L2 12V2zm0-2H2a2 2 0 00-2 2v10a2 2 0 001 1.74A2 2 0 002 14a2 2 0 001-.27L6 12h8a2 2 0 002-2V2a2 2 0 00-2-2z" opacity=".5"/></g></symbol><symbol id="ok" viewBox="0 0 11 18"><g id="&#x421;&#x43B;&#x43E;&#x439;_2"><g id="&#x421;&#x43B;&#x43E;&#x439;_1-2"><path class="cls-1" d="M.16 9.66c-.45.9.06 1.34 1.23 2.07a7.87 7.87 0 003.23.95l-3.46 3.41c-1 1 .62 2.57 1.62 1.6L5.51 15l2.73 2.7c1 1 2.63-.61 1.63-1.61l-3.48-3.41a8 8 0 003.22-.94c1.16-.74 1.67-1.18 1.23-2.08-.27-.51-1-.94-1.95-.2a5.85 5.85 0 01-3.39 1 5.85 5.85 0 01-3.39-1c-.96-.75-1.68-.31-1.95.2z"/><path class="cls-1" d="M5.5 9.11a4.6 4.6 0 004.63-4.55A4.6 4.6 0 005.5 0 4.6 4.6 0 00.87 4.56 4.6 4.6 0 005.5 9.11zm0-6.8a2.27 2.27 0 012.28 2.25 2.28 2.28 0 01-4.56 0A2.27 2.27 0 015.5 2.31z"/></g></g></symbol><symbol id="oval-check" viewBox="0 0 35 25.49"><g><path d="M11.88 25.49a2.49 2.49 0 01-1.77-.73L.74 15.45a2.5 2.5 0 013.52-3.55l7.62 7.56L30.74.73a2.5 2.5 0 113.52 3.54L13.64 24.76a2.48 2.48 0 01-1.76.73z"/></g></symbol><symbol id="oval-warning" viewBox="0 0 15.83 14"><g><path d="M15.58 13a2 2 0 01-1.73 1H2a2 2 0 01-1.74-1 2 2 0 010-2L6.22 1a2 2 0 013.39 0l5.94 10a2 2 0 01.03 2zM7.92 2L2 12h11.85zm0 3a1 1 0 011 1v1a1 1 0 11-2 0V6a1 1 0 011-1zm0 4a1 1 0 11-1 1 1 1 0 011-1z"/></g></symbol><symbol id="parking" viewBox="0 0 20 20"><g id="&#x421;&#x43B;&#x43E;&#x439;_2"><g id="&#x421;&#x43B;&#x43E;&#x439;_1-2"><path class="cls-1" d="M10.68 6.38h-2v3.19h1.93a1.68 1.68 0 001.22-.36 1.43 1.43 0 00.43-1.12 1.75 1.75 0 00-.44-1.25 1.46 1.46 0 00-1.14-.46z"/><path class="cls-1" d="M17.23 0H2.82A2.86 2.86 0 000 2.82v14.41A2.81 2.81 0 002.82 20h14.41A2.77 2.77 0 0020 17.23V2.82A2.81 2.81 0 0017.23 0zm-3.32 10.74a5 5 0 01-3.31 1H8.72v4H6V4.26h4.69A5.36 5.36 0 0113 4.7a3.59 3.59 0 012.13 3.38 3.27 3.27 0 01-1.22 2.66z"/></g></g></symbol><symbol id="pencil" viewBox="0 0 15.6 15.59"><g><path d="M.8 15.59a.79.79 0 01-.56-.23.8.8 0 01-.24-.75l.8-3.27A.75.75 0 011 11L10.72.75a2.45 2.45 0 012.7-.56 2.42 2.42 0 01.79.56 2.63 2.63 0 01.53.82 2.64 2.64 0 01.18 1 2.59 2.59 0 01-.18 1 2.67 2.67 0 01-.53.83L4.49 14.53a.85.85 0 01-.38.22L1 15.57zm1.51-3.67l-.42 1.76 1.6-.42L13.05 3.2a1 1 0 00.2-.3 1.21 1.21 0 00.07-.37 1.22 1.22 0 00-.07-.38 1 1 0 00-.2-.3.83.83 0 00-.27-.19.79.79 0 00-.9.19zm12.49 3.67h-7a.8.8 0 110-1.6h7a.8.8 0 010 1.6z"/></g></symbol><symbol id="phone" viewBox="0 0 12 16"><g><path d="M10 16H2a2 2 0 01-2-2V2a2 2 0 012-2h8a2 2 0 012 2v12a2 2 0 01-2 2zm0-14H2v12h8zm-4 9a1 1 0 11-1 1 1 1 0 011-1z"/></g></symbol><symbol id="picture" viewBox="0 0 18 16"><g><path d="M16 16H2a2 2 0 01-2-2V2a2 2 0 012-2h14a2 2 0 012 2v12a2 2 0 01-2 2zm0-14H2v12h14zm-5 8l2-2 2 3H3l3-5zm1-3a1 1 0 111-1 1 1 0 01-1 1z"/></g></symbol><symbol id="progress" viewBox="0 0 22 22"><g><path d="M11 22a1 1 0 01-1-1v-4a1 1 0 012 0v4a1 1 0 01-1 1zm-7.07-2.93a1 1 0 01-.71-.29 1 1 0 010-1.42l2.83-2.83A1 1 0 117.47 16l-2.83 2.78a1 1 0 01-.71.29zm14.14 0a1 1 0 01-.71-.29L14.53 16A1 1 0 1116 14.53l2.83 2.83a1 1 0 010 1.42 1 1 0 01-.76.29zM21 12h-4a1 1 0 010-2h4a1 1 0 010 2zM5 12H1a1 1 0 010-2h4a1 1 0 010 2zm1.76-4.24a1 1 0 01-.71-.29L3.22 4.64a1 1 0 011.42-1.42l2.83 2.83a1 1 0 010 1.42 1 1 0 01-.71.29zm8.48 0a1 1 0 01-.71-.29 1 1 0 010-1.42l2.83-2.83a1 1 0 111.42 1.42L16 7.47a1 1 0 01-.76.29zM11 6a1 1 0 01-1-1V1a1 1 0 012 0v4a1 1 0 01-1 1z"/></g></symbol><symbol id="receipt" viewBox="0 0 14 16"><g><path d="M12 16h-2a2 2 0 01-1.4-.57l-.71.36a2 2 0 01-1.78 0l-.72-.36A2 2 0 014 16H2a2 2 0 01-2-2V2a2 2 0 012-2h10a2 2 0 012 2v12a2 2 0 01-2 2zm0-14H2v12h2l1-1 2 1 2-1 1 1h2zM9 6H5a1 1 0 010-2h4a1 1 0 010 2zM5 7h2a1 1 0 010 2H5a1 1 0 010-2z"/></g></symbol><symbol id="reload" viewBox="0 0 15.99 15.74"><g><path d="M15.66 5.65a1 1 0 01-.66.25h-4a1 1 0 110-2h1.46A6 6 0 002.06 7a1 1 0 01-1 .84 1 1 0 01-1-1.11A8 8 0 016.89.07 8.08 8.08 0 0114 2.68V1a1 1 0 012 0v3.92a1 1 0 01-.34.73zM1 9.84h4a1 1 0 110 2H3.52a5.86 5.86 0 003.18 1.79 6 6 0 007.23-4.91 1 1 0 011-.85 1 1 0 011 1.12A8 8 0 012 13.06v1.7a1 1 0 01-1 1 1 1 0 01-1-1v-3.94a1 1 0 011-.98z"/></g></symbol><symbol id="respect" viewBox="0 0 16 16"><g><path d="M14 14H6l-3 1.72A1.93 1.93 0 012 16a2 2 0 01-1-.26A2 2 0 010 14V2a2 2 0 012-2h12a2 2 0 012 2v10a2 2 0 01-2 2zm0-12H2v12l3.41-2H14zM4.29 6.29a1 1 0 011.42 0L7 7.59l3.29-3.3a1 1 0 111.42 1.42l-4 4a1 1 0 01-1.42 0l-2-2a1 1 0 010-1.42z"/></g></symbol><symbol id="ruble" viewBox="0 0 26 26"><g id="&#x421;&#x43B;&#x43E;&#x439;_2"><g opacity=".99" id="&#x421;&#x43B;&#x43E;&#x439;_1-2"><path class="cls-2" d="M4 21a1.07 1.07 0 00.22-1.49 10.86 10.86 0 1117.54 0 1.07 1.07 0 101.72 1.26 13 13 0 10-21 0A1.07 1.07 0 004 21z"/><path class="cls-2" d="M14.63 14.06a3.75 3.75 0 100-7.49h-3.8a1.07 1.07 0 00-1.07 1.06v4.31h-1.1a1.06 1.06 0 000 2.12h1.1v1.1h-1.1a1.06 1.06 0 100 2.12h1.1v1.09a1.07 1.07 0 002.14 0v-1.09h2.18a1.06 1.06 0 100-2.12H11.9v-1.1zm1.64-3.74a1.64 1.64 0 01-1.64 1.62H11.9V8.69h2.73a1.64 1.64 0 011.64 1.63zM24.93 23.81H1.07a1.1 1.1 0 000 2.19h23.86a1.1 1.1 0 000-2.19z"/></g></g></symbol><symbol id="runs" viewBox="0 0 18 16"><g id="&#x421;&#x43B;&#x43E;&#x439;_2"><g id="&#x421;&#x43B;&#x43E;&#x439;_1-2"><path class="cls-1" d="M9 0a8.94 8.94 0 019 8.85A8.64 8.64 0 0116.3 14l-1.65-1.28a6.65 6.65 0 001.23-3.87A6.81 6.81 0 009 2.08a6.81 6.81 0 00-6.88 6.77 6.72 6.72 0 001.23 3.87L1.7 14A8.64 8.64 0 010 8.85 8.94 8.94 0 019 0zM5 5l5.37 4.16a1.28 1.28 0 010 1.84 1.33 1.33 0 01-1.87 0zM5 14h8l1.5 1.5A47.59 47.59 0 019 16a47.59 47.59 0 01-5.5-.5z"/></g></g></symbol><symbol id="search-discount" viewBox="0 0 14.4 16.4"><g id="&#x421;&#x43B;&#x43E;&#x439;_2"><g id="&#x421;&#x43B;&#x43E;&#x439;_1-2"><path class="cls-1" d="M8.41 12.08a1 1 0 111 .93 1 1 0 01-1-.93zM12.34 5a3.72 3.72 0 01-1.07-2.13.68.68 0 00-.7-.63.81.81 0 00-.46.14 13.33 13.33 0 00-1.76 1.84A5.28 5.28 0 017.47.83.72.72 0 006.73.2a.91.91 0 00-.43.1 15.43 15.43 0 00-3.43 3A11.75 11.75 0 001 6.1a8.61 8.61 0 00-.8 3.59 6.78 6.78 0 007 6.51 7.15 7.15 0 004.66-1.63.6.6 0 00.05-.88.71.71 0 00-.95 0A5.77 5.77 0 017.2 15a5.47 5.47 0 01-5.65-5.31 8.63 8.63 0 012.37-5.64 15 15 0 012.25-2.11A5.34 5.34 0 008 5.68a.69.69 0 00.54.17.67.67 0 00.46-.27 15.13 15.13 0 011.21-1.47 8.17 8.17 0 001.06 1.64 6.28 6.28 0 011.58 3.85 5.15 5.15 0 01-.24 1.54.63.63 0 00.46.78.7.7 0 00.84-.43 7.13 7.13 0 00.29-1.83A7.19 7.19 0 0012.34 5zm-7.79 7.87a.73.73 0 001-.08l4.44-5a.59.59 0 00-.09-.88.71.71 0 00-1 .09l-4.44 5a.59.59 0 00.09.87zM6 7.7a1 1 0 00-1-.94.94.94 0 100 1.88 1 1 0 001-.94z"/><path class="cls-1" d="M7.2 16.4A7 7 0 010 9.69 8.73 8.73 0 01.84 6a12.1 12.1 0 011.88-2.86A15.7 15.7 0 016.2.12 1.28 1.28 0 016.73 0a.92.92 0 01.94.83 5.42 5.42 0 00.69 3.06A12.32 12.32 0 0110 2.25a1 1 0 01.59-.19.88.88 0 01.9.83 3.59 3.59 0 001 2 7.41 7.41 0 011.9 4.77 7.2 7.2 0 01-.3 1.88.89.89 0 01-1.08.57.85.85 0 01-.53-.41.77.77 0 01-.07-.61 5.11 5.11 0 00.23-1.49 6 6 0 00-1.57-3.74 9.42 9.42 0 01-.95-1.41 12.4 12.4 0 00-1 1.23.91.91 0 01-.63.36.9.9 0 01-.69-.21A5.41 5.41 0 016 2.32a14.63 14.63 0 00-1.93 1.86 8.45 8.45 0 00-2.32 5.51 5.27 5.27 0 005.45 5.06 5.6 5.6 0 003.63-1.26.91.91 0 011.22.06.79.79 0 01-.05 1.17 7.36 7.36 0 01-4.8 1.68zM6.73.4a.72.72 0 00-.32.07A15 15 0 003 3.4a11.65 11.65 0 00-1.8 2.78 8.42 8.42 0 00-.8 3.51A6.58 6.58 0 007.2 16a7 7 0 004.53-1.58.43.43 0 00.15-.29.39.39 0 00-.12-.3.52.52 0 00-.68 0 5.94 5.94 0 01-3.88 1.32 5.67 5.67 0 01-5.85-5.46 8.82 8.82 0 012.42-5.77 14.92 14.92 0 012.28-2.14l.29-.22v.36a5.17 5.17 0 001.74 3.62.49.49 0 00.39.11.46.46 0 00.34-.19A13 13 0 0110 4l.21-.22.12.28a7.55 7.55 0 001 1.59 6.47 6.47 0 011.65 4 5.56 5.56 0 01-.25 1.62.39.39 0 000 .3.46.46 0 00.3.22.47.47 0 00.58-.29A6.47 6.47 0 0014 9.67a7 7 0 00-1.82-4.52 3.88 3.88 0 01-1.11-2.26.48.48 0 00-.5-.43.57.57 0 00-.34.1 12.39 12.39 0 00-1.72 1.79l-.16.2-.16-.2A5.52 5.52 0 017.27.83.52.52 0 006.73.4zm2.69 12.81a1.14 1.14 0 111.21-1.13 1.17 1.17 0 01-1.21 1.13zm0-1.87a.74.74 0 10.81.74.78.78 0 00-.81-.74zM5 13.21a.89.89 0 01-.57-.21.78.78 0 01-.32-.57.79.79 0 01.2-.6l4.44-5A.91.91 0 0110 6.75a.78.78 0 01.32.56.81.81 0 01-.2.61l-4.44 5a.88.88 0 01-.68.29zm-.31-.5a.53.53 0 00.68-.06l4.44-5a.37.37 0 00.1-.3.45.45 0 00-.16-.29.52.52 0 00-.68.06l-4.44 5a.38.38 0 00-.1.3.41.41 0 00.16.29zM5 8.84a1.14 1.14 0 110-2.28 1.14 1.14 0 110 2.28zM5 7a.74.74 0 100 1.44A.74.74 0 105 7z"/></g></g></symbol><symbol id="search" viewBox="0 0 15.91 16"><g><path d="M15.62 12.29l-3-3a1 1 0 00-.7-.29h-.81A6 6 0 106 12a5.94 5.94 0 003-.81V12a1 1 0 00.29.71l3 3a1 1 0 00.7.29 1 1 0 00.7-.29l2-2a1 1 0 00-.07-1.42zM6 10a4 4 0 114-4 4 4 0 01-4 4zm7 3.59l-2-2V11h.58l2 2z"/></g></symbol><symbol id="security" viewBox="0 0 16 16"><g><path d="M8.63 15.9a2 2 0 01-1.26 0A11.41 11.41 0 010 5a2 2 0 011.11-1.79l6-3a2 2 0 011.78 0l6 3A2 2 0 0116 5a11.41 11.41 0 01-7.37 10.9zM8 2L2 5a9.39 9.39 0 006 9 9.39 9.39 0 006-9zm-1 9a1 1 0 01-.71-.29l-2-2a1 1 0 111.42-1.42L7 8.59l3.29-3.3a1 1 0 111.42 1.42l-4 4A1 1 0 017 11z"/></g></symbol><symbol id="settings" viewBox="0 0 38 38"><g><path d="M35.07 20.59v-6.46l-2.66-.41a15.14 15.14 0 00-1.67-4l1.59-2.17-4.8-4.81-2.17 1.58a15 15 0 00-4-1.66L20.93 0h-6.8l-.41 2.66a15.11 15.11 0 00-4 1.66L7.54 2.73 2.73 7.54l1.59 2.17a15.11 15.11 0 00-1.66 4L0 14.13v6.8l2.66.41a15 15 0 001.66 4l-1.59 2.19 4.81 4.8 2.17-1.59a15.14 15.14 0 004 1.67l.41 2.66h6.46a10.24 10.24 0 0014.49-14.48zm-19.38 10l-.76-.15a12.76 12.76 0 01-4.65-1.93L9.63 28l-1.87 1.41-2.1-2.11L7 25.44l-.43-.65a13 13 0 01-1.92-4.65l-.16-.76L2.23 19v-3l2.28-.35.16-.76a12.92 12.92 0 011.92-4.65L7 9.63 5.66 7.76l2.1-2.1L9.63 7l.65-.43a12.92 12.92 0 014.65-1.92l.76-.16.31-2.26h3l.36 2.28.76.16a13 13 0 014.65 1.92l.65.43 1.88-1.36 2.11 2.1L28 9.63l.43.65a12.76 12.76 0 011.93 4.65l.15.76 2.29.35v2.83a10.13 10.13 0 00-4.59-1.34 10.72 10.72 0 10-10.68 10.92 10.24 10.24 0 001.33 4.39H16zm4.59-9.78a4.18 4.18 0 11.33-.34zm-2.75-9.36a6.32 6.32 0 000 12.64h.69a10.73 10.73 0 00-.59 2.21h-.1A8.5 8.5 0 1126 17.66a10 10 0 00-2.2.64v-.57a6.33 6.33 0 00-6.32-6.32zm10.23 24.32a8 8 0 01-5.89-13.44l.36-.37a8 8 0 115.53 13.81z"/></g></symbol><symbol id="signal" viewBox="0 0 24 21"><g><path d="M4.69 18.45h14.57a1.27 1.27 0 011.26 1.25V21H3.42v-1.3a1.32 1.32 0 011.27-1.25zm.88-1.25l1.22-8.36A3.33 3.33 0 017.67 7v-.06a2.73 2.73 0 011.94-.81h4.63a3 3 0 012 .81 3.5 3.5 0 01.93 2l1.16 8.36zM3.42 11a.87.87 0 110 1.74H.88a.87.87 0 110-1.74zm19.7 0a.87.87 0 110 1.74h-2.54a.87.87 0 110-1.74zM5.57 5.43a.84.84 0 010 1.19.86.86 0 01-1.21 0L2.54 4.83a.84.84 0 010-1.19.86.86 0 011.21 0zm14.07 1.19a.86.86 0 01-1.21 0 .84.84 0 010-1.19l1.82-1.79a.86.86 0 011.21 0 .84.84 0 010 1.19zm-6.78-3.26a.87.87 0 01-.89.87.86.86 0 01-.83-.87V.87A.86.86 0 0112 0a.87.87 0 01.89.87z"/></g></symbol><symbol id="simple-search" viewBox="0 0 21 21"><g id="&#x421;&#x43B;&#x43E;&#x439;_2"><g opacity=".99" id="&#x421;&#x43B;&#x43E;&#x439;_1-2"><path class="cls-2" d="M9.25 0a9.25 9.25 0 109.25 9.25A9.26 9.26 0 009.25 0zm0 16.79a7.54 7.54 0 117.54-7.54 7.55 7.55 0 01-7.54 7.54z"/><path class="cls-2" d="M20.75 19.54l-4.89-4.89a.86.86 0 10-1.21 1.21l4.89 4.89a.86.86 0 001.21-1.21z"/></g></g></symbol><symbol id="small-warning" viewBox="0 0 25.09 23.02"><g id="&#x421;&#x43B;&#x43E;&#x439;_2"><g id="&#x421;&#x43B;&#x43E;&#x439;_1-2"><path class="cls-1" d="M25 21.74L13.39.45a.87.87 0 00-.76-.45.86.86 0 00-.76.45L.11 21.64a.87.87 0 000 .87.9.9 0 00.75.43l23.36.06a.87.87 0 00.78-1.26zM2.34 21.2L12.62 2.67l10.14 18.61z"/><path class="cls-1" d="M11.51 8.88v6.28a1.11 1.11 0 001.09 1.1 1.09 1.09 0 001.09-1.09V8.89a1.09 1.09 0 10-2.17 0zM12.56 17.39a1.15 1.15 0 101.15 1.15 1.15 1.15 0 00-1.15-1.15z"/></g></g></symbol><symbol id="speed" viewBox="0 0 24 19.64"><g id="&#x421;&#x43B;&#x43E;&#x439;_2"><g id="&#x421;&#x43B;&#x43E;&#x439;_1-2"><path class="cls-1" d="M16.75 7.63a1.1 1.1 0 00-1.54 0l-3.11 3.09a2.61 2.61 0 00-.48-.05 2.07 2.07 0 102.08 2.06 1.84 1.84 0 00-.06-.47l3.11-3.1a1.07 1.07 0 000-1.53z"/><path class="cls-1" d="M20.49 3.49a12.08 12.08 0 00-17 0A11.9 11.9 0 002 18.56a1.09 1.09 0 001.51.29 1.06 1.06 0 00.3-1.5A9.79 9.79 0 012.24 13h1a1.09 1.09 0 100-2.17h-1a9.8 9.8 0 012.07-5l.75.73a1.09 1.09 0 001.54 0 1.09 1.09 0 000-1.53l-.75-.74A9.9 9.9 0 0111 2.22v1a1.1 1.1 0 002.19 0v-1a9.86 9.86 0 015 2.08l-.75.74a1.09 1.09 0 000 1.53 1.09 1.09 0 001.54 0l.75-.73a9.8 9.8 0 012.07 5h-1a1.09 1.09 0 100 2.17h1a9.79 9.79 0 01-1.59 4.31 1.09 1.09 0 00.9 1.69 1.1 1.1 0 00.91-.48 11.9 11.9 0 00-1.53-15.04z"/><path class="cls-1" d="M16.92 17.47H7.08a1.09 1.09 0 100 2.17h9.84a1.09 1.09 0 100-2.17z"/></g></g></symbol><symbol id="star" viewBox="0 0 14 13"><g><path d="M14 4.91a.73.73 0 00-.64-.49l-4-.36L7.68.44a.75.75 0 00-1.36 0l-1.6 3.62-4 .36a.73.73 0 00-.72.49.7.7 0 00.21.77l3.1 2.59-.9 3.85a.7.7 0 00.29.74.77.77 0 00.82 0l3.48-2 3.48 2a.76.76 0 00.82 0 .7.7 0 00.29-.74l-.9-3.85 3.06-2.59a.7.7 0 00.25-.77z"/></g></symbol><symbol id="success-icon"><path d="M50 100C22.432 100 0 77.569 0 50 0 22.432 22.432 0 50 0a49.835 49.835 0 0126.973 7.904 3.41 3.41 0 11-3.686 5.741A42.993 42.993 0 0050 6.819C26.19 6.818 6.818 26.191 6.818 50c0 23.81 19.373 43.182 43.182 43.182 23.81 0 43.182-19.373 43.182-43.182 0-1.423-.069-2.832-.2-4.218a3.408 3.408 0 116.787-.659c.154 1.605.231 3.232.231 4.877 0 27.569-22.431 50-50 50z"/><path d="M55.777 62a3.36 3.36 0 01-2.4-1.003l-20.382-20.52a3.438 3.438 0 010-4.839 3.381 3.381 0 014.805 0l17.982 18.104L103.2 6.002a3.382 3.382 0 014.806 0 3.437 3.437 0 010 4.838L58.182 61a3.392 3.392 0 01-2.405.999z"/></symbol><symbol id="support" viewBox="0 0 16 16"><g><path d="M16 9a4 4 0 00-2-3.46 6 6 0 00-12 0A4 4 0 004 13a2 2 0 002-2V7a2 2 0 00-1.86-2h7.72A2 2 0 0010 7v4a2 2 0 00.88 1.66A2 2 0 019 14H7a1 1 0 000 2h2a4 4 0 003.89-3.11A4 4 0 0016 9zm-5.38-6H5.38a3.93 3.93 0 015.24 0zM4 11a2 2 0 010-4zm8 0V7a2 2 0 010 4z"/></g></symbol><symbol id="target" viewBox="0 0 16 15.91"><g><path d="M15.94 3.34a1 1 0 01-.2.3l-2 2a1 1 0 01-1.41 0 1 1 0 010-1.41l.17-.17A6.94 6.94 0 006 10.94a1 1 0 01-1 1 1 1 0 01-1-1c0-.08.1-8.23 8.68-8.86l-.38-.38A1 1 0 0113.71.29l2 2a1 1 0 01.2.3v.09a.74.74 0 01.05.25L16 3a1.2 1.2 0 01-.06.34zM4 4H2v9.94h10V9a1 1 0 012 0v5a2 2 0 01-2 2H2a2 2 0 01-2-2V4a2 2 0 012-2h2a1 1 0 110 2z"/></g></symbol><symbol id="time" viewBox="0 0 16 16"><g id="&#x421;&#x43B;&#x43E;&#x439;_2"><g id="&#x421;&#x43B;&#x43E;&#x439;_1-2"><path class="cls-1" d="M8 16a8 8 0 118-8 8 8 0 01-8 8zM8 1.7A6.3 6.3 0 1014.3 8 6.31 6.31 0 008 1.7z"/><path class="cls-1" d="M10 10.85a.85.85 0 01-.38-.09L7.15 9.53V5a.85.85 0 011.7 0v3.47l1.53.77a.85.85 0 01-.38 1.61z"/></g></g></symbol><symbol id="tinting" viewBox="0 0 28 19"><g id="&#x421;&#x43B;&#x43E;&#x439;_2"><g id="&#x421;&#x43B;&#x43E;&#x439;_1-2"><path class="cls-1" d="M28 19H0V0h15.31a10.83 10.83 0 017.92 2.94c3.06 3 4.66 8.1 4.76 15.3zM1.5 17.5h25c-.21-6.38-1.66-10.91-4.32-13.5a9.34 9.34 0 00-6.87-2.5H1.5z"/><path class="cls-1" d="M25 16.5H4.86L2.5 13.4V2.5H15a8.68 8.68 0 017.06 3.44c1.77 2.25 2.78 5.54 2.92 9.52zm-19.17-2h17.09a13.62 13.62 0 00-2.43-7.33A6.75 6.75 0 0015 4.5H4.47v8.22z"/><path class="cls-1" d="M8.75 14h-1.5v-2.25H5v-1.5h3.75V14z"/></g></g></symbol><symbol id="traffic-police" viewBox="0 0 28 22"><g id="&#x421;&#x43B;&#x43E;&#x439;_2"><g id="&#x421;&#x43B;&#x43E;&#x439;_1-2"><path class="cls-1" d="M25.23 14.44S22 22 14.07 22 2.9 14.44 2.9 14.44a55.12 55.12 0 0011 1.37 59.72 59.72 0 0011.33-1.37zM27.05 6.19C21.19 4.4 16.58 0 14.07 0S7 4.4 1.09 6.19a1.44 1.44 0 00-.84 2.2C1.51 10 2.9 10.18 2.9 12.1a53.35 53.35 0 0011.17 1.38 53.32 53.32 0 0011.16-1.38c0-1.92 1.4-2.06 2.52-3.85a1.36 1.36 0 00-.7-2.06zM14.07 11c-1.54 0-2.79-2.61-2.79-4.12a4.37 4.37 0 012.79-1.38 4.4 4.4 0 012.79 1.38c0 1.51-1.26 4.12-2.79 4.12z"/></g></g></symbol><symbol id="trash" viewBox="0 0 16 16"><g><path d="M15 5h-1v9a2 2 0 01-2 2H4a2 2 0 01-2-2V5H1a1 1 0 010-2h4a3 3 0 016 0h4a1 1 0 010 2zM8 2a1 1 0 00-1 1h2a1 1 0 00-1-1zm4 3H4v9h8zM7 7h2a1 1 0 010 2H7a1 1 0 010-2z"/></g></symbol><symbol id="triangle" viewBox="0 0 9 5.21"><g><path d="M4.5 5.21L.15.85a.48.48 0 010-.7.48.48 0 01.7 0L4.5 3.79 8.15.15a.48.48 0 01.7 0 .48.48 0 010 .7z"/></g></symbol><symbol id="twi" viewBox="0 0 14 11"><g><path d="M4.4 11a8 8 0 008.18-7.9v-.36A5.76 5.76 0 0014 1.3a5.84 5.84 0 01-1.65.44A2.81 2.81 0 0013.61.2a6.15 6.15 0 01-1.82.68A2.94 2.94 0 007.72.76a2.72 2.72 0 00-.83 2.65A8.26 8.26 0 011 .51a2.72 2.72 0 00.89 3.7 3 3 0 01-1.3-.34 2.8 2.8 0 002.3 2.72 2.81 2.81 0 01-1.29 0A2.85 2.85 0 004.25 8.6 5.92 5.92 0 01.68 9.79a5.27 5.27 0 01-.68 0A8.3 8.3 0 004.4 11"/></g></symbol><symbol id="unreadable-signs" viewBox="0 0 34 16"><g id="&#x421;&#x43B;&#x43E;&#x439;_2"><g id="&#x421;&#x43B;&#x43E;&#x439;_1-2"><path class="cls-1" d="M32.11 16H1.89A2 2 0 010 14V2a2 2 0 011.89-2h30.22A2 2 0 0134 2v12a2 2 0 01-1.89 2zM2 14h30V2H2z"/><path class="cls-1" d="M16 4h4v2h-4z"/><path class="cls-1" d="M18 5h2v7h-2zM23 4h4v2h-4zM24 10h4v2h-4z"/><path class="cls-1" d="M26 5h2v2h-2zM24 7h2v2h-2z"/><path class="cls-1" d="M23 8h2v3h-2zM8 4h3v2H8zM8 10h3v2H8zM6 5h2v6H6zM11 5h2v6h-2z"/></g></g></symbol><symbol id="user-data" viewBox="0 0 14 16"><g id="&#x421;&#x43B;&#x43E;&#x439;_2"><g id="&#x421;&#x43B;&#x43E;&#x439;_1-2"><path class="cls-1" d="M12 0H2a2 2 0 00-2 2v12a2 2 0 002 2h10a2 2 0 002-2V2a2 2 0 00-2-2zm0 14H2V2h10z"/><path class="cls-1" d="M6.87 9a4 4 0 013.46 2 3.83 3.83 0 01.41 1H3a3.83 3.83 0 01.41-1 4 4 0 013.46-2zm0-1a2 2 0 112-2 2 2 0 01-2 2z"/></g></g></symbol><symbol id="user" viewBox="0 0 15 15"><g><path d="M14.89 12.51a7.57 7.57 0 00-4.16-4.33 4.56 4.56 0 001.67-3.49A4.74 4.74 0 008.08 0a3.36 3.36 0 00-.58 0 3.36 3.36 0 00-.58 0A4.74 4.74 0 002.6 4.69a4.56 4.56 0 001.67 3.49 7.57 7.57 0 00-4.16 4.33 1.82 1.82 0 00.25 1.7A2 2 0 002 15h11a2 2 0 001.6-.79 1.79 1.79 0 00.29-1.7zM4.56 4.69a2.85 2.85 0 012.64-2.8h.6a2.85 2.85 0 012.64 2.8A2.87 2.87 0 017.5 7.5a2.87 2.87 0 01-2.94-2.81zM2 13.13a5.84 5.84 0 015.5-3.75 5.85 5.85 0 015.5 3.75z"/></g></symbol><symbol id="view" viewBox="0 0 18 11.47"><g id="&#x421;&#x43B;&#x43E;&#x439;_2"><g id="&#x421;&#x43B;&#x43E;&#x439;_1-2"><path class="cls-1" d="M17.89 5.39C17.72 5.17 13.89 0 9 0S.27 5.17.11 5.39a.6.6 0 000 .7c.16.22 4 5.38 8.89 5.38s8.72-5.16 8.89-5.38a.6.6 0 000-.7zM9 10.29c-3.6 0-6.73-3.43-7.65-4.55.92-1.13 4-4.55 7.65-4.55s6.73 3.43 7.65 4.55c-.92 1.12-4.04 4.55-7.65 4.55z"/><path class="cls-1" d="M9 2.18a3.56 3.56 0 103.56 3.56A3.56 3.56 0 009 2.18zm0 5.93a2.38 2.38 0 112.37-2.37A2.37 2.37 0 019 8.11z"/></g></g></symbol><symbol id="vk" viewBox="0 0 511.96 292.11"><g><path d="M250.5 290.88h30.6s9.24-1 13.95-6.11c4.35-4.67 4.19-13.44 4.19-13.44s-.61-41.06 18.46-47.1c18.79-6 42.92 39.68 68.48 57.24 19.33 13.28 34 10.37 34 10.37l68.38-1s35.78-2.21 18.82-30.33c-1.38-2.31-9.89-20.8-50.85-58.82-42.88-39.81-37.12-33.34 14.53-102.18 31.46-41.92 44-67.52 40.1-78.46-3.75-10.43-26.88-7.68-26.88-7.68l-76.93.45s-5.7-.77-9.95 1.76-6.79 8.25-6.79 8.25-12.19 32.45-28.45 60c-34.27 58.2-48 61.28-53.6 57.66-13-8.42-9.76-33.86-9.76-51.9 0-56.42 8.55-79.94-16.67-86-8.38-2-14.53-3.36-35.93-3.58-27.46-.29-50.72.09-63.88 6.52-8.74 4.35-15.5 13.92-11.32 14.47 5.09.68 16.61 3.11 22.72 11.43 7.91 10.72 7.62 34.85 7.62 34.85s4.54 66.4-10.59 74.65c-10.4 5.67-24.64-5.89-55.2-58.72-15.65-27-27.49-57-27.49-57s-2.27-5.57-6.34-8.54c-4.93-3.62-11.84-4.77-11.84-4.77l-73.15.45s-11 .32-15 5.09c-3.58 4.25-.29 13-.29 13S58.66 165.47 123.5 233c59.48 61.92 127 57.85 127 57.85z"/></g></symbol><symbol id="wallet" viewBox="0 0 26 23.83"><g><path d="M22.75 4.33V3.25A3.26 3.26 0 0019.5 0H3.25A3.26 3.26 0 000 3.25v17.33a3.25 3.25 0 003.25 3.25h19.5A3.25 3.25 0 0026 20.58v-13a3.26 3.26 0 00-3.25-3.25zM3.25 2.17H19.5a1.08 1.08 0 011.08 1.08v1.08H3.25a1.08 1.08 0 010-2.16zm19.5 19.5H3.25a1.08 1.08 0 01-1.08-1.09V6.31a3.23 3.23 0 001.08.19h19.5a1.08 1.08 0 011.08 1.08v2.71h-5.95a3.8 3.8 0 100 7.59h5.95v2.7a1.08 1.08 0 01-1.08 1.09zm1.08-6H21.3a3.75 3.75 0 000-3.25h2.53zm-7.58-1.63a1.63 1.63 0 111.63 1.63 1.63 1.63 0 01-1.63-1.59z" opacity=".99"/></g></symbol><symbol id="wanted" viewBox="0 0 16 16"><g><path d="M14 0H2a2 2 0 00-2 2v12a2 2 0 002 2h12a2 2 0 002-2V2a2 2 0 00-2-2zM4 14a5 5 0 018 0zm2-6a2 2 0 112 2 2 2 0 01-2-2zm8 6a2 2 0 00-.38-1.2A7.13 7.13 0 0011 10.67a4 4 0 10-5.94 0H5a7.13 7.13 0 00-2.6 2.13A2 2 0 002 14V2h12z"/></g></symbol><symbol id="warning-romb" viewBox="0 0 19 19"><g><path d="M13 19H6a1.05 1.05 0 01-.71-.29l-5-5A1.05 1.05 0 010 13V6a1.05 1.05 0 01.29-.71l5-5A1.05 1.05 0 016 0h7a1.05 1.05 0 01.71.29l5 5A1.05 1.05 0 0119 6v7a1.05 1.05 0 01-.29.71l-5 5A1.05 1.05 0 0113 19zm-6.6-2h6.2l4.4-4.4V6.4L12.6 2H6.4L2 6.4v6.2zm3.11-3.1a1 1 0 110-2 1 1 0 010 2zm0-3.4a1 1 0 01-1-1V6.1a1 1 0 012 0v3.4a1 1 0 01-1.01 1z"/></g></symbol><symbol id="warning" viewBox="0 0 22 19.36"><g id="&#x421;&#x43B;&#x43E;&#x439;_2"><g id="&#x421;&#x43B;&#x43E;&#x439;_1-2"><path class="cls-1" d="M21.91 18.27L11.67.38a.78.78 0 00-1.34 0L.09 18.27a.71.71 0 000 .73.76.76 0 00.65.36h20.5a.76.76 0 00.65-.36.71.71 0 00.02-.73zM2.05 17.9L11 2.25l9 15.65z"/><path class="cls-1" d="M10.05 7.48v5.3a1 1 0 001.9 0v-5.3a1 1 0 00-1.9 0zM11 14.65a1 1 0 101 1 1 1 0 00-1-1z"/></g></g></symbol><symbol id="youtube" viewBox="0 0 512 352"><g><path d="M490.24 33.92c-13.89-24.7-29-29.25-59.65-31C399.94.86 322.85 0 256.06 0S112 .86 81.41 2.91c-30.63 1.76-45.73 6.27-59.75 31C7.36 58.59 0 101.09 0 175.9v.26c0 74.5 7.36 117.31 21.66 141.73 14 24.7 29.09 29.18 59.72 31.26C112 350.94 189.15 352 256.06 352s143.88-1.06 174.56-2.82c30.69-2.08 45.76-6.56 59.65-31.26C504.7 293.5 512 250.69 512 176.19v-.25c0-74.85-7.3-117.35-21.76-142.02zM192 272V80l160 96z"/></g></symbol></svg>