<svg width="16" height="16" viewBox="0 0 16 16" fill="none" xmlns="http://www.w3.org/2000/svg">
<path d="M7.978 3.33491e-05C6.4001 3.33491e-05 4.85764 0.467935 3.54566 1.34457C2.23369 2.2212 1.21113 3.4672 0.607293 4.92498C0.00345671 6.38277 -0.154534 7.98688 0.153299 9.53446C0.461132 11.082 1.22096 12.5036 2.33671 13.6193C3.45245 14.7351 4.87399 15.4949 6.42157 15.8027C7.96915 16.1106 9.57326 15.9526 11.0311 15.3487C12.4888 14.7449 13.7348 13.7223 14.6115 12.4104C15.4881 11.0984 15.956 9.55593 15.956 7.97803C15.959 6.9295 15.7548 5.8907 15.3549 4.9214C14.955 3.95209 14.3675 3.0714 13.6261 2.32997C12.8846 1.58853 12.0039 1.001 11.0346 0.601139C10.0653 0.201282 9.02654 -0.00300266 7.978 3.33491e-05ZM12.583 5.47603L6.783 11.496C6.75111 11.5315 6.71187 11.5597 6.66801 11.5785C6.62414 11.5973 6.57671 11.6064 6.529 11.605C6.48087 11.6102 6.43222 11.6029 6.38773 11.5838C6.34325 11.5647 6.30443 11.5345 6.275 11.496L3.445 8.44903L3.372 8.37603C3.33764 8.34326 3.31028 8.30384 3.29158 8.26018C3.27289 8.21653 3.26325 8.16953 3.26325 8.12203C3.26325 8.07454 3.27289 8.02754 3.29158 7.98388C3.31028 7.94022 3.33764 7.90081 3.372 7.86803L3.88 7.36003C3.91278 7.32567 3.95219 7.29831 3.99585 7.27961C4.03951 7.26092 4.08651 7.25128 4.134 7.25128C4.1815 7.25128 4.2285 7.26092 4.27215 7.27961C4.31581 7.29831 4.35523 7.32567 4.388 7.36003L4.424 7.39603L6.419 9.53603C6.43536 9.55328 6.45505 9.56702 6.47688 9.57641C6.49872 9.58579 6.52224 9.59063 6.546 9.59063C6.56977 9.59063 6.59329 9.58579 6.61512 9.57641C6.63696 9.56702 6.65665 9.55328 6.673 9.53603L11.532 4.50003H11.568C11.6008 4.46567 11.6402 4.43831 11.6839 4.41961C11.7275 4.40092 11.7745 4.39128 11.822 4.39128C11.8695 4.39128 11.9165 4.40092 11.9602 4.41961C12.0038 4.43831 12.0432 4.46567 12.076 4.50003L12.584 5.00003C12.6182 5.02904 12.6456 5.06513 12.6644 5.10579C12.6832 5.14646 12.693 5.19073 12.693 5.23553C12.693 5.28034 12.6832 5.32461 12.6644 5.36527C12.6456 5.40594 12.6182 5.44203 12.584 5.47103L12.583 5.47603Z" fill="#36AB80"/>
</svg>
