<svg width="66" height="66" viewBox="0 0 66 66" fill="none" xmlns="http://www.w3.org/2000/svg">
<circle cx="33" cy="33" r="33" fill="white"/>
<circle cx="33" cy="33" r="29" fill="white" stroke="#265DCE" stroke-width="5"/>
<path d="M33.109 25.4549C33.109 26.4078 32.3271 27.1803 31.3626 27.1803C30.398 27.1803 29.6161 26.4078 29.6161 25.4549C29.6161 24.5021 30.398 23.7296 31.3626 23.7296C32.3271 23.7296 33.109 24.5021 33.109 25.4549Z" fill="black"/>
<path d="M28.5735 37.4549C28.5735 39.4033 26.9746 40.9828 25.0024 40.9828C23.0301 40.9828 21.4313 39.4033 21.4313 37.4549C21.4313 35.5065 23.0301 33.927 25.0024 33.927C26.9746 33.927 28.5735 35.5065 28.5735 37.4549Z" fill="black"/>
<path fill-rule="evenodd" clip-rule="evenodd" d="M20.6493 21C18.6338 21 17 22.6141 17 24.6052V41.3948C17 43.3859 18.6338 45 20.6493 45H33.6303C35.6458 45 37.2796 43.3859 37.2796 41.3948V24.6052C37.2796 22.6141 35.6458 21 33.6303 21H20.6493ZM34.1517 25.4549C34.1517 26.9767 32.9029 28.2103 31.3626 28.2103C29.8222 28.2103 28.5735 26.9767 28.5735 25.4549C28.5735 23.9332 29.8222 22.6996 31.3626 22.6996C32.9029 22.6996 34.1517 23.9332 34.1517 25.4549ZM30.0853 37.4549C30.0853 40.2282 27.8096 42.4764 25.0024 42.4764C22.1951 42.4764 19.9194 40.2282 19.9194 37.4549C19.9194 34.6817 22.1951 32.4335 25.0024 32.4335C27.8096 32.4335 30.0853 34.6817 30.0853 37.4549Z" fill="black"/>
<path d="M38.5308 24.9142H40.1991V38.4592H38.5308V24.9142Z" fill="black"/>
<path d="M41.1896 25.5837H42.8578V38.4592H41.1896V25.5837Z" fill="black"/>
<path d="M45.5166 39.4378V41.0858H38.5308V39.4378H45.5166Z" fill="black"/>
<path d="M43.8483 27.5408H45.5166V41.0858H43.8483V27.5408Z" fill="black"/>
<path d="M45.5166 29.7554H50V37.4292H45.5166V29.7554Z" fill="black"/>
</svg>
