<svg width="21" height="21" viewBox="0 0 21 21" fill="none" xmlns="http://www.w3.org/2000/svg">
<path d="M9.68333 6.53333C9.8 6.53333 9.8 6.53333 9.68333 6.53333C9.8 6.06667 9.91667 5.83333 9.91667 5.48333V5.25C10.0333 4.66667 10.0333 4.2 9.91667 4.08333C9.91667 4.08333 9.91667 4.08333 9.91667 3.96667L9.8 3.85C9.8 3.85 9.8 3.96667 9.68333 3.96667C9.45 4.66667 9.45 5.48333 9.68333 6.53333ZM6.18333 14.5833C5.95 14.7 5.71667 14.8167 5.6 14.9333C4.78333 15.6333 4.2 16.45 4.08333 16.8C4.78333 16.6833 5.48333 15.9833 6.18333 14.5833C6.3 14.5833 6.3 14.5833 6.18333 14.5833ZM16.9167 12.8333C16.8 12.7167 16.3333 12.3667 14.7 12.3667C14.5833 12.3667 14.5833 12.3667 14.4667 12.3667C14.4667 12.3667 14.4667 12.3667 14.4667 12.4833C15.2833 12.8333 16.1 13.0667 16.6833 13.0667C16.8 13.0667 16.8 13.0667 16.9167 13.0667H17.0333C17.0333 13.0667 17.0333 13.0667 17.0333 12.95C17.0333 12.95 16.9167 12.95 16.9167 12.8333ZM18.6667 0H2.33333C1.05 0 0 1.05 0 2.33333V18.6667C0 19.95 1.05 21 2.33333 21H18.6667C19.95 21 21 19.95 21 18.6667V2.33333C21 1.05 19.95 0 18.6667 0ZM17.3833 13.7667C17.15 13.8833 16.8 14 16.3333 14C15.4 14 14 13.7667 12.8333 13.1833C10.85 13.4167 9.33333 13.65 8.16667 14.1166C8.05 14.1166 8.05 14.1166 7.93333 14.2333C6.53333 16.6833 5.36667 17.85 4.43333 17.85C4.2 17.85 4.08333 17.85 3.96667 17.7333L3.38333 17.3833V17.2667C3.26667 17.0333 3.26667 16.9167 3.26667 16.6833C3.38333 16.1 4.08333 15.05 5.48333 14.2333C5.71667 14.1166 6.06667 13.8833 6.53333 13.65C6.88333 13.0666 7.23333 12.3666 7.7 11.55C8.28333 10.3833 8.63333 9.21667 8.98333 8.16667C8.51667 6.76667 8.28333 5.95 8.75 4.31667C8.86667 3.85 9.21667 3.38333 9.68333 3.38333H9.91667C10.15 3.38333 10.3833 3.5 10.6167 3.61667C11.4334 4.43333 11.0833 6.3 10.6167 7.81667C10.6167 7.93333 10.6167 7.93333 10.6167 7.93333C11.0833 9.21667 11.7833 10.2667 12.4833 10.9667C12.8333 11.2 13.0667 11.4333 13.5333 11.6667C14.1167 11.6667 14.5833 11.55 15.05 11.55C16.45 11.55 17.3833 11.7833 17.7333 12.3667C17.85 12.6 17.85 12.8333 17.85 13.0667C17.7333 13.1833 17.6167 13.5333 17.3833 13.7667ZM9.8 9.21667C9.56667 10.0333 9.1 10.9667 8.63333 12.0167C8.4 12.4833 8.16667 12.8333 7.93333 13.3H8.16667C9.68333 12.7167 11.0833 12.3667 12.0167 12.25C11.7833 12.1333 11.6667 12.0167 11.55 11.9C10.9667 11.2 10.2667 10.2667 9.8 9.21667Z" fill="#F50000"/>
</svg>
