<svg xmlns="http://www.w3.org/2000/svg" viewBox="0 0 33.6 42"><defs><style>.cls-1{fill:#333;fill-opacity:0.2;}.cls-2{fill:#fff;}.cls-3{fill:#265dce;}</style></defs><title>pin</title><g id="Слой_2" data-name="Слой 2"><g id="Слой_1-2" data-name="Слой 1"><path class="cls-1" d="M16.8,42c4.64,0,8.4-1.25,8.4-2.8s-3.76-2.8-8.4-2.8-8.4,1.25-8.4,2.8S12.16,42,16.8,42Z"/><path d="M0,16.8a16.8,16.8,0,0,1,33.6,0A17.23,17.23,0,0,1,23,32.41,10.61,10.61,0,0,0,17.1,38.6c-.07.19-.19.6-.3.6s-.24-.41-.3-.6c-.36-1.27-1.77-4.26-6-6.19A17.17,17.17,0,0,1,0,16.8Z"/><path class="cls-2" d="M0,16.8a16.8,16.8,0,0,1,33.6,0A17.23,17.23,0,0,1,23,32.41,10.61,10.61,0,0,0,17.1,38.6c-.07.19-.19.6-.3.6s-.24-.41-.3-.6c-.36-1.27-1.77-4.26-6-6.19A17.17,17.17,0,0,1,0,16.8Z"/><path class="cls-3" d="M2.8,16.81A13.86,13.86,0,0,1,16.8,3.1a13.86,13.86,0,0,1,14,13.71A14.09,14.09,0,0,1,22,29.56a8.3,8.3,0,0,0-4.79,5.06c-.05.15-.15.48-.4.48s-.36-.33-.4-.48a8.11,8.11,0,0,0-4.87-5.06A14,14,0,0,1,2.8,16.81Z"/></g></g></svg>