<svg width="18" height="16" viewBox="0 0 18 16" fill="none" xmlns="http://www.w3.org/2000/svg">
<path d="M17.2306 13.6538L9.67658 0.568802C9.57656 0.395841 9.4328 0.252234 9.25973 0.152395C9.08666 0.0525566 8.89038 0 8.69058 0C8.49078 0 8.2945 0.0525566 8.12143 0.152395C7.94836 0.252234 7.8046 0.395841 7.70458 0.568802L0.151581 13.6538C0.0520748 13.827 -0.000196345 14.0232 5.54218e-07 14.2229C0.000197453 14.4226 0.0528555 14.6188 0.152702 14.7918C0.252549 14.9647 0.396081 15.1084 0.568928 15.2085C0.741774 15.3085 0.93787 15.3614 1.13758 15.3618H16.2446C16.4443 15.3614 16.6404 15.3085 16.8132 15.2085C16.9861 15.1084 17.1296 14.9647 17.2295 14.7918C17.3293 14.6188 17.382 14.4226 17.3822 14.2229C17.3824 14.0232 17.3301 13.827 17.2306 13.6538ZM8.69758 4.5978C8.8127 4.59803 8.92662 4.62129 9.03262 4.66621C9.13862 4.71113 9.23456 4.7768 9.31479 4.85936C9.39502 4.94192 9.45792 5.0397 9.49979 5.14694C9.54166 5.25418 9.56165 5.36872 9.55858 5.4838L9.41658 10.4528C9.40962 10.6398 9.33046 10.8168 9.19572 10.9466C9.06099 11.0764 8.88118 11.1489 8.69408 11.1489C8.50698 11.1489 8.32717 11.0764 8.19244 10.9466C8.0577 10.8168 7.97854 10.6398 7.97158 10.4528L7.83258 5.4838C7.82992 5.36849 7.85032 5.25381 7.89258 5.14648C7.93484 5.03916 7.99812 4.94137 8.0787 4.85883C8.15927 4.7763 8.25552 4.7107 8.3618 4.66587C8.46808 4.62105 8.58224 4.5979 8.69758 4.5978ZM8.68658 13.5858C8.50858 13.5858 8.33457 13.533 8.18657 13.4341C8.03856 13.3352 7.92321 13.1947 7.85509 13.0302C7.78697 12.8658 7.76915 12.6848 7.80387 12.5102C7.8386 12.3356 7.92432 12.1753 8.05018 12.0494C8.17605 11.9235 8.33642 11.8378 8.511 11.8031C8.68558 11.7684 8.86654 11.7862 9.031 11.8543C9.19545 11.9224 9.33601 12.0378 9.4349 12.1858C9.5338 12.3338 9.58658 12.5078 9.58658 12.6858C9.58658 12.9238 9.49231 13.1521 9.32439 13.3208C9.15647 13.4895 8.92858 13.5847 8.69058 13.5858H8.68658Z" fill="#F50000"/>
</svg>
