<svg xmlns="http://www.w3.org/2000/svg" viewBox="0 0 512 352"><defs><style>.cls-1{fill:#f44336;}.cls-2{fill:#fafafa;}</style></defs><title>youtube</title><g id="Слой_2" data-name="Слой 2"><g id="Capa_1" data-name="Capa 1"><path class="cls-1" d="M490.24,33.92c-13.89-24.7-29-29.25-59.65-31C399.94.86,322.85,0,256.06,0S112,.86,81.41,2.91c-30.63,1.76-45.73,6.27-59.75,31C7.36,58.59,0,101.09,0,175.9v.26c0,74.5,7.36,117.31,21.66,141.73,14,24.7,29.09,29.18,59.72,31.26C112,350.94,189.15,352,256.06,352s143.88-1.06,174.56-2.82c30.69-2.08,45.76-6.56,59.65-31.26C504.7,293.5,512,250.69,512,176.19v-.25C512,101.09,504.7,58.59,490.24,33.92Z"/><polygon class="cls-2" points="192 272 192 80 352 176 192 272"/></g></g></svg>